G04 #@! TF.GenerationSoftware,KiCad,Pcbnew,8.0.8-8.0.8-0~ubuntu20.04.1*
G04 #@! TF.CreationDate,2025-01-21T23:34:15+05:30*
G04 #@! TF.ProjectId,hds_rpi,6864735f-7270-4692-9e6b-696361645f70,rev?*
G04 #@! TF.SameCoordinates,Original*
G04 #@! TF.FileFunction,Soldermask,Bot*
G04 #@! TF.FilePolarity,Negative*
%FSLAX46Y46*%
G04 Gerber Fmt 4.6, Leading zero omitted, Abs format (unit mm)*
G04 Created by KiCad (PCBNEW 8.0.8-8.0.8-0~ubuntu20.04.1) date 2025-01-21 23:34:15*
%MOMM*%
%LPD*%
G01*
G04 APERTURE LIST*
G04 Aperture macros list*
%AMRoundRect*
0 Rectangle with rounded corners*
0 $1 Rounding radius*
0 $2 $3 $4 $5 $6 $7 $8 $9 X,Y pos of 4 corners*
0 Add a 4 corners polygon primitive as box body*
4,1,4,$2,$3,$4,$5,$6,$7,$8,$9,$2,$3,0*
0 Add four circle primitives for the rounded corners*
1,1,$1+$1,$2,$3*
1,1,$1+$1,$4,$5*
1,1,$1+$1,$6,$7*
1,1,$1+$1,$8,$9*
0 Add four rect primitives between the rounded corners*
20,1,$1+$1,$2,$3,$4,$5,0*
20,1,$1+$1,$4,$5,$6,$7,0*
20,1,$1+$1,$6,$7,$8,$9,0*
20,1,$1+$1,$8,$9,$2,$3,0*%
G04 Aperture macros list end*
%ADD10R,1.700000X1.700000*%
%ADD11O,1.700000X1.700000*%
%ADD12C,1.100000*%
%ADD13R,2.200000X2.200000*%
%ADD14C,2.200000*%
%ADD15RoundRect,0.250000X-0.400000X-0.625000X0.400000X-0.625000X0.400000X0.625000X-0.400000X0.625000X0*%
%ADD16RoundRect,0.250000X0.700000X-0.362500X0.700000X0.362500X-0.700000X0.362500X-0.700000X-0.362500X0*%
%ADD17RoundRect,0.250000X0.625000X-0.400000X0.625000X0.400000X-0.625000X0.400000X-0.625000X-0.400000X0*%
%ADD18R,0.300000X1.600000*%
G04 APERTURE END LIST*
D10*
X97070000Y-78000000D03*
D11*
X94530000Y-78000000D03*
X91990000Y-78000000D03*
D10*
X88180000Y-78000000D03*
D11*
X85640000Y-78000000D03*
X83100000Y-78000000D03*
D12*
X132384800Y-73812400D03*
X132384800Y-71272400D03*
D13*
X129844800Y-73812400D03*
D14*
X129844800Y-71272400D03*
D10*
X105960000Y-78000000D03*
D11*
X103420000Y-78000000D03*
X100880000Y-78000000D03*
D10*
X114850000Y-78000000D03*
D11*
X112310000Y-78000000D03*
X109770000Y-78000000D03*
D10*
X123740000Y-78000000D03*
D11*
X121200000Y-78000000D03*
X118660000Y-78000000D03*
D15*
X85350000Y-65200000D03*
X88450000Y-65200000D03*
X105950000Y-65200000D03*
X109050000Y-65200000D03*
X126550000Y-65200000D03*
X129650000Y-65200000D03*
D16*
X125000000Y-62862500D03*
X125000000Y-59537500D03*
D15*
X126550000Y-67600000D03*
X129650000Y-67600000D03*
X95750000Y-65200000D03*
X98850000Y-65200000D03*
D16*
X94200000Y-62862500D03*
X94200000Y-59537500D03*
D17*
X131100000Y-62850000D03*
X131100000Y-59750000D03*
D15*
X105950000Y-67600000D03*
X109050000Y-67600000D03*
X95750000Y-67600000D03*
X98850000Y-67600000D03*
D18*
X106525000Y-59500000D03*
X107175000Y-59500000D03*
X107825000Y-59500000D03*
X108475000Y-59500000D03*
X108475000Y-62900000D03*
X107825000Y-62900000D03*
X107175000Y-62900000D03*
X106525000Y-62900000D03*
X85925000Y-59500000D03*
X86575000Y-59500000D03*
X87225000Y-59500000D03*
X87875000Y-59500000D03*
X87875000Y-62900000D03*
X87225000Y-62900000D03*
X86575000Y-62900000D03*
X85925000Y-62900000D03*
D16*
X104400000Y-62862500D03*
X104400000Y-59537500D03*
D18*
X127125000Y-59500000D03*
X127775000Y-59500000D03*
X128425000Y-59500000D03*
X129075000Y-59500000D03*
X129075000Y-62900000D03*
X128425000Y-62900000D03*
X127775000Y-62900000D03*
X127125000Y-62900000D03*
D17*
X89900000Y-62850000D03*
X89900000Y-59750000D03*
D16*
X114800000Y-62862500D03*
X114800000Y-59537500D03*
X83800000Y-62862500D03*
X83800000Y-59537500D03*
D10*
X83058000Y-55016400D03*
D11*
X83058000Y-52476400D03*
X85598000Y-55016400D03*
X85598000Y-52476400D03*
X88138000Y-55016400D03*
X88138000Y-52476400D03*
X90678000Y-55016400D03*
X90678000Y-52476400D03*
X93218000Y-55016400D03*
X93218000Y-52476400D03*
X95758000Y-55016400D03*
X95758000Y-52476400D03*
X98298000Y-55016400D03*
X98298000Y-52476400D03*
X100838000Y-55016400D03*
X100838000Y-52476400D03*
X103378000Y-55016400D03*
X103378000Y-52476400D03*
X105918000Y-55016400D03*
X105918000Y-52476400D03*
X108458000Y-55016400D03*
X108458000Y-52476400D03*
X110998000Y-55016400D03*
X110998000Y-52476400D03*
X113538000Y-55016400D03*
X113538000Y-52476400D03*
X116078000Y-55016400D03*
X116078000Y-52476400D03*
X118618000Y-55016400D03*
X118618000Y-52476400D03*
X121158000Y-55016400D03*
X121158000Y-52476400D03*
X123698000Y-55016400D03*
X123698000Y-52476400D03*
X126238000Y-55016400D03*
X126238000Y-52476400D03*
X128778000Y-55016400D03*
X128778000Y-52476400D03*
X131318000Y-55016400D03*
X131318000Y-52476400D03*
D17*
X100300000Y-62850000D03*
X100300000Y-59750000D03*
D15*
X116350000Y-67600000D03*
X119450000Y-67600000D03*
D17*
X120900000Y-62850000D03*
X120900000Y-59750000D03*
D18*
X116925000Y-59500000D03*
X117575000Y-59500000D03*
X118225000Y-59500000D03*
X118875000Y-59500000D03*
X118875000Y-62900000D03*
X118225000Y-62900000D03*
X117575000Y-62900000D03*
X116925000Y-62900000D03*
X96325000Y-59500000D03*
X96975000Y-59500000D03*
X97625000Y-59500000D03*
X98275000Y-59500000D03*
X98275000Y-62900000D03*
X97625000Y-62900000D03*
X96975000Y-62900000D03*
X96325000Y-62900000D03*
D17*
X110500000Y-62850000D03*
X110500000Y-59750000D03*
D15*
X116350000Y-65200000D03*
X119450000Y-65200000D03*
X85350000Y-67600000D03*
X88450000Y-67600000D03*
M02*
