G04 #@! TF.GenerationSoftware,KiCad,Pcbnew,8.0.8-8.0.8-0~ubuntu20.04.1*
G04 #@! TF.CreationDate,2025-01-21T23:34:14+05:30*
G04 #@! TF.ProjectId,hds_rpi,6864735f-7270-4692-9e6b-696361645f70,rev?*
G04 #@! TF.SameCoordinates,Original*
G04 #@! TF.FileFunction,Copper,L2,Inr*
G04 #@! TF.FilePolarity,Positive*
%FSLAX46Y46*%
G04 Gerber Fmt 4.6, Leading zero omitted, Abs format (unit mm)*
G04 Created by KiCad (PCBNEW 8.0.8-8.0.8-0~ubuntu20.04.1) date 2025-01-21 23:34:14*
%MOMM*%
%LPD*%
G01*
G04 APERTURE LIST*
G04 #@! TA.AperFunction,ComponentPad*
%ADD10R,1.700000X1.700000*%
G04 #@! TD*
G04 #@! TA.AperFunction,ComponentPad*
%ADD11O,1.700000X1.700000*%
G04 #@! TD*
G04 #@! TA.AperFunction,ComponentPad*
%ADD12R,2.200000X2.200000*%
G04 #@! TD*
G04 #@! TA.AperFunction,ComponentPad*
%ADD13C,2.200000*%
G04 #@! TD*
G04 #@! TA.AperFunction,ViaPad*
%ADD14C,0.600000*%
G04 #@! TD*
G04 #@! TA.AperFunction,Conductor*
%ADD15C,0.500000*%
G04 #@! TD*
G04 #@! TA.AperFunction,Conductor*
%ADD16C,0.250000*%
G04 #@! TD*
G04 APERTURE END LIST*
D10*
X97070000Y-78000000D03*
D11*
X94530000Y-78000000D03*
X91990000Y-78000000D03*
D10*
X88180000Y-78000000D03*
D11*
X85640000Y-78000000D03*
X83100000Y-78000000D03*
D12*
X129844800Y-73812400D03*
D13*
X129844800Y-71272400D03*
D10*
X105960000Y-78000000D03*
D11*
X103420000Y-78000000D03*
X100880000Y-78000000D03*
D10*
X114850000Y-78000000D03*
D11*
X112310000Y-78000000D03*
X109770000Y-78000000D03*
D10*
X123740000Y-78000000D03*
D11*
X121200000Y-78000000D03*
X118660000Y-78000000D03*
D10*
X83058000Y-55016400D03*
D11*
X83058000Y-52476400D03*
X85598000Y-55016400D03*
X85598000Y-52476400D03*
X88138000Y-55016400D03*
X88138000Y-52476400D03*
X90678000Y-55016400D03*
X90678000Y-52476400D03*
X93218000Y-55016400D03*
X93218000Y-52476400D03*
X95758000Y-55016400D03*
X95758000Y-52476400D03*
X98298000Y-55016400D03*
X98298000Y-52476400D03*
X100838000Y-55016400D03*
X100838000Y-52476400D03*
X103378000Y-55016400D03*
X103378000Y-52476400D03*
X105918000Y-55016400D03*
X105918000Y-52476400D03*
X108458000Y-55016400D03*
X108458000Y-52476400D03*
X110998000Y-55016400D03*
X110998000Y-52476400D03*
X113538000Y-55016400D03*
X113538000Y-52476400D03*
X116078000Y-55016400D03*
X116078000Y-52476400D03*
X118618000Y-55016400D03*
X118618000Y-52476400D03*
X121158000Y-55016400D03*
X121158000Y-52476400D03*
X123698000Y-55016400D03*
X123698000Y-52476400D03*
X126238000Y-55016400D03*
X126238000Y-52476400D03*
X128778000Y-55016400D03*
X128778000Y-52476400D03*
X131318000Y-55016400D03*
X131318000Y-52476400D03*
D14*
X104775000Y-56388000D03*
X124841000Y-65659000D03*
X97409000Y-57785000D03*
X82550000Y-65405000D03*
X83693000Y-72644000D03*
X104267000Y-69596000D03*
X86487000Y-69723000D03*
X101854000Y-71374000D03*
X82550000Y-70231000D03*
X132588000Y-53467000D03*
X107188000Y-70231000D03*
X117983000Y-71628000D03*
X132334000Y-79121000D03*
X99695000Y-69469000D03*
X128270000Y-67691000D03*
X125095000Y-72390000D03*
X113411000Y-72771000D03*
X102235000Y-60960000D03*
X130048000Y-51308000D03*
X124587000Y-69850000D03*
X120650000Y-66548000D03*
X132588000Y-56642000D03*
X107061000Y-72771000D03*
X114808000Y-51308000D03*
X132461000Y-67564000D03*
X85979000Y-56896000D03*
X109728000Y-51308000D03*
X87757000Y-72644000D03*
X96901000Y-71374000D03*
X99568000Y-56134000D03*
X122301000Y-72644000D03*
X101981000Y-58039000D03*
X112141000Y-56515000D03*
X115570000Y-72771000D03*
X122900000Y-62900000D03*
X108200000Y-70700000D03*
X132700000Y-62900000D03*
X102300000Y-62900000D03*
X87200000Y-70800000D03*
X112600000Y-62900000D03*
X92000000Y-62900000D03*
X82300000Y-62900000D03*
X87122000Y-67437000D03*
X107696000Y-67310000D03*
X127635000Y-56388000D03*
X118237000Y-65278000D03*
X127700000Y-64560588D03*
X97663000Y-65278000D03*
X89800000Y-67500000D03*
X89200000Y-72500000D03*
X90500000Y-68100000D03*
X96834310Y-72898000D03*
X90500000Y-72517000D03*
X106000000Y-72600000D03*
X91800000Y-67700000D03*
X92921702Y-67921702D03*
X114808000Y-68725000D03*
X123000000Y-67800000D03*
X110300000Y-67651000D03*
X85090000Y-58547000D03*
X88900000Y-69088000D03*
X88600000Y-64000000D03*
X92926861Y-62010518D03*
X85558000Y-61200000D03*
X90678837Y-63984094D03*
X119500000Y-62600000D03*
X100100000Y-65200000D03*
X107900000Y-65200000D03*
X116274998Y-62100000D03*
X109100000Y-62900000D03*
X116400000Y-59500000D03*
X120800000Y-65200000D03*
X130900000Y-65200000D03*
X126500000Y-59500000D03*
X88400000Y-62900000D03*
X95700000Y-59400000D03*
X98900000Y-61600000D03*
X110500000Y-64100000D03*
X104100000Y-61000000D03*
X129709124Y-63825001D03*
X113500000Y-64200000D03*
X129600000Y-62900000D03*
X112141000Y-59817000D03*
X94361000Y-67437000D03*
X112161771Y-68286000D03*
X92475000Y-69372702D03*
X122174000Y-59690000D03*
X121412000Y-68961000D03*
X97663000Y-61341000D03*
X131318000Y-66294000D03*
X110744000Y-72263000D03*
X132588000Y-59690000D03*
D15*
X83058000Y-62142000D02*
X82300000Y-62900000D01*
X83058000Y-55016400D02*
X83058000Y-62142000D01*
D16*
X90500000Y-68100000D02*
X90500000Y-72517000D01*
G04 #@! TA.AperFunction,Conductor*
G36*
X109307944Y-50812185D02*
G01*
X109353699Y-50864989D01*
X109363643Y-50934147D01*
X109334618Y-50997703D01*
X109302623Y-51034627D01*
X109302622Y-51034628D01*
X109242834Y-51165543D01*
X109222353Y-51308000D01*
X109242834Y-51450456D01*
X109247639Y-51460976D01*
X109257583Y-51530135D01*
X109228558Y-51593690D01*
X109169780Y-51631465D01*
X109099910Y-51631465D01*
X109056181Y-51608342D01*
X109050598Y-51603760D01*
X109044450Y-51598715D01*
X108861954Y-51501168D01*
X108663934Y-51441100D01*
X108663932Y-51441099D01*
X108663934Y-51441099D01*
X108458000Y-51420817D01*
X108252067Y-51441099D01*
X108054043Y-51501169D01*
X107943898Y-51560043D01*
X107871550Y-51598715D01*
X107871548Y-51598716D01*
X107871547Y-51598717D01*
X107711589Y-51729989D01*
X107580317Y-51889947D01*
X107482769Y-52072443D01*
X107422699Y-52270467D01*
X107402417Y-52476400D01*
X107422699Y-52682332D01*
X107452734Y-52781344D01*
X107482768Y-52880354D01*
X107580315Y-53062850D01*
X107580317Y-53062852D01*
X107711589Y-53222810D01*
X107808209Y-53302102D01*
X107871550Y-53354085D01*
X108054046Y-53451632D01*
X108252066Y-53511700D01*
X108252065Y-53511700D01*
X108270529Y-53513518D01*
X108458000Y-53531983D01*
X108663934Y-53511700D01*
X108861954Y-53451632D01*
X109044450Y-53354085D01*
X109204410Y-53222810D01*
X109335685Y-53062850D01*
X109433232Y-52880354D01*
X109493300Y-52682334D01*
X109513583Y-52476400D01*
X109493300Y-52270466D01*
X109433232Y-52072446D01*
X109363602Y-51942180D01*
X109349361Y-51873778D01*
X109374361Y-51808534D01*
X109430665Y-51767163D01*
X109500399Y-51762801D01*
X109509329Y-51765820D01*
X109509437Y-51765455D01*
X109656036Y-51808499D01*
X109656038Y-51808500D01*
X109656039Y-51808500D01*
X109799962Y-51808500D01*
X109799962Y-51808499D01*
X109863103Y-51789960D01*
X109946563Y-51765455D01*
X109947500Y-51768648D01*
X110000603Y-51760977D01*
X110064178Y-51789960D01*
X110101992Y-51848712D01*
X110102039Y-51918582D01*
X110092396Y-51942180D01*
X110022769Y-52072441D01*
X109962699Y-52270467D01*
X109942417Y-52476400D01*
X109962699Y-52682332D01*
X109992734Y-52781344D01*
X110022768Y-52880354D01*
X110120315Y-53062850D01*
X110120317Y-53062852D01*
X110251589Y-53222810D01*
X110348209Y-53302102D01*
X110411550Y-53354085D01*
X110594046Y-53451632D01*
X110792066Y-53511700D01*
X110792065Y-53511700D01*
X110810529Y-53513518D01*
X110998000Y-53531983D01*
X111203934Y-53511700D01*
X111401954Y-53451632D01*
X111584450Y-53354085D01*
X111744410Y-53222810D01*
X111875685Y-53062850D01*
X111973232Y-52880354D01*
X112033300Y-52682334D01*
X112053583Y-52476400D01*
X112033300Y-52270466D01*
X111973232Y-52072446D01*
X111875685Y-51889950D01*
X111776136Y-51768648D01*
X111744410Y-51729989D01*
X111596183Y-51608344D01*
X111584450Y-51598715D01*
X111401954Y-51501168D01*
X111203934Y-51441100D01*
X111203932Y-51441099D01*
X111203934Y-51441099D01*
X110998000Y-51420817D01*
X110792067Y-51441099D01*
X110594043Y-51501169D01*
X110411544Y-51598718D01*
X110399815Y-51608344D01*
X110335505Y-51635655D01*
X110266637Y-51623861D01*
X110215079Y-51576707D01*
X110197199Y-51509164D01*
X110208361Y-51460976D01*
X110213165Y-51450457D01*
X110233647Y-51308000D01*
X110213165Y-51165543D01*
X110153377Y-51034627D01*
X110121381Y-50997701D01*
X110092357Y-50934147D01*
X110102301Y-50864989D01*
X110148056Y-50812185D01*
X110215095Y-50792500D01*
X114320905Y-50792500D01*
X114387944Y-50812185D01*
X114433699Y-50864989D01*
X114443643Y-50934147D01*
X114414618Y-50997703D01*
X114382623Y-51034627D01*
X114382622Y-51034628D01*
X114322834Y-51165543D01*
X114302353Y-51308000D01*
X114322834Y-51450456D01*
X114327639Y-51460976D01*
X114337583Y-51530135D01*
X114308558Y-51593690D01*
X114249780Y-51631465D01*
X114179910Y-51631465D01*
X114136181Y-51608342D01*
X114130598Y-51603760D01*
X114124450Y-51598715D01*
X113941954Y-51501168D01*
X113743934Y-51441100D01*
X113743932Y-51441099D01*
X113743934Y-51441099D01*
X113538000Y-51420817D01*
X113332067Y-51441099D01*
X113134043Y-51501169D01*
X113023898Y-51560043D01*
X112951550Y-51598715D01*
X112951548Y-51598716D01*
X112951547Y-51598717D01*
X112791589Y-51729989D01*
X112660317Y-51889947D01*
X112562769Y-52072443D01*
X112502699Y-52270467D01*
X112482417Y-52476400D01*
X112502699Y-52682332D01*
X112532734Y-52781344D01*
X112562768Y-52880354D01*
X112660315Y-53062850D01*
X112660317Y-53062852D01*
X112791589Y-53222810D01*
X112888209Y-53302102D01*
X112951550Y-53354085D01*
X113134046Y-53451632D01*
X113332066Y-53511700D01*
X113332065Y-53511700D01*
X113350529Y-53513518D01*
X113538000Y-53531983D01*
X113743934Y-53511700D01*
X113941954Y-53451632D01*
X114124450Y-53354085D01*
X114284410Y-53222810D01*
X114415685Y-53062850D01*
X114513232Y-52880354D01*
X114573300Y-52682334D01*
X114593583Y-52476400D01*
X114573300Y-52270466D01*
X114513232Y-52072446D01*
X114443602Y-51942180D01*
X114429361Y-51873778D01*
X114454361Y-51808534D01*
X114510665Y-51767163D01*
X114580399Y-51762801D01*
X114589329Y-51765820D01*
X114589437Y-51765455D01*
X114736036Y-51808499D01*
X114736038Y-51808500D01*
X114736039Y-51808500D01*
X114879962Y-51808500D01*
X114879962Y-51808499D01*
X114943103Y-51789960D01*
X115026563Y-51765455D01*
X115027500Y-51768648D01*
X115080603Y-51760977D01*
X115144178Y-51789960D01*
X115181992Y-51848712D01*
X115182039Y-51918582D01*
X115172396Y-51942180D01*
X115102769Y-52072441D01*
X115042699Y-52270467D01*
X115022417Y-52476400D01*
X115042699Y-52682332D01*
X115072734Y-52781344D01*
X115102768Y-52880354D01*
X115200315Y-53062850D01*
X115200317Y-53062852D01*
X115331589Y-53222810D01*
X115428209Y-53302102D01*
X115491550Y-53354085D01*
X115674046Y-53451632D01*
X115872066Y-53511700D01*
X115872065Y-53511700D01*
X115890529Y-53513518D01*
X116078000Y-53531983D01*
X116283934Y-53511700D01*
X116481954Y-53451632D01*
X116664450Y-53354085D01*
X116824410Y-53222810D01*
X116955685Y-53062850D01*
X117053232Y-52880354D01*
X117113300Y-52682334D01*
X117133583Y-52476400D01*
X117562417Y-52476400D01*
X117582699Y-52682332D01*
X117612734Y-52781344D01*
X117642768Y-52880354D01*
X117740315Y-53062850D01*
X117740317Y-53062852D01*
X117871589Y-53222810D01*
X117968209Y-53302102D01*
X118031550Y-53354085D01*
X118214046Y-53451632D01*
X118412066Y-53511700D01*
X118412065Y-53511700D01*
X118430529Y-53513518D01*
X118618000Y-53531983D01*
X118823934Y-53511700D01*
X119021954Y-53451632D01*
X119204450Y-53354085D01*
X119364410Y-53222810D01*
X119495685Y-53062850D01*
X119593232Y-52880354D01*
X119653300Y-52682334D01*
X119673583Y-52476400D01*
X120102417Y-52476400D01*
X120122699Y-52682332D01*
X120152734Y-52781344D01*
X120182768Y-52880354D01*
X120280315Y-53062850D01*
X120280317Y-53062852D01*
X120411589Y-53222810D01*
X120508209Y-53302102D01*
X120571550Y-53354085D01*
X120754046Y-53451632D01*
X120952066Y-53511700D01*
X120952065Y-53511700D01*
X120970529Y-53513518D01*
X121158000Y-53531983D01*
X121363934Y-53511700D01*
X121561954Y-53451632D01*
X121744450Y-53354085D01*
X121904410Y-53222810D01*
X122035685Y-53062850D01*
X122133232Y-52880354D01*
X122193300Y-52682334D01*
X122213583Y-52476400D01*
X122642417Y-52476400D01*
X122662699Y-52682332D01*
X122692734Y-52781344D01*
X122722768Y-52880354D01*
X122820315Y-53062850D01*
X122820317Y-53062852D01*
X122951589Y-53222810D01*
X123048209Y-53302102D01*
X123111550Y-53354085D01*
X123294046Y-53451632D01*
X123492066Y-53511700D01*
X123492065Y-53511700D01*
X123510529Y-53513518D01*
X123698000Y-53531983D01*
X123903934Y-53511700D01*
X124101954Y-53451632D01*
X124284450Y-53354085D01*
X124444410Y-53222810D01*
X124575685Y-53062850D01*
X124673232Y-52880354D01*
X124733300Y-52682334D01*
X124753583Y-52476400D01*
X125182417Y-52476400D01*
X125202699Y-52682332D01*
X125232734Y-52781344D01*
X125262768Y-52880354D01*
X125360315Y-53062850D01*
X125360317Y-53062852D01*
X125491589Y-53222810D01*
X125588209Y-53302102D01*
X125651550Y-53354085D01*
X125834046Y-53451632D01*
X126032066Y-53511700D01*
X126032065Y-53511700D01*
X126050529Y-53513518D01*
X126238000Y-53531983D01*
X126443934Y-53511700D01*
X126641954Y-53451632D01*
X126824450Y-53354085D01*
X126984410Y-53222810D01*
X127115685Y-53062850D01*
X127213232Y-52880354D01*
X127273300Y-52682334D01*
X127293583Y-52476400D01*
X127273300Y-52270466D01*
X127213232Y-52072446D01*
X127115685Y-51889950D01*
X127016136Y-51768648D01*
X126984410Y-51729989D01*
X126836183Y-51608344D01*
X126824450Y-51598715D01*
X126641954Y-51501168D01*
X126443934Y-51441100D01*
X126443932Y-51441099D01*
X126443934Y-51441099D01*
X126238000Y-51420817D01*
X126032067Y-51441099D01*
X125834043Y-51501169D01*
X125723898Y-51560043D01*
X125651550Y-51598715D01*
X125651548Y-51598716D01*
X125651547Y-51598717D01*
X125491589Y-51729989D01*
X125360317Y-51889947D01*
X125262769Y-52072443D01*
X125202699Y-52270467D01*
X125182417Y-52476400D01*
X124753583Y-52476400D01*
X124733300Y-52270466D01*
X124673232Y-52072446D01*
X124575685Y-51889950D01*
X124476136Y-51768648D01*
X124444410Y-51729989D01*
X124296183Y-51608344D01*
X124284450Y-51598715D01*
X124101954Y-51501168D01*
X123903934Y-51441100D01*
X123903932Y-51441099D01*
X123903934Y-51441099D01*
X123698000Y-51420817D01*
X123492067Y-51441099D01*
X123294043Y-51501169D01*
X123183898Y-51560043D01*
X123111550Y-51598715D01*
X123111548Y-51598716D01*
X123111547Y-51598717D01*
X122951589Y-51729989D01*
X122820317Y-51889947D01*
X122722769Y-52072443D01*
X122662699Y-52270467D01*
X122642417Y-52476400D01*
X122213583Y-52476400D01*
X122193300Y-52270466D01*
X122133232Y-52072446D01*
X122035685Y-51889950D01*
X121936136Y-51768648D01*
X121904410Y-51729989D01*
X121756183Y-51608344D01*
X121744450Y-51598715D01*
X121561954Y-51501168D01*
X121363934Y-51441100D01*
X121363932Y-51441099D01*
X121363934Y-51441099D01*
X121158000Y-51420817D01*
X120952067Y-51441099D01*
X120754043Y-51501169D01*
X120643898Y-51560043D01*
X120571550Y-51598715D01*
X120571548Y-51598716D01*
X120571547Y-51598717D01*
X120411589Y-51729989D01*
X120280317Y-51889947D01*
X120182769Y-52072443D01*
X120122699Y-52270467D01*
X120102417Y-52476400D01*
X119673583Y-52476400D01*
X119653300Y-52270466D01*
X119593232Y-52072446D01*
X119495685Y-51889950D01*
X119396136Y-51768648D01*
X119364410Y-51729989D01*
X119216183Y-51608344D01*
X119204450Y-51598715D01*
X119021954Y-51501168D01*
X118823934Y-51441100D01*
X118823932Y-51441099D01*
X118823934Y-51441099D01*
X118618000Y-51420817D01*
X118412067Y-51441099D01*
X118214043Y-51501169D01*
X118103898Y-51560043D01*
X118031550Y-51598715D01*
X118031548Y-51598716D01*
X118031547Y-51598717D01*
X117871589Y-51729989D01*
X117740317Y-51889947D01*
X117642769Y-52072443D01*
X117582699Y-52270467D01*
X117562417Y-52476400D01*
X117133583Y-52476400D01*
X117113300Y-52270466D01*
X117053232Y-52072446D01*
X116955685Y-51889950D01*
X116856136Y-51768648D01*
X116824410Y-51729989D01*
X116676183Y-51608344D01*
X116664450Y-51598715D01*
X116481954Y-51501168D01*
X116283934Y-51441100D01*
X116283932Y-51441099D01*
X116283934Y-51441099D01*
X116078000Y-51420817D01*
X115872067Y-51441099D01*
X115674043Y-51501169D01*
X115491544Y-51598718D01*
X115479815Y-51608344D01*
X115415505Y-51635655D01*
X115346637Y-51623861D01*
X115295079Y-51576707D01*
X115277199Y-51509164D01*
X115288361Y-51460976D01*
X115293165Y-51450457D01*
X115313647Y-51308000D01*
X115293165Y-51165543D01*
X115233377Y-51034627D01*
X115201381Y-50997701D01*
X115172357Y-50934147D01*
X115182301Y-50864989D01*
X115228056Y-50812185D01*
X115295095Y-50792500D01*
X129560905Y-50792500D01*
X129627944Y-50812185D01*
X129673699Y-50864989D01*
X129683643Y-50934147D01*
X129654618Y-50997703D01*
X129622623Y-51034627D01*
X129622622Y-51034628D01*
X129562834Y-51165543D01*
X129542353Y-51308000D01*
X129562834Y-51450456D01*
X129567639Y-51460976D01*
X129577583Y-51530135D01*
X129548558Y-51593690D01*
X129489780Y-51631465D01*
X129419910Y-51631465D01*
X129376181Y-51608342D01*
X129370598Y-51603760D01*
X129364450Y-51598715D01*
X129181954Y-51501168D01*
X128983934Y-51441100D01*
X128983932Y-51441099D01*
X128983934Y-51441099D01*
X128778000Y-51420817D01*
X128572067Y-51441099D01*
X128374043Y-51501169D01*
X128263898Y-51560043D01*
X128191550Y-51598715D01*
X128191548Y-51598716D01*
X128191547Y-51598717D01*
X128031589Y-51729989D01*
X127900317Y-51889947D01*
X127802769Y-52072443D01*
X127742699Y-52270467D01*
X127722417Y-52476400D01*
X127742699Y-52682332D01*
X127772734Y-52781344D01*
X127802768Y-52880354D01*
X127900315Y-53062850D01*
X127900317Y-53062852D01*
X128031589Y-53222810D01*
X128128209Y-53302102D01*
X128191550Y-53354085D01*
X128374046Y-53451632D01*
X128572066Y-53511700D01*
X128572065Y-53511700D01*
X128590529Y-53513518D01*
X128778000Y-53531983D01*
X128983934Y-53511700D01*
X129181954Y-53451632D01*
X129364450Y-53354085D01*
X129524410Y-53222810D01*
X129655685Y-53062850D01*
X129753232Y-52880354D01*
X129813300Y-52682334D01*
X129833583Y-52476400D01*
X129813300Y-52270466D01*
X129753232Y-52072446D01*
X129683602Y-51942180D01*
X129669361Y-51873778D01*
X129694361Y-51808534D01*
X129750665Y-51767163D01*
X129820399Y-51762801D01*
X129829329Y-51765820D01*
X129829437Y-51765455D01*
X129976036Y-51808499D01*
X129976038Y-51808500D01*
X129976039Y-51808500D01*
X130119962Y-51808500D01*
X130119962Y-51808499D01*
X130183103Y-51789960D01*
X130266563Y-51765455D01*
X130267500Y-51768648D01*
X130320603Y-51760977D01*
X130384178Y-51789960D01*
X130421992Y-51848712D01*
X130422039Y-51918582D01*
X130412396Y-51942180D01*
X130342769Y-52072441D01*
X130282699Y-52270467D01*
X130262417Y-52476400D01*
X130282699Y-52682332D01*
X130312734Y-52781344D01*
X130342768Y-52880354D01*
X130440315Y-53062850D01*
X130440317Y-53062852D01*
X130571589Y-53222810D01*
X130668209Y-53302102D01*
X130731550Y-53354085D01*
X130914046Y-53451632D01*
X131112066Y-53511700D01*
X131112065Y-53511700D01*
X131130529Y-53513518D01*
X131318000Y-53531983D01*
X131523934Y-53511700D01*
X131721954Y-53451632D01*
X131899900Y-53356516D01*
X131968302Y-53342275D01*
X132033546Y-53367275D01*
X132074917Y-53423579D01*
X132081009Y-53458233D01*
X132081091Y-53458222D01*
X132081465Y-53460827D01*
X132082353Y-53465875D01*
X132082353Y-53466999D01*
X132102834Y-53609456D01*
X132142073Y-53695375D01*
X132162623Y-53740373D01*
X132256872Y-53849143D01*
X132377947Y-53926953D01*
X132377950Y-53926954D01*
X132377949Y-53926954D01*
X132516036Y-53967499D01*
X132516038Y-53967500D01*
X132516039Y-53967500D01*
X132659962Y-53967500D01*
X132659962Y-53967499D01*
X132798050Y-53926954D01*
X132798051Y-53926954D01*
X132837701Y-53901473D01*
X132912460Y-53853427D01*
X132979500Y-53833743D01*
X133046539Y-53853427D01*
X133092294Y-53906231D01*
X133103500Y-53957743D01*
X133103500Y-56151256D01*
X133083815Y-56218295D01*
X133031011Y-56264050D01*
X132961853Y-56273994D01*
X132912461Y-56255572D01*
X132843581Y-56211306D01*
X132798053Y-56182047D01*
X132798051Y-56182046D01*
X132798049Y-56182045D01*
X132798050Y-56182045D01*
X132659963Y-56141500D01*
X132659961Y-56141500D01*
X132516039Y-56141500D01*
X132516036Y-56141500D01*
X132377949Y-56182045D01*
X132256873Y-56259856D01*
X132162623Y-56368626D01*
X132162622Y-56368628D01*
X132102834Y-56499543D01*
X132082353Y-56642000D01*
X132102834Y-56784456D01*
X132162622Y-56915371D01*
X132162623Y-56915373D01*
X132256872Y-57024143D01*
X132377947Y-57101953D01*
X132377950Y-57101954D01*
X132377949Y-57101954D01*
X132516036Y-57142499D01*
X132516038Y-57142500D01*
X132516039Y-57142500D01*
X132659962Y-57142500D01*
X132659962Y-57142499D01*
X132798050Y-57101954D01*
X132798051Y-57101954D01*
X132912460Y-57028428D01*
X132979500Y-57008743D01*
X133046539Y-57028427D01*
X133092294Y-57081231D01*
X133103500Y-57132743D01*
X133103500Y-59199256D01*
X133083815Y-59266295D01*
X133031011Y-59312050D01*
X132961853Y-59321994D01*
X132912461Y-59303572D01*
X132854456Y-59266295D01*
X132798053Y-59230047D01*
X132798051Y-59230046D01*
X132798049Y-59230045D01*
X132798050Y-59230045D01*
X132659963Y-59189500D01*
X132659961Y-59189500D01*
X132516039Y-59189500D01*
X132516036Y-59189500D01*
X132377949Y-59230045D01*
X132256873Y-59307856D01*
X132162623Y-59416626D01*
X132162622Y-59416628D01*
X132102834Y-59547543D01*
X132082353Y-59690000D01*
X132102834Y-59832456D01*
X132162622Y-59963371D01*
X132162623Y-59963373D01*
X132256872Y-60072143D01*
X132377947Y-60149953D01*
X132377950Y-60149954D01*
X132377949Y-60149954D01*
X132516036Y-60190499D01*
X132516038Y-60190500D01*
X132516039Y-60190500D01*
X132659962Y-60190500D01*
X132659962Y-60190499D01*
X132798050Y-60149954D01*
X132798051Y-60149954D01*
X132890762Y-60090373D01*
X132912460Y-60076427D01*
X132979500Y-60056743D01*
X133046539Y-60076427D01*
X133092294Y-60129231D01*
X133103500Y-60180743D01*
X133103500Y-67208743D01*
X133083815Y-67275782D01*
X133031011Y-67321537D01*
X132961853Y-67331481D01*
X132898297Y-67302456D01*
X132885787Y-67289946D01*
X132867512Y-67268856D01*
X132792128Y-67181857D01*
X132671053Y-67104047D01*
X132671051Y-67104046D01*
X132671049Y-67104045D01*
X132671050Y-67104045D01*
X132532963Y-67063500D01*
X132532961Y-67063500D01*
X132389039Y-67063500D01*
X132389036Y-67063500D01*
X132250949Y-67104045D01*
X132129873Y-67181856D01*
X132035623Y-67290626D01*
X132035622Y-67290628D01*
X131975834Y-67421543D01*
X131955353Y-67564000D01*
X131975834Y-67706456D01*
X132030715Y-67826626D01*
X132035623Y-67837373D01*
X132129872Y-67946143D01*
X132250947Y-68023953D01*
X132250950Y-68023954D01*
X132250949Y-68023954D01*
X132358107Y-68055417D01*
X132387874Y-68064158D01*
X132389036Y-68064499D01*
X132389038Y-68064500D01*
X132389039Y-68064500D01*
X132532962Y-68064500D01*
X132532962Y-68064499D01*
X132671053Y-68023953D01*
X132792128Y-67946143D01*
X132885787Y-67838054D01*
X132944565Y-67800279D01*
X133014434Y-67800279D01*
X133073213Y-67838053D01*
X133102238Y-67901608D01*
X133103500Y-67919256D01*
X133103500Y-70559659D01*
X133083815Y-70626698D01*
X133031011Y-70672453D01*
X132961853Y-70682397D01*
X132900048Y-70654171D01*
X132899799Y-70654476D01*
X132898650Y-70653533D01*
X132898297Y-70653372D01*
X132897132Y-70652287D01*
X132895088Y-70650610D01*
X132763985Y-70563009D01*
X132763972Y-70563002D01*
X132618301Y-70502664D01*
X132618289Y-70502661D01*
X132463645Y-70471900D01*
X132463642Y-70471900D01*
X132305958Y-70471900D01*
X132305955Y-70471900D01*
X132151310Y-70502661D01*
X132151298Y-70502664D01*
X132005627Y-70563002D01*
X132005614Y-70563009D01*
X131874511Y-70650610D01*
X131874507Y-70650613D01*
X131763013Y-70762107D01*
X131763010Y-70762111D01*
X131675409Y-70893214D01*
X131675402Y-70893227D01*
X131615064Y-71038898D01*
X131615061Y-71038910D01*
X131584300Y-71193553D01*
X131584300Y-71351246D01*
X131615061Y-71505889D01*
X131615064Y-71505901D01*
X131675402Y-71651572D01*
X131675409Y-71651585D01*
X131763010Y-71782688D01*
X131763013Y-71782692D01*
X131874507Y-71894186D01*
X131874511Y-71894189D01*
X132005614Y-71981790D01*
X132005627Y-71981797D01*
X132146252Y-72040045D01*
X132151303Y-72042137D01*
X132305953Y-72072899D01*
X132305956Y-72072900D01*
X132305958Y-72072900D01*
X132463644Y-72072900D01*
X132463645Y-72072899D01*
X132618297Y-72042137D01*
X132763979Y-71981794D01*
X132895089Y-71894189D01*
X132895093Y-71894184D01*
X132899799Y-71890324D01*
X132901373Y-71892242D01*
X132953142Y-71863975D01*
X133022834Y-71868959D01*
X133078767Y-71910831D01*
X133103184Y-71976295D01*
X133103500Y-71985141D01*
X133103500Y-73099659D01*
X133083815Y-73166698D01*
X133031011Y-73212453D01*
X132961853Y-73222397D01*
X132900048Y-73194171D01*
X132899799Y-73194476D01*
X132898650Y-73193533D01*
X132898297Y-73193372D01*
X132897132Y-73192287D01*
X132895088Y-73190610D01*
X132763985Y-73103009D01*
X132763972Y-73103002D01*
X132618301Y-73042664D01*
X132618289Y-73042661D01*
X132463645Y-73011900D01*
X132463642Y-73011900D01*
X132305958Y-73011900D01*
X132305955Y-73011900D01*
X132151310Y-73042661D01*
X132151298Y-73042664D01*
X132005627Y-73103002D01*
X132005614Y-73103009D01*
X131874511Y-73190610D01*
X131874507Y-73190613D01*
X131763013Y-73302107D01*
X131763010Y-73302111D01*
X131675409Y-73433214D01*
X131675402Y-73433227D01*
X131615064Y-73578898D01*
X131615061Y-73578910D01*
X131584300Y-73733553D01*
X131584300Y-73891246D01*
X131615061Y-74045889D01*
X131615064Y-74045901D01*
X131675402Y-74191572D01*
X131675409Y-74191585D01*
X131763010Y-74322688D01*
X131763013Y-74322692D01*
X131874507Y-74434186D01*
X131874511Y-74434189D01*
X132005614Y-74521790D01*
X132005627Y-74521797D01*
X132151298Y-74582135D01*
X132151303Y-74582137D01*
X132305953Y-74612899D01*
X132305956Y-74612900D01*
X132305958Y-74612900D01*
X132463644Y-74612900D01*
X132463645Y-74612899D01*
X132618297Y-74582137D01*
X132763979Y-74521794D01*
X132895089Y-74434189D01*
X132895093Y-74434184D01*
X132899799Y-74430324D01*
X132901373Y-74432242D01*
X132953142Y-74403975D01*
X133022834Y-74408959D01*
X133078767Y-74450831D01*
X133103184Y-74516295D01*
X133103500Y-74525141D01*
X133103500Y-79667500D01*
X133083815Y-79734539D01*
X133031011Y-79780294D01*
X132979500Y-79791500D01*
X132638741Y-79791500D01*
X132571702Y-79771815D01*
X132525947Y-79719011D01*
X132516003Y-79649853D01*
X132545028Y-79586297D01*
X132571702Y-79563184D01*
X132665128Y-79503143D01*
X132759377Y-79394373D01*
X132819165Y-79263457D01*
X132839647Y-79121000D01*
X132819165Y-78978543D01*
X132759377Y-78847627D01*
X132665128Y-78738857D01*
X132544053Y-78661047D01*
X132544051Y-78661046D01*
X132544049Y-78661045D01*
X132544050Y-78661045D01*
X132405963Y-78620500D01*
X132405961Y-78620500D01*
X132262039Y-78620500D01*
X132262036Y-78620500D01*
X132123949Y-78661045D01*
X132002873Y-78738856D01*
X131908623Y-78847626D01*
X131908622Y-78847628D01*
X131848834Y-78978543D01*
X131828353Y-79121000D01*
X131848834Y-79263456D01*
X131908622Y-79394371D01*
X131908623Y-79394373D01*
X132002872Y-79503143D01*
X132096298Y-79563184D01*
X132142053Y-79615988D01*
X132151997Y-79685147D01*
X132122972Y-79748703D01*
X132064194Y-79786477D01*
X132029259Y-79791500D01*
X81904500Y-79791500D01*
X81837461Y-79771815D01*
X81791706Y-79719011D01*
X81780500Y-79667500D01*
X81780500Y-78000000D01*
X82044417Y-78000000D01*
X82064699Y-78205932D01*
X82064700Y-78205934D01*
X82124768Y-78403954D01*
X82222315Y-78586450D01*
X82222317Y-78586452D01*
X82353589Y-78746410D01*
X82450209Y-78825702D01*
X82513550Y-78877685D01*
X82696046Y-78975232D01*
X82894066Y-79035300D01*
X82894065Y-79035300D01*
X82912529Y-79037118D01*
X83100000Y-79055583D01*
X83305934Y-79035300D01*
X83503954Y-78975232D01*
X83686450Y-78877685D01*
X83846410Y-78746410D01*
X83977685Y-78586450D01*
X84075232Y-78403954D01*
X84135300Y-78205934D01*
X84155583Y-78000000D01*
X84584417Y-78000000D01*
X84604699Y-78205932D01*
X84604700Y-78205934D01*
X84664768Y-78403954D01*
X84762315Y-78586450D01*
X84762317Y-78586452D01*
X84893589Y-78746410D01*
X84990209Y-78825702D01*
X85053550Y-78877685D01*
X85236046Y-78975232D01*
X85434066Y-79035300D01*
X85434065Y-79035300D01*
X85452529Y-79037118D01*
X85640000Y-79055583D01*
X85845934Y-79035300D01*
X86043954Y-78975232D01*
X86226450Y-78877685D01*
X86386410Y-78746410D01*
X86517685Y-78586450D01*
X86615232Y-78403954D01*
X86675300Y-78205934D01*
X86695583Y-78000000D01*
X86675300Y-77794066D01*
X86615232Y-77596046D01*
X86517685Y-77413550D01*
X86465702Y-77350209D01*
X86386410Y-77253589D01*
X86236121Y-77130252D01*
X86236115Y-77130247D01*
X87129500Y-77130247D01*
X87129500Y-78869752D01*
X87141131Y-78928229D01*
X87141132Y-78928230D01*
X87185447Y-78994552D01*
X87251769Y-79038867D01*
X87251770Y-79038868D01*
X87310247Y-79050499D01*
X87310250Y-79050500D01*
X87310252Y-79050500D01*
X89049750Y-79050500D01*
X89049751Y-79050499D01*
X89064568Y-79047552D01*
X89108229Y-79038868D01*
X89108229Y-79038867D01*
X89108231Y-79038867D01*
X89174552Y-78994552D01*
X89218867Y-78928231D01*
X89218867Y-78928229D01*
X89218868Y-78928229D01*
X89230499Y-78869752D01*
X89230500Y-78869750D01*
X89230500Y-78000000D01*
X90934417Y-78000000D01*
X90954699Y-78205932D01*
X90954700Y-78205934D01*
X91014768Y-78403954D01*
X91112315Y-78586450D01*
X91112317Y-78586452D01*
X91243589Y-78746410D01*
X91340209Y-78825702D01*
X91403550Y-78877685D01*
X91586046Y-78975232D01*
X91784066Y-79035300D01*
X91784065Y-79035300D01*
X91802529Y-79037118D01*
X91990000Y-79055583D01*
X92195934Y-79035300D01*
X92393954Y-78975232D01*
X92576450Y-78877685D01*
X92736410Y-78746410D01*
X92867685Y-78586450D01*
X92965232Y-78403954D01*
X93025300Y-78205934D01*
X93045583Y-78000000D01*
X93474417Y-78000000D01*
X93494699Y-78205932D01*
X93494700Y-78205934D01*
X93554768Y-78403954D01*
X93652315Y-78586450D01*
X93652317Y-78586452D01*
X93783589Y-78746410D01*
X93880209Y-78825702D01*
X93943550Y-78877685D01*
X94126046Y-78975232D01*
X94324066Y-79035300D01*
X94324065Y-79035300D01*
X94342529Y-79037118D01*
X94530000Y-79055583D01*
X94735934Y-79035300D01*
X94933954Y-78975232D01*
X95116450Y-78877685D01*
X95276410Y-78746410D01*
X95407685Y-78586450D01*
X95505232Y-78403954D01*
X95565300Y-78205934D01*
X95585583Y-78000000D01*
X95565300Y-77794066D01*
X95505232Y-77596046D01*
X95407685Y-77413550D01*
X95355702Y-77350209D01*
X95276410Y-77253589D01*
X95126121Y-77130252D01*
X95126115Y-77130247D01*
X96019500Y-77130247D01*
X96019500Y-78869752D01*
X96031131Y-78928229D01*
X96031132Y-78928230D01*
X96075447Y-78994552D01*
X96141769Y-79038867D01*
X96141770Y-79038868D01*
X96200247Y-79050499D01*
X96200250Y-79050500D01*
X96200252Y-79050500D01*
X97939750Y-79050500D01*
X97939751Y-79050499D01*
X97954568Y-79047552D01*
X97998229Y-79038868D01*
X97998229Y-79038867D01*
X97998231Y-79038867D01*
X98064552Y-78994552D01*
X98108867Y-78928231D01*
X98108867Y-78928229D01*
X98108868Y-78928229D01*
X98120499Y-78869752D01*
X98120500Y-78869750D01*
X98120500Y-78000000D01*
X99824417Y-78000000D01*
X99844699Y-78205932D01*
X99844700Y-78205934D01*
X99904768Y-78403954D01*
X100002315Y-78586450D01*
X100002317Y-78586452D01*
X100133589Y-78746410D01*
X100230209Y-78825702D01*
X100293550Y-78877685D01*
X100476046Y-78975232D01*
X100674066Y-79035300D01*
X100674065Y-79035300D01*
X100692529Y-79037118D01*
X100880000Y-79055583D01*
X101085934Y-79035300D01*
X101283954Y-78975232D01*
X101466450Y-78877685D01*
X101626410Y-78746410D01*
X101757685Y-78586450D01*
X101855232Y-78403954D01*
X101915300Y-78205934D01*
X101935583Y-78000000D01*
X102364417Y-78000000D01*
X102384699Y-78205932D01*
X102384700Y-78205934D01*
X102444768Y-78403954D01*
X102542315Y-78586450D01*
X102542317Y-78586452D01*
X102673589Y-78746410D01*
X102770209Y-78825702D01*
X102833550Y-78877685D01*
X103016046Y-78975232D01*
X103214066Y-79035300D01*
X103214065Y-79035300D01*
X103232529Y-79037118D01*
X103420000Y-79055583D01*
X103625934Y-79035300D01*
X103823954Y-78975232D01*
X104006450Y-78877685D01*
X104166410Y-78746410D01*
X104297685Y-78586450D01*
X104395232Y-78403954D01*
X104455300Y-78205934D01*
X104475583Y-78000000D01*
X104455300Y-77794066D01*
X104395232Y-77596046D01*
X104297685Y-77413550D01*
X104245702Y-77350209D01*
X104166410Y-77253589D01*
X104016121Y-77130252D01*
X104016115Y-77130247D01*
X104909500Y-77130247D01*
X104909500Y-78869752D01*
X104921131Y-78928229D01*
X104921132Y-78928230D01*
X104965447Y-78994552D01*
X105031769Y-79038867D01*
X105031770Y-79038868D01*
X105090247Y-79050499D01*
X105090250Y-79050500D01*
X105090252Y-79050500D01*
X106829750Y-79050500D01*
X106829751Y-79050499D01*
X106844568Y-79047552D01*
X106888229Y-79038868D01*
X106888229Y-79038867D01*
X106888231Y-79038867D01*
X106954552Y-78994552D01*
X106998867Y-78928231D01*
X106998867Y-78928229D01*
X106998868Y-78928229D01*
X107010499Y-78869752D01*
X107010500Y-78869750D01*
X107010500Y-78000000D01*
X108714417Y-78000000D01*
X108734699Y-78205932D01*
X108734700Y-78205934D01*
X108794768Y-78403954D01*
X108892315Y-78586450D01*
X108892317Y-78586452D01*
X109023589Y-78746410D01*
X109120209Y-78825702D01*
X109183550Y-78877685D01*
X109366046Y-78975232D01*
X109564066Y-79035300D01*
X109564065Y-79035300D01*
X109582529Y-79037118D01*
X109770000Y-79055583D01*
X109975934Y-79035300D01*
X110173954Y-78975232D01*
X110356450Y-78877685D01*
X110516410Y-78746410D01*
X110647685Y-78586450D01*
X110745232Y-78403954D01*
X110805300Y-78205934D01*
X110825583Y-78000000D01*
X111254417Y-78000000D01*
X111274699Y-78205932D01*
X111274700Y-78205934D01*
X111334768Y-78403954D01*
X111432315Y-78586450D01*
X111432317Y-78586452D01*
X111563589Y-78746410D01*
X111660209Y-78825702D01*
X111723550Y-78877685D01*
X111906046Y-78975232D01*
X112104066Y-79035300D01*
X112104065Y-79035300D01*
X112122529Y-79037118D01*
X112310000Y-79055583D01*
X112515934Y-79035300D01*
X112713954Y-78975232D01*
X112896450Y-78877685D01*
X113056410Y-78746410D01*
X113187685Y-78586450D01*
X113285232Y-78403954D01*
X113345300Y-78205934D01*
X113365583Y-78000000D01*
X113345300Y-77794066D01*
X113285232Y-77596046D01*
X113187685Y-77413550D01*
X113135702Y-77350209D01*
X113056410Y-77253589D01*
X112906121Y-77130252D01*
X112906115Y-77130247D01*
X113799500Y-77130247D01*
X113799500Y-78869752D01*
X113811131Y-78928229D01*
X113811132Y-78928230D01*
X113855447Y-78994552D01*
X113921769Y-79038867D01*
X113921770Y-79038868D01*
X113980247Y-79050499D01*
X113980250Y-79050500D01*
X113980252Y-79050500D01*
X115719750Y-79050500D01*
X115719751Y-79050499D01*
X115734568Y-79047552D01*
X115778229Y-79038868D01*
X115778229Y-79038867D01*
X115778231Y-79038867D01*
X115844552Y-78994552D01*
X115888867Y-78928231D01*
X115888867Y-78928229D01*
X115888868Y-78928229D01*
X115900499Y-78869752D01*
X115900500Y-78869750D01*
X115900500Y-78000000D01*
X117604417Y-78000000D01*
X117624699Y-78205932D01*
X117624700Y-78205934D01*
X117684768Y-78403954D01*
X117782315Y-78586450D01*
X117782317Y-78586452D01*
X117913589Y-78746410D01*
X118010209Y-78825702D01*
X118073550Y-78877685D01*
X118256046Y-78975232D01*
X118454066Y-79035300D01*
X118454065Y-79035300D01*
X118472529Y-79037118D01*
X118660000Y-79055583D01*
X118865934Y-79035300D01*
X119063954Y-78975232D01*
X119246450Y-78877685D01*
X119406410Y-78746410D01*
X119537685Y-78586450D01*
X119635232Y-78403954D01*
X119695300Y-78205934D01*
X119715583Y-78000000D01*
X120144417Y-78000000D01*
X120164699Y-78205932D01*
X120164700Y-78205934D01*
X120224768Y-78403954D01*
X120322315Y-78586450D01*
X120322317Y-78586452D01*
X120453589Y-78746410D01*
X120550209Y-78825702D01*
X120613550Y-78877685D01*
X120796046Y-78975232D01*
X120994066Y-79035300D01*
X120994065Y-79035300D01*
X121012529Y-79037118D01*
X121200000Y-79055583D01*
X121405934Y-79035300D01*
X121603954Y-78975232D01*
X121786450Y-78877685D01*
X121946410Y-78746410D01*
X122077685Y-78586450D01*
X122175232Y-78403954D01*
X122235300Y-78205934D01*
X122255583Y-78000000D01*
X122235300Y-77794066D01*
X122175232Y-77596046D01*
X122077685Y-77413550D01*
X122025702Y-77350209D01*
X121946410Y-77253589D01*
X121796121Y-77130252D01*
X121796115Y-77130247D01*
X122689500Y-77130247D01*
X122689500Y-78869752D01*
X122701131Y-78928229D01*
X122701132Y-78928230D01*
X122745447Y-78994552D01*
X122811769Y-79038867D01*
X122811770Y-79038868D01*
X122870247Y-79050499D01*
X122870250Y-79050500D01*
X122870252Y-79050500D01*
X124609750Y-79050500D01*
X124609751Y-79050499D01*
X124624568Y-79047552D01*
X124668229Y-79038868D01*
X124668229Y-79038867D01*
X124668231Y-79038867D01*
X124734552Y-78994552D01*
X124778867Y-78928231D01*
X124778867Y-78928229D01*
X124778868Y-78928229D01*
X124790499Y-78869752D01*
X124790500Y-78869750D01*
X124790500Y-77130249D01*
X124790499Y-77130247D01*
X124778868Y-77071770D01*
X124778867Y-77071769D01*
X124734552Y-77005447D01*
X124668230Y-76961132D01*
X124668229Y-76961131D01*
X124609752Y-76949500D01*
X124609748Y-76949500D01*
X122870252Y-76949500D01*
X122870247Y-76949500D01*
X122811770Y-76961131D01*
X122811769Y-76961132D01*
X122745447Y-77005447D01*
X122701132Y-77071769D01*
X122701131Y-77071770D01*
X122689500Y-77130247D01*
X121796115Y-77130247D01*
X121786450Y-77122315D01*
X121603954Y-77024768D01*
X121405934Y-76964700D01*
X121405932Y-76964699D01*
X121405934Y-76964699D01*
X121200000Y-76944417D01*
X120994067Y-76964699D01*
X120796043Y-77024769D01*
X120708114Y-77071769D01*
X120613550Y-77122315D01*
X120613548Y-77122316D01*
X120613547Y-77122317D01*
X120453589Y-77253589D01*
X120322317Y-77413547D01*
X120224769Y-77596043D01*
X120164699Y-77794067D01*
X120144417Y-78000000D01*
X119715583Y-78000000D01*
X119695300Y-77794066D01*
X119635232Y-77596046D01*
X119537685Y-77413550D01*
X119485702Y-77350209D01*
X119406410Y-77253589D01*
X119256121Y-77130252D01*
X119246450Y-77122315D01*
X119063954Y-77024768D01*
X118865934Y-76964700D01*
X118865932Y-76964699D01*
X118865934Y-76964699D01*
X118660000Y-76944417D01*
X118454067Y-76964699D01*
X118256043Y-77024769D01*
X118168114Y-77071769D01*
X118073550Y-77122315D01*
X118073548Y-77122316D01*
X118073547Y-77122317D01*
X117913589Y-77253589D01*
X117782317Y-77413547D01*
X117684769Y-77596043D01*
X117624699Y-77794067D01*
X117604417Y-78000000D01*
X115900500Y-78000000D01*
X115900500Y-77130249D01*
X115900499Y-77130247D01*
X115888868Y-77071770D01*
X115888867Y-77071769D01*
X115844552Y-77005447D01*
X115778230Y-76961132D01*
X115778229Y-76961131D01*
X115719752Y-76949500D01*
X115719748Y-76949500D01*
X113980252Y-76949500D01*
X113980247Y-76949500D01*
X113921770Y-76961131D01*
X113921769Y-76961132D01*
X113855447Y-77005447D01*
X113811132Y-77071769D01*
X113811131Y-77071770D01*
X113799500Y-77130247D01*
X112906115Y-77130247D01*
X112896450Y-77122315D01*
X112713954Y-77024768D01*
X112515934Y-76964700D01*
X112515932Y-76964699D01*
X112515934Y-76964699D01*
X112310000Y-76944417D01*
X112104067Y-76964699D01*
X111906043Y-77024769D01*
X111818114Y-77071769D01*
X111723550Y-77122315D01*
X111723548Y-77122316D01*
X111723547Y-77122317D01*
X111563589Y-77253589D01*
X111432317Y-77413547D01*
X111334769Y-77596043D01*
X111274699Y-77794067D01*
X111254417Y-78000000D01*
X110825583Y-78000000D01*
X110805300Y-77794066D01*
X110745232Y-77596046D01*
X110647685Y-77413550D01*
X110595702Y-77350209D01*
X110516410Y-77253589D01*
X110366121Y-77130252D01*
X110356450Y-77122315D01*
X110173954Y-77024768D01*
X109975934Y-76964700D01*
X109975932Y-76964699D01*
X109975934Y-76964699D01*
X109770000Y-76944417D01*
X109564067Y-76964699D01*
X109366043Y-77024769D01*
X109278114Y-77071769D01*
X109183550Y-77122315D01*
X109183548Y-77122316D01*
X109183547Y-77122317D01*
X109023589Y-77253589D01*
X108892317Y-77413547D01*
X108794769Y-77596043D01*
X108734699Y-77794067D01*
X108714417Y-78000000D01*
X107010500Y-78000000D01*
X107010500Y-77130249D01*
X107010499Y-77130247D01*
X106998868Y-77071770D01*
X106998867Y-77071769D01*
X106954552Y-77005447D01*
X106888230Y-76961132D01*
X106888229Y-76961131D01*
X106829752Y-76949500D01*
X106829748Y-76949500D01*
X105090252Y-76949500D01*
X105090247Y-76949500D01*
X105031770Y-76961131D01*
X105031769Y-76961132D01*
X104965447Y-77005447D01*
X104921132Y-77071769D01*
X104921131Y-77071770D01*
X104909500Y-77130247D01*
X104016115Y-77130247D01*
X104006450Y-77122315D01*
X103823954Y-77024768D01*
X103625934Y-76964700D01*
X103625932Y-76964699D01*
X103625934Y-76964699D01*
X103420000Y-76944417D01*
X103214067Y-76964699D01*
X103016043Y-77024769D01*
X102928114Y-77071769D01*
X102833550Y-77122315D01*
X102833548Y-77122316D01*
X102833547Y-77122317D01*
X102673589Y-77253589D01*
X102542317Y-77413547D01*
X102444769Y-77596043D01*
X102384699Y-77794067D01*
X102364417Y-78000000D01*
X101935583Y-78000000D01*
X101915300Y-77794066D01*
X101855232Y-77596046D01*
X101757685Y-77413550D01*
X101705702Y-77350209D01*
X101626410Y-77253589D01*
X101476121Y-77130252D01*
X101466450Y-77122315D01*
X101283954Y-77024768D01*
X101085934Y-76964700D01*
X101085932Y-76964699D01*
X101085934Y-76964699D01*
X100880000Y-76944417D01*
X100674067Y-76964699D01*
X100476043Y-77024769D01*
X100388114Y-77071769D01*
X100293550Y-77122315D01*
X100293548Y-77122316D01*
X100293547Y-77122317D01*
X100133589Y-77253589D01*
X100002317Y-77413547D01*
X99904769Y-77596043D01*
X99844699Y-77794067D01*
X99824417Y-78000000D01*
X98120500Y-78000000D01*
X98120500Y-77130249D01*
X98120499Y-77130247D01*
X98108868Y-77071770D01*
X98108867Y-77071769D01*
X98064552Y-77005447D01*
X97998230Y-76961132D01*
X97998229Y-76961131D01*
X97939752Y-76949500D01*
X97939748Y-76949500D01*
X96200252Y-76949500D01*
X96200247Y-76949500D01*
X96141770Y-76961131D01*
X96141769Y-76961132D01*
X96075447Y-77005447D01*
X96031132Y-77071769D01*
X96031131Y-77071770D01*
X96019500Y-77130247D01*
X95126115Y-77130247D01*
X95116450Y-77122315D01*
X94933954Y-77024768D01*
X94735934Y-76964700D01*
X94735932Y-76964699D01*
X94735934Y-76964699D01*
X94530000Y-76944417D01*
X94324067Y-76964699D01*
X94126043Y-77024769D01*
X94038114Y-77071769D01*
X93943550Y-77122315D01*
X93943548Y-77122316D01*
X93943547Y-77122317D01*
X93783589Y-77253589D01*
X93652317Y-77413547D01*
X93554769Y-77596043D01*
X93494699Y-77794067D01*
X93474417Y-78000000D01*
X93045583Y-78000000D01*
X93025300Y-77794066D01*
X92965232Y-77596046D01*
X92867685Y-77413550D01*
X92815702Y-77350209D01*
X92736410Y-77253589D01*
X92586121Y-77130252D01*
X92576450Y-77122315D01*
X92393954Y-77024768D01*
X92195934Y-76964700D01*
X92195932Y-76964699D01*
X92195934Y-76964699D01*
X91990000Y-76944417D01*
X91784067Y-76964699D01*
X91586043Y-77024769D01*
X91498114Y-77071769D01*
X91403550Y-77122315D01*
X91403548Y-77122316D01*
X91403547Y-77122317D01*
X91243589Y-77253589D01*
X91112317Y-77413547D01*
X91014769Y-77596043D01*
X90954699Y-77794067D01*
X90934417Y-78000000D01*
X89230500Y-78000000D01*
X89230500Y-77130249D01*
X89230499Y-77130247D01*
X89218868Y-77071770D01*
X89218867Y-77071769D01*
X89174552Y-77005447D01*
X89108230Y-76961132D01*
X89108229Y-76961131D01*
X89049752Y-76949500D01*
X89049748Y-76949500D01*
X87310252Y-76949500D01*
X87310247Y-76949500D01*
X87251770Y-76961131D01*
X87251769Y-76961132D01*
X87185447Y-77005447D01*
X87141132Y-77071769D01*
X87141131Y-77071770D01*
X87129500Y-77130247D01*
X86236115Y-77130247D01*
X86226450Y-77122315D01*
X86043954Y-77024768D01*
X85845934Y-76964700D01*
X85845932Y-76964699D01*
X85845934Y-76964699D01*
X85640000Y-76944417D01*
X85434067Y-76964699D01*
X85236043Y-77024769D01*
X85148114Y-77071769D01*
X85053550Y-77122315D01*
X85053548Y-77122316D01*
X85053547Y-77122317D01*
X84893589Y-77253589D01*
X84762317Y-77413547D01*
X84664769Y-77596043D01*
X84604699Y-77794067D01*
X84584417Y-78000000D01*
X84155583Y-78000000D01*
X84135300Y-77794066D01*
X84075232Y-77596046D01*
X83977685Y-77413550D01*
X83925702Y-77350209D01*
X83846410Y-77253589D01*
X83696121Y-77130252D01*
X83686450Y-77122315D01*
X83503954Y-77024768D01*
X83305934Y-76964700D01*
X83305932Y-76964699D01*
X83305934Y-76964699D01*
X83100000Y-76944417D01*
X82894067Y-76964699D01*
X82696043Y-77024769D01*
X82608114Y-77071769D01*
X82513550Y-77122315D01*
X82513548Y-77122316D01*
X82513547Y-77122317D01*
X82353589Y-77253589D01*
X82222317Y-77413547D01*
X82124769Y-77596043D01*
X82064699Y-77794067D01*
X82044417Y-78000000D01*
X81780500Y-78000000D01*
X81780500Y-72644000D01*
X83187353Y-72644000D01*
X83207834Y-72786456D01*
X83265834Y-72913456D01*
X83267623Y-72917373D01*
X83361872Y-73026143D01*
X83482947Y-73103953D01*
X83482950Y-73103954D01*
X83482949Y-73103954D01*
X83621036Y-73144499D01*
X83621038Y-73144500D01*
X83621039Y-73144500D01*
X83764962Y-73144500D01*
X83764962Y-73144499D01*
X83903053Y-73103953D01*
X84024128Y-73026143D01*
X84118377Y-72917373D01*
X84178165Y-72786457D01*
X84198647Y-72644000D01*
X87251353Y-72644000D01*
X87271834Y-72786456D01*
X87329834Y-72913456D01*
X87331623Y-72917373D01*
X87425872Y-73026143D01*
X87546947Y-73103953D01*
X87546950Y-73103954D01*
X87546949Y-73103954D01*
X87685036Y-73144499D01*
X87685038Y-73144500D01*
X87685039Y-73144500D01*
X87828962Y-73144500D01*
X87828962Y-73144499D01*
X87967053Y-73103953D01*
X88088128Y-73026143D01*
X88182377Y-72917373D01*
X88242165Y-72786457D01*
X88262647Y-72644000D01*
X88242165Y-72501543D01*
X88241460Y-72500000D01*
X88694353Y-72500000D01*
X88714834Y-72642456D01*
X88760504Y-72742457D01*
X88774623Y-72773373D01*
X88868872Y-72882143D01*
X88989947Y-72959953D01*
X88989950Y-72959954D01*
X88989949Y-72959954D01*
X89128036Y-73000499D01*
X89128038Y-73000500D01*
X89128039Y-73000500D01*
X89271962Y-73000500D01*
X89271962Y-73000499D01*
X89410053Y-72959953D01*
X89531128Y-72882143D01*
X89625377Y-72773373D01*
X89685165Y-72642457D01*
X89705647Y-72500000D01*
X89685165Y-72357543D01*
X89625377Y-72226627D01*
X89531128Y-72117857D01*
X89410053Y-72040047D01*
X89410051Y-72040046D01*
X89410049Y-72040045D01*
X89410050Y-72040045D01*
X89271963Y-71999500D01*
X89271961Y-71999500D01*
X89128039Y-71999500D01*
X89128036Y-71999500D01*
X88989949Y-72040045D01*
X88868873Y-72117856D01*
X88774623Y-72226626D01*
X88774622Y-72226628D01*
X88714834Y-72357543D01*
X88694353Y-72500000D01*
X88241460Y-72500000D01*
X88182377Y-72370627D01*
X88088128Y-72261857D01*
X87967053Y-72184047D01*
X87967051Y-72184046D01*
X87967049Y-72184045D01*
X87967050Y-72184045D01*
X87828963Y-72143500D01*
X87828961Y-72143500D01*
X87685039Y-72143500D01*
X87685036Y-72143500D01*
X87546949Y-72184045D01*
X87425873Y-72261856D01*
X87331623Y-72370626D01*
X87331622Y-72370628D01*
X87271834Y-72501543D01*
X87251353Y-72644000D01*
X84198647Y-72644000D01*
X84178165Y-72501543D01*
X84118377Y-72370627D01*
X84024128Y-72261857D01*
X83903053Y-72184047D01*
X83903051Y-72184046D01*
X83903049Y-72184045D01*
X83903050Y-72184045D01*
X83764963Y-72143500D01*
X83764961Y-72143500D01*
X83621039Y-72143500D01*
X83621036Y-72143500D01*
X83482949Y-72184045D01*
X83361873Y-72261856D01*
X83267623Y-72370626D01*
X83267622Y-72370628D01*
X83207834Y-72501543D01*
X83187353Y-72644000D01*
X81780500Y-72644000D01*
X81780500Y-70231000D01*
X82044353Y-70231000D01*
X82064834Y-70373456D01*
X82124622Y-70504371D01*
X82124623Y-70504373D01*
X82218872Y-70613143D01*
X82339947Y-70690953D01*
X82339950Y-70690954D01*
X82339949Y-70690954D01*
X82478036Y-70731499D01*
X82478038Y-70731500D01*
X82478039Y-70731500D01*
X82621962Y-70731500D01*
X82621962Y-70731499D01*
X82760053Y-70690953D01*
X82881128Y-70613143D01*
X82975377Y-70504373D01*
X83035165Y-70373457D01*
X83055647Y-70231000D01*
X83035165Y-70088543D01*
X82975377Y-69957627D01*
X82881128Y-69848857D01*
X82760053Y-69771047D01*
X82760051Y-69771046D01*
X82760049Y-69771045D01*
X82760050Y-69771045D01*
X82621963Y-69730500D01*
X82621961Y-69730500D01*
X82478039Y-69730500D01*
X82478036Y-69730500D01*
X82339949Y-69771045D01*
X82218873Y-69848856D01*
X82124623Y-69957626D01*
X82124622Y-69957628D01*
X82064834Y-70088543D01*
X82044353Y-70231000D01*
X81780500Y-70231000D01*
X81780500Y-69723000D01*
X85981353Y-69723000D01*
X86001834Y-69865456D01*
X86059834Y-69992456D01*
X86061623Y-69996373D01*
X86155872Y-70105143D01*
X86276947Y-70182953D01*
X86276950Y-70182954D01*
X86276949Y-70182954D01*
X86415036Y-70223499D01*
X86415038Y-70223500D01*
X86415039Y-70223500D01*
X86558962Y-70223500D01*
X86558962Y-70223499D01*
X86697053Y-70182953D01*
X86818128Y-70105143D01*
X86912377Y-69996373D01*
X86972165Y-69865457D01*
X86992647Y-69723000D01*
X86972165Y-69580543D01*
X86912377Y-69449627D01*
X86818128Y-69340857D01*
X86697053Y-69263047D01*
X86697051Y-69263046D01*
X86697049Y-69263045D01*
X86697050Y-69263045D01*
X86558963Y-69222500D01*
X86558961Y-69222500D01*
X86415039Y-69222500D01*
X86415036Y-69222500D01*
X86276949Y-69263045D01*
X86155873Y-69340856D01*
X86061623Y-69449626D01*
X86061622Y-69449628D01*
X86001834Y-69580543D01*
X85981353Y-69723000D01*
X81780500Y-69723000D01*
X81780500Y-69088000D01*
X88394353Y-69088000D01*
X88414834Y-69230456D01*
X88469201Y-69349500D01*
X88474623Y-69361373D01*
X88568872Y-69470143D01*
X88689947Y-69547953D01*
X88689950Y-69547954D01*
X88689949Y-69547954D01*
X88828036Y-69588499D01*
X88828038Y-69588500D01*
X88828039Y-69588500D01*
X88971962Y-69588500D01*
X88971962Y-69588499D01*
X89110053Y-69547953D01*
X89231128Y-69470143D01*
X89325377Y-69361373D01*
X89385165Y-69230457D01*
X89405647Y-69088000D01*
X89385165Y-68945543D01*
X89325377Y-68814627D01*
X89231128Y-68705857D01*
X89110053Y-68628047D01*
X89110051Y-68628046D01*
X89110049Y-68628045D01*
X89110050Y-68628045D01*
X88971963Y-68587500D01*
X88971961Y-68587500D01*
X88828039Y-68587500D01*
X88828036Y-68587500D01*
X88689949Y-68628045D01*
X88568873Y-68705856D01*
X88474623Y-68814626D01*
X88474622Y-68814628D01*
X88414834Y-68945543D01*
X88394353Y-69088000D01*
X81780500Y-69088000D01*
X81780500Y-67437000D01*
X86616353Y-67437000D01*
X86636834Y-67579456D01*
X86691886Y-67700000D01*
X86696623Y-67710373D01*
X86790872Y-67819143D01*
X86911947Y-67896953D01*
X86911950Y-67896954D01*
X86911949Y-67896954D01*
X87050036Y-67937499D01*
X87050038Y-67937500D01*
X87050039Y-67937500D01*
X87193962Y-67937500D01*
X87193962Y-67937499D01*
X87308543Y-67903856D01*
X87332050Y-67896954D01*
X87332050Y-67896953D01*
X87332053Y-67896953D01*
X87453128Y-67819143D01*
X87547377Y-67710373D01*
X87607165Y-67579457D01*
X87618589Y-67500000D01*
X89294353Y-67500000D01*
X89314834Y-67642456D01*
X89374622Y-67773371D01*
X89374623Y-67773373D01*
X89468872Y-67882143D01*
X89589947Y-67959953D01*
X89589950Y-67959954D01*
X89589949Y-67959954D01*
X89728036Y-68000499D01*
X89728038Y-68000500D01*
X89872600Y-68000500D01*
X89939639Y-68020185D01*
X89985394Y-68072989D01*
X89995338Y-68106853D01*
X90014834Y-68242456D01*
X90074622Y-68373371D01*
X90074623Y-68373373D01*
X90144213Y-68453685D01*
X90173238Y-68517240D01*
X90174500Y-68534887D01*
X90174500Y-72082112D01*
X90154815Y-72149151D01*
X90144213Y-72163314D01*
X90074625Y-72243622D01*
X90074622Y-72243628D01*
X90014834Y-72374543D01*
X89994353Y-72517000D01*
X90014834Y-72659456D01*
X90066858Y-72773371D01*
X90074623Y-72790373D01*
X90168872Y-72899143D01*
X90289947Y-72976953D01*
X90289950Y-72976954D01*
X90289949Y-72976954D01*
X90428036Y-73017499D01*
X90428038Y-73017500D01*
X90428039Y-73017500D01*
X90571962Y-73017500D01*
X90571962Y-73017499D01*
X90710053Y-72976953D01*
X90831128Y-72899143D01*
X90832118Y-72898000D01*
X96328663Y-72898000D01*
X96349144Y-73040456D01*
X96406798Y-73166698D01*
X96408933Y-73171373D01*
X96503182Y-73280143D01*
X96624257Y-73357953D01*
X96624260Y-73357954D01*
X96624259Y-73357954D01*
X96762346Y-73398499D01*
X96762348Y-73398500D01*
X96762349Y-73398500D01*
X96906272Y-73398500D01*
X96906272Y-73398499D01*
X97044363Y-73357953D01*
X97165438Y-73280143D01*
X97259687Y-73171373D01*
X97319475Y-73040457D01*
X97339957Y-72898000D01*
X97319475Y-72755543D01*
X97259687Y-72624627D01*
X97238348Y-72600000D01*
X105494353Y-72600000D01*
X105514834Y-72742456D01*
X105563927Y-72849953D01*
X105574623Y-72873373D01*
X105668872Y-72982143D01*
X105789947Y-73059953D01*
X105789950Y-73059954D01*
X105789949Y-73059954D01*
X105928036Y-73100499D01*
X105928038Y-73100500D01*
X105928039Y-73100500D01*
X106071962Y-73100500D01*
X106071962Y-73100499D01*
X106210053Y-73059953D01*
X106331128Y-72982143D01*
X106385567Y-72919316D01*
X106444341Y-72881544D01*
X106514210Y-72881543D01*
X106572989Y-72919317D01*
X106592071Y-72949009D01*
X106635622Y-73044371D01*
X106635623Y-73044373D01*
X106729872Y-73153143D01*
X106850947Y-73230953D01*
X106850950Y-73230954D01*
X106850949Y-73230954D01*
X106989036Y-73271499D01*
X106989038Y-73271500D01*
X106989039Y-73271500D01*
X107132962Y-73271500D01*
X107132962Y-73271499D01*
X107271053Y-73230953D01*
X107392128Y-73153143D01*
X107486377Y-73044373D01*
X107546165Y-72913457D01*
X107566647Y-72771000D01*
X112905353Y-72771000D01*
X112925834Y-72913456D01*
X112985622Y-73044371D01*
X112985623Y-73044373D01*
X113079872Y-73153143D01*
X113200947Y-73230953D01*
X113200950Y-73230954D01*
X113200949Y-73230954D01*
X113339036Y-73271499D01*
X113339038Y-73271500D01*
X113339039Y-73271500D01*
X113482962Y-73271500D01*
X113482962Y-73271499D01*
X113621053Y-73230953D01*
X113742128Y-73153143D01*
X113836377Y-73044373D01*
X113896165Y-72913457D01*
X113916647Y-72771000D01*
X115064353Y-72771000D01*
X115084834Y-72913456D01*
X115144622Y-73044371D01*
X115144623Y-73044373D01*
X115238872Y-73153143D01*
X115359947Y-73230953D01*
X115359950Y-73230954D01*
X115359949Y-73230954D01*
X115498036Y-73271499D01*
X115498038Y-73271500D01*
X115498039Y-73271500D01*
X115641962Y-73271500D01*
X115641962Y-73271499D01*
X115780053Y-73230953D01*
X115901128Y-73153143D01*
X115995377Y-73044373D01*
X116055165Y-72913457D01*
X116075647Y-72771000D01*
X116057387Y-72644000D01*
X121795353Y-72644000D01*
X121815834Y-72786456D01*
X121873834Y-72913456D01*
X121875623Y-72917373D01*
X121969872Y-73026143D01*
X122090947Y-73103953D01*
X122090950Y-73103954D01*
X122090949Y-73103954D01*
X122229036Y-73144499D01*
X122229038Y-73144500D01*
X122229039Y-73144500D01*
X122372962Y-73144500D01*
X122372962Y-73144499D01*
X122511053Y-73103953D01*
X122632128Y-73026143D01*
X122726377Y-72917373D01*
X122786165Y-72786457D01*
X122806647Y-72644000D01*
X122786165Y-72501543D01*
X122735224Y-72390000D01*
X124589353Y-72390000D01*
X124609834Y-72532456D01*
X124667834Y-72659456D01*
X124669623Y-72663373D01*
X124763872Y-72772143D01*
X124884947Y-72849953D01*
X124884950Y-72849954D01*
X124884949Y-72849954D01*
X125023036Y-72890499D01*
X125023038Y-72890500D01*
X125023039Y-72890500D01*
X125166962Y-72890500D01*
X125166962Y-72890499D01*
X125305053Y-72849953D01*
X125426128Y-72772143D01*
X125520377Y-72663373D01*
X125580165Y-72532457D01*
X125600647Y-72390000D01*
X125580165Y-72247543D01*
X125520377Y-72116627D01*
X125426128Y-72007857D01*
X125305053Y-71930047D01*
X125305051Y-71930046D01*
X125305049Y-71930045D01*
X125305050Y-71930045D01*
X125166963Y-71889500D01*
X125166961Y-71889500D01*
X125023039Y-71889500D01*
X125023036Y-71889500D01*
X124884949Y-71930045D01*
X124763873Y-72007856D01*
X124669623Y-72116626D01*
X124669622Y-72116628D01*
X124609834Y-72247543D01*
X124589353Y-72390000D01*
X122735224Y-72390000D01*
X122726377Y-72370627D01*
X122632128Y-72261857D01*
X122511053Y-72184047D01*
X122511051Y-72184046D01*
X122511049Y-72184045D01*
X122511050Y-72184045D01*
X122372963Y-72143500D01*
X122372961Y-72143500D01*
X122229039Y-72143500D01*
X122229036Y-72143500D01*
X122090949Y-72184045D01*
X121969873Y-72261856D01*
X121875623Y-72370626D01*
X121875622Y-72370628D01*
X121815834Y-72501543D01*
X121795353Y-72644000D01*
X116057387Y-72644000D01*
X116055165Y-72628543D01*
X115995377Y-72497627D01*
X115901128Y-72388857D01*
X115780053Y-72311047D01*
X115780051Y-72311046D01*
X115780049Y-72311045D01*
X115780050Y-72311045D01*
X115641963Y-72270500D01*
X115641961Y-72270500D01*
X115498039Y-72270500D01*
X115498036Y-72270500D01*
X115359949Y-72311045D01*
X115238873Y-72388856D01*
X115144623Y-72497626D01*
X115144622Y-72497628D01*
X115084834Y-72628543D01*
X115064353Y-72771000D01*
X113916647Y-72771000D01*
X113896165Y-72628543D01*
X113836377Y-72497627D01*
X113742128Y-72388857D01*
X113621053Y-72311047D01*
X113621051Y-72311046D01*
X113621049Y-72311045D01*
X113621050Y-72311045D01*
X113482963Y-72270500D01*
X113482961Y-72270500D01*
X113339039Y-72270500D01*
X113339036Y-72270500D01*
X113200949Y-72311045D01*
X113079873Y-72388856D01*
X112985623Y-72497626D01*
X112985622Y-72497628D01*
X112925834Y-72628543D01*
X112905353Y-72771000D01*
X107566647Y-72771000D01*
X107546165Y-72628543D01*
X107486377Y-72497627D01*
X107392128Y-72388857D01*
X107271053Y-72311047D01*
X107271051Y-72311046D01*
X107271049Y-72311045D01*
X107271050Y-72311045D01*
X107132963Y-72270500D01*
X107132961Y-72270500D01*
X106989039Y-72270500D01*
X106989036Y-72270500D01*
X106850949Y-72311045D01*
X106729873Y-72388856D01*
X106675435Y-72451681D01*
X106616656Y-72489455D01*
X106546787Y-72489455D01*
X106488009Y-72451680D01*
X106468928Y-72421990D01*
X106425377Y-72326627D01*
X106370244Y-72263000D01*
X110238353Y-72263000D01*
X110258834Y-72405456D01*
X110312758Y-72523531D01*
X110318623Y-72536373D01*
X110412872Y-72645143D01*
X110533947Y-72722953D01*
X110533950Y-72722954D01*
X110533949Y-72722954D01*
X110672036Y-72763499D01*
X110672038Y-72763500D01*
X110672039Y-72763500D01*
X110815962Y-72763500D01*
X110815962Y-72763499D01*
X110954053Y-72722953D01*
X111075128Y-72645143D01*
X111169377Y-72536373D01*
X111229165Y-72405457D01*
X111249647Y-72263000D01*
X111229165Y-72120543D01*
X111169377Y-71989627D01*
X111075128Y-71880857D01*
X110954053Y-71803047D01*
X110954051Y-71803046D01*
X110954049Y-71803045D01*
X110954050Y-71803045D01*
X110815963Y-71762500D01*
X110815961Y-71762500D01*
X110672039Y-71762500D01*
X110672036Y-71762500D01*
X110533949Y-71803045D01*
X110412873Y-71880856D01*
X110318623Y-71989626D01*
X110318622Y-71989628D01*
X110258834Y-72120543D01*
X110238353Y-72263000D01*
X106370244Y-72263000D01*
X106331128Y-72217857D01*
X106210053Y-72140047D01*
X106210051Y-72140046D01*
X106210049Y-72140045D01*
X106210050Y-72140045D01*
X106071963Y-72099500D01*
X106071961Y-72099500D01*
X105928039Y-72099500D01*
X105928036Y-72099500D01*
X105789949Y-72140045D01*
X105668873Y-72217856D01*
X105574623Y-72326626D01*
X105574622Y-72326628D01*
X105514834Y-72457543D01*
X105494353Y-72600000D01*
X97238348Y-72600000D01*
X97165438Y-72515857D01*
X97044363Y-72438047D01*
X97044361Y-72438046D01*
X97044359Y-72438045D01*
X97044360Y-72438045D01*
X96906273Y-72397500D01*
X96906271Y-72397500D01*
X96762349Y-72397500D01*
X96762346Y-72397500D01*
X96624259Y-72438045D01*
X96503183Y-72515856D01*
X96503182Y-72515856D01*
X96503182Y-72515857D01*
X96496532Y-72523532D01*
X96408933Y-72624626D01*
X96408932Y-72624628D01*
X96349144Y-72755543D01*
X96328663Y-72898000D01*
X90832118Y-72898000D01*
X90925377Y-72790373D01*
X90985165Y-72659457D01*
X91005647Y-72517000D01*
X90985165Y-72374543D01*
X90925377Y-72243627D01*
X90925375Y-72243625D01*
X90925374Y-72243622D01*
X90855787Y-72163314D01*
X90826762Y-72099758D01*
X90825500Y-72082112D01*
X90825500Y-71374000D01*
X96395353Y-71374000D01*
X96415834Y-71516456D01*
X96467283Y-71629112D01*
X96475623Y-71647373D01*
X96569872Y-71756143D01*
X96690947Y-71833953D01*
X96690950Y-71833954D01*
X96690949Y-71833954D01*
X96829036Y-71874499D01*
X96829038Y-71874500D01*
X96829039Y-71874500D01*
X96972962Y-71874500D01*
X96972962Y-71874499D01*
X97111053Y-71833953D01*
X97232128Y-71756143D01*
X97326377Y-71647373D01*
X97386165Y-71516457D01*
X97406647Y-71374000D01*
X101348353Y-71374000D01*
X101368834Y-71516456D01*
X101420283Y-71629112D01*
X101428623Y-71647373D01*
X101522872Y-71756143D01*
X101643947Y-71833953D01*
X101643950Y-71833954D01*
X101643949Y-71833954D01*
X101782036Y-71874499D01*
X101782038Y-71874500D01*
X101782039Y-71874500D01*
X101925962Y-71874500D01*
X101925962Y-71874499D01*
X102064053Y-71833953D01*
X102185128Y-71756143D01*
X102279377Y-71647373D01*
X102288224Y-71628000D01*
X117477353Y-71628000D01*
X117497834Y-71770456D01*
X117552201Y-71889500D01*
X117557623Y-71901373D01*
X117651872Y-72010143D01*
X117772947Y-72087953D01*
X117772950Y-72087954D01*
X117772949Y-72087954D01*
X117911036Y-72128499D01*
X117911038Y-72128500D01*
X117911039Y-72128500D01*
X118054962Y-72128500D01*
X118054962Y-72128499D01*
X118193053Y-72087953D01*
X118314128Y-72010143D01*
X118408377Y-71901373D01*
X118468165Y-71770457D01*
X118488647Y-71628000D01*
X118468165Y-71485543D01*
X118408377Y-71354627D01*
X118337126Y-71272398D01*
X128539332Y-71272398D01*
X128539332Y-71272401D01*
X128559164Y-71499086D01*
X128559166Y-71499097D01*
X128618058Y-71718888D01*
X128618061Y-71718897D01*
X128714231Y-71925132D01*
X128714232Y-71925134D01*
X128844754Y-72111541D01*
X129005657Y-72272444D01*
X129025480Y-72286324D01*
X129069106Y-72340900D01*
X129076300Y-72410399D01*
X129044778Y-72472754D01*
X128984549Y-72508168D01*
X128954358Y-72511900D01*
X128725047Y-72511900D01*
X128666570Y-72523531D01*
X128666569Y-72523532D01*
X128600247Y-72567847D01*
X128555932Y-72634169D01*
X128555931Y-72634170D01*
X128544300Y-72692647D01*
X128544300Y-74932152D01*
X128555931Y-74990629D01*
X128555932Y-74990630D01*
X128600247Y-75056952D01*
X128666569Y-75101267D01*
X128666570Y-75101268D01*
X128725047Y-75112899D01*
X128725050Y-75112900D01*
X128725052Y-75112900D01*
X130964550Y-75112900D01*
X130964551Y-75112899D01*
X130979368Y-75109952D01*
X131023029Y-75101268D01*
X131023029Y-75101267D01*
X131023031Y-75101267D01*
X131089352Y-75056952D01*
X131133667Y-74990631D01*
X131133667Y-74990629D01*
X131133668Y-74990629D01*
X131145299Y-74932152D01*
X131145300Y-74932150D01*
X131145300Y-72692649D01*
X131145299Y-72692647D01*
X131133668Y-72634170D01*
X131133667Y-72634169D01*
X131089352Y-72567847D01*
X131023030Y-72523532D01*
X131023029Y-72523531D01*
X130964552Y-72511900D01*
X130964548Y-72511900D01*
X130735242Y-72511900D01*
X130668203Y-72492215D01*
X130622448Y-72439411D01*
X130612504Y-72370253D01*
X130641529Y-72306697D01*
X130664120Y-72286324D01*
X130683939Y-72272447D01*
X130844847Y-72111539D01*
X130975368Y-71925134D01*
X131071539Y-71718896D01*
X131130435Y-71499092D01*
X131150268Y-71272400D01*
X131146693Y-71231543D01*
X131135240Y-71100627D01*
X131130435Y-71045708D01*
X131071539Y-70825904D01*
X130975368Y-70619666D01*
X130844847Y-70433261D01*
X130844845Y-70433258D01*
X130683941Y-70272354D01*
X130497534Y-70141832D01*
X130497532Y-70141831D01*
X130291297Y-70045661D01*
X130291288Y-70045658D01*
X130071497Y-69986766D01*
X130071493Y-69986765D01*
X130071492Y-69986765D01*
X130071491Y-69986764D01*
X130071486Y-69986764D01*
X129844802Y-69966932D01*
X129844798Y-69966932D01*
X129618113Y-69986764D01*
X129618102Y-69986766D01*
X129398311Y-70045658D01*
X129398302Y-70045661D01*
X129192067Y-70141831D01*
X129192065Y-70141832D01*
X129005658Y-70272354D01*
X128844754Y-70433258D01*
X128714232Y-70619665D01*
X128714231Y-70619667D01*
X128618061Y-70825902D01*
X128618058Y-70825911D01*
X128559166Y-71045702D01*
X128559164Y-71045713D01*
X128539332Y-71272398D01*
X118337126Y-71272398D01*
X118314128Y-71245857D01*
X118193053Y-71168047D01*
X118193051Y-71168046D01*
X118193049Y-71168045D01*
X118193050Y-71168045D01*
X118054963Y-71127500D01*
X118054961Y-71127500D01*
X117911039Y-71127500D01*
X117911036Y-71127500D01*
X117772949Y-71168045D01*
X117651873Y-71245856D01*
X117557623Y-71354626D01*
X117557622Y-71354628D01*
X117497834Y-71485543D01*
X117477353Y-71628000D01*
X102288224Y-71628000D01*
X102339165Y-71516457D01*
X102359647Y-71374000D01*
X102339165Y-71231543D01*
X102279377Y-71100627D01*
X102185128Y-70991857D01*
X102064053Y-70914047D01*
X102064051Y-70914046D01*
X102064049Y-70914045D01*
X102064050Y-70914045D01*
X101925963Y-70873500D01*
X101925961Y-70873500D01*
X101782039Y-70873500D01*
X101782036Y-70873500D01*
X101643949Y-70914045D01*
X101522873Y-70991856D01*
X101428623Y-71100626D01*
X101428622Y-71100628D01*
X101368834Y-71231543D01*
X101348353Y-71374000D01*
X97406647Y-71374000D01*
X97386165Y-71231543D01*
X97326377Y-71100627D01*
X97232128Y-70991857D01*
X97111053Y-70914047D01*
X97111051Y-70914046D01*
X97111049Y-70914045D01*
X97111050Y-70914045D01*
X96972963Y-70873500D01*
X96972961Y-70873500D01*
X96829039Y-70873500D01*
X96829036Y-70873500D01*
X96690949Y-70914045D01*
X96569873Y-70991856D01*
X96475623Y-71100626D01*
X96475622Y-71100628D01*
X96415834Y-71231543D01*
X96395353Y-71374000D01*
X90825500Y-71374000D01*
X90825500Y-70231000D01*
X106682353Y-70231000D01*
X106702834Y-70373456D01*
X106762622Y-70504371D01*
X106762623Y-70504373D01*
X106856872Y-70613143D01*
X106977947Y-70690953D01*
X106977950Y-70690954D01*
X106977949Y-70690954D01*
X107116036Y-70731499D01*
X107116038Y-70731500D01*
X107116039Y-70731500D01*
X107259962Y-70731500D01*
X107259962Y-70731499D01*
X107398053Y-70690953D01*
X107519128Y-70613143D01*
X107613377Y-70504373D01*
X107673165Y-70373457D01*
X107693647Y-70231000D01*
X107673165Y-70088543D01*
X107613377Y-69957627D01*
X107520118Y-69850000D01*
X124081353Y-69850000D01*
X124101834Y-69992456D01*
X124161622Y-70123371D01*
X124161623Y-70123373D01*
X124255872Y-70232143D01*
X124376947Y-70309953D01*
X124376950Y-70309954D01*
X124376949Y-70309954D01*
X124515036Y-70350499D01*
X124515038Y-70350500D01*
X124515039Y-70350500D01*
X124658962Y-70350500D01*
X124658962Y-70350499D01*
X124797053Y-70309953D01*
X124918128Y-70232143D01*
X125012377Y-70123373D01*
X125072165Y-69992457D01*
X125092647Y-69850000D01*
X125072165Y-69707543D01*
X125012377Y-69576627D01*
X124918128Y-69467857D01*
X124797053Y-69390047D01*
X124797051Y-69390046D01*
X124797049Y-69390045D01*
X124797050Y-69390045D01*
X124658963Y-69349500D01*
X124658961Y-69349500D01*
X124515039Y-69349500D01*
X124515036Y-69349500D01*
X124376949Y-69390045D01*
X124255873Y-69467856D01*
X124161623Y-69576626D01*
X124161622Y-69576628D01*
X124101834Y-69707543D01*
X124081353Y-69850000D01*
X107520118Y-69850000D01*
X107519128Y-69848857D01*
X107398053Y-69771047D01*
X107398051Y-69771046D01*
X107398049Y-69771045D01*
X107398050Y-69771045D01*
X107259963Y-69730500D01*
X107259961Y-69730500D01*
X107116039Y-69730500D01*
X107116036Y-69730500D01*
X106977949Y-69771045D01*
X106856873Y-69848856D01*
X106762623Y-69957626D01*
X106762622Y-69957628D01*
X106702834Y-70088543D01*
X106682353Y-70231000D01*
X90825500Y-70231000D01*
X90825500Y-69372702D01*
X91969353Y-69372702D01*
X91989834Y-69515158D01*
X92023329Y-69588500D01*
X92049623Y-69646075D01*
X92143872Y-69754845D01*
X92264947Y-69832655D01*
X92264950Y-69832656D01*
X92264949Y-69832656D01*
X92372107Y-69864119D01*
X92389998Y-69869373D01*
X92403036Y-69873201D01*
X92403038Y-69873202D01*
X92403039Y-69873202D01*
X92546962Y-69873202D01*
X92546962Y-69873201D01*
X92685053Y-69832655D01*
X92806128Y-69754845D01*
X92900377Y-69646075D01*
X92960165Y-69515159D01*
X92966802Y-69469000D01*
X99189353Y-69469000D01*
X99209834Y-69611456D01*
X99264201Y-69730500D01*
X99269623Y-69742373D01*
X99363872Y-69851143D01*
X99484947Y-69928953D01*
X99484950Y-69928954D01*
X99484949Y-69928954D01*
X99623036Y-69969499D01*
X99623038Y-69969500D01*
X99623039Y-69969500D01*
X99766962Y-69969500D01*
X99766962Y-69969499D01*
X99905053Y-69928953D01*
X100026128Y-69851143D01*
X100120377Y-69742373D01*
X100180165Y-69611457D01*
X100182387Y-69596000D01*
X103761353Y-69596000D01*
X103781834Y-69738456D01*
X103839834Y-69865456D01*
X103841623Y-69869373D01*
X103935872Y-69978143D01*
X104056947Y-70055953D01*
X104056950Y-70055954D01*
X104056949Y-70055954D01*
X104195036Y-70096499D01*
X104195038Y-70096500D01*
X104195039Y-70096500D01*
X104338962Y-70096500D01*
X104338962Y-70096499D01*
X104477053Y-70055953D01*
X104598128Y-69978143D01*
X104692377Y-69869373D01*
X104752165Y-69738457D01*
X104772647Y-69596000D01*
X104752165Y-69453543D01*
X104692377Y-69322627D01*
X104598128Y-69213857D01*
X104477053Y-69136047D01*
X104477051Y-69136046D01*
X104477049Y-69136045D01*
X104477050Y-69136045D01*
X104338963Y-69095500D01*
X104338961Y-69095500D01*
X104195039Y-69095500D01*
X104195036Y-69095500D01*
X104056949Y-69136045D01*
X103935873Y-69213856D01*
X103841623Y-69322626D01*
X103841622Y-69322628D01*
X103781834Y-69453543D01*
X103761353Y-69596000D01*
X100182387Y-69596000D01*
X100200647Y-69469000D01*
X100180165Y-69326543D01*
X100120377Y-69195627D01*
X100026128Y-69086857D01*
X99905053Y-69009047D01*
X99905051Y-69009046D01*
X99905049Y-69009045D01*
X99905050Y-69009045D01*
X99766963Y-68968500D01*
X99766961Y-68968500D01*
X99623039Y-68968500D01*
X99623036Y-68968500D01*
X99484949Y-69009045D01*
X99363873Y-69086856D01*
X99269623Y-69195626D01*
X99269622Y-69195628D01*
X99209834Y-69326543D01*
X99189353Y-69469000D01*
X92966802Y-69469000D01*
X92980647Y-69372702D01*
X92960165Y-69230245D01*
X92900377Y-69099329D01*
X92806128Y-68990559D01*
X92685053Y-68912749D01*
X92685051Y-68912748D01*
X92685049Y-68912747D01*
X92685050Y-68912747D01*
X92546963Y-68872202D01*
X92546961Y-68872202D01*
X92403039Y-68872202D01*
X92403036Y-68872202D01*
X92264949Y-68912747D01*
X92143873Y-68990558D01*
X92049623Y-69099328D01*
X92049622Y-69099330D01*
X91989834Y-69230245D01*
X91969353Y-69372702D01*
X90825500Y-69372702D01*
X90825500Y-68534887D01*
X90845185Y-68467848D01*
X90855782Y-68453689D01*
X90925377Y-68373373D01*
X90985165Y-68242457D01*
X91005647Y-68100000D01*
X90985165Y-67957543D01*
X90925377Y-67826627D01*
X90831128Y-67717857D01*
X90803342Y-67700000D01*
X91294353Y-67700000D01*
X91314834Y-67842456D01*
X91368494Y-67959953D01*
X91374623Y-67973373D01*
X91468872Y-68082143D01*
X91589947Y-68159953D01*
X91589950Y-68159954D01*
X91589949Y-68159954D01*
X91728036Y-68200499D01*
X91728038Y-68200500D01*
X91728039Y-68200500D01*
X91871962Y-68200500D01*
X91871962Y-68200499D01*
X92010053Y-68159953D01*
X92131128Y-68082143D01*
X92191363Y-68012628D01*
X92217481Y-67982486D01*
X92276259Y-67944711D01*
X92346129Y-67944711D01*
X92404907Y-67982485D01*
X92433932Y-68046041D01*
X92436536Y-68064158D01*
X92490419Y-68182143D01*
X92496325Y-68195075D01*
X92590574Y-68303845D01*
X92711649Y-68381655D01*
X92711652Y-68381656D01*
X92711651Y-68381656D01*
X92849738Y-68422201D01*
X92849740Y-68422202D01*
X92849741Y-68422202D01*
X92993664Y-68422202D01*
X92993664Y-68422201D01*
X93131755Y-68381655D01*
X93252830Y-68303845D01*
X93268293Y-68286000D01*
X111656124Y-68286000D01*
X111676605Y-68428456D01*
X111702775Y-68485759D01*
X111736394Y-68559373D01*
X111830643Y-68668143D01*
X111951718Y-68745953D01*
X111951721Y-68745954D01*
X111951720Y-68745954D01*
X112089807Y-68786499D01*
X112089809Y-68786500D01*
X112089810Y-68786500D01*
X112233733Y-68786500D01*
X112233733Y-68786499D01*
X112371824Y-68745953D01*
X112404428Y-68725000D01*
X114302353Y-68725000D01*
X114322834Y-68867456D01*
X114343518Y-68912747D01*
X114382623Y-68998373D01*
X114476872Y-69107143D01*
X114597947Y-69184953D01*
X114597950Y-69184954D01*
X114597949Y-69184954D01*
X114736036Y-69225499D01*
X114736038Y-69225500D01*
X114736039Y-69225500D01*
X114879962Y-69225500D01*
X114879962Y-69225499D01*
X115018053Y-69184953D01*
X115139128Y-69107143D01*
X115233377Y-68998373D01*
X115250445Y-68961000D01*
X120906353Y-68961000D01*
X120926834Y-69103456D01*
X120981201Y-69222500D01*
X120986623Y-69234373D01*
X121080872Y-69343143D01*
X121201947Y-69420953D01*
X121201950Y-69420954D01*
X121201949Y-69420954D01*
X121340036Y-69461499D01*
X121340038Y-69461500D01*
X121340039Y-69461500D01*
X121483962Y-69461500D01*
X121483962Y-69461499D01*
X121622053Y-69420953D01*
X121743128Y-69343143D01*
X121837377Y-69234373D01*
X121897165Y-69103457D01*
X121917647Y-68961000D01*
X121897165Y-68818543D01*
X121837377Y-68687627D01*
X121743128Y-68578857D01*
X121622053Y-68501047D01*
X121622051Y-68501046D01*
X121622049Y-68501045D01*
X121622050Y-68501045D01*
X121483963Y-68460500D01*
X121483961Y-68460500D01*
X121340039Y-68460500D01*
X121340036Y-68460500D01*
X121201949Y-68501045D01*
X121080873Y-68578856D01*
X120986623Y-68687626D01*
X120986622Y-68687628D01*
X120926834Y-68818543D01*
X120906353Y-68961000D01*
X115250445Y-68961000D01*
X115293165Y-68867457D01*
X115313647Y-68725000D01*
X115293165Y-68582543D01*
X115233377Y-68451627D01*
X115139128Y-68342857D01*
X115018053Y-68265047D01*
X115018051Y-68265046D01*
X115018049Y-68265045D01*
X115018050Y-68265045D01*
X114879963Y-68224500D01*
X114879961Y-68224500D01*
X114736039Y-68224500D01*
X114736036Y-68224500D01*
X114597949Y-68265045D01*
X114476873Y-68342856D01*
X114382623Y-68451626D01*
X114382622Y-68451628D01*
X114322834Y-68582543D01*
X114302353Y-68725000D01*
X112404428Y-68725000D01*
X112492899Y-68668143D01*
X112587148Y-68559373D01*
X112646936Y-68428457D01*
X112667418Y-68286000D01*
X112646936Y-68143543D01*
X112587148Y-68012627D01*
X112492899Y-67903857D01*
X112371824Y-67826047D01*
X112371822Y-67826046D01*
X112371820Y-67826045D01*
X112371821Y-67826045D01*
X112283118Y-67800000D01*
X122494353Y-67800000D01*
X122514834Y-67942456D01*
X122570415Y-68064159D01*
X122574623Y-68073373D01*
X122668872Y-68182143D01*
X122789947Y-68259953D01*
X122789950Y-68259954D01*
X122789949Y-68259954D01*
X122928036Y-68300499D01*
X122928038Y-68300500D01*
X122928039Y-68300500D01*
X123071962Y-68300500D01*
X123071962Y-68300499D01*
X123210053Y-68259953D01*
X123331128Y-68182143D01*
X123425377Y-68073373D01*
X123485165Y-67942457D01*
X123505647Y-67800000D01*
X123489975Y-67691000D01*
X127764353Y-67691000D01*
X127784834Y-67833456D01*
X127841075Y-67956604D01*
X127844623Y-67964373D01*
X127938872Y-68073143D01*
X128059947Y-68150953D01*
X128059950Y-68150954D01*
X128059949Y-68150954D01*
X128198036Y-68191499D01*
X128198038Y-68191500D01*
X128198039Y-68191500D01*
X128341962Y-68191500D01*
X128341962Y-68191499D01*
X128478190Y-68151500D01*
X128480050Y-68150954D01*
X128480050Y-68150953D01*
X128480053Y-68150953D01*
X128601128Y-68073143D01*
X128695377Y-67964373D01*
X128755165Y-67833457D01*
X128775647Y-67691000D01*
X128755165Y-67548543D01*
X128695377Y-67417627D01*
X128601128Y-67308857D01*
X128480053Y-67231047D01*
X128480051Y-67231046D01*
X128480049Y-67231045D01*
X128480050Y-67231045D01*
X128341963Y-67190500D01*
X128341961Y-67190500D01*
X128198039Y-67190500D01*
X128198036Y-67190500D01*
X128059949Y-67231045D01*
X127938873Y-67308856D01*
X127844623Y-67417626D01*
X127844622Y-67417628D01*
X127784834Y-67548543D01*
X127764353Y-67691000D01*
X123489975Y-67691000D01*
X123485165Y-67657543D01*
X123425377Y-67526627D01*
X123331128Y-67417857D01*
X123210053Y-67340047D01*
X123210051Y-67340046D01*
X123210049Y-67340045D01*
X123210050Y-67340045D01*
X123071963Y-67299500D01*
X123071961Y-67299500D01*
X122928039Y-67299500D01*
X122928036Y-67299500D01*
X122789949Y-67340045D01*
X122668873Y-67417856D01*
X122574623Y-67526626D01*
X122574622Y-67526628D01*
X122514834Y-67657543D01*
X122494353Y-67800000D01*
X112283118Y-67800000D01*
X112233734Y-67785500D01*
X112233732Y-67785500D01*
X112089810Y-67785500D01*
X112089807Y-67785500D01*
X111951720Y-67826045D01*
X111830644Y-67903856D01*
X111736394Y-68012626D01*
X111736393Y-68012628D01*
X111676605Y-68143543D01*
X111656124Y-68286000D01*
X93268293Y-68286000D01*
X93347079Y-68195075D01*
X93406867Y-68064159D01*
X93427349Y-67921702D01*
X93406867Y-67779245D01*
X93347079Y-67648329D01*
X93252830Y-67539559D01*
X93131755Y-67461749D01*
X93131753Y-67461748D01*
X93131751Y-67461747D01*
X93131752Y-67461747D01*
X93047469Y-67437000D01*
X93855353Y-67437000D01*
X93875834Y-67579456D01*
X93930886Y-67700000D01*
X93935623Y-67710373D01*
X94029872Y-67819143D01*
X94150947Y-67896953D01*
X94150950Y-67896954D01*
X94150949Y-67896954D01*
X94289036Y-67937499D01*
X94289038Y-67937500D01*
X94289039Y-67937500D01*
X94432962Y-67937500D01*
X94432962Y-67937499D01*
X94547543Y-67903856D01*
X94571050Y-67896954D01*
X94571050Y-67896953D01*
X94571053Y-67896953D01*
X94692128Y-67819143D01*
X94786377Y-67710373D01*
X94846165Y-67579457D01*
X94866647Y-67437000D01*
X94848387Y-67310000D01*
X107190353Y-67310000D01*
X107210834Y-67452456D01*
X107267099Y-67575656D01*
X107270623Y-67583373D01*
X107364872Y-67692143D01*
X107485947Y-67769953D01*
X107485950Y-67769954D01*
X107485949Y-67769954D01*
X107624036Y-67810499D01*
X107624038Y-67810500D01*
X107624039Y-67810500D01*
X107767962Y-67810500D01*
X107767962Y-67810499D01*
X107875121Y-67779035D01*
X107906050Y-67769954D01*
X107906050Y-67769953D01*
X107906053Y-67769953D01*
X108027128Y-67692143D01*
X108062778Y-67651000D01*
X109794353Y-67651000D01*
X109814834Y-67793456D01*
X109872286Y-67919256D01*
X109874623Y-67924373D01*
X109968872Y-68033143D01*
X110089947Y-68110953D01*
X110089950Y-68110954D01*
X110089949Y-68110954D01*
X110197107Y-68142417D01*
X110226179Y-68150954D01*
X110228036Y-68151499D01*
X110228038Y-68151500D01*
X110228039Y-68151500D01*
X110371962Y-68151500D01*
X110371962Y-68151499D01*
X110510053Y-68110953D01*
X110631128Y-68033143D01*
X110725377Y-67924373D01*
X110785165Y-67793457D01*
X110805647Y-67651000D01*
X110785165Y-67508543D01*
X110725377Y-67377627D01*
X110631128Y-67268857D01*
X110510053Y-67191047D01*
X110510051Y-67191046D01*
X110510049Y-67191045D01*
X110510050Y-67191045D01*
X110371963Y-67150500D01*
X110371961Y-67150500D01*
X110228039Y-67150500D01*
X110228036Y-67150500D01*
X110089949Y-67191045D01*
X109968873Y-67268856D01*
X109874623Y-67377626D01*
X109874622Y-67377628D01*
X109814834Y-67508543D01*
X109794353Y-67651000D01*
X108062778Y-67651000D01*
X108121377Y-67583373D01*
X108181165Y-67452457D01*
X108201647Y-67310000D01*
X108181165Y-67167543D01*
X108121377Y-67036627D01*
X108027128Y-66927857D01*
X107906053Y-66850047D01*
X107906051Y-66850046D01*
X107906049Y-66850045D01*
X107906050Y-66850045D01*
X107767963Y-66809500D01*
X107767961Y-66809500D01*
X107624039Y-66809500D01*
X107624036Y-66809500D01*
X107485949Y-66850045D01*
X107364873Y-66927856D01*
X107270623Y-67036626D01*
X107270622Y-67036628D01*
X107210834Y-67167543D01*
X107190353Y-67310000D01*
X94848387Y-67310000D01*
X94846165Y-67294543D01*
X94786377Y-67163627D01*
X94692128Y-67054857D01*
X94571053Y-66977047D01*
X94571051Y-66977046D01*
X94571049Y-66977045D01*
X94571050Y-66977045D01*
X94432963Y-66936500D01*
X94432961Y-66936500D01*
X94289039Y-66936500D01*
X94289036Y-66936500D01*
X94150949Y-66977045D01*
X94029873Y-67054856D01*
X93935623Y-67163626D01*
X93935622Y-67163628D01*
X93875834Y-67294543D01*
X93855353Y-67437000D01*
X93047469Y-67437000D01*
X92993665Y-67421202D01*
X92993663Y-67421202D01*
X92849741Y-67421202D01*
X92849738Y-67421202D01*
X92711651Y-67461747D01*
X92590574Y-67539559D01*
X92590571Y-67539561D01*
X92504219Y-67639216D01*
X92445441Y-67676990D01*
X92375571Y-67676990D01*
X92316793Y-67639215D01*
X92287769Y-67575661D01*
X92285165Y-67557543D01*
X92225377Y-67426627D01*
X92131128Y-67317857D01*
X92010053Y-67240047D01*
X92010051Y-67240046D01*
X92010049Y-67240045D01*
X92010050Y-67240045D01*
X91871963Y-67199500D01*
X91871961Y-67199500D01*
X91728039Y-67199500D01*
X91728036Y-67199500D01*
X91589949Y-67240045D01*
X91468873Y-67317856D01*
X91374623Y-67426626D01*
X91374622Y-67426628D01*
X91314834Y-67557543D01*
X91294353Y-67700000D01*
X90803342Y-67700000D01*
X90710053Y-67640047D01*
X90710051Y-67640046D01*
X90710049Y-67640045D01*
X90710050Y-67640045D01*
X90571963Y-67599500D01*
X90571961Y-67599500D01*
X90428039Y-67599500D01*
X90427400Y-67599500D01*
X90360361Y-67579815D01*
X90314606Y-67527011D01*
X90304662Y-67493147D01*
X90285165Y-67357543D01*
X90267040Y-67317856D01*
X90225377Y-67226627D01*
X90131128Y-67117857D01*
X90010053Y-67040047D01*
X90010051Y-67040046D01*
X90010049Y-67040045D01*
X90010050Y-67040045D01*
X89871963Y-66999500D01*
X89871961Y-66999500D01*
X89728039Y-66999500D01*
X89728036Y-66999500D01*
X89589949Y-67040045D01*
X89468873Y-67117856D01*
X89374623Y-67226626D01*
X89374622Y-67226628D01*
X89314834Y-67357543D01*
X89294353Y-67500000D01*
X87618589Y-67500000D01*
X87627647Y-67437000D01*
X87607165Y-67294543D01*
X87547377Y-67163627D01*
X87453128Y-67054857D01*
X87332053Y-66977047D01*
X87332051Y-66977046D01*
X87332049Y-66977045D01*
X87332050Y-66977045D01*
X87193963Y-66936500D01*
X87193961Y-66936500D01*
X87050039Y-66936500D01*
X87050036Y-66936500D01*
X86911949Y-66977045D01*
X86790873Y-67054856D01*
X86696623Y-67163626D01*
X86696622Y-67163628D01*
X86636834Y-67294543D01*
X86616353Y-67437000D01*
X81780500Y-67437000D01*
X81780500Y-66548000D01*
X120144353Y-66548000D01*
X120164834Y-66690456D01*
X120193833Y-66753953D01*
X120224623Y-66821373D01*
X120318872Y-66930143D01*
X120439947Y-67007953D01*
X120439950Y-67007954D01*
X120439949Y-67007954D01*
X120578036Y-67048499D01*
X120578038Y-67048500D01*
X120578039Y-67048500D01*
X120721962Y-67048500D01*
X120721962Y-67048499D01*
X120860053Y-67007953D01*
X120981128Y-66930143D01*
X121075377Y-66821373D01*
X121135165Y-66690457D01*
X121155647Y-66548000D01*
X121135165Y-66405543D01*
X121075377Y-66274627D01*
X120981128Y-66165857D01*
X120860053Y-66088047D01*
X120860051Y-66088046D01*
X120860049Y-66088045D01*
X120860050Y-66088045D01*
X120721963Y-66047500D01*
X120721961Y-66047500D01*
X120578039Y-66047500D01*
X120578036Y-66047500D01*
X120439949Y-66088045D01*
X120318873Y-66165856D01*
X120224623Y-66274626D01*
X120224622Y-66274628D01*
X120164834Y-66405543D01*
X120144353Y-66548000D01*
X81780500Y-66548000D01*
X81780500Y-65405000D01*
X82044353Y-65405000D01*
X82064834Y-65547456D01*
X82124622Y-65678371D01*
X82124623Y-65678373D01*
X82218872Y-65787143D01*
X82339947Y-65864953D01*
X82339950Y-65864954D01*
X82339949Y-65864954D01*
X82478036Y-65905499D01*
X82478038Y-65905500D01*
X82478039Y-65905500D01*
X82621962Y-65905500D01*
X82621962Y-65905499D01*
X82760053Y-65864953D01*
X82881128Y-65787143D01*
X82975377Y-65678373D01*
X83035165Y-65547457D01*
X83055647Y-65405000D01*
X83037387Y-65278000D01*
X97157353Y-65278000D01*
X97177834Y-65420456D01*
X97202000Y-65473371D01*
X97237623Y-65551373D01*
X97331872Y-65660143D01*
X97452947Y-65737953D01*
X97452950Y-65737954D01*
X97452949Y-65737954D01*
X97591036Y-65778499D01*
X97591038Y-65778500D01*
X97591039Y-65778500D01*
X97734962Y-65778500D01*
X97734962Y-65778499D01*
X97873053Y-65737953D01*
X97994128Y-65660143D01*
X98088377Y-65551373D01*
X98148165Y-65420457D01*
X98168647Y-65278000D01*
X98157432Y-65200000D01*
X99594353Y-65200000D01*
X99614834Y-65342456D01*
X99650456Y-65420456D01*
X99674623Y-65473373D01*
X99768872Y-65582143D01*
X99889947Y-65659953D01*
X99889950Y-65659954D01*
X99889949Y-65659954D01*
X100028036Y-65700499D01*
X100028038Y-65700500D01*
X100028039Y-65700500D01*
X100171962Y-65700500D01*
X100171962Y-65700499D01*
X100310053Y-65659953D01*
X100431128Y-65582143D01*
X100525377Y-65473373D01*
X100585165Y-65342457D01*
X100605647Y-65200000D01*
X107394353Y-65200000D01*
X107414834Y-65342456D01*
X107450456Y-65420456D01*
X107474623Y-65473373D01*
X107568872Y-65582143D01*
X107689947Y-65659953D01*
X107689950Y-65659954D01*
X107689949Y-65659954D01*
X107828036Y-65700499D01*
X107828038Y-65700500D01*
X107828039Y-65700500D01*
X107971962Y-65700500D01*
X107971962Y-65700499D01*
X108110053Y-65659953D01*
X108231128Y-65582143D01*
X108325377Y-65473373D01*
X108385165Y-65342457D01*
X108394432Y-65278000D01*
X117731353Y-65278000D01*
X117751834Y-65420456D01*
X117776000Y-65473371D01*
X117811623Y-65551373D01*
X117905872Y-65660143D01*
X118026947Y-65737953D01*
X118026950Y-65737954D01*
X118026949Y-65737954D01*
X118165036Y-65778499D01*
X118165038Y-65778500D01*
X118165039Y-65778500D01*
X118308962Y-65778500D01*
X118308962Y-65778499D01*
X118447053Y-65737953D01*
X118568128Y-65660143D01*
X118662377Y-65551373D01*
X118722165Y-65420457D01*
X118742647Y-65278000D01*
X118731432Y-65200000D01*
X120294353Y-65200000D01*
X120314834Y-65342456D01*
X120350456Y-65420456D01*
X120374623Y-65473373D01*
X120468872Y-65582143D01*
X120589947Y-65659953D01*
X120589950Y-65659954D01*
X120589949Y-65659954D01*
X120728036Y-65700499D01*
X120728038Y-65700500D01*
X120728039Y-65700500D01*
X120871962Y-65700500D01*
X120871962Y-65700499D01*
X121010053Y-65659953D01*
X121011536Y-65659000D01*
X124335353Y-65659000D01*
X124355834Y-65801456D01*
X124415622Y-65932371D01*
X124415623Y-65932373D01*
X124509872Y-66041143D01*
X124630947Y-66118953D01*
X124630950Y-66118954D01*
X124630949Y-66118954D01*
X124769036Y-66159499D01*
X124769038Y-66159500D01*
X124769039Y-66159500D01*
X124912962Y-66159500D01*
X124912962Y-66159499D01*
X125051053Y-66118953D01*
X125172128Y-66041143D01*
X125266377Y-65932373D01*
X125326165Y-65801457D01*
X125346647Y-65659000D01*
X125326165Y-65516543D01*
X125266377Y-65385627D01*
X125172128Y-65276857D01*
X125052536Y-65200000D01*
X130394353Y-65200000D01*
X130414834Y-65342456D01*
X130450456Y-65420456D01*
X130474623Y-65473373D01*
X130568872Y-65582143D01*
X130689947Y-65659953D01*
X130689950Y-65659954D01*
X130689949Y-65659954D01*
X130828036Y-65700499D01*
X130828038Y-65700500D01*
X130898492Y-65700500D01*
X130965531Y-65720185D01*
X131011286Y-65772989D01*
X131021230Y-65842147D01*
X130992205Y-65905703D01*
X130892623Y-66020626D01*
X130892622Y-66020628D01*
X130832834Y-66151543D01*
X130812353Y-66294000D01*
X130832834Y-66436456D01*
X130892622Y-66567371D01*
X130892623Y-66567373D01*
X130986872Y-66676143D01*
X131107947Y-66753953D01*
X131107950Y-66753954D01*
X131107949Y-66753954D01*
X131246036Y-66794499D01*
X131246038Y-66794500D01*
X131246039Y-66794500D01*
X131389962Y-66794500D01*
X131389962Y-66794499D01*
X131528053Y-66753953D01*
X131649128Y-66676143D01*
X131743377Y-66567373D01*
X131803165Y-66436457D01*
X131823647Y-66294000D01*
X131803165Y-66151543D01*
X131743377Y-66020627D01*
X131649128Y-65911857D01*
X131528053Y-65834047D01*
X131528051Y-65834046D01*
X131528049Y-65834045D01*
X131528050Y-65834045D01*
X131389963Y-65793500D01*
X131389961Y-65793500D01*
X131319508Y-65793500D01*
X131252469Y-65773815D01*
X131206714Y-65721011D01*
X131196770Y-65651853D01*
X131225795Y-65588297D01*
X131231126Y-65582143D01*
X131231128Y-65582143D01*
X131325377Y-65473373D01*
X131385165Y-65342457D01*
X131405647Y-65200000D01*
X131385165Y-65057543D01*
X131325377Y-64926627D01*
X131231128Y-64817857D01*
X131110053Y-64740047D01*
X131110051Y-64740046D01*
X131110049Y-64740045D01*
X131110050Y-64740045D01*
X130971963Y-64699500D01*
X130971961Y-64699500D01*
X130828039Y-64699500D01*
X130828036Y-64699500D01*
X130689949Y-64740045D01*
X130568873Y-64817856D01*
X130474623Y-64926626D01*
X130474622Y-64926628D01*
X130414834Y-65057543D01*
X130394353Y-65200000D01*
X125052536Y-65200000D01*
X125051053Y-65199047D01*
X125051051Y-65199046D01*
X125051049Y-65199045D01*
X125051050Y-65199045D01*
X124912963Y-65158500D01*
X124912961Y-65158500D01*
X124769039Y-65158500D01*
X124769036Y-65158500D01*
X124630949Y-65199045D01*
X124509873Y-65276856D01*
X124415623Y-65385626D01*
X124415622Y-65385628D01*
X124355834Y-65516543D01*
X124335353Y-65659000D01*
X121011536Y-65659000D01*
X121131128Y-65582143D01*
X121225377Y-65473373D01*
X121285165Y-65342457D01*
X121305647Y-65200000D01*
X121285165Y-65057543D01*
X121225377Y-64926627D01*
X121131128Y-64817857D01*
X121010053Y-64740047D01*
X121010051Y-64740046D01*
X121010049Y-64740045D01*
X121010050Y-64740045D01*
X120871963Y-64699500D01*
X120871961Y-64699500D01*
X120728039Y-64699500D01*
X120728036Y-64699500D01*
X120589949Y-64740045D01*
X120468873Y-64817856D01*
X120374623Y-64926626D01*
X120374622Y-64926628D01*
X120314834Y-65057543D01*
X120294353Y-65200000D01*
X118731432Y-65200000D01*
X118722165Y-65135543D01*
X118662377Y-65004627D01*
X118568128Y-64895857D01*
X118447053Y-64818047D01*
X118447051Y-64818046D01*
X118447049Y-64818045D01*
X118447050Y-64818045D01*
X118308963Y-64777500D01*
X118308961Y-64777500D01*
X118165039Y-64777500D01*
X118165036Y-64777500D01*
X118026949Y-64818045D01*
X117905873Y-64895856D01*
X117811623Y-65004626D01*
X117811622Y-65004628D01*
X117751834Y-65135543D01*
X117731353Y-65278000D01*
X108394432Y-65278000D01*
X108405647Y-65200000D01*
X108385165Y-65057543D01*
X108325377Y-64926627D01*
X108231128Y-64817857D01*
X108110053Y-64740047D01*
X108110051Y-64740046D01*
X108110049Y-64740045D01*
X108110050Y-64740045D01*
X107971963Y-64699500D01*
X107971961Y-64699500D01*
X107828039Y-64699500D01*
X107828036Y-64699500D01*
X107689949Y-64740045D01*
X107568873Y-64817856D01*
X107474623Y-64926626D01*
X107474622Y-64926628D01*
X107414834Y-65057543D01*
X107394353Y-65200000D01*
X100605647Y-65200000D01*
X100585165Y-65057543D01*
X100525377Y-64926627D01*
X100431128Y-64817857D01*
X100310053Y-64740047D01*
X100310051Y-64740046D01*
X100310049Y-64740045D01*
X100310050Y-64740045D01*
X100171963Y-64699500D01*
X100171961Y-64699500D01*
X100028039Y-64699500D01*
X100028036Y-64699500D01*
X99889949Y-64740045D01*
X99768873Y-64817856D01*
X99674623Y-64926626D01*
X99674622Y-64926628D01*
X99614834Y-65057543D01*
X99594353Y-65200000D01*
X98157432Y-65200000D01*
X98148165Y-65135543D01*
X98088377Y-65004627D01*
X97994128Y-64895857D01*
X97873053Y-64818047D01*
X97873051Y-64818046D01*
X97873049Y-64818045D01*
X97873050Y-64818045D01*
X97734963Y-64777500D01*
X97734961Y-64777500D01*
X97591039Y-64777500D01*
X97591036Y-64777500D01*
X97452949Y-64818045D01*
X97331873Y-64895856D01*
X97237623Y-65004626D01*
X97237622Y-65004628D01*
X97177834Y-65135543D01*
X97157353Y-65278000D01*
X83037387Y-65278000D01*
X83035165Y-65262543D01*
X82975377Y-65131627D01*
X82881128Y-65022857D01*
X82760053Y-64945047D01*
X82760051Y-64945046D01*
X82760049Y-64945045D01*
X82760050Y-64945045D01*
X82621963Y-64904500D01*
X82621961Y-64904500D01*
X82478039Y-64904500D01*
X82478036Y-64904500D01*
X82339949Y-64945045D01*
X82218873Y-65022856D01*
X82124623Y-65131626D01*
X82124622Y-65131628D01*
X82064834Y-65262543D01*
X82044353Y-65405000D01*
X81780500Y-65405000D01*
X81780500Y-62900000D01*
X87894353Y-62900000D01*
X87914834Y-63042456D01*
X87974622Y-63173371D01*
X87974623Y-63173373D01*
X88068872Y-63282143D01*
X88189947Y-63359953D01*
X88259051Y-63380243D01*
X88317827Y-63418016D01*
X88346853Y-63481572D01*
X88336910Y-63550730D01*
X88291158Y-63603533D01*
X88268875Y-63617853D01*
X88268874Y-63617855D01*
X88174623Y-63726626D01*
X88174622Y-63726628D01*
X88114834Y-63857543D01*
X88094353Y-64000000D01*
X88114834Y-64142456D01*
X88160504Y-64242457D01*
X88174623Y-64273373D01*
X88268872Y-64382143D01*
X88389947Y-64459953D01*
X88389950Y-64459954D01*
X88389949Y-64459954D01*
X88528036Y-64500499D01*
X88528038Y-64500500D01*
X88528039Y-64500500D01*
X88671962Y-64500500D01*
X88671962Y-64500499D01*
X88810053Y-64459953D01*
X88931128Y-64382143D01*
X89025377Y-64273373D01*
X89085165Y-64142457D01*
X89105647Y-64000000D01*
X89103360Y-63984094D01*
X90173190Y-63984094D01*
X90193671Y-64126550D01*
X90246605Y-64242457D01*
X90253460Y-64257467D01*
X90347709Y-64366237D01*
X90468784Y-64444047D01*
X90468787Y-64444048D01*
X90468786Y-64444048D01*
X90606873Y-64484593D01*
X90606875Y-64484594D01*
X90606876Y-64484594D01*
X90750799Y-64484594D01*
X90750799Y-64484593D01*
X90888890Y-64444047D01*
X91009965Y-64366237D01*
X91104214Y-64257467D01*
X91164002Y-64126551D01*
X91167819Y-64100000D01*
X109994353Y-64100000D01*
X110014834Y-64242456D01*
X110060504Y-64342457D01*
X110074623Y-64373373D01*
X110168872Y-64482143D01*
X110289947Y-64559953D01*
X110289950Y-64559954D01*
X110289949Y-64559954D01*
X110428036Y-64600499D01*
X110428038Y-64600500D01*
X110428039Y-64600500D01*
X110571962Y-64600500D01*
X110571962Y-64600499D01*
X110679121Y-64569035D01*
X110710050Y-64559954D01*
X110710050Y-64559953D01*
X110710053Y-64559953D01*
X110831128Y-64482143D01*
X110925377Y-64373373D01*
X110985165Y-64242457D01*
X110991269Y-64200000D01*
X112994353Y-64200000D01*
X113014834Y-64342456D01*
X113068494Y-64459953D01*
X113074623Y-64473373D01*
X113168872Y-64582143D01*
X113289947Y-64659953D01*
X113289950Y-64659954D01*
X113289949Y-64659954D01*
X113397107Y-64691417D01*
X113424633Y-64699500D01*
X113428036Y-64700499D01*
X113428038Y-64700500D01*
X113428039Y-64700500D01*
X113571962Y-64700500D01*
X113571962Y-64700499D01*
X113710053Y-64659953D01*
X113831128Y-64582143D01*
X113849805Y-64560588D01*
X127194353Y-64560588D01*
X127214834Y-64703044D01*
X127231733Y-64740047D01*
X127274623Y-64833961D01*
X127368872Y-64942731D01*
X127489947Y-65020541D01*
X127489950Y-65020542D01*
X127489949Y-65020542D01*
X127628036Y-65061087D01*
X127628038Y-65061088D01*
X127628039Y-65061088D01*
X127771962Y-65061088D01*
X127771962Y-65061087D01*
X127879121Y-65029623D01*
X127910050Y-65020542D01*
X127910050Y-65020541D01*
X127910053Y-65020541D01*
X128031128Y-64942731D01*
X128125377Y-64833961D01*
X128185165Y-64703045D01*
X128205647Y-64560588D01*
X128185165Y-64418131D01*
X128125377Y-64287215D01*
X128031128Y-64178445D01*
X127910053Y-64100635D01*
X127910051Y-64100634D01*
X127910049Y-64100633D01*
X127910050Y-64100633D01*
X127771963Y-64060088D01*
X127771961Y-64060088D01*
X127628039Y-64060088D01*
X127628036Y-64060088D01*
X127489949Y-64100633D01*
X127368873Y-64178444D01*
X127274623Y-64287214D01*
X127274622Y-64287216D01*
X127214834Y-64418131D01*
X127194353Y-64560588D01*
X113849805Y-64560588D01*
X113925377Y-64473373D01*
X113985165Y-64342457D01*
X114005647Y-64200000D01*
X113985165Y-64057543D01*
X113925377Y-63926627D01*
X113831128Y-63817857D01*
X113710053Y-63740047D01*
X113710051Y-63740046D01*
X113710049Y-63740045D01*
X113710050Y-63740045D01*
X113571963Y-63699500D01*
X113571961Y-63699500D01*
X113428039Y-63699500D01*
X113428036Y-63699500D01*
X113289949Y-63740045D01*
X113168873Y-63817856D01*
X113074623Y-63926626D01*
X113074622Y-63926628D01*
X113014834Y-64057543D01*
X112994353Y-64200000D01*
X110991269Y-64200000D01*
X111005647Y-64100000D01*
X110985165Y-63957543D01*
X110925377Y-63826627D01*
X110831128Y-63717857D01*
X110710053Y-63640047D01*
X110710051Y-63640046D01*
X110710049Y-63640045D01*
X110710050Y-63640045D01*
X110571963Y-63599500D01*
X110571961Y-63599500D01*
X110428039Y-63599500D01*
X110428036Y-63599500D01*
X110289949Y-63640045D01*
X110168873Y-63717856D01*
X110074623Y-63826626D01*
X110074622Y-63826628D01*
X110014834Y-63957543D01*
X109994353Y-64100000D01*
X91167819Y-64100000D01*
X91184484Y-63984094D01*
X91164002Y-63841637D01*
X91104214Y-63710721D01*
X91009965Y-63601951D01*
X90888890Y-63524141D01*
X90888888Y-63524140D01*
X90888886Y-63524139D01*
X90888887Y-63524139D01*
X90750800Y-63483594D01*
X90750798Y-63483594D01*
X90606876Y-63483594D01*
X90606873Y-63483594D01*
X90468786Y-63524139D01*
X90347710Y-63601950D01*
X90253460Y-63710720D01*
X90253459Y-63710722D01*
X90193671Y-63841637D01*
X90173190Y-63984094D01*
X89103360Y-63984094D01*
X89085165Y-63857543D01*
X89025377Y-63726627D01*
X88931128Y-63617857D01*
X88896581Y-63595655D01*
X88810051Y-63540045D01*
X88740949Y-63519756D01*
X88682171Y-63481982D01*
X88653146Y-63418426D01*
X88663089Y-63349268D01*
X88708844Y-63296464D01*
X88708843Y-63296464D01*
X88731128Y-63282143D01*
X88825377Y-63173373D01*
X88885165Y-63042457D01*
X88905647Y-62900000D01*
X108594353Y-62900000D01*
X108614834Y-63042456D01*
X108674622Y-63173371D01*
X108674623Y-63173373D01*
X108768872Y-63282143D01*
X108889947Y-63359953D01*
X108889950Y-63359954D01*
X108889949Y-63359954D01*
X109028036Y-63400499D01*
X109028038Y-63400500D01*
X109028039Y-63400500D01*
X109171962Y-63400500D01*
X109171962Y-63400499D01*
X109293236Y-63364891D01*
X109310050Y-63359954D01*
X109310050Y-63359953D01*
X109310053Y-63359953D01*
X109431128Y-63282143D01*
X109525377Y-63173373D01*
X109585165Y-63042457D01*
X109605647Y-62900000D01*
X109585165Y-62757543D01*
X109525377Y-62626627D01*
X109431128Y-62517857D01*
X109310053Y-62440047D01*
X109310051Y-62440046D01*
X109310049Y-62440045D01*
X109310050Y-62440045D01*
X109171963Y-62399500D01*
X109171961Y-62399500D01*
X109028039Y-62399500D01*
X109028036Y-62399500D01*
X108889949Y-62440045D01*
X108768873Y-62517856D01*
X108674623Y-62626626D01*
X108674622Y-62626628D01*
X108614834Y-62757543D01*
X108594353Y-62900000D01*
X88905647Y-62900000D01*
X88885165Y-62757543D01*
X88825377Y-62626627D01*
X88731128Y-62517857D01*
X88610053Y-62440047D01*
X88610051Y-62440046D01*
X88610049Y-62440045D01*
X88610050Y-62440045D01*
X88471963Y-62399500D01*
X88471961Y-62399500D01*
X88328039Y-62399500D01*
X88328036Y-62399500D01*
X88189949Y-62440045D01*
X88068873Y-62517856D01*
X87974623Y-62626626D01*
X87974622Y-62626628D01*
X87914834Y-62757543D01*
X87894353Y-62900000D01*
X81780500Y-62900000D01*
X81780500Y-62010518D01*
X92421214Y-62010518D01*
X92441695Y-62152974D01*
X92501483Y-62283889D01*
X92501484Y-62283891D01*
X92595733Y-62392661D01*
X92716808Y-62470471D01*
X92716811Y-62470472D01*
X92716810Y-62470472D01*
X92854897Y-62511017D01*
X92854899Y-62511018D01*
X92854900Y-62511018D01*
X92998823Y-62511018D01*
X92998823Y-62511017D01*
X93136914Y-62470471D01*
X93257989Y-62392661D01*
X93352238Y-62283891D01*
X93412026Y-62152975D01*
X93432508Y-62010518D01*
X93412026Y-61868061D01*
X93352238Y-61737145D01*
X93257989Y-61628375D01*
X93136914Y-61550565D01*
X93136912Y-61550564D01*
X93136910Y-61550563D01*
X93136911Y-61550563D01*
X92998824Y-61510018D01*
X92998822Y-61510018D01*
X92854900Y-61510018D01*
X92854897Y-61510018D01*
X92716810Y-61550563D01*
X92595734Y-61628374D01*
X92501484Y-61737144D01*
X92501483Y-61737146D01*
X92441695Y-61868061D01*
X92421214Y-62010518D01*
X81780500Y-62010518D01*
X81780500Y-61200000D01*
X85052353Y-61200000D01*
X85072834Y-61342456D01*
X85126744Y-61460500D01*
X85132623Y-61473373D01*
X85226872Y-61582143D01*
X85347947Y-61659953D01*
X85347950Y-61659954D01*
X85347949Y-61659954D01*
X85486036Y-61700499D01*
X85486038Y-61700500D01*
X85486039Y-61700500D01*
X85629962Y-61700500D01*
X85629962Y-61700499D01*
X85768053Y-61659953D01*
X85889128Y-61582143D01*
X85983377Y-61473373D01*
X86043165Y-61342457D01*
X86043374Y-61341000D01*
X97157353Y-61341000D01*
X97177834Y-61483456D01*
X97222904Y-61582143D01*
X97237623Y-61614373D01*
X97331872Y-61723143D01*
X97452947Y-61800953D01*
X97452950Y-61800954D01*
X97452949Y-61800954D01*
X97591036Y-61841499D01*
X97591038Y-61841500D01*
X97591039Y-61841500D01*
X97734962Y-61841500D01*
X97734962Y-61841499D01*
X97873053Y-61800953D01*
X97994128Y-61723143D01*
X98088377Y-61614373D01*
X98094941Y-61600000D01*
X98394353Y-61600000D01*
X98414834Y-61742456D01*
X98453275Y-61826628D01*
X98474623Y-61873373D01*
X98568872Y-61982143D01*
X98689947Y-62059953D01*
X98689950Y-62059954D01*
X98689949Y-62059954D01*
X98797107Y-62091417D01*
X98826336Y-62100000D01*
X98828036Y-62100499D01*
X98828038Y-62100500D01*
X98828039Y-62100500D01*
X98971962Y-62100500D01*
X98971962Y-62100499D01*
X98973661Y-62100000D01*
X115769351Y-62100000D01*
X115789832Y-62242456D01*
X115828273Y-62326628D01*
X115849621Y-62373373D01*
X115943870Y-62482143D01*
X116064945Y-62559953D01*
X116064948Y-62559954D01*
X116064947Y-62559954D01*
X116172105Y-62591417D01*
X116201334Y-62600000D01*
X116203034Y-62600499D01*
X116203036Y-62600500D01*
X116203037Y-62600500D01*
X116346960Y-62600500D01*
X116346960Y-62600499D01*
X116348659Y-62600000D01*
X118994353Y-62600000D01*
X119014834Y-62742456D01*
X119074622Y-62873371D01*
X119074623Y-62873373D01*
X119168872Y-62982143D01*
X119289947Y-63059953D01*
X119289950Y-63059954D01*
X119289949Y-63059954D01*
X119428036Y-63100499D01*
X119428038Y-63100500D01*
X119428039Y-63100500D01*
X119571962Y-63100500D01*
X119571962Y-63100499D01*
X119710053Y-63059953D01*
X119831128Y-62982143D01*
X119902305Y-62900000D01*
X129094353Y-62900000D01*
X129114834Y-63042456D01*
X129174622Y-63173371D01*
X129174623Y-63173373D01*
X129268872Y-63282143D01*
X129268874Y-63282144D01*
X129268874Y-63282145D01*
X129308025Y-63307305D01*
X129353781Y-63360108D01*
X129363725Y-63429267D01*
X129334701Y-63492823D01*
X129283747Y-63551628D01*
X129283746Y-63551629D01*
X129223958Y-63682544D01*
X129203477Y-63825001D01*
X129223958Y-63967457D01*
X129265100Y-64057543D01*
X129283747Y-64098374D01*
X129377996Y-64207144D01*
X129499071Y-64284954D01*
X129499074Y-64284955D01*
X129499073Y-64284955D01*
X129637160Y-64325500D01*
X129637162Y-64325501D01*
X129637163Y-64325501D01*
X129781086Y-64325501D01*
X129781086Y-64325500D01*
X129888245Y-64294036D01*
X129919174Y-64284955D01*
X129919174Y-64284954D01*
X129919177Y-64284954D01*
X130040252Y-64207144D01*
X130134501Y-64098374D01*
X130194289Y-63967458D01*
X130214771Y-63825001D01*
X130194289Y-63682544D01*
X130134501Y-63551628D01*
X130040252Y-63442858D01*
X130001096Y-63417694D01*
X129955342Y-63364891D01*
X129945398Y-63295732D01*
X129974423Y-63232177D01*
X129974424Y-63232176D01*
X130025374Y-63173377D01*
X130025374Y-63173375D01*
X130025377Y-63173373D01*
X130085165Y-63042457D01*
X130105647Y-62900000D01*
X130085165Y-62757543D01*
X130025377Y-62626627D01*
X129931128Y-62517857D01*
X129810053Y-62440047D01*
X129810051Y-62440046D01*
X129810049Y-62440045D01*
X129810050Y-62440045D01*
X129671963Y-62399500D01*
X129671961Y-62399500D01*
X129528039Y-62399500D01*
X129528036Y-62399500D01*
X129389949Y-62440045D01*
X129268873Y-62517856D01*
X129174623Y-62626626D01*
X129174622Y-62626628D01*
X129114834Y-62757543D01*
X129094353Y-62900000D01*
X119902305Y-62900000D01*
X119925377Y-62873373D01*
X119985165Y-62742457D01*
X120005647Y-62600000D01*
X119985165Y-62457543D01*
X119925377Y-62326627D01*
X119831128Y-62217857D01*
X119710053Y-62140047D01*
X119710051Y-62140046D01*
X119710049Y-62140045D01*
X119710050Y-62140045D01*
X119571963Y-62099500D01*
X119571961Y-62099500D01*
X119428039Y-62099500D01*
X119428036Y-62099500D01*
X119289949Y-62140045D01*
X119168873Y-62217856D01*
X119074623Y-62326626D01*
X119074622Y-62326628D01*
X119014834Y-62457543D01*
X118994353Y-62600000D01*
X116348659Y-62600000D01*
X116485051Y-62559953D01*
X116606126Y-62482143D01*
X116700375Y-62373373D01*
X116760163Y-62242457D01*
X116780645Y-62100000D01*
X116760163Y-61957543D01*
X116700375Y-61826627D01*
X116606126Y-61717857D01*
X116485051Y-61640047D01*
X116485049Y-61640046D01*
X116485047Y-61640045D01*
X116485048Y-61640045D01*
X116346961Y-61599500D01*
X116346959Y-61599500D01*
X116203037Y-61599500D01*
X116203034Y-61599500D01*
X116064947Y-61640045D01*
X115943871Y-61717856D01*
X115849621Y-61826626D01*
X115849620Y-61826628D01*
X115789832Y-61957543D01*
X115769351Y-62100000D01*
X98973661Y-62100000D01*
X99110053Y-62059953D01*
X99231128Y-61982143D01*
X99325377Y-61873373D01*
X99385165Y-61742457D01*
X99405647Y-61600000D01*
X99385165Y-61457543D01*
X99325377Y-61326627D01*
X99231128Y-61217857D01*
X99110053Y-61140047D01*
X99110051Y-61140046D01*
X99110049Y-61140045D01*
X99110050Y-61140045D01*
X98971963Y-61099500D01*
X98971961Y-61099500D01*
X98828039Y-61099500D01*
X98828036Y-61099500D01*
X98689949Y-61140045D01*
X98568873Y-61217856D01*
X98474623Y-61326626D01*
X98474622Y-61326628D01*
X98414834Y-61457543D01*
X98394353Y-61600000D01*
X98094941Y-61600000D01*
X98148165Y-61483457D01*
X98168647Y-61341000D01*
X98148165Y-61198543D01*
X98088377Y-61067627D01*
X97995118Y-60960000D01*
X101729353Y-60960000D01*
X101749834Y-61102456D01*
X101802537Y-61217857D01*
X101809623Y-61233373D01*
X101903872Y-61342143D01*
X102024947Y-61419953D01*
X102024950Y-61419954D01*
X102024949Y-61419954D01*
X102132107Y-61451417D01*
X102161179Y-61459954D01*
X102163036Y-61460499D01*
X102163038Y-61460500D01*
X102163039Y-61460500D01*
X102306962Y-61460500D01*
X102306962Y-61460499D01*
X102445053Y-61419953D01*
X102566128Y-61342143D01*
X102660377Y-61233373D01*
X102720165Y-61102457D01*
X102734896Y-61000000D01*
X103594353Y-61000000D01*
X103614834Y-61142456D01*
X103640449Y-61198543D01*
X103674623Y-61273373D01*
X103768872Y-61382143D01*
X103889947Y-61459953D01*
X103889950Y-61459954D01*
X103889949Y-61459954D01*
X104028036Y-61500499D01*
X104028038Y-61500500D01*
X104028039Y-61500500D01*
X104171962Y-61500500D01*
X104171962Y-61500499D01*
X104308190Y-61460500D01*
X104310050Y-61459954D01*
X104310050Y-61459953D01*
X104310053Y-61459953D01*
X104431128Y-61382143D01*
X104525377Y-61273373D01*
X104585165Y-61142457D01*
X104605647Y-61000000D01*
X104585165Y-60857543D01*
X104525377Y-60726627D01*
X104431128Y-60617857D01*
X104310053Y-60540047D01*
X104310051Y-60540046D01*
X104310049Y-60540045D01*
X104310050Y-60540045D01*
X104171963Y-60499500D01*
X104171961Y-60499500D01*
X104028039Y-60499500D01*
X104028036Y-60499500D01*
X103889949Y-60540045D01*
X103768873Y-60617856D01*
X103674623Y-60726626D01*
X103674622Y-60726628D01*
X103614834Y-60857543D01*
X103594353Y-61000000D01*
X102734896Y-61000000D01*
X102740647Y-60960000D01*
X102720165Y-60817543D01*
X102660377Y-60686627D01*
X102566128Y-60577857D01*
X102445053Y-60500047D01*
X102445051Y-60500046D01*
X102445049Y-60500045D01*
X102445050Y-60500045D01*
X102306963Y-60459500D01*
X102306961Y-60459500D01*
X102163039Y-60459500D01*
X102163036Y-60459500D01*
X102024949Y-60500045D01*
X101903873Y-60577856D01*
X101809623Y-60686626D01*
X101809622Y-60686628D01*
X101749834Y-60817543D01*
X101729353Y-60960000D01*
X97995118Y-60960000D01*
X97994128Y-60958857D01*
X97873053Y-60881047D01*
X97873051Y-60881046D01*
X97873049Y-60881045D01*
X97873050Y-60881045D01*
X97734963Y-60840500D01*
X97734961Y-60840500D01*
X97591039Y-60840500D01*
X97591036Y-60840500D01*
X97452949Y-60881045D01*
X97331873Y-60958856D01*
X97237623Y-61067626D01*
X97237622Y-61067628D01*
X97177834Y-61198543D01*
X97157353Y-61341000D01*
X86043374Y-61341000D01*
X86063647Y-61200000D01*
X86043165Y-61057543D01*
X85983377Y-60926627D01*
X85889128Y-60817857D01*
X85768053Y-60740047D01*
X85768051Y-60740046D01*
X85768049Y-60740045D01*
X85768050Y-60740045D01*
X85629963Y-60699500D01*
X85629961Y-60699500D01*
X85486039Y-60699500D01*
X85486036Y-60699500D01*
X85347949Y-60740045D01*
X85226873Y-60817856D01*
X85132623Y-60926626D01*
X85132622Y-60926628D01*
X85072834Y-61057543D01*
X85052353Y-61200000D01*
X81780500Y-61200000D01*
X81780500Y-59400000D01*
X95194353Y-59400000D01*
X95214834Y-59542456D01*
X95260504Y-59642457D01*
X95274623Y-59673373D01*
X95368872Y-59782143D01*
X95489947Y-59859953D01*
X95489950Y-59859954D01*
X95489949Y-59859954D01*
X95628036Y-59900499D01*
X95628038Y-59900500D01*
X95628039Y-59900500D01*
X95771962Y-59900500D01*
X95771962Y-59900499D01*
X95910053Y-59859953D01*
X95976889Y-59817000D01*
X111635353Y-59817000D01*
X111655834Y-59959456D01*
X111709254Y-60076427D01*
X111715623Y-60090373D01*
X111809872Y-60199143D01*
X111930947Y-60276953D01*
X111930950Y-60276954D01*
X111930949Y-60276954D01*
X112069036Y-60317499D01*
X112069038Y-60317500D01*
X112069039Y-60317500D01*
X112212962Y-60317500D01*
X112212962Y-60317499D01*
X112351053Y-60276953D01*
X112472128Y-60199143D01*
X112566377Y-60090373D01*
X112626165Y-59959457D01*
X112646647Y-59817000D01*
X112626165Y-59674543D01*
X112566377Y-59543627D01*
X112528574Y-59500000D01*
X115894353Y-59500000D01*
X115914834Y-59642456D01*
X115928953Y-59673371D01*
X115974623Y-59773373D01*
X116068872Y-59882143D01*
X116189947Y-59959953D01*
X116189950Y-59959954D01*
X116189949Y-59959954D01*
X116328036Y-60000499D01*
X116328038Y-60000500D01*
X116328039Y-60000500D01*
X116471962Y-60000500D01*
X116471962Y-60000499D01*
X116579121Y-59969035D01*
X116610050Y-59959954D01*
X116610050Y-59959953D01*
X116610053Y-59959953D01*
X116731128Y-59882143D01*
X116825377Y-59773373D01*
X116863453Y-59690000D01*
X121668353Y-59690000D01*
X121688834Y-59832456D01*
X121748622Y-59963371D01*
X121748623Y-59963373D01*
X121842872Y-60072143D01*
X121963947Y-60149953D01*
X121963950Y-60149954D01*
X121963949Y-60149954D01*
X122102036Y-60190499D01*
X122102038Y-60190500D01*
X122102039Y-60190500D01*
X122245962Y-60190500D01*
X122245962Y-60190499D01*
X122384053Y-60149953D01*
X122505128Y-60072143D01*
X122599377Y-59963373D01*
X122659165Y-59832457D01*
X122679647Y-59690000D01*
X122659165Y-59547543D01*
X122637453Y-59500000D01*
X125994353Y-59500000D01*
X126014834Y-59642456D01*
X126028953Y-59673371D01*
X126074623Y-59773373D01*
X126168872Y-59882143D01*
X126289947Y-59959953D01*
X126289950Y-59959954D01*
X126289949Y-59959954D01*
X126428036Y-60000499D01*
X126428038Y-60000500D01*
X126428039Y-60000500D01*
X126571962Y-60000500D01*
X126571962Y-60000499D01*
X126679121Y-59969035D01*
X126710050Y-59959954D01*
X126710050Y-59959953D01*
X126710053Y-59959953D01*
X126831128Y-59882143D01*
X126925377Y-59773373D01*
X126985165Y-59642457D01*
X127005647Y-59500000D01*
X126985165Y-59357543D01*
X126925377Y-59226627D01*
X126831128Y-59117857D01*
X126710053Y-59040047D01*
X126710051Y-59040046D01*
X126710049Y-59040045D01*
X126710050Y-59040045D01*
X126571963Y-58999500D01*
X126571961Y-58999500D01*
X126428039Y-58999500D01*
X126428036Y-58999500D01*
X126289949Y-59040045D01*
X126168873Y-59117856D01*
X126074623Y-59226626D01*
X126074622Y-59226628D01*
X126014834Y-59357543D01*
X125994353Y-59500000D01*
X122637453Y-59500000D01*
X122599377Y-59416627D01*
X122505128Y-59307857D01*
X122384053Y-59230047D01*
X122384051Y-59230046D01*
X122384049Y-59230045D01*
X122384050Y-59230045D01*
X122245963Y-59189500D01*
X122245961Y-59189500D01*
X122102039Y-59189500D01*
X122102036Y-59189500D01*
X121963949Y-59230045D01*
X121842873Y-59307856D01*
X121748623Y-59416626D01*
X121748622Y-59416628D01*
X121688834Y-59547543D01*
X121668353Y-59690000D01*
X116863453Y-59690000D01*
X116885165Y-59642457D01*
X116905647Y-59500000D01*
X116885165Y-59357543D01*
X116825377Y-59226627D01*
X116731128Y-59117857D01*
X116610053Y-59040047D01*
X116610051Y-59040046D01*
X116610049Y-59040045D01*
X116610050Y-59040045D01*
X116471963Y-58999500D01*
X116471961Y-58999500D01*
X116328039Y-58999500D01*
X116328036Y-58999500D01*
X116189949Y-59040045D01*
X116068873Y-59117856D01*
X115974623Y-59226626D01*
X115974622Y-59226628D01*
X115914834Y-59357543D01*
X115894353Y-59500000D01*
X112528574Y-59500000D01*
X112472128Y-59434857D01*
X112351053Y-59357047D01*
X112351051Y-59357046D01*
X112351049Y-59357045D01*
X112351050Y-59357045D01*
X112212963Y-59316500D01*
X112212961Y-59316500D01*
X112069039Y-59316500D01*
X112069036Y-59316500D01*
X111930949Y-59357045D01*
X111809873Y-59434856D01*
X111715623Y-59543626D01*
X111715622Y-59543628D01*
X111655834Y-59674543D01*
X111635353Y-59817000D01*
X95976889Y-59817000D01*
X96031128Y-59782143D01*
X96125377Y-59673373D01*
X96185165Y-59542457D01*
X96205647Y-59400000D01*
X96185165Y-59257543D01*
X96125377Y-59126627D01*
X96031128Y-59017857D01*
X95910053Y-58940047D01*
X95910051Y-58940046D01*
X95910049Y-58940045D01*
X95910050Y-58940045D01*
X95771963Y-58899500D01*
X95771961Y-58899500D01*
X95628039Y-58899500D01*
X95628036Y-58899500D01*
X95489949Y-58940045D01*
X95368873Y-59017856D01*
X95274623Y-59126626D01*
X95274622Y-59126628D01*
X95214834Y-59257543D01*
X95194353Y-59400000D01*
X81780500Y-59400000D01*
X81780500Y-58547000D01*
X84584353Y-58547000D01*
X84604834Y-58689456D01*
X84664622Y-58820371D01*
X84664623Y-58820373D01*
X84758872Y-58929143D01*
X84879947Y-59006953D01*
X84879950Y-59006954D01*
X84879949Y-59006954D01*
X85018036Y-59047499D01*
X85018038Y-59047500D01*
X85018039Y-59047500D01*
X85161962Y-59047500D01*
X85161962Y-59047499D01*
X85300053Y-59006953D01*
X85421128Y-58929143D01*
X85515377Y-58820373D01*
X85575165Y-58689457D01*
X85595647Y-58547000D01*
X85575165Y-58404543D01*
X85515377Y-58273627D01*
X85421128Y-58164857D01*
X85300053Y-58087047D01*
X85300051Y-58087046D01*
X85300049Y-58087045D01*
X85300050Y-58087045D01*
X85161963Y-58046500D01*
X85161961Y-58046500D01*
X85018039Y-58046500D01*
X85018036Y-58046500D01*
X84879949Y-58087045D01*
X84758873Y-58164856D01*
X84664623Y-58273626D01*
X84664622Y-58273628D01*
X84604834Y-58404543D01*
X84584353Y-58547000D01*
X81780500Y-58547000D01*
X81780500Y-57785000D01*
X96903353Y-57785000D01*
X96923834Y-57927456D01*
X96978201Y-58046500D01*
X96983623Y-58058373D01*
X97077872Y-58167143D01*
X97198947Y-58244953D01*
X97198950Y-58244954D01*
X97198949Y-58244954D01*
X97337036Y-58285499D01*
X97337038Y-58285500D01*
X97337039Y-58285500D01*
X97480962Y-58285500D01*
X97480962Y-58285499D01*
X97619053Y-58244953D01*
X97740128Y-58167143D01*
X97834377Y-58058373D01*
X97843224Y-58039000D01*
X101475353Y-58039000D01*
X101495834Y-58181456D01*
X101543350Y-58285499D01*
X101555623Y-58312373D01*
X101649872Y-58421143D01*
X101770947Y-58498953D01*
X101770950Y-58498954D01*
X101770949Y-58498954D01*
X101909036Y-58539499D01*
X101909038Y-58539500D01*
X101909039Y-58539500D01*
X102052962Y-58539500D01*
X102052962Y-58539499D01*
X102191053Y-58498953D01*
X102312128Y-58421143D01*
X102406377Y-58312373D01*
X102466165Y-58181457D01*
X102486647Y-58039000D01*
X102466165Y-57896543D01*
X102406377Y-57765627D01*
X102312128Y-57656857D01*
X102191053Y-57579047D01*
X102191051Y-57579046D01*
X102191049Y-57579045D01*
X102191050Y-57579045D01*
X102052963Y-57538500D01*
X102052961Y-57538500D01*
X101909039Y-57538500D01*
X101909036Y-57538500D01*
X101770949Y-57579045D01*
X101649873Y-57656856D01*
X101555623Y-57765626D01*
X101555622Y-57765628D01*
X101495834Y-57896543D01*
X101475353Y-58039000D01*
X97843224Y-58039000D01*
X97894165Y-57927457D01*
X97914647Y-57785000D01*
X97894165Y-57642543D01*
X97834377Y-57511627D01*
X97740128Y-57402857D01*
X97619053Y-57325047D01*
X97619051Y-57325046D01*
X97619049Y-57325045D01*
X97619050Y-57325045D01*
X97480963Y-57284500D01*
X97480961Y-57284500D01*
X97337039Y-57284500D01*
X97337036Y-57284500D01*
X97198949Y-57325045D01*
X97077873Y-57402856D01*
X96983623Y-57511626D01*
X96983622Y-57511628D01*
X96923834Y-57642543D01*
X96903353Y-57785000D01*
X81780500Y-57785000D01*
X81780500Y-56896000D01*
X85473353Y-56896000D01*
X85493834Y-57038456D01*
X85513369Y-57081231D01*
X85553623Y-57169373D01*
X85647872Y-57278143D01*
X85768947Y-57355953D01*
X85768950Y-57355954D01*
X85768949Y-57355954D01*
X85907036Y-57396499D01*
X85907038Y-57396500D01*
X85907039Y-57396500D01*
X86050962Y-57396500D01*
X86050962Y-57396499D01*
X86189053Y-57355953D01*
X86310128Y-57278143D01*
X86404377Y-57169373D01*
X86464165Y-57038457D01*
X86484647Y-56896000D01*
X86464165Y-56753543D01*
X86404377Y-56622627D01*
X86310128Y-56513857D01*
X86189053Y-56436047D01*
X86189051Y-56436046D01*
X86189049Y-56436045D01*
X86189050Y-56436045D01*
X86050963Y-56395500D01*
X86050961Y-56395500D01*
X85907039Y-56395500D01*
X85907036Y-56395500D01*
X85768949Y-56436045D01*
X85647873Y-56513856D01*
X85553623Y-56622626D01*
X85553622Y-56622628D01*
X85493834Y-56753543D01*
X85473353Y-56896000D01*
X81780500Y-56896000D01*
X81780500Y-56417502D01*
X81800185Y-56350463D01*
X81852989Y-56304708D01*
X81922147Y-56294764D01*
X81963929Y-56308671D01*
X81965911Y-56309753D01*
X82100620Y-56359996D01*
X82100627Y-56359998D01*
X82160155Y-56366399D01*
X82160172Y-56366400D01*
X83955828Y-56366400D01*
X83955844Y-56366399D01*
X84015376Y-56359998D01*
X84015377Y-56359997D01*
X84039170Y-56351122D01*
X84039170Y-56351120D01*
X83187411Y-55499362D01*
X83250993Y-55482325D01*
X83365007Y-55416499D01*
X83458099Y-55323407D01*
X83523925Y-55209393D01*
X83540962Y-55145810D01*
X84392722Y-55997570D01*
X84392723Y-55997570D01*
X84401598Y-55973775D01*
X84407999Y-55914244D01*
X84408000Y-55914227D01*
X84408000Y-55513586D01*
X84427685Y-55446547D01*
X84480489Y-55400792D01*
X84549647Y-55390848D01*
X84613203Y-55419873D01*
X84641356Y-55455129D01*
X84720315Y-55602850D01*
X84742365Y-55629718D01*
X84851589Y-55762810D01*
X84869821Y-55777772D01*
X85011550Y-55894085D01*
X85194046Y-55991632D01*
X85392066Y-56051700D01*
X85392065Y-56051700D01*
X85410529Y-56053518D01*
X85598000Y-56071983D01*
X85803934Y-56051700D01*
X86001954Y-55991632D01*
X86184450Y-55894085D01*
X86344410Y-55762810D01*
X86475685Y-55602850D01*
X86573232Y-55420354D01*
X86633300Y-55222334D01*
X86653583Y-55016400D01*
X87082417Y-55016400D01*
X87102699Y-55222332D01*
X87102700Y-55222334D01*
X87162768Y-55420354D01*
X87260315Y-55602850D01*
X87282365Y-55629718D01*
X87391589Y-55762810D01*
X87409821Y-55777772D01*
X87551550Y-55894085D01*
X87734046Y-55991632D01*
X87932066Y-56051700D01*
X87932065Y-56051700D01*
X87950529Y-56053518D01*
X88138000Y-56071983D01*
X88343934Y-56051700D01*
X88541954Y-55991632D01*
X88724450Y-55894085D01*
X88884410Y-55762810D01*
X89015685Y-55602850D01*
X89113232Y-55420354D01*
X89173300Y-55222334D01*
X89193583Y-55016400D01*
X89622417Y-55016400D01*
X89642699Y-55222332D01*
X89642700Y-55222334D01*
X89702768Y-55420354D01*
X89800315Y-55602850D01*
X89822365Y-55629718D01*
X89931589Y-55762810D01*
X89949821Y-55777772D01*
X90091550Y-55894085D01*
X90274046Y-55991632D01*
X90472066Y-56051700D01*
X90472065Y-56051700D01*
X90490529Y-56053518D01*
X90678000Y-56071983D01*
X90883934Y-56051700D01*
X91081954Y-55991632D01*
X91264450Y-55894085D01*
X91424410Y-55762810D01*
X91555685Y-55602850D01*
X91653232Y-55420354D01*
X91713300Y-55222334D01*
X91733583Y-55016400D01*
X92162417Y-55016400D01*
X92182699Y-55222332D01*
X92182700Y-55222334D01*
X92242768Y-55420354D01*
X92340315Y-55602850D01*
X92362365Y-55629718D01*
X92471589Y-55762810D01*
X92489821Y-55777772D01*
X92631550Y-55894085D01*
X92814046Y-55991632D01*
X93012066Y-56051700D01*
X93012065Y-56051700D01*
X93030529Y-56053518D01*
X93218000Y-56071983D01*
X93423934Y-56051700D01*
X93621954Y-55991632D01*
X93804450Y-55894085D01*
X93964410Y-55762810D01*
X94095685Y-55602850D01*
X94193232Y-55420354D01*
X94253300Y-55222334D01*
X94273583Y-55016400D01*
X94702417Y-55016400D01*
X94722699Y-55222332D01*
X94722700Y-55222334D01*
X94782768Y-55420354D01*
X94880315Y-55602850D01*
X94902365Y-55629718D01*
X95011589Y-55762810D01*
X95029821Y-55777772D01*
X95171550Y-55894085D01*
X95354046Y-55991632D01*
X95552066Y-56051700D01*
X95552065Y-56051700D01*
X95570529Y-56053518D01*
X95758000Y-56071983D01*
X95963934Y-56051700D01*
X96161954Y-55991632D01*
X96344450Y-55894085D01*
X96504410Y-55762810D01*
X96635685Y-55602850D01*
X96733232Y-55420354D01*
X96793300Y-55222334D01*
X96813583Y-55016400D01*
X97242417Y-55016400D01*
X97262699Y-55222332D01*
X97262700Y-55222334D01*
X97322768Y-55420354D01*
X97420315Y-55602850D01*
X97442365Y-55629718D01*
X97551589Y-55762810D01*
X97569821Y-55777772D01*
X97711550Y-55894085D01*
X97894046Y-55991632D01*
X98092066Y-56051700D01*
X98092065Y-56051700D01*
X98110529Y-56053518D01*
X98298000Y-56071983D01*
X98503934Y-56051700D01*
X98701954Y-55991632D01*
X98884450Y-55894085D01*
X98884463Y-55894074D01*
X98888217Y-55891567D01*
X98954894Y-55870688D01*
X99022274Y-55889171D01*
X99068966Y-55941149D01*
X99080144Y-56010118D01*
X99079848Y-56012314D01*
X99062353Y-56133999D01*
X99082834Y-56276456D01*
X99137201Y-56395500D01*
X99142623Y-56407373D01*
X99236872Y-56516143D01*
X99357947Y-56593953D01*
X99357950Y-56593954D01*
X99357949Y-56593954D01*
X99496036Y-56634499D01*
X99496038Y-56634500D01*
X99496039Y-56634500D01*
X99639962Y-56634500D01*
X99639962Y-56634499D01*
X99778053Y-56593953D01*
X99899128Y-56516143D01*
X99993377Y-56407373D01*
X100053165Y-56276457D01*
X100073647Y-56134000D01*
X100056151Y-56012313D01*
X100066095Y-55943157D01*
X100111849Y-55890353D01*
X100178889Y-55870668D01*
X100245928Y-55890352D01*
X100247777Y-55891564D01*
X100251546Y-55894082D01*
X100251550Y-55894085D01*
X100434046Y-55991632D01*
X100632066Y-56051700D01*
X100632065Y-56051700D01*
X100650529Y-56053518D01*
X100838000Y-56071983D01*
X101043934Y-56051700D01*
X101241954Y-55991632D01*
X101424450Y-55894085D01*
X101584410Y-55762810D01*
X101715685Y-55602850D01*
X101813232Y-55420354D01*
X101833406Y-55353846D01*
X101871702Y-55295410D01*
X101935514Y-55266953D01*
X102004581Y-55277512D01*
X102056975Y-55323736D01*
X102071841Y-55357749D01*
X102104567Y-55479886D01*
X102104570Y-55479892D01*
X102204398Y-55693976D01*
X102263073Y-55777772D01*
X102895037Y-55145808D01*
X102912075Y-55209393D01*
X102977901Y-55323407D01*
X103070993Y-55416499D01*
X103185007Y-55482325D01*
X103248590Y-55499362D01*
X102616626Y-56131326D01*
X102700417Y-56189998D01*
X102700421Y-56190000D01*
X102914507Y-56289829D01*
X102914516Y-56289833D01*
X103142673Y-56350967D01*
X103142684Y-56350969D01*
X103377998Y-56371557D01*
X103378002Y-56371557D01*
X103613315Y-56350969D01*
X103613326Y-56350967D01*
X103841483Y-56289833D01*
X103841492Y-56289829D01*
X104055579Y-56189999D01*
X104090313Y-56165678D01*
X104156519Y-56143350D01*
X104224286Y-56160359D01*
X104272100Y-56211306D01*
X104284779Y-56280016D01*
X104284176Y-56284898D01*
X104269352Y-56387999D01*
X104289834Y-56530456D01*
X104347834Y-56657456D01*
X104349623Y-56661373D01*
X104443872Y-56770143D01*
X104564947Y-56847953D01*
X104564950Y-56847954D01*
X104564949Y-56847954D01*
X104703036Y-56888499D01*
X104703038Y-56888500D01*
X104703039Y-56888500D01*
X104846962Y-56888500D01*
X104846962Y-56888499D01*
X104985053Y-56847953D01*
X105106128Y-56770143D01*
X105200377Y-56661373D01*
X105260165Y-56530457D01*
X105262387Y-56515000D01*
X111635353Y-56515000D01*
X111655834Y-56657456D01*
X111713834Y-56784456D01*
X111715623Y-56788373D01*
X111809872Y-56897143D01*
X111930947Y-56974953D01*
X111930950Y-56974954D01*
X111930949Y-56974954D01*
X112069036Y-57015499D01*
X112069038Y-57015500D01*
X112069039Y-57015500D01*
X112212962Y-57015500D01*
X112212962Y-57015499D01*
X112351053Y-56974953D01*
X112472128Y-56897143D01*
X112566377Y-56788373D01*
X112626165Y-56657457D01*
X112646647Y-56515000D01*
X112628387Y-56388000D01*
X127129353Y-56388000D01*
X127149834Y-56530456D01*
X127207834Y-56657456D01*
X127209623Y-56661373D01*
X127303872Y-56770143D01*
X127424947Y-56847953D01*
X127424950Y-56847954D01*
X127424949Y-56847954D01*
X127563036Y-56888499D01*
X127563038Y-56888500D01*
X127563039Y-56888500D01*
X127706962Y-56888500D01*
X127706962Y-56888499D01*
X127845053Y-56847953D01*
X127966128Y-56770143D01*
X128060377Y-56661373D01*
X128120165Y-56530457D01*
X128140647Y-56388000D01*
X128120165Y-56245543D01*
X128060377Y-56114627D01*
X128060375Y-56114625D01*
X128060374Y-56114622D01*
X128029020Y-56078438D01*
X127999995Y-56014883D01*
X128009939Y-55945724D01*
X128055694Y-55892920D01*
X128122733Y-55873236D01*
X128185876Y-55891776D01*
X128186178Y-55891213D01*
X128188886Y-55892660D01*
X128189773Y-55892921D01*
X128191538Y-55894078D01*
X128191547Y-55894083D01*
X128191550Y-55894085D01*
X128374046Y-55991632D01*
X128572066Y-56051700D01*
X128572065Y-56051700D01*
X128590529Y-56053518D01*
X128778000Y-56071983D01*
X128983934Y-56051700D01*
X129181954Y-55991632D01*
X129364450Y-55894085D01*
X129524410Y-55762810D01*
X129655685Y-55602850D01*
X129753232Y-55420354D01*
X129813300Y-55222334D01*
X129833583Y-55016400D01*
X130262417Y-55016400D01*
X130282699Y-55222332D01*
X130282700Y-55222334D01*
X130342768Y-55420354D01*
X130440315Y-55602850D01*
X130462365Y-55629718D01*
X130571589Y-55762810D01*
X130589821Y-55777772D01*
X130731550Y-55894085D01*
X130914046Y-55991632D01*
X131112066Y-56051700D01*
X131112065Y-56051700D01*
X131130529Y-56053518D01*
X131318000Y-56071983D01*
X131523934Y-56051700D01*
X131721954Y-55991632D01*
X131904450Y-55894085D01*
X132064410Y-55762810D01*
X132195685Y-55602850D01*
X132293232Y-55420354D01*
X132353300Y-55222334D01*
X132373583Y-55016400D01*
X132353300Y-54810466D01*
X132293232Y-54612446D01*
X132195685Y-54429950D01*
X132143702Y-54366609D01*
X132064410Y-54269989D01*
X131904452Y-54138717D01*
X131904453Y-54138717D01*
X131904450Y-54138715D01*
X131721954Y-54041168D01*
X131523934Y-53981100D01*
X131523932Y-53981099D01*
X131523934Y-53981099D01*
X131318000Y-53960817D01*
X131112067Y-53981099D01*
X130914043Y-54041169D01*
X130880636Y-54059026D01*
X130731550Y-54138715D01*
X130731548Y-54138716D01*
X130731547Y-54138717D01*
X130571589Y-54269989D01*
X130440317Y-54429947D01*
X130342769Y-54612443D01*
X130282699Y-54810467D01*
X130262417Y-55016400D01*
X129833583Y-55016400D01*
X129813300Y-54810466D01*
X129753232Y-54612446D01*
X129655685Y-54429950D01*
X129603702Y-54366609D01*
X129524410Y-54269989D01*
X129364452Y-54138717D01*
X129364453Y-54138717D01*
X129364450Y-54138715D01*
X129181954Y-54041168D01*
X128983934Y-53981100D01*
X128983932Y-53981099D01*
X128983934Y-53981099D01*
X128778000Y-53960817D01*
X128572067Y-53981099D01*
X128374043Y-54041169D01*
X128340636Y-54059026D01*
X128191550Y-54138715D01*
X128191548Y-54138716D01*
X128191547Y-54138717D01*
X128031589Y-54269989D01*
X127900317Y-54429947D01*
X127802769Y-54612443D01*
X127742699Y-54810467D01*
X127722417Y-55016400D01*
X127742699Y-55222332D01*
X127742700Y-55222334D01*
X127802768Y-55420354D01*
X127900315Y-55602850D01*
X127922365Y-55629718D01*
X128027164Y-55757418D01*
X128054476Y-55821728D01*
X128042685Y-55890595D01*
X127995532Y-55942155D01*
X127927990Y-55960038D01*
X127864270Y-55940397D01*
X127845051Y-55928045D01*
X127706963Y-55887500D01*
X127706961Y-55887500D01*
X127563039Y-55887500D01*
X127563036Y-55887500D01*
X127424949Y-55928045D01*
X127303873Y-56005856D01*
X127209623Y-56114626D01*
X127209622Y-56114628D01*
X127149834Y-56245543D01*
X127129353Y-56388000D01*
X112628387Y-56388000D01*
X112626165Y-56372543D01*
X112566377Y-56241627D01*
X112472128Y-56132857D01*
X112351053Y-56055047D01*
X112351051Y-56055046D01*
X112351049Y-56055045D01*
X112351050Y-56055045D01*
X112212963Y-56014500D01*
X112212961Y-56014500D01*
X112069039Y-56014500D01*
X112069036Y-56014500D01*
X111930949Y-56055045D01*
X111809873Y-56132856D01*
X111809872Y-56132856D01*
X111809872Y-56132857D01*
X111808882Y-56134000D01*
X111715623Y-56241626D01*
X111715622Y-56241628D01*
X111655834Y-56372543D01*
X111635353Y-56515000D01*
X105262387Y-56515000D01*
X105280647Y-56388000D01*
X105260165Y-56245543D01*
X105200377Y-56114627D01*
X105200375Y-56114625D01*
X105200374Y-56114622D01*
X105169020Y-56078438D01*
X105139995Y-56014883D01*
X105149939Y-55945724D01*
X105195694Y-55892920D01*
X105262733Y-55873236D01*
X105325876Y-55891776D01*
X105326178Y-55891213D01*
X105328886Y-55892660D01*
X105329773Y-55892921D01*
X105331538Y-55894078D01*
X105331547Y-55894083D01*
X105331550Y-55894085D01*
X105514046Y-55991632D01*
X105712066Y-56051700D01*
X105712065Y-56051700D01*
X105730529Y-56053518D01*
X105918000Y-56071983D01*
X106123934Y-56051700D01*
X106321954Y-55991632D01*
X106504450Y-55894085D01*
X106664410Y-55762810D01*
X106795685Y-55602850D01*
X106893232Y-55420354D01*
X106953300Y-55222334D01*
X106973583Y-55016400D01*
X107402417Y-55016400D01*
X107422699Y-55222332D01*
X107422700Y-55222334D01*
X107482768Y-55420354D01*
X107580315Y-55602850D01*
X107602365Y-55629718D01*
X107711589Y-55762810D01*
X107729821Y-55777772D01*
X107871550Y-55894085D01*
X108054046Y-55991632D01*
X108252066Y-56051700D01*
X108252065Y-56051700D01*
X108270529Y-56053518D01*
X108458000Y-56071983D01*
X108663934Y-56051700D01*
X108861954Y-55991632D01*
X109044450Y-55894085D01*
X109204410Y-55762810D01*
X109335685Y-55602850D01*
X109433232Y-55420354D01*
X109493300Y-55222334D01*
X109513583Y-55016400D01*
X109942417Y-55016400D01*
X109962699Y-55222332D01*
X109962700Y-55222334D01*
X110022768Y-55420354D01*
X110120315Y-55602850D01*
X110142365Y-55629718D01*
X110251589Y-55762810D01*
X110269821Y-55777772D01*
X110411550Y-55894085D01*
X110594046Y-55991632D01*
X110792066Y-56051700D01*
X110792065Y-56051700D01*
X110810529Y-56053518D01*
X110998000Y-56071983D01*
X111203934Y-56051700D01*
X111401954Y-55991632D01*
X111584450Y-55894085D01*
X111744410Y-55762810D01*
X111875685Y-55602850D01*
X111973232Y-55420354D01*
X112033300Y-55222334D01*
X112053583Y-55016400D01*
X112482417Y-55016400D01*
X112502699Y-55222332D01*
X112502700Y-55222334D01*
X112562768Y-55420354D01*
X112660315Y-55602850D01*
X112682365Y-55629718D01*
X112791589Y-55762810D01*
X112809821Y-55777772D01*
X112951550Y-55894085D01*
X113134046Y-55991632D01*
X113332066Y-56051700D01*
X113332065Y-56051700D01*
X113350529Y-56053518D01*
X113538000Y-56071983D01*
X113743934Y-56051700D01*
X113941954Y-55991632D01*
X114124450Y-55894085D01*
X114284410Y-55762810D01*
X114415685Y-55602850D01*
X114513232Y-55420354D01*
X114573300Y-55222334D01*
X114593583Y-55016400D01*
X115022417Y-55016400D01*
X115042699Y-55222332D01*
X115042700Y-55222334D01*
X115102768Y-55420354D01*
X115200315Y-55602850D01*
X115222365Y-55629718D01*
X115331589Y-55762810D01*
X115349821Y-55777772D01*
X115491550Y-55894085D01*
X115674046Y-55991632D01*
X115872066Y-56051700D01*
X115872065Y-56051700D01*
X115890529Y-56053518D01*
X116078000Y-56071983D01*
X116283934Y-56051700D01*
X116481954Y-55991632D01*
X116664450Y-55894085D01*
X116824410Y-55762810D01*
X116955685Y-55602850D01*
X117053232Y-55420354D01*
X117113300Y-55222334D01*
X117133583Y-55016400D01*
X117562417Y-55016400D01*
X117582699Y-55222332D01*
X117582700Y-55222334D01*
X117642768Y-55420354D01*
X117740315Y-55602850D01*
X117762365Y-55629718D01*
X117871589Y-55762810D01*
X117889821Y-55777772D01*
X118031550Y-55894085D01*
X118214046Y-55991632D01*
X118412066Y-56051700D01*
X118412065Y-56051700D01*
X118430529Y-56053518D01*
X118618000Y-56071983D01*
X118823934Y-56051700D01*
X119021954Y-55991632D01*
X119204450Y-55894085D01*
X119364410Y-55762810D01*
X119495685Y-55602850D01*
X119593232Y-55420354D01*
X119653300Y-55222334D01*
X119673583Y-55016400D01*
X120102417Y-55016400D01*
X120122699Y-55222332D01*
X120122700Y-55222334D01*
X120182768Y-55420354D01*
X120280315Y-55602850D01*
X120302365Y-55629718D01*
X120411589Y-55762810D01*
X120429821Y-55777772D01*
X120571550Y-55894085D01*
X120754046Y-55991632D01*
X120952066Y-56051700D01*
X120952065Y-56051700D01*
X120970529Y-56053518D01*
X121158000Y-56071983D01*
X121363934Y-56051700D01*
X121561954Y-55991632D01*
X121744450Y-55894085D01*
X121904410Y-55762810D01*
X122035685Y-55602850D01*
X122133232Y-55420354D01*
X122193300Y-55222334D01*
X122213583Y-55016400D01*
X122642417Y-55016400D01*
X122662699Y-55222332D01*
X122662700Y-55222334D01*
X122722768Y-55420354D01*
X122820315Y-55602850D01*
X122842365Y-55629718D01*
X122951589Y-55762810D01*
X122969821Y-55777772D01*
X123111550Y-55894085D01*
X123294046Y-55991632D01*
X123492066Y-56051700D01*
X123492065Y-56051700D01*
X123510529Y-56053518D01*
X123698000Y-56071983D01*
X123903934Y-56051700D01*
X124101954Y-55991632D01*
X124284450Y-55894085D01*
X124444410Y-55762810D01*
X124575685Y-55602850D01*
X124673232Y-55420354D01*
X124733300Y-55222334D01*
X124753583Y-55016400D01*
X125182417Y-55016400D01*
X125202699Y-55222332D01*
X125202700Y-55222334D01*
X125262768Y-55420354D01*
X125360315Y-55602850D01*
X125382365Y-55629718D01*
X125491589Y-55762810D01*
X125509821Y-55777772D01*
X125651550Y-55894085D01*
X125834046Y-55991632D01*
X126032066Y-56051700D01*
X126032065Y-56051700D01*
X126050529Y-56053518D01*
X126238000Y-56071983D01*
X126443934Y-56051700D01*
X126641954Y-55991632D01*
X126824450Y-55894085D01*
X126984410Y-55762810D01*
X127115685Y-55602850D01*
X127213232Y-55420354D01*
X127273300Y-55222334D01*
X127293583Y-55016400D01*
X127273300Y-54810466D01*
X127213232Y-54612446D01*
X127115685Y-54429950D01*
X127063702Y-54366609D01*
X126984410Y-54269989D01*
X126824452Y-54138717D01*
X126824453Y-54138717D01*
X126824450Y-54138715D01*
X126641954Y-54041168D01*
X126443934Y-53981100D01*
X126443932Y-53981099D01*
X126443934Y-53981099D01*
X126238000Y-53960817D01*
X126032067Y-53981099D01*
X125834043Y-54041169D01*
X125800636Y-54059026D01*
X125651550Y-54138715D01*
X125651548Y-54138716D01*
X125651547Y-54138717D01*
X125491589Y-54269989D01*
X125360317Y-54429947D01*
X125262769Y-54612443D01*
X125202699Y-54810467D01*
X125182417Y-55016400D01*
X124753583Y-55016400D01*
X124733300Y-54810466D01*
X124673232Y-54612446D01*
X124575685Y-54429950D01*
X124523702Y-54366609D01*
X124444410Y-54269989D01*
X124284452Y-54138717D01*
X124284453Y-54138717D01*
X124284450Y-54138715D01*
X124101954Y-54041168D01*
X123903934Y-53981100D01*
X123903932Y-53981099D01*
X123903934Y-53981099D01*
X123698000Y-53960817D01*
X123492067Y-53981099D01*
X123294043Y-54041169D01*
X123260636Y-54059026D01*
X123111550Y-54138715D01*
X123111548Y-54138716D01*
X123111547Y-54138717D01*
X122951589Y-54269989D01*
X122820317Y-54429947D01*
X122722769Y-54612443D01*
X122662699Y-54810467D01*
X122642417Y-55016400D01*
X122213583Y-55016400D01*
X122193300Y-54810466D01*
X122133232Y-54612446D01*
X122035685Y-54429950D01*
X121983702Y-54366609D01*
X121904410Y-54269989D01*
X121744452Y-54138717D01*
X121744453Y-54138717D01*
X121744450Y-54138715D01*
X121561954Y-54041168D01*
X121363934Y-53981100D01*
X121363932Y-53981099D01*
X121363934Y-53981099D01*
X121158000Y-53960817D01*
X120952067Y-53981099D01*
X120754043Y-54041169D01*
X120720636Y-54059026D01*
X120571550Y-54138715D01*
X120571548Y-54138716D01*
X120571547Y-54138717D01*
X120411589Y-54269989D01*
X120280317Y-54429947D01*
X120182769Y-54612443D01*
X120122699Y-54810467D01*
X120102417Y-55016400D01*
X119673583Y-55016400D01*
X119653300Y-54810466D01*
X119593232Y-54612446D01*
X119495685Y-54429950D01*
X119443702Y-54366609D01*
X119364410Y-54269989D01*
X119204452Y-54138717D01*
X119204453Y-54138717D01*
X119204450Y-54138715D01*
X119021954Y-54041168D01*
X118823934Y-53981100D01*
X118823932Y-53981099D01*
X118823934Y-53981099D01*
X118618000Y-53960817D01*
X118412067Y-53981099D01*
X118214043Y-54041169D01*
X118180636Y-54059026D01*
X118031550Y-54138715D01*
X118031548Y-54138716D01*
X118031547Y-54138717D01*
X117871589Y-54269989D01*
X117740317Y-54429947D01*
X117642769Y-54612443D01*
X117582699Y-54810467D01*
X117562417Y-55016400D01*
X117133583Y-55016400D01*
X117113300Y-54810466D01*
X117053232Y-54612446D01*
X116955685Y-54429950D01*
X116903702Y-54366609D01*
X116824410Y-54269989D01*
X116664452Y-54138717D01*
X116664453Y-54138717D01*
X116664450Y-54138715D01*
X116481954Y-54041168D01*
X116283934Y-53981100D01*
X116283932Y-53981099D01*
X116283934Y-53981099D01*
X116078000Y-53960817D01*
X115872067Y-53981099D01*
X115674043Y-54041169D01*
X115640636Y-54059026D01*
X115491550Y-54138715D01*
X115491548Y-54138716D01*
X115491547Y-54138717D01*
X115331589Y-54269989D01*
X115200317Y-54429947D01*
X115102769Y-54612443D01*
X115042699Y-54810467D01*
X115022417Y-55016400D01*
X114593583Y-55016400D01*
X114573300Y-54810466D01*
X114513232Y-54612446D01*
X114415685Y-54429950D01*
X114363702Y-54366609D01*
X114284410Y-54269989D01*
X114124452Y-54138717D01*
X114124453Y-54138717D01*
X114124450Y-54138715D01*
X113941954Y-54041168D01*
X113743934Y-53981100D01*
X113743932Y-53981099D01*
X113743934Y-53981099D01*
X113538000Y-53960817D01*
X113332067Y-53981099D01*
X113134043Y-54041169D01*
X113100636Y-54059026D01*
X112951550Y-54138715D01*
X112951548Y-54138716D01*
X112951547Y-54138717D01*
X112791589Y-54269989D01*
X112660317Y-54429947D01*
X112562769Y-54612443D01*
X112502699Y-54810467D01*
X112482417Y-55016400D01*
X112053583Y-55016400D01*
X112033300Y-54810466D01*
X111973232Y-54612446D01*
X111875685Y-54429950D01*
X111823702Y-54366609D01*
X111744410Y-54269989D01*
X111584452Y-54138717D01*
X111584453Y-54138717D01*
X111584450Y-54138715D01*
X111401954Y-54041168D01*
X111203934Y-53981100D01*
X111203932Y-53981099D01*
X111203934Y-53981099D01*
X110998000Y-53960817D01*
X110792067Y-53981099D01*
X110594043Y-54041169D01*
X110560636Y-54059026D01*
X110411550Y-54138715D01*
X110411548Y-54138716D01*
X110411547Y-54138717D01*
X110251589Y-54269989D01*
X110120317Y-54429947D01*
X110022769Y-54612443D01*
X109962699Y-54810467D01*
X109942417Y-55016400D01*
X109513583Y-55016400D01*
X109493300Y-54810466D01*
X109433232Y-54612446D01*
X109335685Y-54429950D01*
X109283702Y-54366609D01*
X109204410Y-54269989D01*
X109044452Y-54138717D01*
X109044453Y-54138717D01*
X109044450Y-54138715D01*
X108861954Y-54041168D01*
X108663934Y-53981100D01*
X108663932Y-53981099D01*
X108663934Y-53981099D01*
X108458000Y-53960817D01*
X108252067Y-53981099D01*
X108054043Y-54041169D01*
X108020636Y-54059026D01*
X107871550Y-54138715D01*
X107871548Y-54138716D01*
X107871547Y-54138717D01*
X107711589Y-54269989D01*
X107580317Y-54429947D01*
X107482769Y-54612443D01*
X107422699Y-54810467D01*
X107402417Y-55016400D01*
X106973583Y-55016400D01*
X106953300Y-54810466D01*
X106893232Y-54612446D01*
X106795685Y-54429950D01*
X106743702Y-54366609D01*
X106664410Y-54269989D01*
X106504452Y-54138717D01*
X106504453Y-54138717D01*
X106504450Y-54138715D01*
X106321954Y-54041168D01*
X106123934Y-53981100D01*
X106123932Y-53981099D01*
X106123934Y-53981099D01*
X105918000Y-53960817D01*
X105712067Y-53981099D01*
X105514043Y-54041169D01*
X105480636Y-54059026D01*
X105331550Y-54138715D01*
X105331548Y-54138716D01*
X105331547Y-54138717D01*
X105171589Y-54269989D01*
X105040317Y-54429947D01*
X104942767Y-54612446D01*
X104922593Y-54678952D01*
X104884296Y-54737390D01*
X104820483Y-54765847D01*
X104751416Y-54755286D01*
X104699023Y-54709061D01*
X104684158Y-54675049D01*
X104651433Y-54552916D01*
X104651429Y-54552907D01*
X104551601Y-54338824D01*
X104492925Y-54255026D01*
X103860962Y-54886990D01*
X103843925Y-54823407D01*
X103778099Y-54709393D01*
X103685007Y-54616301D01*
X103570993Y-54550475D01*
X103507409Y-54533437D01*
X104139372Y-53901473D01*
X104055576Y-53842798D01*
X103841492Y-53742970D01*
X103841486Y-53742967D01*
X103719349Y-53710241D01*
X103659689Y-53673876D01*
X103629160Y-53611029D01*
X103637455Y-53541653D01*
X103681940Y-53487775D01*
X103715444Y-53471807D01*
X103781954Y-53451632D01*
X103964450Y-53354085D01*
X104124410Y-53222810D01*
X104255685Y-53062850D01*
X104353232Y-52880354D01*
X104413300Y-52682334D01*
X104433583Y-52476400D01*
X104862417Y-52476400D01*
X104882699Y-52682332D01*
X104912734Y-52781344D01*
X104942768Y-52880354D01*
X105040315Y-53062850D01*
X105040317Y-53062852D01*
X105171589Y-53222810D01*
X105268209Y-53302102D01*
X105331550Y-53354085D01*
X105514046Y-53451632D01*
X105712066Y-53511700D01*
X105712065Y-53511700D01*
X105730529Y-53513518D01*
X105918000Y-53531983D01*
X106123934Y-53511700D01*
X106321954Y-53451632D01*
X106504450Y-53354085D01*
X106664410Y-53222810D01*
X106795685Y-53062850D01*
X106893232Y-52880354D01*
X106953300Y-52682334D01*
X106973583Y-52476400D01*
X106953300Y-52270466D01*
X106893232Y-52072446D01*
X106795685Y-51889950D01*
X106696136Y-51768648D01*
X106664410Y-51729989D01*
X106516183Y-51608344D01*
X106504450Y-51598715D01*
X106321954Y-51501168D01*
X106123934Y-51441100D01*
X106123932Y-51441099D01*
X106123934Y-51441099D01*
X105918000Y-51420817D01*
X105712067Y-51441099D01*
X105514043Y-51501169D01*
X105403898Y-51560043D01*
X105331550Y-51598715D01*
X105331548Y-51598716D01*
X105331547Y-51598717D01*
X105171589Y-51729989D01*
X105040317Y-51889947D01*
X104942769Y-52072443D01*
X104882699Y-52270467D01*
X104862417Y-52476400D01*
X104433583Y-52476400D01*
X104413300Y-52270466D01*
X104353232Y-52072446D01*
X104255685Y-51889950D01*
X104156136Y-51768648D01*
X104124410Y-51729989D01*
X103976183Y-51608344D01*
X103964450Y-51598715D01*
X103781954Y-51501168D01*
X103583934Y-51441100D01*
X103583932Y-51441099D01*
X103583934Y-51441099D01*
X103378000Y-51420817D01*
X103172067Y-51441099D01*
X102974043Y-51501169D01*
X102863898Y-51560043D01*
X102791550Y-51598715D01*
X102791548Y-51598716D01*
X102791547Y-51598717D01*
X102631589Y-51729989D01*
X102500317Y-51889947D01*
X102402769Y-52072443D01*
X102342699Y-52270467D01*
X102322417Y-52476400D01*
X102342699Y-52682332D01*
X102372734Y-52781344D01*
X102402768Y-52880354D01*
X102500315Y-53062850D01*
X102500317Y-53062852D01*
X102631589Y-53222810D01*
X102728209Y-53302102D01*
X102791550Y-53354085D01*
X102974046Y-53451632D01*
X103040551Y-53471805D01*
X103098989Y-53510102D01*
X103127446Y-53573914D01*
X103116887Y-53642981D01*
X103070663Y-53695375D01*
X103036650Y-53710241D01*
X102914514Y-53742967D01*
X102914507Y-53742970D01*
X102700423Y-53842799D01*
X102700421Y-53842800D01*
X102616627Y-53901473D01*
X102616626Y-53901473D01*
X103248591Y-54533437D01*
X103185007Y-54550475D01*
X103070993Y-54616301D01*
X102977901Y-54709393D01*
X102912075Y-54823407D01*
X102895037Y-54886990D01*
X102263073Y-54255026D01*
X102263073Y-54255027D01*
X102204400Y-54338821D01*
X102204399Y-54338823D01*
X102104570Y-54552907D01*
X102104567Y-54552914D01*
X102071841Y-54675050D01*
X102035476Y-54734710D01*
X101972629Y-54765239D01*
X101903253Y-54756944D01*
X101849375Y-54712459D01*
X101833406Y-54678952D01*
X101813232Y-54612446D01*
X101715685Y-54429950D01*
X101663702Y-54366609D01*
X101584410Y-54269989D01*
X101424452Y-54138717D01*
X101424453Y-54138717D01*
X101424450Y-54138715D01*
X101241954Y-54041168D01*
X101043934Y-53981100D01*
X101043932Y-53981099D01*
X101043934Y-53981099D01*
X100838000Y-53960817D01*
X100632067Y-53981099D01*
X100434043Y-54041169D01*
X100400636Y-54059026D01*
X100251550Y-54138715D01*
X100251548Y-54138716D01*
X100251547Y-54138717D01*
X100091589Y-54269989D01*
X99960317Y-54429947D01*
X99862769Y-54612443D01*
X99802699Y-54810467D01*
X99782417Y-55016400D01*
X99802699Y-55222332D01*
X99862769Y-55420356D01*
X99900028Y-55490062D01*
X99914270Y-55558465D01*
X99889270Y-55623709D01*
X99832965Y-55665080D01*
X99763232Y-55669442D01*
X99755736Y-55667493D01*
X99639964Y-55633500D01*
X99639961Y-55633500D01*
X99496039Y-55633500D01*
X99496035Y-55633500D01*
X99380263Y-55667493D01*
X99310393Y-55667493D01*
X99251615Y-55629718D01*
X99222591Y-55566162D01*
X99232535Y-55497003D01*
X99235972Y-55490062D01*
X99273232Y-55420354D01*
X99333300Y-55222334D01*
X99353583Y-55016400D01*
X99333300Y-54810466D01*
X99273232Y-54612446D01*
X99175685Y-54429950D01*
X99123702Y-54366609D01*
X99044410Y-54269989D01*
X98884452Y-54138717D01*
X98884453Y-54138717D01*
X98884450Y-54138715D01*
X98701954Y-54041168D01*
X98503934Y-53981100D01*
X98503932Y-53981099D01*
X98503934Y-53981099D01*
X98298000Y-53960817D01*
X98092067Y-53981099D01*
X97894043Y-54041169D01*
X97860636Y-54059026D01*
X97711550Y-54138715D01*
X97711548Y-54138716D01*
X97711547Y-54138717D01*
X97551589Y-54269989D01*
X97420317Y-54429947D01*
X97322769Y-54612443D01*
X97262699Y-54810467D01*
X97242417Y-55016400D01*
X96813583Y-55016400D01*
X96793300Y-54810466D01*
X96733232Y-54612446D01*
X96635685Y-54429950D01*
X96583702Y-54366609D01*
X96504410Y-54269989D01*
X96344452Y-54138717D01*
X96344453Y-54138717D01*
X96344450Y-54138715D01*
X96161954Y-54041168D01*
X95963934Y-53981100D01*
X95963932Y-53981099D01*
X95963934Y-53981099D01*
X95758000Y-53960817D01*
X95552067Y-53981099D01*
X95354043Y-54041169D01*
X95320636Y-54059026D01*
X95171550Y-54138715D01*
X95171548Y-54138716D01*
X95171547Y-54138717D01*
X95011589Y-54269989D01*
X94880317Y-54429947D01*
X94782769Y-54612443D01*
X94722699Y-54810467D01*
X94702417Y-55016400D01*
X94273583Y-55016400D01*
X94253300Y-54810466D01*
X94193232Y-54612446D01*
X94095685Y-54429950D01*
X94043702Y-54366609D01*
X93964410Y-54269989D01*
X93804452Y-54138717D01*
X93804453Y-54138717D01*
X93804450Y-54138715D01*
X93621954Y-54041168D01*
X93423934Y-53981100D01*
X93423932Y-53981099D01*
X93423934Y-53981099D01*
X93218000Y-53960817D01*
X93012067Y-53981099D01*
X92814043Y-54041169D01*
X92780636Y-54059026D01*
X92631550Y-54138715D01*
X92631548Y-54138716D01*
X92631547Y-54138717D01*
X92471589Y-54269989D01*
X92340317Y-54429947D01*
X92242769Y-54612443D01*
X92182699Y-54810467D01*
X92162417Y-55016400D01*
X91733583Y-55016400D01*
X91713300Y-54810466D01*
X91653232Y-54612446D01*
X91555685Y-54429950D01*
X91503702Y-54366609D01*
X91424410Y-54269989D01*
X91264452Y-54138717D01*
X91264453Y-54138717D01*
X91264450Y-54138715D01*
X91081954Y-54041168D01*
X90883934Y-53981100D01*
X90883932Y-53981099D01*
X90883934Y-53981099D01*
X90678000Y-53960817D01*
X90472067Y-53981099D01*
X90274043Y-54041169D01*
X90240636Y-54059026D01*
X90091550Y-54138715D01*
X90091548Y-54138716D01*
X90091547Y-54138717D01*
X89931589Y-54269989D01*
X89800317Y-54429947D01*
X89702769Y-54612443D01*
X89642699Y-54810467D01*
X89622417Y-55016400D01*
X89193583Y-55016400D01*
X89173300Y-54810466D01*
X89113232Y-54612446D01*
X89015685Y-54429950D01*
X88963702Y-54366609D01*
X88884410Y-54269989D01*
X88724452Y-54138717D01*
X88724453Y-54138717D01*
X88724450Y-54138715D01*
X88541954Y-54041168D01*
X88343934Y-53981100D01*
X88343932Y-53981099D01*
X88343934Y-53981099D01*
X88138000Y-53960817D01*
X87932067Y-53981099D01*
X87734043Y-54041169D01*
X87700636Y-54059026D01*
X87551550Y-54138715D01*
X87551548Y-54138716D01*
X87551547Y-54138717D01*
X87391589Y-54269989D01*
X87260317Y-54429947D01*
X87162769Y-54612443D01*
X87102699Y-54810467D01*
X87082417Y-55016400D01*
X86653583Y-55016400D01*
X86633300Y-54810466D01*
X86573232Y-54612446D01*
X86475685Y-54429950D01*
X86423702Y-54366609D01*
X86344410Y-54269989D01*
X86184452Y-54138717D01*
X86184453Y-54138717D01*
X86184450Y-54138715D01*
X86001954Y-54041168D01*
X85803934Y-53981100D01*
X85803932Y-53981099D01*
X85803934Y-53981099D01*
X85598000Y-53960817D01*
X85392067Y-53981099D01*
X85194043Y-54041169D01*
X85160636Y-54059026D01*
X85011550Y-54138715D01*
X85011548Y-54138716D01*
X85011547Y-54138717D01*
X84851589Y-54269989D01*
X84720317Y-54429947D01*
X84720315Y-54429950D01*
X84654593Y-54552907D01*
X84641358Y-54577667D01*
X84592395Y-54627511D01*
X84524257Y-54642971D01*
X84458578Y-54619139D01*
X84416209Y-54563581D01*
X84408000Y-54519213D01*
X84408000Y-54118572D01*
X84407999Y-54118555D01*
X84401598Y-54059026D01*
X84392721Y-54035228D01*
X83540961Y-54886987D01*
X83523925Y-54823407D01*
X83458099Y-54709393D01*
X83365007Y-54616301D01*
X83250993Y-54550475D01*
X83187408Y-54533437D01*
X84039170Y-53681676D01*
X84015373Y-53672801D01*
X83955844Y-53666400D01*
X83555187Y-53666400D01*
X83488148Y-53646715D01*
X83442393Y-53593911D01*
X83432449Y-53524753D01*
X83461474Y-53461197D01*
X83496733Y-53433042D01*
X83644450Y-53354085D01*
X83804410Y-53222810D01*
X83935685Y-53062850D01*
X84033232Y-52880354D01*
X84093300Y-52682334D01*
X84113583Y-52476400D01*
X84542417Y-52476400D01*
X84562699Y-52682332D01*
X84592734Y-52781344D01*
X84622768Y-52880354D01*
X84720315Y-53062850D01*
X84720317Y-53062852D01*
X84851589Y-53222810D01*
X84948209Y-53302102D01*
X85011550Y-53354085D01*
X85194046Y-53451632D01*
X85392066Y-53511700D01*
X85392065Y-53511700D01*
X85410529Y-53513518D01*
X85598000Y-53531983D01*
X85803934Y-53511700D01*
X86001954Y-53451632D01*
X86184450Y-53354085D01*
X86344410Y-53222810D01*
X86475685Y-53062850D01*
X86573232Y-52880354D01*
X86633300Y-52682334D01*
X86653583Y-52476400D01*
X87082417Y-52476400D01*
X87102699Y-52682332D01*
X87132734Y-52781344D01*
X87162768Y-52880354D01*
X87260315Y-53062850D01*
X87260317Y-53062852D01*
X87391589Y-53222810D01*
X87488209Y-53302102D01*
X87551550Y-53354085D01*
X87734046Y-53451632D01*
X87932066Y-53511700D01*
X87932065Y-53511700D01*
X87950529Y-53513518D01*
X88138000Y-53531983D01*
X88343934Y-53511700D01*
X88541954Y-53451632D01*
X88724450Y-53354085D01*
X88884410Y-53222810D01*
X89015685Y-53062850D01*
X89113232Y-52880354D01*
X89173300Y-52682334D01*
X89193583Y-52476400D01*
X89622417Y-52476400D01*
X89642699Y-52682332D01*
X89672734Y-52781344D01*
X89702768Y-52880354D01*
X89800315Y-53062850D01*
X89800317Y-53062852D01*
X89931589Y-53222810D01*
X90028209Y-53302102D01*
X90091550Y-53354085D01*
X90274046Y-53451632D01*
X90472066Y-53511700D01*
X90472065Y-53511700D01*
X90490529Y-53513518D01*
X90678000Y-53531983D01*
X90883934Y-53511700D01*
X91081954Y-53451632D01*
X91264450Y-53354085D01*
X91424410Y-53222810D01*
X91555685Y-53062850D01*
X91653232Y-52880354D01*
X91713300Y-52682334D01*
X91733583Y-52476400D01*
X92162417Y-52476400D01*
X92182699Y-52682332D01*
X92212734Y-52781344D01*
X92242768Y-52880354D01*
X92340315Y-53062850D01*
X92340317Y-53062852D01*
X92471589Y-53222810D01*
X92568209Y-53302102D01*
X92631550Y-53354085D01*
X92814046Y-53451632D01*
X93012066Y-53511700D01*
X93012065Y-53511700D01*
X93030529Y-53513518D01*
X93218000Y-53531983D01*
X93423934Y-53511700D01*
X93621954Y-53451632D01*
X93804450Y-53354085D01*
X93964410Y-53222810D01*
X94095685Y-53062850D01*
X94193232Y-52880354D01*
X94253300Y-52682334D01*
X94273583Y-52476400D01*
X94702417Y-52476400D01*
X94722699Y-52682332D01*
X94752734Y-52781344D01*
X94782768Y-52880354D01*
X94880315Y-53062850D01*
X94880317Y-53062852D01*
X95011589Y-53222810D01*
X95108209Y-53302102D01*
X95171550Y-53354085D01*
X95354046Y-53451632D01*
X95552066Y-53511700D01*
X95552065Y-53511700D01*
X95570529Y-53513518D01*
X95758000Y-53531983D01*
X95963934Y-53511700D01*
X96161954Y-53451632D01*
X96344450Y-53354085D01*
X96504410Y-53222810D01*
X96635685Y-53062850D01*
X96733232Y-52880354D01*
X96793300Y-52682334D01*
X96813583Y-52476400D01*
X97242417Y-52476400D01*
X97262699Y-52682332D01*
X97292734Y-52781344D01*
X97322768Y-52880354D01*
X97420315Y-53062850D01*
X97420317Y-53062852D01*
X97551589Y-53222810D01*
X97648209Y-53302102D01*
X97711550Y-53354085D01*
X97894046Y-53451632D01*
X98092066Y-53511700D01*
X98092065Y-53511700D01*
X98110529Y-53513518D01*
X98298000Y-53531983D01*
X98503934Y-53511700D01*
X98701954Y-53451632D01*
X98884450Y-53354085D01*
X99044410Y-53222810D01*
X99175685Y-53062850D01*
X99273232Y-52880354D01*
X99333300Y-52682334D01*
X99353583Y-52476400D01*
X99782417Y-52476400D01*
X99802699Y-52682332D01*
X99832734Y-52781344D01*
X99862768Y-52880354D01*
X99960315Y-53062850D01*
X99960317Y-53062852D01*
X100091589Y-53222810D01*
X100188209Y-53302102D01*
X100251550Y-53354085D01*
X100434046Y-53451632D01*
X100632066Y-53511700D01*
X100632065Y-53511700D01*
X100650529Y-53513518D01*
X100838000Y-53531983D01*
X101043934Y-53511700D01*
X101241954Y-53451632D01*
X101424450Y-53354085D01*
X101584410Y-53222810D01*
X101715685Y-53062850D01*
X101813232Y-52880354D01*
X101873300Y-52682334D01*
X101893583Y-52476400D01*
X101873300Y-52270466D01*
X101813232Y-52072446D01*
X101715685Y-51889950D01*
X101616136Y-51768648D01*
X101584410Y-51729989D01*
X101436183Y-51608344D01*
X101424450Y-51598715D01*
X101241954Y-51501168D01*
X101043934Y-51441100D01*
X101043932Y-51441099D01*
X101043934Y-51441099D01*
X100838000Y-51420817D01*
X100632067Y-51441099D01*
X100434043Y-51501169D01*
X100323898Y-51560043D01*
X100251550Y-51598715D01*
X100251548Y-51598716D01*
X100251547Y-51598717D01*
X100091589Y-51729989D01*
X99960317Y-51889947D01*
X99862769Y-52072443D01*
X99802699Y-52270467D01*
X99782417Y-52476400D01*
X99353583Y-52476400D01*
X99333300Y-52270466D01*
X99273232Y-52072446D01*
X99175685Y-51889950D01*
X99076136Y-51768648D01*
X99044410Y-51729989D01*
X98896183Y-51608344D01*
X98884450Y-51598715D01*
X98701954Y-51501168D01*
X98503934Y-51441100D01*
X98503932Y-51441099D01*
X98503934Y-51441099D01*
X98298000Y-51420817D01*
X98092067Y-51441099D01*
X97894043Y-51501169D01*
X97783898Y-51560043D01*
X97711550Y-51598715D01*
X97711548Y-51598716D01*
X97711547Y-51598717D01*
X97551589Y-51729989D01*
X97420317Y-51889947D01*
X97322769Y-52072443D01*
X97262699Y-52270467D01*
X97242417Y-52476400D01*
X96813583Y-52476400D01*
X96793300Y-52270466D01*
X96733232Y-52072446D01*
X96635685Y-51889950D01*
X96536136Y-51768648D01*
X96504410Y-51729989D01*
X96356183Y-51608344D01*
X96344450Y-51598715D01*
X96161954Y-51501168D01*
X95963934Y-51441100D01*
X95963932Y-51441099D01*
X95963934Y-51441099D01*
X95758000Y-51420817D01*
X95552067Y-51441099D01*
X95354043Y-51501169D01*
X95243898Y-51560043D01*
X95171550Y-51598715D01*
X95171548Y-51598716D01*
X95171547Y-51598717D01*
X95011589Y-51729989D01*
X94880317Y-51889947D01*
X94782769Y-52072443D01*
X94722699Y-52270467D01*
X94702417Y-52476400D01*
X94273583Y-52476400D01*
X94253300Y-52270466D01*
X94193232Y-52072446D01*
X94095685Y-51889950D01*
X93996136Y-51768648D01*
X93964410Y-51729989D01*
X93816183Y-51608344D01*
X93804450Y-51598715D01*
X93621954Y-51501168D01*
X93423934Y-51441100D01*
X93423932Y-51441099D01*
X93423934Y-51441099D01*
X93218000Y-51420817D01*
X93012067Y-51441099D01*
X92814043Y-51501169D01*
X92703898Y-51560043D01*
X92631550Y-51598715D01*
X92631548Y-51598716D01*
X92631547Y-51598717D01*
X92471589Y-51729989D01*
X92340317Y-51889947D01*
X92242769Y-52072443D01*
X92182699Y-52270467D01*
X92162417Y-52476400D01*
X91733583Y-52476400D01*
X91713300Y-52270466D01*
X91653232Y-52072446D01*
X91555685Y-51889950D01*
X91456136Y-51768648D01*
X91424410Y-51729989D01*
X91276183Y-51608344D01*
X91264450Y-51598715D01*
X91081954Y-51501168D01*
X90883934Y-51441100D01*
X90883932Y-51441099D01*
X90883934Y-51441099D01*
X90678000Y-51420817D01*
X90472067Y-51441099D01*
X90274043Y-51501169D01*
X90163898Y-51560043D01*
X90091550Y-51598715D01*
X90091548Y-51598716D01*
X90091547Y-51598717D01*
X89931589Y-51729989D01*
X89800317Y-51889947D01*
X89702769Y-52072443D01*
X89642699Y-52270467D01*
X89622417Y-52476400D01*
X89193583Y-52476400D01*
X89173300Y-52270466D01*
X89113232Y-52072446D01*
X89015685Y-51889950D01*
X88916136Y-51768648D01*
X88884410Y-51729989D01*
X88736183Y-51608344D01*
X88724450Y-51598715D01*
X88541954Y-51501168D01*
X88343934Y-51441100D01*
X88343932Y-51441099D01*
X88343934Y-51441099D01*
X88138000Y-51420817D01*
X87932067Y-51441099D01*
X87734043Y-51501169D01*
X87623898Y-51560043D01*
X87551550Y-51598715D01*
X87551548Y-51598716D01*
X87551547Y-51598717D01*
X87391589Y-51729989D01*
X87260317Y-51889947D01*
X87162769Y-52072443D01*
X87102699Y-52270467D01*
X87082417Y-52476400D01*
X86653583Y-52476400D01*
X86633300Y-52270466D01*
X86573232Y-52072446D01*
X86475685Y-51889950D01*
X86376136Y-51768648D01*
X86344410Y-51729989D01*
X86196183Y-51608344D01*
X86184450Y-51598715D01*
X86001954Y-51501168D01*
X85803934Y-51441100D01*
X85803932Y-51441099D01*
X85803934Y-51441099D01*
X85598000Y-51420817D01*
X85392067Y-51441099D01*
X85194043Y-51501169D01*
X85083898Y-51560043D01*
X85011550Y-51598715D01*
X85011548Y-51598716D01*
X85011547Y-51598717D01*
X84851589Y-51729989D01*
X84720317Y-51889947D01*
X84622769Y-52072443D01*
X84562699Y-52270467D01*
X84542417Y-52476400D01*
X84113583Y-52476400D01*
X84093300Y-52270466D01*
X84033232Y-52072446D01*
X83935685Y-51889950D01*
X83836136Y-51768648D01*
X83804410Y-51729989D01*
X83656183Y-51608344D01*
X83644450Y-51598715D01*
X83461954Y-51501168D01*
X83263934Y-51441100D01*
X83263932Y-51441099D01*
X83263934Y-51441099D01*
X83058000Y-51420817D01*
X82852067Y-51441099D01*
X82654043Y-51501169D01*
X82543898Y-51560043D01*
X82471550Y-51598715D01*
X82471548Y-51598716D01*
X82471547Y-51598717D01*
X82311589Y-51729989D01*
X82180317Y-51889947D01*
X82082769Y-52072443D01*
X82023161Y-52268946D01*
X81984863Y-52327385D01*
X81921051Y-52355841D01*
X81851984Y-52345281D01*
X81799590Y-52299057D01*
X81780500Y-52232951D01*
X81780500Y-50916500D01*
X81800185Y-50849461D01*
X81852989Y-50803706D01*
X81904500Y-50792500D01*
X109240905Y-50792500D01*
X109307944Y-50812185D01*
G37*
G04 #@! TD.AperFunction*
M02*
