G04 #@! TF.GenerationSoftware,KiCad,Pcbnew,8.0.8-8.0.8-0~ubuntu20.04.1*
G04 #@! TF.CreationDate,2025-01-21T23:34:15+05:30*
G04 #@! TF.ProjectId,hds_rpi,6864735f-7270-4692-9e6b-696361645f70,rev?*
G04 #@! TF.SameCoordinates,Original*
G04 #@! TF.FileFunction,Paste,Top*
G04 #@! TF.FilePolarity,Positive*
%FSLAX46Y46*%
G04 Gerber Fmt 4.6, Leading zero omitted, Abs format (unit mm)*
G04 Created by KiCad (PCBNEW 8.0.8-8.0.8-0~ubuntu20.04.1) date 2025-01-21 23:34:15*
%MOMM*%
%LPD*%
G01*
G04 APERTURE LIST*
G04 Aperture macros list*
%AMRoundRect*
0 Rectangle with rounded corners*
0 $1 Rounding radius*
0 $2 $3 $4 $5 $6 $7 $8 $9 X,Y pos of 4 corners*
0 Add a 4 corners polygon primitive as box body*
4,1,4,$2,$3,$4,$5,$6,$7,$8,$9,$2,$3,0*
0 Add four circle primitives for the rounded corners*
1,1,$1+$1,$2,$3*
1,1,$1+$1,$4,$5*
1,1,$1+$1,$6,$7*
1,1,$1+$1,$8,$9*
0 Add four rect primitives between the rounded corners*
20,1,$1+$1,$2,$3,$4,$5,0*
20,1,$1+$1,$4,$5,$6,$7,0*
20,1,$1+$1,$6,$7,$8,$9,0*
20,1,$1+$1,$8,$9,$2,$3,0*%
G04 Aperture macros list end*
%ADD10RoundRect,0.250000X-0.625000X0.400000X-0.625000X-0.400000X0.625000X-0.400000X0.625000X0.400000X0*%
%ADD11RoundRect,0.250000X-0.362500X-0.700000X0.362500X-0.700000X0.362500X0.700000X-0.362500X0.700000X0*%
%ADD12RoundRect,0.250000X0.362500X0.700000X-0.362500X0.700000X-0.362500X-0.700000X0.362500X-0.700000X0*%
%ADD13RoundRect,0.250000X0.625000X-0.400000X0.625000X0.400000X-0.625000X0.400000X-0.625000X-0.400000X0*%
%ADD14RoundRect,0.150000X0.150000X-0.825000X0.150000X0.825000X-0.150000X0.825000X-0.150000X-0.825000X0*%
G04 APERTURE END LIST*
D10*
X126238000Y-57886000D03*
X126238000Y-60986000D03*
D11*
X117875000Y-74700000D03*
X121200000Y-74700000D03*
D12*
X94575000Y-74700000D03*
X91250000Y-74700000D03*
D10*
X116078000Y-57886000D03*
X116078000Y-60986000D03*
D11*
X82665500Y-74700000D03*
X85990500Y-74700000D03*
D13*
X95758000Y-60986000D03*
X95758000Y-57886000D03*
X131318000Y-60986000D03*
X131318000Y-57886000D03*
D10*
X90678000Y-57886000D03*
X90678000Y-60986000D03*
D13*
X118700000Y-69822800D03*
X118700000Y-66722800D03*
D10*
X123698000Y-57886000D03*
X123698000Y-60986000D03*
X108458000Y-57886000D03*
X108458000Y-60986000D03*
D14*
X87990000Y-70775000D03*
X89260000Y-70775000D03*
X90530000Y-70775000D03*
X91800000Y-70775000D03*
X93070000Y-70775000D03*
X94340000Y-70775000D03*
X95610000Y-70775000D03*
X95610000Y-65825000D03*
X94340000Y-65825000D03*
X93070000Y-65825000D03*
X91800000Y-65825000D03*
X90530000Y-65825000D03*
X89260000Y-65825000D03*
X87990000Y-65825000D03*
D13*
X93218000Y-60986000D03*
X93218000Y-57886000D03*
D10*
X118618000Y-57886000D03*
X118618000Y-60986000D03*
X121158000Y-57886000D03*
X121158000Y-60986000D03*
D13*
X128778000Y-60986000D03*
X128778000Y-57886000D03*
D14*
X108990000Y-70775000D03*
X110260000Y-70775000D03*
X111530000Y-70775000D03*
X112800000Y-70775000D03*
X114070000Y-70775000D03*
X115340000Y-70775000D03*
X116610000Y-70775000D03*
X116610000Y-65825000D03*
X115340000Y-65825000D03*
X114070000Y-65825000D03*
X112800000Y-65825000D03*
X111530000Y-65825000D03*
X110260000Y-65825000D03*
X108990000Y-65825000D03*
D13*
X105918000Y-60986000D03*
X105918000Y-57886000D03*
X97700000Y-69850000D03*
X97700000Y-66750000D03*
D11*
X109000000Y-74700000D03*
X112325000Y-74700000D03*
D13*
X110998000Y-60986000D03*
X110998000Y-57886000D03*
X88138000Y-60986000D03*
X88138000Y-57886000D03*
X113538000Y-60986000D03*
X113538000Y-57886000D03*
D11*
X100125000Y-74700000D03*
X103450000Y-74700000D03*
M02*
