G04 #@! TF.GenerationSoftware,KiCad,Pcbnew,8.0.8-8.0.8-0~ubuntu20.04.1*
G04 #@! TF.CreationDate,2025-01-21T23:34:15+05:30*
G04 #@! TF.ProjectId,hds_rpi,6864735f-7270-4692-9e6b-696361645f70,rev?*
G04 #@! TF.SameCoordinates,Original*
G04 #@! TF.FileFunction,Copper,L4,Bot*
G04 #@! TF.FilePolarity,Positive*
%FSLAX46Y46*%
G04 Gerber Fmt 4.6, Leading zero omitted, Abs format (unit mm)*
G04 Created by KiCad (PCBNEW 8.0.8-8.0.8-0~ubuntu20.04.1) date 2025-01-21 23:34:15*
%MOMM*%
%LPD*%
G01*
G04 APERTURE LIST*
G04 Aperture macros list*
%AMRoundRect*
0 Rectangle with rounded corners*
0 $1 Rounding radius*
0 $2 $3 $4 $5 $6 $7 $8 $9 X,Y pos of 4 corners*
0 Add a 4 corners polygon primitive as box body*
4,1,4,$2,$3,$4,$5,$6,$7,$8,$9,$2,$3,0*
0 Add four circle primitives for the rounded corners*
1,1,$1+$1,$2,$3*
1,1,$1+$1,$4,$5*
1,1,$1+$1,$6,$7*
1,1,$1+$1,$8,$9*
0 Add four rect primitives between the rounded corners*
20,1,$1+$1,$2,$3,$4,$5,0*
20,1,$1+$1,$4,$5,$6,$7,0*
20,1,$1+$1,$6,$7,$8,$9,0*
20,1,$1+$1,$8,$9,$2,$3,0*%
G04 Aperture macros list end*
G04 #@! TA.AperFunction,ComponentPad*
%ADD10R,1.700000X1.700000*%
G04 #@! TD*
G04 #@! TA.AperFunction,ComponentPad*
%ADD11O,1.700000X1.700000*%
G04 #@! TD*
G04 #@! TA.AperFunction,ComponentPad*
%ADD12R,2.200000X2.200000*%
G04 #@! TD*
G04 #@! TA.AperFunction,ComponentPad*
%ADD13C,2.200000*%
G04 #@! TD*
G04 #@! TA.AperFunction,SMDPad,CuDef*
%ADD14RoundRect,0.250000X-0.400000X-0.625000X0.400000X-0.625000X0.400000X0.625000X-0.400000X0.625000X0*%
G04 #@! TD*
G04 #@! TA.AperFunction,SMDPad,CuDef*
%ADD15RoundRect,0.250000X0.700000X-0.362500X0.700000X0.362500X-0.700000X0.362500X-0.700000X-0.362500X0*%
G04 #@! TD*
G04 #@! TA.AperFunction,SMDPad,CuDef*
%ADD16RoundRect,0.250000X0.625000X-0.400000X0.625000X0.400000X-0.625000X0.400000X-0.625000X-0.400000X0*%
G04 #@! TD*
G04 #@! TA.AperFunction,SMDPad,CuDef*
%ADD17R,0.300000X1.600000*%
G04 #@! TD*
G04 #@! TA.AperFunction,ViaPad*
%ADD18C,0.600000*%
G04 #@! TD*
G04 #@! TA.AperFunction,Conductor*
%ADD19C,0.250000*%
G04 #@! TD*
G04 #@! TA.AperFunction,Conductor*
%ADD20C,0.500000*%
G04 #@! TD*
G04 APERTURE END LIST*
D10*
X97070000Y-78000000D03*
D11*
X94530000Y-78000000D03*
X91990000Y-78000000D03*
D10*
X88180000Y-78000000D03*
D11*
X85640000Y-78000000D03*
X83100000Y-78000000D03*
D12*
X129844800Y-73812400D03*
D13*
X129844800Y-71272400D03*
D10*
X105960000Y-78000000D03*
D11*
X103420000Y-78000000D03*
X100880000Y-78000000D03*
D10*
X114850000Y-78000000D03*
D11*
X112310000Y-78000000D03*
X109770000Y-78000000D03*
D10*
X123740000Y-78000000D03*
D11*
X121200000Y-78000000D03*
X118660000Y-78000000D03*
D14*
X85350000Y-65200000D03*
X88450000Y-65200000D03*
X105950000Y-65200000D03*
X109050000Y-65200000D03*
X126550000Y-65200000D03*
X129650000Y-65200000D03*
D15*
X125000000Y-62862500D03*
X125000000Y-59537500D03*
D14*
X126550000Y-67600000D03*
X129650000Y-67600000D03*
X95750000Y-65200000D03*
X98850000Y-65200000D03*
D15*
X94200000Y-62862500D03*
X94200000Y-59537500D03*
D16*
X131100000Y-62850000D03*
X131100000Y-59750000D03*
D14*
X105950000Y-67600000D03*
X109050000Y-67600000D03*
X95750000Y-67600000D03*
X98850000Y-67600000D03*
D17*
X106525000Y-59500000D03*
X107175000Y-59500000D03*
X107825000Y-59500000D03*
X108475000Y-59500000D03*
X108475000Y-62900000D03*
X107825000Y-62900000D03*
X107175000Y-62900000D03*
X106525000Y-62900000D03*
X85925000Y-59500000D03*
X86575000Y-59500000D03*
X87225000Y-59500000D03*
X87875000Y-59500000D03*
X87875000Y-62900000D03*
X87225000Y-62900000D03*
X86575000Y-62900000D03*
X85925000Y-62900000D03*
D15*
X104400000Y-62862500D03*
X104400000Y-59537500D03*
D17*
X127125000Y-59500000D03*
X127775000Y-59500000D03*
X128425000Y-59500000D03*
X129075000Y-59500000D03*
X129075000Y-62900000D03*
X128425000Y-62900000D03*
X127775000Y-62900000D03*
X127125000Y-62900000D03*
D16*
X89900000Y-62850000D03*
X89900000Y-59750000D03*
D15*
X114800000Y-62862500D03*
X114800000Y-59537500D03*
X83800000Y-62862500D03*
X83800000Y-59537500D03*
D10*
X83058000Y-55016400D03*
D11*
X83058000Y-52476400D03*
X85598000Y-55016400D03*
X85598000Y-52476400D03*
X88138000Y-55016400D03*
X88138000Y-52476400D03*
X90678000Y-55016400D03*
X90678000Y-52476400D03*
X93218000Y-55016400D03*
X93218000Y-52476400D03*
X95758000Y-55016400D03*
X95758000Y-52476400D03*
X98298000Y-55016400D03*
X98298000Y-52476400D03*
X100838000Y-55016400D03*
X100838000Y-52476400D03*
X103378000Y-55016400D03*
X103378000Y-52476400D03*
X105918000Y-55016400D03*
X105918000Y-52476400D03*
X108458000Y-55016400D03*
X108458000Y-52476400D03*
X110998000Y-55016400D03*
X110998000Y-52476400D03*
X113538000Y-55016400D03*
X113538000Y-52476400D03*
X116078000Y-55016400D03*
X116078000Y-52476400D03*
X118618000Y-55016400D03*
X118618000Y-52476400D03*
X121158000Y-55016400D03*
X121158000Y-52476400D03*
X123698000Y-55016400D03*
X123698000Y-52476400D03*
X126238000Y-55016400D03*
X126238000Y-52476400D03*
X128778000Y-55016400D03*
X128778000Y-52476400D03*
X131318000Y-55016400D03*
X131318000Y-52476400D03*
D16*
X100300000Y-62850000D03*
X100300000Y-59750000D03*
D14*
X116350000Y-67600000D03*
X119450000Y-67600000D03*
D16*
X120900000Y-62850000D03*
X120900000Y-59750000D03*
D17*
X116925000Y-59500000D03*
X117575000Y-59500000D03*
X118225000Y-59500000D03*
X118875000Y-59500000D03*
X118875000Y-62900000D03*
X118225000Y-62900000D03*
X117575000Y-62900000D03*
X116925000Y-62900000D03*
X96325000Y-59500000D03*
X96975000Y-59500000D03*
X97625000Y-59500000D03*
X98275000Y-59500000D03*
X98275000Y-62900000D03*
X97625000Y-62900000D03*
X96975000Y-62900000D03*
X96325000Y-62900000D03*
D16*
X110500000Y-62850000D03*
X110500000Y-59750000D03*
D14*
X116350000Y-65200000D03*
X119450000Y-65200000D03*
X85350000Y-67600000D03*
X88450000Y-67600000D03*
D18*
X104775000Y-56388000D03*
X124841000Y-65659000D03*
X97409000Y-57785000D03*
X82550000Y-65405000D03*
X83693000Y-72644000D03*
X104267000Y-69596000D03*
X86487000Y-69723000D03*
X101854000Y-71374000D03*
X82550000Y-70231000D03*
X132588000Y-53467000D03*
X107188000Y-70231000D03*
X117983000Y-71628000D03*
X132334000Y-79121000D03*
X99695000Y-69469000D03*
X128270000Y-67691000D03*
X125095000Y-72390000D03*
X113411000Y-72771000D03*
X102235000Y-60960000D03*
X130048000Y-51308000D03*
X124587000Y-69850000D03*
X120650000Y-66548000D03*
X132588000Y-56642000D03*
X107061000Y-72771000D03*
X114808000Y-51308000D03*
X132461000Y-67564000D03*
X85979000Y-56896000D03*
X109728000Y-51308000D03*
X87757000Y-72644000D03*
X96901000Y-71374000D03*
X99568000Y-56134000D03*
X122301000Y-72644000D03*
X101981000Y-58039000D03*
X112141000Y-56515000D03*
X115570000Y-72771000D03*
X122900000Y-62900000D03*
X108200000Y-70700000D03*
X132700000Y-62900000D03*
X102300000Y-62900000D03*
X87200000Y-70800000D03*
X112600000Y-62900000D03*
X92000000Y-62900000D03*
X82300000Y-62900000D03*
X87122000Y-67437000D03*
X107696000Y-67310000D03*
X127635000Y-56388000D03*
X118237000Y-65278000D03*
X127700000Y-64560588D03*
X97663000Y-65278000D03*
X89800000Y-67500000D03*
X89200000Y-72500000D03*
X90500000Y-68100000D03*
X96834310Y-72898000D03*
X90500000Y-72517000D03*
X106000000Y-72600000D03*
X91800000Y-67700000D03*
X92921702Y-67921702D03*
X114808000Y-68725000D03*
X123000000Y-67800000D03*
X110300000Y-67651000D03*
X85090000Y-58547000D03*
X88900000Y-69088000D03*
X88600000Y-64000000D03*
X92926861Y-62010518D03*
X85558000Y-61200000D03*
X90678837Y-63984094D03*
X119500000Y-62600000D03*
X100100000Y-65200000D03*
X107900000Y-65200000D03*
X116274998Y-62100000D03*
X109100000Y-62900000D03*
X116400000Y-59500000D03*
X120800000Y-65200000D03*
X130900000Y-65200000D03*
X126500000Y-59500000D03*
X88400000Y-62900000D03*
X95700000Y-59400000D03*
X98900000Y-61600000D03*
X110500000Y-64100000D03*
X104100000Y-61000000D03*
X129709124Y-63825001D03*
X113500000Y-64200000D03*
X129600000Y-62900000D03*
X112141000Y-59817000D03*
X94361000Y-67437000D03*
X112161771Y-68286000D03*
X92475000Y-69372702D03*
X122174000Y-59690000D03*
X121412000Y-68961000D03*
X97663000Y-61341000D03*
X131318000Y-66294000D03*
X110744000Y-72263000D03*
X132588000Y-59690000D03*
D19*
X127125000Y-62900000D02*
X125037500Y-62900000D01*
X85925000Y-62900000D02*
X85925000Y-64625000D01*
D20*
X120900000Y-62850000D02*
X122850000Y-62850000D01*
X132700000Y-62900000D02*
X131150000Y-62900000D01*
D19*
X126550000Y-64125000D02*
X126550000Y-65200000D01*
D20*
X112600000Y-62900000D02*
X114762500Y-62900000D01*
D19*
X85925000Y-62900000D02*
X83837500Y-62900000D01*
D20*
X100300000Y-62850000D02*
X102250000Y-62850000D01*
X122900000Y-62900000D02*
X124962500Y-62900000D01*
X131150000Y-62900000D02*
X131100000Y-62850000D01*
D19*
X106525000Y-62900000D02*
X104437500Y-62900000D01*
X116925000Y-62900000D02*
X114837500Y-62900000D01*
X85925000Y-64625000D02*
X85350000Y-65200000D01*
D20*
X102300000Y-62900000D02*
X104362500Y-62900000D01*
X102250000Y-62850000D02*
X102300000Y-62900000D01*
D19*
X127125000Y-62900000D02*
X127125000Y-63550000D01*
D20*
X89900000Y-62850000D02*
X91950000Y-62850000D01*
D19*
X114837500Y-62900000D02*
X114800000Y-62862500D01*
X116925000Y-64625000D02*
X116350000Y-65200000D01*
X83837500Y-62900000D02*
X83800000Y-62862500D01*
X125037500Y-62900000D02*
X125000000Y-62862500D01*
X96325000Y-62900000D02*
X94237500Y-62900000D01*
D20*
X124962500Y-62900000D02*
X125000000Y-62862500D01*
D19*
X127125000Y-63550000D02*
X126550000Y-64125000D01*
D20*
X114762500Y-62900000D02*
X114800000Y-62862500D01*
D19*
X116925000Y-62900000D02*
X116925000Y-64625000D01*
D20*
X83800000Y-62862500D02*
X82337500Y-62862500D01*
D19*
X94237500Y-62900000D02*
X94200000Y-62862500D01*
D20*
X91950000Y-62850000D02*
X92000000Y-62900000D01*
X122850000Y-62850000D02*
X122900000Y-62900000D01*
X110550000Y-62900000D02*
X110500000Y-62850000D01*
D19*
X106525000Y-62900000D02*
X106525000Y-64625000D01*
X106525000Y-64625000D02*
X105950000Y-65200000D01*
D20*
X82337500Y-62862500D02*
X82300000Y-62900000D01*
D19*
X96325000Y-64625000D02*
X95750000Y-65200000D01*
D20*
X91950000Y-62850000D02*
X91962500Y-62862500D01*
X91962500Y-62862500D02*
X94200000Y-62862500D01*
X112600000Y-62900000D02*
X110550000Y-62900000D01*
X104362500Y-62900000D02*
X104400000Y-62862500D01*
D19*
X104437500Y-62900000D02*
X104400000Y-62862500D01*
X102337500Y-62862500D02*
X102300000Y-62900000D01*
X96325000Y-62900000D02*
X96325000Y-64625000D01*
X117348000Y-55509701D02*
X117348000Y-53848000D01*
X118226299Y-56388000D02*
X117348000Y-55509701D01*
X117348000Y-53848000D02*
X116083000Y-52583000D01*
X127635000Y-56388000D02*
X118226299Y-56388000D01*
X85090000Y-58547000D02*
X85598000Y-58039000D01*
X86575000Y-59500000D02*
X87225000Y-59500000D01*
X89900000Y-59750000D02*
X89750000Y-59750000D01*
X88700000Y-60800000D02*
X87475000Y-60800000D01*
X86106000Y-58039000D02*
X86575000Y-58508000D01*
X86575000Y-58508000D02*
X86575000Y-59500000D01*
X87225000Y-60550000D02*
X87225000Y-59500000D01*
X89750000Y-59750000D02*
X88700000Y-60800000D01*
X87475000Y-60800000D02*
X87225000Y-60550000D01*
X85598000Y-58039000D02*
X86106000Y-58039000D01*
X88600000Y-64000000D02*
X88600000Y-65050000D01*
X87225000Y-62900000D02*
X87225000Y-63975000D01*
X88600000Y-65050000D02*
X88450000Y-65200000D01*
X87225000Y-63975000D02*
X88450000Y-65200000D01*
X85925000Y-60833000D02*
X85558000Y-61200000D01*
X86575000Y-61850000D02*
X85925000Y-61200000D01*
X86575000Y-65725000D02*
X88450000Y-67600000D01*
X85925000Y-59500000D02*
X85925000Y-60833000D01*
X86575000Y-62900000D02*
X86575000Y-61850000D01*
X85925000Y-61200000D02*
X85558000Y-61200000D01*
X86575000Y-62900000D02*
X86575000Y-65725000D01*
X119500000Y-62600000D02*
X119175000Y-62600000D01*
X119175000Y-62600000D02*
X118875000Y-62900000D01*
X97625000Y-62900000D02*
X97625000Y-63975000D01*
X97625000Y-63975000D02*
X98850000Y-65200000D01*
X100100000Y-65200000D02*
X98850000Y-65200000D01*
X109100000Y-62900000D02*
X108475000Y-62900000D01*
X117575000Y-61375000D02*
X117575000Y-62900000D01*
X116925000Y-60725000D02*
X117575000Y-61375000D01*
X117575000Y-62900000D02*
X117575000Y-65725000D01*
X116400000Y-59500000D02*
X116925000Y-59500000D01*
X117575000Y-65725000D02*
X119450000Y-67600000D01*
X116925000Y-59500000D02*
X116925000Y-60725000D01*
X120800000Y-65200000D02*
X119450000Y-65200000D01*
X118225000Y-63975000D02*
X119450000Y-65200000D01*
X118225000Y-62900000D02*
X118225000Y-63975000D01*
X130900000Y-65200000D02*
X129650000Y-65200000D01*
X128425000Y-62900000D02*
X128425000Y-63694597D01*
X129650000Y-64919597D02*
X129650000Y-65200000D01*
X128425000Y-63694597D02*
X129650000Y-64919597D01*
X127125000Y-59500000D02*
X127125000Y-60712500D01*
X127775000Y-63680993D02*
X128375000Y-64280993D01*
X127775000Y-62900000D02*
X127775000Y-63680993D01*
X128375000Y-64280993D02*
X128375000Y-66325000D01*
X126500000Y-59500000D02*
X127125000Y-59500000D01*
X128375000Y-66325000D02*
X129650000Y-67600000D01*
X127125000Y-60712500D02*
X127775000Y-61362500D01*
X127775000Y-61362500D02*
X127775000Y-62900000D01*
X88400000Y-62900000D02*
X87875000Y-62900000D01*
X96325000Y-59500000D02*
X96325000Y-60925000D01*
X96325000Y-60925000D02*
X96975000Y-61575000D01*
X96975000Y-61575000D02*
X96975000Y-62900000D01*
X96975000Y-65725000D02*
X98850000Y-67600000D01*
X95700000Y-59400000D02*
X96225000Y-59400000D01*
X96225000Y-59400000D02*
X96325000Y-59500000D01*
X96975000Y-62900000D02*
X96975000Y-65725000D01*
X98900000Y-61600000D02*
X98600000Y-61600000D01*
X98275000Y-61925000D02*
X98275000Y-62900000D01*
X98600000Y-61600000D02*
X98275000Y-61925000D01*
X106525000Y-59500000D02*
X106525000Y-60825000D01*
X106525000Y-60825000D02*
X107175000Y-61475000D01*
X107175000Y-65725000D02*
X109050000Y-67600000D01*
X107175000Y-61475000D02*
X107175000Y-62900000D01*
X106350000Y-61000000D02*
X106525000Y-60825000D01*
X107175000Y-62900000D02*
X107175000Y-65725000D01*
X104100000Y-61000000D02*
X106350000Y-61000000D01*
X109050000Y-65200000D02*
X112500000Y-65200000D01*
X107825000Y-62900000D02*
X107825000Y-63975000D01*
X107825000Y-63975000D02*
X109050000Y-65200000D01*
X112500000Y-65200000D02*
X113500000Y-64200000D01*
X129600000Y-62900000D02*
X129075000Y-62900000D01*
X110500000Y-59750000D02*
X110350000Y-59750000D01*
X112141000Y-59817000D02*
X110567000Y-59817000D01*
X110350000Y-59750000D02*
X109300000Y-60800000D01*
X108075000Y-60800000D02*
X107825000Y-60550000D01*
X107825000Y-60550000D02*
X107825000Y-59500000D01*
X109300000Y-60800000D02*
X108075000Y-60800000D01*
X110567000Y-59817000D02*
X110500000Y-59750000D01*
X107175000Y-59500000D02*
X107825000Y-59500000D01*
X120900000Y-59750000D02*
X120750000Y-59750000D01*
X118225000Y-60550000D02*
X118225000Y-59500000D01*
X120750000Y-59750000D02*
X119700000Y-60800000D01*
X118475000Y-60800000D02*
X118225000Y-60550000D01*
X122174000Y-59690000D02*
X120960000Y-59690000D01*
X120960000Y-59690000D02*
X120900000Y-59750000D01*
X119700000Y-60800000D02*
X118475000Y-60800000D01*
X117575000Y-59500000D02*
X118225000Y-59500000D01*
X100300000Y-59750000D02*
X100150000Y-59750000D01*
X100150000Y-59750000D02*
X99100000Y-60800000D01*
X97625000Y-60550000D02*
X97625000Y-59500000D01*
X99100000Y-60800000D02*
X97875000Y-60800000D01*
X97875000Y-60800000D02*
X97625000Y-60550000D01*
X97875000Y-60800000D02*
X97875000Y-61129000D01*
X96975000Y-59500000D02*
X97625000Y-59500000D01*
X97875000Y-61129000D02*
X97663000Y-61341000D01*
X131100000Y-59750000D02*
X130950000Y-59750000D01*
X129900000Y-60800000D02*
X128675000Y-60800000D01*
X127775000Y-59500000D02*
X128425000Y-59500000D01*
X131160000Y-59690000D02*
X131100000Y-59750000D01*
X132588000Y-59690000D02*
X131160000Y-59690000D01*
X128675000Y-60800000D02*
X128425000Y-60550000D01*
X128425000Y-60550000D02*
X128425000Y-59500000D01*
X130950000Y-59750000D02*
X129900000Y-60800000D01*
G04 #@! TA.AperFunction,Conductor*
G36*
X132393519Y-78831021D02*
G01*
X132440701Y-78844874D01*
X132472794Y-78859531D01*
X132514175Y-78886124D01*
X132540843Y-78909233D01*
X132573046Y-78946396D01*
X132592128Y-78976089D01*
X132612554Y-79020816D01*
X132622498Y-79054680D01*
X132629496Y-79103352D01*
X132629496Y-79138646D01*
X132622498Y-79187318D01*
X132612554Y-79221182D01*
X132592128Y-79265909D01*
X132573048Y-79295600D01*
X132540845Y-79332765D01*
X132514173Y-79355876D01*
X132460601Y-79390306D01*
X132460596Y-79390309D01*
X132460583Y-79390318D01*
X132437123Y-79407880D01*
X132437118Y-79407885D01*
X132413602Y-79428261D01*
X132350045Y-79457284D01*
X132280887Y-79447339D01*
X132251199Y-79428259D01*
X132207398Y-79390305D01*
X132153825Y-79355876D01*
X132127152Y-79332763D01*
X132094953Y-79295603D01*
X132075873Y-79265915D01*
X132068239Y-79249198D01*
X132055443Y-79221179D01*
X132045501Y-79187318D01*
X132038503Y-79138644D01*
X132038503Y-79103355D01*
X132043862Y-79066077D01*
X132045501Y-79054678D01*
X132055441Y-79020822D01*
X132075873Y-78976081D01*
X132094952Y-78946396D01*
X132127156Y-78909230D01*
X132153827Y-78886121D01*
X132195198Y-78859533D01*
X132227295Y-78844875D01*
X132274478Y-78831021D01*
X132309408Y-78826000D01*
X132358591Y-78826000D01*
X132393519Y-78831021D01*
G37*
G04 #@! TD.AperFunction*
G04 #@! TA.AperFunction,Conductor*
G36*
X99248851Y-62076251D02*
G01*
X99286628Y-62135028D01*
X99286630Y-62204897D01*
X99275103Y-62228134D01*
X99276551Y-62228899D01*
X99272206Y-62237119D01*
X99227353Y-62365298D01*
X99227353Y-62365300D01*
X99224500Y-62395730D01*
X99224500Y-63304269D01*
X99227353Y-63334699D01*
X99227353Y-63334701D01*
X99272206Y-63462880D01*
X99272207Y-63462882D01*
X99352850Y-63572150D01*
X99462118Y-63652793D01*
X99493872Y-63663904D01*
X99590299Y-63697646D01*
X99620730Y-63700500D01*
X99620734Y-63700500D01*
X100979270Y-63700500D01*
X101009699Y-63697646D01*
X101009701Y-63697646D01*
X101081148Y-63672645D01*
X101137882Y-63652793D01*
X101247150Y-63572150D01*
X101327793Y-63462882D01*
X101345874Y-63411208D01*
X101355555Y-63383544D01*
X101396277Y-63326769D01*
X101461230Y-63301022D01*
X101472596Y-63300500D01*
X101961026Y-63300500D01*
X102028064Y-63320184D01*
X102071050Y-63347809D01*
X102089945Y-63359952D01*
X102089949Y-63359954D01*
X102228036Y-63400499D01*
X102228038Y-63400500D01*
X102228039Y-63400500D01*
X102371962Y-63400500D01*
X102371962Y-63400499D01*
X102424797Y-63384985D01*
X102518563Y-63357455D01*
X102518995Y-63358926D01*
X102557727Y-63350500D01*
X103178648Y-63350500D01*
X103245687Y-63370185D01*
X103291442Y-63422989D01*
X103295690Y-63433548D01*
X103297205Y-63437878D01*
X103297206Y-63437881D01*
X103297207Y-63437882D01*
X103377850Y-63547150D01*
X103487118Y-63627793D01*
X103529845Y-63642744D01*
X103615299Y-63672646D01*
X103645730Y-63675500D01*
X103645734Y-63675500D01*
X105154270Y-63675500D01*
X105184699Y-63672646D01*
X105184701Y-63672646D01*
X105248790Y-63650219D01*
X105312882Y-63627793D01*
X105422150Y-63547150D01*
X105502793Y-63437882D01*
X105530061Y-63359954D01*
X105548051Y-63308544D01*
X105588773Y-63251769D01*
X105653726Y-63226022D01*
X105665092Y-63225500D01*
X106050500Y-63225500D01*
X106117539Y-63245185D01*
X106163294Y-63297989D01*
X106174500Y-63349500D01*
X106174500Y-63719752D01*
X106186130Y-63778223D01*
X106190059Y-63787706D01*
X106199500Y-63835165D01*
X106199500Y-64000500D01*
X106179815Y-64067539D01*
X106127011Y-64113294D01*
X106075500Y-64124500D01*
X105495730Y-64124500D01*
X105465300Y-64127353D01*
X105465298Y-64127353D01*
X105337119Y-64172206D01*
X105337117Y-64172207D01*
X105227850Y-64252850D01*
X105147207Y-64362117D01*
X105147206Y-64362119D01*
X105102353Y-64490298D01*
X105102353Y-64490300D01*
X105099500Y-64520730D01*
X105099500Y-65879269D01*
X105102353Y-65909699D01*
X105102353Y-65909701D01*
X105147206Y-66037880D01*
X105147207Y-66037882D01*
X105221548Y-66138612D01*
X105245519Y-66204239D01*
X105230204Y-66272410D01*
X105186875Y-66317782D01*
X105081659Y-66382680D01*
X105081655Y-66382683D01*
X104957684Y-66506654D01*
X104865643Y-66655875D01*
X104865641Y-66655880D01*
X104810494Y-66822302D01*
X104810493Y-66822309D01*
X104800000Y-66925013D01*
X104800000Y-67350000D01*
X107088657Y-67350000D01*
X107155696Y-67369685D01*
X107201451Y-67422489D01*
X107207797Y-67444101D01*
X107208335Y-67443944D01*
X107210834Y-67452455D01*
X107250615Y-67539561D01*
X107270623Y-67583373D01*
X107364872Y-67692143D01*
X107485947Y-67769953D01*
X107485950Y-67769954D01*
X107485949Y-67769954D01*
X107565995Y-67793457D01*
X107617074Y-67808455D01*
X107624036Y-67810499D01*
X107624038Y-67810500D01*
X107624039Y-67810500D01*
X107767962Y-67810500D01*
X107767962Y-67810499D01*
X107875121Y-67779035D01*
X107906050Y-67769954D01*
X107906050Y-67769953D01*
X107906053Y-67769953D01*
X108008460Y-67704139D01*
X108075500Y-67684455D01*
X108142539Y-67704140D01*
X108188294Y-67756943D01*
X108199500Y-67808455D01*
X108199500Y-68279269D01*
X108202353Y-68309699D01*
X108202353Y-68309701D01*
X108243909Y-68428457D01*
X108247207Y-68437882D01*
X108327850Y-68547150D01*
X108437118Y-68627793D01*
X108479845Y-68642744D01*
X108565299Y-68672646D01*
X108595730Y-68675500D01*
X108595734Y-68675500D01*
X109504270Y-68675500D01*
X109534699Y-68672646D01*
X109534701Y-68672646D01*
X109605699Y-68647802D01*
X109662882Y-68627793D01*
X109772150Y-68547150D01*
X109852793Y-68437882D01*
X109893260Y-68322234D01*
X109897646Y-68309701D01*
X109897646Y-68309699D01*
X109899869Y-68286000D01*
X111656124Y-68286000D01*
X111676605Y-68428456D01*
X111709756Y-68501045D01*
X111736394Y-68559373D01*
X111830643Y-68668143D01*
X111951718Y-68745953D01*
X111951721Y-68745954D01*
X111951720Y-68745954D01*
X112089807Y-68786499D01*
X112089809Y-68786500D01*
X112089810Y-68786500D01*
X112233733Y-68786500D01*
X112233733Y-68786499D01*
X112371824Y-68745953D01*
X112404428Y-68725000D01*
X114302353Y-68725000D01*
X114322834Y-68867456D01*
X114343518Y-68912747D01*
X114382623Y-68998373D01*
X114476872Y-69107143D01*
X114597947Y-69184953D01*
X114597950Y-69184954D01*
X114597949Y-69184954D01*
X114736036Y-69225499D01*
X114736038Y-69225500D01*
X114736039Y-69225500D01*
X114879962Y-69225500D01*
X114879962Y-69225499D01*
X115018053Y-69184953D01*
X115139128Y-69107143D01*
X115233377Y-68998373D01*
X115293165Y-68867457D01*
X115293165Y-68867455D01*
X115294314Y-68864940D01*
X115340068Y-68812136D01*
X115407108Y-68792451D01*
X115474147Y-68812135D01*
X115479794Y-68816168D01*
X115630875Y-68909356D01*
X115630880Y-68909358D01*
X115797302Y-68964505D01*
X115797309Y-68964506D01*
X115900019Y-68974999D01*
X116099999Y-68974999D01*
X116600000Y-68974999D01*
X116799972Y-68974999D01*
X116799986Y-68974998D01*
X116902697Y-68964505D01*
X116913274Y-68961000D01*
X120906353Y-68961000D01*
X120926834Y-69103456D01*
X120928518Y-69107143D01*
X120986623Y-69234373D01*
X121080872Y-69343143D01*
X121201947Y-69420953D01*
X121201950Y-69420954D01*
X121201949Y-69420954D01*
X121340036Y-69461499D01*
X121340038Y-69461500D01*
X121340039Y-69461500D01*
X121483962Y-69461500D01*
X121483962Y-69461499D01*
X121622053Y-69420953D01*
X121743128Y-69343143D01*
X121837377Y-69234373D01*
X121897165Y-69103457D01*
X121917647Y-68961000D01*
X121897165Y-68818543D01*
X121837377Y-68687627D01*
X121743128Y-68578857D01*
X121622053Y-68501047D01*
X121622051Y-68501046D01*
X121622049Y-68501045D01*
X121622050Y-68501045D01*
X121483963Y-68460500D01*
X121483961Y-68460500D01*
X121340039Y-68460500D01*
X121340036Y-68460500D01*
X121201949Y-68501045D01*
X121080873Y-68578856D01*
X120986623Y-68687626D01*
X120986622Y-68687628D01*
X120926834Y-68818543D01*
X120906353Y-68961000D01*
X116913274Y-68961000D01*
X117069119Y-68909358D01*
X117069124Y-68909356D01*
X117218345Y-68817315D01*
X117342315Y-68693345D01*
X117434356Y-68544124D01*
X117434358Y-68544119D01*
X117489505Y-68377697D01*
X117489506Y-68377690D01*
X117499999Y-68274986D01*
X117500000Y-68274973D01*
X117500000Y-67850000D01*
X116600000Y-67850000D01*
X116600000Y-68974999D01*
X116099999Y-68974999D01*
X116100000Y-68974998D01*
X116100000Y-67850000D01*
X115200001Y-67850000D01*
X115200001Y-68155192D01*
X115180316Y-68222231D01*
X115127512Y-68267986D01*
X115058354Y-68277930D01*
X115024488Y-68267986D01*
X115018047Y-68265044D01*
X114879963Y-68224500D01*
X114879961Y-68224500D01*
X114736039Y-68224500D01*
X114736036Y-68224500D01*
X114597949Y-68265045D01*
X114476873Y-68342856D01*
X114382623Y-68451626D01*
X114382622Y-68451628D01*
X114322834Y-68582543D01*
X114302353Y-68725000D01*
X112404428Y-68725000D01*
X112492899Y-68668143D01*
X112587148Y-68559373D01*
X112646936Y-68428457D01*
X112667418Y-68286000D01*
X112646936Y-68143543D01*
X112587148Y-68012627D01*
X112492899Y-67903857D01*
X112371824Y-67826047D01*
X112371822Y-67826046D01*
X112371820Y-67826045D01*
X112371821Y-67826045D01*
X112233734Y-67785500D01*
X112233732Y-67785500D01*
X112089810Y-67785500D01*
X112089807Y-67785500D01*
X111951720Y-67826045D01*
X111830644Y-67903856D01*
X111736394Y-68012626D01*
X111736393Y-68012628D01*
X111676605Y-68143543D01*
X111656124Y-68286000D01*
X109899869Y-68286000D01*
X109900500Y-68279269D01*
X109900500Y-68216291D01*
X109920185Y-68149252D01*
X109972989Y-68103497D01*
X110042147Y-68093553D01*
X110081450Y-68108215D01*
X110081882Y-68107270D01*
X110089949Y-68110954D01*
X110228036Y-68151499D01*
X110228038Y-68151500D01*
X110228039Y-68151500D01*
X110371962Y-68151500D01*
X110371962Y-68151499D01*
X110510053Y-68110953D01*
X110631128Y-68033143D01*
X110725377Y-67924373D01*
X110785165Y-67793457D01*
X110805647Y-67651000D01*
X110785165Y-67508543D01*
X110725377Y-67377627D01*
X110631128Y-67268857D01*
X110510053Y-67191047D01*
X110510051Y-67191046D01*
X110510049Y-67191045D01*
X110510050Y-67191045D01*
X110371963Y-67150500D01*
X110371961Y-67150500D01*
X110228039Y-67150500D01*
X110228036Y-67150500D01*
X110089949Y-67191045D01*
X110081882Y-67194730D01*
X110081128Y-67193081D01*
X110024498Y-67209708D01*
X109957459Y-67190022D01*
X109911705Y-67137218D01*
X109900500Y-67085708D01*
X109900500Y-66920730D01*
X109897646Y-66890300D01*
X109897646Y-66890298D01*
X109852793Y-66762119D01*
X109852792Y-66762117D01*
X109772150Y-66652850D01*
X109662882Y-66572207D01*
X109662880Y-66572206D01*
X109534700Y-66527353D01*
X109504270Y-66524500D01*
X109504266Y-66524500D01*
X108595734Y-66524500D01*
X108595730Y-66524500D01*
X108565305Y-66527353D01*
X108565299Y-66527354D01*
X108544299Y-66534702D01*
X108474520Y-66538261D01*
X108415667Y-66505340D01*
X108361336Y-66451009D01*
X108327851Y-66389686D01*
X108332835Y-66319994D01*
X108374707Y-66264061D01*
X108440171Y-66239644D01*
X108489969Y-66246286D01*
X108565301Y-66272646D01*
X108565300Y-66272646D01*
X108595730Y-66275500D01*
X108595734Y-66275500D01*
X109504270Y-66275500D01*
X109534699Y-66272646D01*
X109534701Y-66272646D01*
X109610029Y-66246287D01*
X109662882Y-66227793D01*
X109772150Y-66147150D01*
X109852793Y-66037882D01*
X109883004Y-65951544D01*
X109897646Y-65909701D01*
X109897646Y-65909699D01*
X109900500Y-65879269D01*
X109900500Y-65649500D01*
X109920185Y-65582461D01*
X109972989Y-65536706D01*
X110024500Y-65525500D01*
X112542851Y-65525500D01*
X112542853Y-65525500D01*
X112625639Y-65503318D01*
X112699862Y-65460465D01*
X113423507Y-64736818D01*
X113484830Y-64703334D01*
X113511188Y-64700500D01*
X113571962Y-64700500D01*
X113571962Y-64700499D01*
X113710053Y-64659953D01*
X113831128Y-64582143D01*
X113925377Y-64473373D01*
X113985165Y-64342457D01*
X114005647Y-64200000D01*
X113985165Y-64057543D01*
X113925377Y-63926627D01*
X113875533Y-63869104D01*
X113846510Y-63805552D01*
X113856453Y-63736393D01*
X113902208Y-63683589D01*
X113969247Y-63663904D01*
X114010203Y-63670863D01*
X114015298Y-63672645D01*
X114015300Y-63672646D01*
X114045730Y-63675500D01*
X114045734Y-63675500D01*
X115554270Y-63675500D01*
X115584699Y-63672646D01*
X115584701Y-63672646D01*
X115648790Y-63650219D01*
X115712882Y-63627793D01*
X115822150Y-63547150D01*
X115902793Y-63437882D01*
X115930061Y-63359954D01*
X115948051Y-63308544D01*
X115988773Y-63251769D01*
X116053726Y-63226022D01*
X116065092Y-63225500D01*
X116450500Y-63225500D01*
X116517539Y-63245185D01*
X116563294Y-63297989D01*
X116574500Y-63349500D01*
X116574500Y-63719752D01*
X116586130Y-63778223D01*
X116590059Y-63787706D01*
X116599500Y-63835165D01*
X116599500Y-64000500D01*
X116579815Y-64067539D01*
X116527011Y-64113294D01*
X116475500Y-64124500D01*
X115895730Y-64124500D01*
X115865300Y-64127353D01*
X115865298Y-64127353D01*
X115737119Y-64172206D01*
X115737117Y-64172207D01*
X115627850Y-64252850D01*
X115547207Y-64362117D01*
X115547206Y-64362119D01*
X115502353Y-64490298D01*
X115502353Y-64490300D01*
X115499500Y-64520730D01*
X115499500Y-65879269D01*
X115502353Y-65909699D01*
X115502353Y-65909701D01*
X115547206Y-66037880D01*
X115547207Y-66037882D01*
X115621548Y-66138612D01*
X115645519Y-66204239D01*
X115630204Y-66272410D01*
X115586875Y-66317782D01*
X115481659Y-66382680D01*
X115481655Y-66382683D01*
X115357684Y-66506654D01*
X115265643Y-66655875D01*
X115265641Y-66655880D01*
X115210494Y-66822302D01*
X115210493Y-66822309D01*
X115200000Y-66925013D01*
X115200000Y-67350000D01*
X117499999Y-67350000D01*
X117499999Y-66925028D01*
X117499998Y-66925013D01*
X117489505Y-66822302D01*
X117434358Y-66655880D01*
X117434356Y-66655875D01*
X117342315Y-66506654D01*
X117218345Y-66382684D01*
X117113124Y-66317783D01*
X117066400Y-66265835D01*
X117055178Y-66196872D01*
X117078448Y-66138615D01*
X117152793Y-66037882D01*
X117158836Y-66020609D01*
X117199557Y-65963836D01*
X117264509Y-65938088D01*
X117333071Y-65951544D01*
X117363558Y-65973885D01*
X118563181Y-67173508D01*
X118596666Y-67234831D01*
X118599500Y-67261189D01*
X118599500Y-68279269D01*
X118602353Y-68309699D01*
X118602353Y-68309701D01*
X118643909Y-68428457D01*
X118647207Y-68437882D01*
X118727850Y-68547150D01*
X118837118Y-68627793D01*
X118879845Y-68642744D01*
X118965299Y-68672646D01*
X118995730Y-68675500D01*
X118995734Y-68675500D01*
X119904270Y-68675500D01*
X119934699Y-68672646D01*
X119934701Y-68672646D01*
X120005699Y-68647802D01*
X120062882Y-68627793D01*
X120172150Y-68547150D01*
X120252793Y-68437882D01*
X120293260Y-68322234D01*
X120297646Y-68309701D01*
X120297646Y-68309699D01*
X120300500Y-68279269D01*
X120300500Y-67800000D01*
X122494353Y-67800000D01*
X122514834Y-67942456D01*
X122570415Y-68064159D01*
X122574623Y-68073373D01*
X122668872Y-68182143D01*
X122789947Y-68259953D01*
X122789950Y-68259954D01*
X122789949Y-68259954D01*
X122869440Y-68283294D01*
X122921268Y-68298512D01*
X122928036Y-68300499D01*
X122928038Y-68300500D01*
X122928039Y-68300500D01*
X123071962Y-68300500D01*
X123071962Y-68300499D01*
X123158854Y-68274986D01*
X125400001Y-68274986D01*
X125410494Y-68377697D01*
X125465641Y-68544119D01*
X125465643Y-68544124D01*
X125557684Y-68693345D01*
X125681654Y-68817315D01*
X125830875Y-68909356D01*
X125830880Y-68909358D01*
X125997302Y-68964505D01*
X125997309Y-68964506D01*
X126100019Y-68974999D01*
X126299999Y-68974999D01*
X126300000Y-68974998D01*
X126300000Y-67850000D01*
X125400001Y-67850000D01*
X125400001Y-68274986D01*
X123158854Y-68274986D01*
X123192711Y-68265045D01*
X123210050Y-68259954D01*
X123210050Y-68259953D01*
X123210053Y-68259953D01*
X123331128Y-68182143D01*
X123425377Y-68073373D01*
X123485165Y-67942457D01*
X123505647Y-67800000D01*
X123485165Y-67657543D01*
X123425377Y-67526627D01*
X123331128Y-67417857D01*
X123210053Y-67340047D01*
X123210051Y-67340046D01*
X123210049Y-67340045D01*
X123210050Y-67340045D01*
X123071963Y-67299500D01*
X123071961Y-67299500D01*
X122928039Y-67299500D01*
X122928036Y-67299500D01*
X122789949Y-67340045D01*
X122668873Y-67417856D01*
X122574623Y-67526626D01*
X122574622Y-67526628D01*
X122514834Y-67657543D01*
X122494353Y-67800000D01*
X120300500Y-67800000D01*
X120300500Y-66920730D01*
X120297646Y-66890300D01*
X120297646Y-66890298D01*
X120252793Y-66762119D01*
X120252792Y-66762117D01*
X120172150Y-66652850D01*
X120062882Y-66572207D01*
X120062880Y-66572206D01*
X119934700Y-66527353D01*
X119904270Y-66524500D01*
X119904266Y-66524500D01*
X118995734Y-66524500D01*
X118995730Y-66524500D01*
X118965305Y-66527353D01*
X118965299Y-66527354D01*
X118944299Y-66534702D01*
X118874520Y-66538261D01*
X118815667Y-66505340D01*
X118761336Y-66451009D01*
X118727851Y-66389686D01*
X118732835Y-66319994D01*
X118774707Y-66264061D01*
X118840171Y-66239644D01*
X118889969Y-66246286D01*
X118965301Y-66272646D01*
X118965300Y-66272646D01*
X118995730Y-66275500D01*
X118995734Y-66275500D01*
X119904270Y-66275500D01*
X119934699Y-66272646D01*
X119934701Y-66272646D01*
X120010029Y-66246287D01*
X120062882Y-66227793D01*
X120172150Y-66147150D01*
X120252793Y-66037882D01*
X120283004Y-65951544D01*
X120297646Y-65909701D01*
X120297646Y-65909699D01*
X120300500Y-65879269D01*
X120300500Y-65701026D01*
X120320185Y-65633987D01*
X120372989Y-65588232D01*
X120442147Y-65578288D01*
X120491538Y-65596709D01*
X120589947Y-65659953D01*
X120589950Y-65659954D01*
X120589949Y-65659954D01*
X120728036Y-65700499D01*
X120728038Y-65700500D01*
X120728039Y-65700500D01*
X120871962Y-65700500D01*
X120871962Y-65700499D01*
X121010053Y-65659953D01*
X121131128Y-65582143D01*
X121225377Y-65473373D01*
X121285165Y-65342457D01*
X121305647Y-65200000D01*
X121285165Y-65057543D01*
X121225377Y-64926627D01*
X121131128Y-64817857D01*
X121010053Y-64740047D01*
X121010051Y-64740046D01*
X121010049Y-64740045D01*
X121010050Y-64740045D01*
X120871963Y-64699500D01*
X120871961Y-64699500D01*
X120728039Y-64699500D01*
X120728036Y-64699500D01*
X120589949Y-64740045D01*
X120491539Y-64803289D01*
X120424499Y-64822973D01*
X120357460Y-64803288D01*
X120311705Y-64750484D01*
X120300500Y-64698973D01*
X120300500Y-64520730D01*
X120297646Y-64490300D01*
X120297646Y-64490298D01*
X120256731Y-64373373D01*
X120252793Y-64362118D01*
X120172150Y-64252850D01*
X120062882Y-64172207D01*
X120062880Y-64172206D01*
X119934700Y-64127353D01*
X119904270Y-64124500D01*
X119904266Y-64124500D01*
X119157753Y-64124500D01*
X119090714Y-64104815D01*
X119044959Y-64052011D01*
X119035015Y-63982853D01*
X119064040Y-63919297D01*
X119094297Y-63897478D01*
X119093077Y-63895652D01*
X119169552Y-63844552D01*
X119200000Y-63798984D01*
X119213867Y-63778231D01*
X119213867Y-63778229D01*
X119213868Y-63778229D01*
X119222552Y-63734568D01*
X119225500Y-63719748D01*
X119225500Y-63206674D01*
X119245185Y-63139635D01*
X119297989Y-63093880D01*
X119367147Y-63083936D01*
X119384435Y-63087697D01*
X119428038Y-63100500D01*
X119428039Y-63100500D01*
X119571962Y-63100500D01*
X119571962Y-63100499D01*
X119615565Y-63087697D01*
X119665566Y-63073016D01*
X119735435Y-63073016D01*
X119794213Y-63110791D01*
X119823238Y-63174346D01*
X119824500Y-63191993D01*
X119824500Y-63304269D01*
X119827353Y-63334699D01*
X119827353Y-63334701D01*
X119872206Y-63462880D01*
X119872207Y-63462882D01*
X119952850Y-63572150D01*
X120062118Y-63652793D01*
X120093872Y-63663904D01*
X120190299Y-63697646D01*
X120220730Y-63700500D01*
X120220734Y-63700500D01*
X121579270Y-63700500D01*
X121609699Y-63697646D01*
X121609701Y-63697646D01*
X121681148Y-63672645D01*
X121737882Y-63652793D01*
X121847150Y-63572150D01*
X121927793Y-63462882D01*
X121945874Y-63411208D01*
X121955555Y-63383544D01*
X121996277Y-63326769D01*
X122061230Y-63301022D01*
X122072596Y-63300500D01*
X122561026Y-63300500D01*
X122628064Y-63320184D01*
X122671050Y-63347809D01*
X122689945Y-63359952D01*
X122689949Y-63359954D01*
X122828036Y-63400499D01*
X122828038Y-63400500D01*
X122828039Y-63400500D01*
X122971962Y-63400500D01*
X122971962Y-63400499D01*
X123024797Y-63384985D01*
X123118563Y-63357455D01*
X123118995Y-63358926D01*
X123157727Y-63350500D01*
X123778648Y-63350500D01*
X123845687Y-63370185D01*
X123891442Y-63422989D01*
X123895690Y-63433548D01*
X123897205Y-63437878D01*
X123897206Y-63437881D01*
X123897207Y-63437882D01*
X123977850Y-63547150D01*
X124087118Y-63627793D01*
X124129845Y-63642744D01*
X124215299Y-63672646D01*
X124245730Y-63675500D01*
X124245734Y-63675500D01*
X125754270Y-63675500D01*
X125784699Y-63672646D01*
X125784701Y-63672646D01*
X125848790Y-63650219D01*
X125912882Y-63627793D01*
X126022150Y-63547150D01*
X126102793Y-63437882D01*
X126130061Y-63359954D01*
X126148051Y-63308544D01*
X126188773Y-63251769D01*
X126253726Y-63226022D01*
X126265092Y-63225500D01*
X126650500Y-63225500D01*
X126717539Y-63245185D01*
X126763294Y-63297989D01*
X126774500Y-63349500D01*
X126774500Y-63388811D01*
X126754815Y-63455850D01*
X126738181Y-63476492D01*
X126289537Y-63925135D01*
X126289533Y-63925141D01*
X126246681Y-63999362D01*
X126246680Y-63999364D01*
X126237778Y-64032591D01*
X126201415Y-64092252D01*
X126138568Y-64122783D01*
X126118003Y-64124500D01*
X126095730Y-64124500D01*
X126065300Y-64127353D01*
X126065298Y-64127353D01*
X125937119Y-64172206D01*
X125937117Y-64172207D01*
X125827850Y-64252850D01*
X125747207Y-64362117D01*
X125747206Y-64362119D01*
X125702353Y-64490298D01*
X125702353Y-64490300D01*
X125699500Y-64520730D01*
X125699500Y-65879269D01*
X125702353Y-65909699D01*
X125702353Y-65909701D01*
X125747206Y-66037880D01*
X125747207Y-66037882D01*
X125821548Y-66138612D01*
X125845519Y-66204239D01*
X125830204Y-66272410D01*
X125786875Y-66317782D01*
X125681659Y-66382680D01*
X125681655Y-66382683D01*
X125557684Y-66506654D01*
X125465643Y-66655875D01*
X125465641Y-66655880D01*
X125410494Y-66822302D01*
X125410493Y-66822309D01*
X125400000Y-66925013D01*
X125400000Y-67350000D01*
X127699999Y-67350000D01*
X127699999Y-66925028D01*
X127699998Y-66925013D01*
X127689505Y-66822302D01*
X127634358Y-66655880D01*
X127634356Y-66655875D01*
X127542315Y-66506654D01*
X127418345Y-66382684D01*
X127313124Y-66317783D01*
X127266400Y-66265835D01*
X127255178Y-66196872D01*
X127278448Y-66138615D01*
X127352793Y-66037882D01*
X127383004Y-65951544D01*
X127397646Y-65909701D01*
X127397646Y-65909699D01*
X127400500Y-65879269D01*
X127400500Y-65159921D01*
X127420185Y-65092882D01*
X127472989Y-65047127D01*
X127542147Y-65037183D01*
X127559431Y-65040943D01*
X127580492Y-65047127D01*
X127628038Y-65061088D01*
X127628039Y-65061088D01*
X127771961Y-65061088D01*
X127890565Y-65026263D01*
X127960435Y-65026263D01*
X128019213Y-65064037D01*
X128048238Y-65127593D01*
X128049500Y-65145240D01*
X128049500Y-66367852D01*
X128071682Y-66450640D01*
X128093108Y-66487750D01*
X128114535Y-66524862D01*
X128114536Y-66524863D01*
X128763181Y-67173508D01*
X128796666Y-67234831D01*
X128799500Y-67261189D01*
X128799500Y-68170500D01*
X128779815Y-68237539D01*
X128727011Y-68283294D01*
X128675500Y-68294500D01*
X127824000Y-68294500D01*
X127756961Y-68274815D01*
X127711206Y-68222011D01*
X127700000Y-68170500D01*
X127700000Y-67850000D01*
X126800000Y-67850000D01*
X126800000Y-68958017D01*
X126780315Y-69025056D01*
X126763681Y-69045698D01*
X125792960Y-70016420D01*
X122551199Y-73258181D01*
X122489876Y-73291666D01*
X122463518Y-73294500D01*
X106266486Y-73294500D01*
X106199447Y-73274815D01*
X106153692Y-73222011D01*
X106143748Y-73152853D01*
X106172773Y-73089297D01*
X106203558Y-73066249D01*
X106202593Y-73064747D01*
X106210053Y-73059953D01*
X106331128Y-72982143D01*
X106425377Y-72873373D01*
X106485165Y-72742457D01*
X106505647Y-72600000D01*
X106485165Y-72457543D01*
X106425377Y-72326627D01*
X106370244Y-72263000D01*
X110238353Y-72263000D01*
X110258834Y-72405456D01*
X110317954Y-72534909D01*
X110318623Y-72536373D01*
X110412872Y-72645143D01*
X110533947Y-72722953D01*
X110533950Y-72722954D01*
X110533949Y-72722954D01*
X110672036Y-72763499D01*
X110672038Y-72763500D01*
X110672039Y-72763500D01*
X110815962Y-72763500D01*
X110815962Y-72763499D01*
X110954053Y-72722953D01*
X111075128Y-72645143D01*
X111169377Y-72536373D01*
X111229165Y-72405457D01*
X111249647Y-72263000D01*
X111229165Y-72120543D01*
X111169377Y-71989627D01*
X111075128Y-71880857D01*
X110954053Y-71803047D01*
X110954051Y-71803046D01*
X110954049Y-71803045D01*
X110954050Y-71803045D01*
X110815963Y-71762500D01*
X110815961Y-71762500D01*
X110672039Y-71762500D01*
X110672036Y-71762500D01*
X110533949Y-71803045D01*
X110412873Y-71880856D01*
X110318623Y-71989626D01*
X110318622Y-71989628D01*
X110258834Y-72120543D01*
X110238353Y-72263000D01*
X106370244Y-72263000D01*
X106331128Y-72217857D01*
X106210053Y-72140047D01*
X106210051Y-72140046D01*
X106210049Y-72140045D01*
X106210050Y-72140045D01*
X106071963Y-72099500D01*
X106071961Y-72099500D01*
X105928039Y-72099500D01*
X105928036Y-72099500D01*
X105789949Y-72140045D01*
X105668873Y-72217856D01*
X105574623Y-72326626D01*
X105574622Y-72326628D01*
X105514834Y-72457543D01*
X105494353Y-72600000D01*
X105514834Y-72742456D01*
X105574622Y-72873371D01*
X105574623Y-72873373D01*
X105668872Y-72982143D01*
X105789947Y-73059953D01*
X105797407Y-73064747D01*
X105795885Y-73067114D01*
X105837834Y-73103468D01*
X105857514Y-73170509D01*
X105837825Y-73237547D01*
X105785017Y-73283298D01*
X105733514Y-73294500D01*
X97396405Y-73294500D01*
X97329366Y-73274815D01*
X97283611Y-73222011D01*
X97273667Y-73152853D01*
X97283611Y-73118989D01*
X97310571Y-73059953D01*
X97319475Y-73040457D01*
X97339957Y-72898000D01*
X97319475Y-72755543D01*
X97259687Y-72624627D01*
X97165438Y-72515857D01*
X97044363Y-72438047D01*
X97044361Y-72438046D01*
X97044359Y-72438045D01*
X97044360Y-72438045D01*
X96906273Y-72397500D01*
X96906271Y-72397500D01*
X96762349Y-72397500D01*
X96762346Y-72397500D01*
X96624259Y-72438045D01*
X96503183Y-72515856D01*
X96408933Y-72624626D01*
X96408932Y-72624628D01*
X96349144Y-72755543D01*
X96328663Y-72898000D01*
X96349144Y-73040457D01*
X96349145Y-73040458D01*
X96385009Y-73118989D01*
X96394953Y-73188147D01*
X96365928Y-73251703D01*
X96307150Y-73289477D01*
X96272215Y-73294500D01*
X81904500Y-73294500D01*
X81837461Y-73274815D01*
X81791706Y-73222011D01*
X81780500Y-73170500D01*
X81780500Y-72500000D01*
X88694353Y-72500000D01*
X88714834Y-72642456D01*
X88760504Y-72742457D01*
X88774623Y-72773373D01*
X88868872Y-72882143D01*
X88989947Y-72959953D01*
X88989950Y-72959954D01*
X88989949Y-72959954D01*
X89128036Y-73000499D01*
X89128038Y-73000500D01*
X89128039Y-73000500D01*
X89271962Y-73000500D01*
X89271962Y-73000499D01*
X89410053Y-72959953D01*
X89531128Y-72882143D01*
X89625377Y-72773373D01*
X89685165Y-72642457D01*
X89703203Y-72517000D01*
X89994353Y-72517000D01*
X90014834Y-72659456D01*
X90040759Y-72716222D01*
X90074623Y-72790373D01*
X90168872Y-72899143D01*
X90289947Y-72976953D01*
X90289950Y-72976954D01*
X90289949Y-72976954D01*
X90428036Y-73017499D01*
X90428038Y-73017500D01*
X90428039Y-73017500D01*
X90571962Y-73017500D01*
X90571962Y-73017499D01*
X90710053Y-72976953D01*
X90831128Y-72899143D01*
X90925377Y-72790373D01*
X90985165Y-72659457D01*
X91005647Y-72517000D01*
X90985165Y-72374543D01*
X90925377Y-72243627D01*
X90831128Y-72134857D01*
X90710053Y-72057047D01*
X90710051Y-72057046D01*
X90710049Y-72057045D01*
X90710050Y-72057045D01*
X90571963Y-72016500D01*
X90571961Y-72016500D01*
X90428039Y-72016500D01*
X90428036Y-72016500D01*
X90289949Y-72057045D01*
X90168873Y-72134856D01*
X90074623Y-72243626D01*
X90074622Y-72243628D01*
X90014834Y-72374543D01*
X89994353Y-72517000D01*
X89703203Y-72517000D01*
X89705647Y-72500000D01*
X89685165Y-72357543D01*
X89625377Y-72226627D01*
X89531128Y-72117857D01*
X89410053Y-72040047D01*
X89410051Y-72040046D01*
X89410049Y-72040045D01*
X89410050Y-72040045D01*
X89271963Y-71999500D01*
X89271961Y-71999500D01*
X89128039Y-71999500D01*
X89128036Y-71999500D01*
X88989949Y-72040045D01*
X88868873Y-72117856D01*
X88774623Y-72226626D01*
X88774622Y-72226628D01*
X88714834Y-72357543D01*
X88694353Y-72500000D01*
X81780500Y-72500000D01*
X81780500Y-70800000D01*
X86694353Y-70800000D01*
X86714834Y-70942456D01*
X86765579Y-71053570D01*
X86774623Y-71073373D01*
X86868872Y-71182143D01*
X86989947Y-71259953D01*
X86989950Y-71259954D01*
X86989949Y-71259954D01*
X87128036Y-71300499D01*
X87128038Y-71300500D01*
X87128039Y-71300500D01*
X87271962Y-71300500D01*
X87271962Y-71300499D01*
X87410053Y-71259953D01*
X87531128Y-71182143D01*
X87625377Y-71073373D01*
X87685165Y-70942457D01*
X87705647Y-70800000D01*
X87691269Y-70700000D01*
X107694353Y-70700000D01*
X107714834Y-70842456D01*
X107760504Y-70942457D01*
X107774623Y-70973373D01*
X107868872Y-71082143D01*
X107989947Y-71159953D01*
X107989950Y-71159954D01*
X107989949Y-71159954D01*
X108128036Y-71200499D01*
X108128038Y-71200500D01*
X108128039Y-71200500D01*
X108271962Y-71200500D01*
X108271962Y-71200499D01*
X108410053Y-71159953D01*
X108531128Y-71082143D01*
X108625377Y-70973373D01*
X108685165Y-70842457D01*
X108705647Y-70700000D01*
X108685165Y-70557543D01*
X108625377Y-70426627D01*
X108531128Y-70317857D01*
X108410053Y-70240047D01*
X108410051Y-70240046D01*
X108410049Y-70240045D01*
X108410050Y-70240045D01*
X108271963Y-70199500D01*
X108271961Y-70199500D01*
X108128039Y-70199500D01*
X108128036Y-70199500D01*
X107989949Y-70240045D01*
X107868873Y-70317856D01*
X107774623Y-70426626D01*
X107774622Y-70426628D01*
X107714834Y-70557543D01*
X107694353Y-70700000D01*
X87691269Y-70700000D01*
X87685165Y-70657543D01*
X87625377Y-70526627D01*
X87531128Y-70417857D01*
X87410053Y-70340047D01*
X87410051Y-70340046D01*
X87410049Y-70340045D01*
X87410050Y-70340045D01*
X87271963Y-70299500D01*
X87271961Y-70299500D01*
X87128039Y-70299500D01*
X87128036Y-70299500D01*
X86989949Y-70340045D01*
X86868873Y-70417856D01*
X86774623Y-70526626D01*
X86774622Y-70526628D01*
X86714834Y-70657543D01*
X86694353Y-70800000D01*
X81780500Y-70800000D01*
X81780500Y-68274986D01*
X84200001Y-68274986D01*
X84210494Y-68377697D01*
X84265641Y-68544119D01*
X84265643Y-68544124D01*
X84357684Y-68693345D01*
X84481654Y-68817315D01*
X84630875Y-68909356D01*
X84630880Y-68909358D01*
X84797302Y-68964505D01*
X84797309Y-68964506D01*
X84900019Y-68974999D01*
X85099999Y-68974999D01*
X85100000Y-68974998D01*
X85100000Y-67850000D01*
X84200001Y-67850000D01*
X84200001Y-68274986D01*
X81780500Y-68274986D01*
X81780500Y-63388172D01*
X81800185Y-63321133D01*
X81852989Y-63275378D01*
X81922147Y-63265434D01*
X81971537Y-63283856D01*
X82016887Y-63313000D01*
X82089948Y-63359954D01*
X82228036Y-63400499D01*
X82228038Y-63400500D01*
X82228039Y-63400500D01*
X82371962Y-63400500D01*
X82371962Y-63400499D01*
X82510053Y-63359953D01*
X82510054Y-63359951D01*
X82518118Y-63356270D01*
X82518880Y-63357940D01*
X82575423Y-63341330D01*
X82642465Y-63361006D01*
X82688227Y-63413804D01*
X82692480Y-63424373D01*
X82697207Y-63437882D01*
X82777850Y-63547150D01*
X82887118Y-63627793D01*
X82929845Y-63642744D01*
X83015299Y-63672646D01*
X83045730Y-63675500D01*
X83045734Y-63675500D01*
X84554270Y-63675500D01*
X84584699Y-63672646D01*
X84584701Y-63672646D01*
X84648790Y-63650219D01*
X84712882Y-63627793D01*
X84822150Y-63547150D01*
X84902793Y-63437882D01*
X84930061Y-63359954D01*
X84948051Y-63308544D01*
X84988773Y-63251769D01*
X85053726Y-63226022D01*
X85065092Y-63225500D01*
X85450500Y-63225500D01*
X85517539Y-63245185D01*
X85563294Y-63297989D01*
X85574500Y-63349500D01*
X85574500Y-63719752D01*
X85586130Y-63778223D01*
X85590059Y-63787706D01*
X85599500Y-63835165D01*
X85599500Y-64000500D01*
X85579815Y-64067539D01*
X85527011Y-64113294D01*
X85475500Y-64124500D01*
X84895730Y-64124500D01*
X84865300Y-64127353D01*
X84865298Y-64127353D01*
X84737119Y-64172206D01*
X84737117Y-64172207D01*
X84627850Y-64252850D01*
X84547207Y-64362117D01*
X84547206Y-64362119D01*
X84502353Y-64490298D01*
X84502353Y-64490300D01*
X84499500Y-64520730D01*
X84499500Y-65879269D01*
X84502353Y-65909699D01*
X84502353Y-65909701D01*
X84547206Y-66037880D01*
X84547207Y-66037882D01*
X84621548Y-66138612D01*
X84645519Y-66204239D01*
X84630204Y-66272410D01*
X84586875Y-66317782D01*
X84481659Y-66382680D01*
X84481655Y-66382683D01*
X84357684Y-66506654D01*
X84265643Y-66655875D01*
X84265641Y-66655880D01*
X84210494Y-66822302D01*
X84210493Y-66822309D01*
X84200000Y-66925013D01*
X84200000Y-67350000D01*
X85226000Y-67350000D01*
X85293039Y-67369685D01*
X85338794Y-67422489D01*
X85350000Y-67474000D01*
X85350000Y-67600000D01*
X85476000Y-67600000D01*
X85543039Y-67619685D01*
X85588794Y-67672489D01*
X85600000Y-67724000D01*
X85600000Y-68974999D01*
X85799972Y-68974999D01*
X85799986Y-68974998D01*
X85902697Y-68964505D01*
X86069119Y-68909358D01*
X86069124Y-68909356D01*
X86218345Y-68817315D01*
X86342315Y-68693345D01*
X86434356Y-68544124D01*
X86434358Y-68544119D01*
X86489505Y-68377697D01*
X86489506Y-68377690D01*
X86499999Y-68274986D01*
X86499999Y-67815914D01*
X86519683Y-67748875D01*
X86572487Y-67703120D01*
X86641646Y-67693176D01*
X86705202Y-67722201D01*
X86717710Y-67734709D01*
X86790872Y-67819143D01*
X86911947Y-67896953D01*
X86911950Y-67896954D01*
X86911949Y-67896954D01*
X87050036Y-67937499D01*
X87050038Y-67937500D01*
X87050039Y-67937500D01*
X87193962Y-67937500D01*
X87193962Y-67937499D01*
X87332050Y-67896954D01*
X87332051Y-67896954D01*
X87345623Y-67888232D01*
X87408460Y-67847848D01*
X87475500Y-67828164D01*
X87542539Y-67847848D01*
X87588294Y-67900652D01*
X87599500Y-67952164D01*
X87599500Y-68279269D01*
X87602353Y-68309699D01*
X87602353Y-68309701D01*
X87643909Y-68428457D01*
X87647207Y-68437882D01*
X87727850Y-68547150D01*
X87837118Y-68627793D01*
X87879845Y-68642744D01*
X87965299Y-68672646D01*
X87995730Y-68675500D01*
X87995734Y-68675500D01*
X88345212Y-68675500D01*
X88412251Y-68695185D01*
X88458006Y-68747989D01*
X88467950Y-68817147D01*
X88458006Y-68851012D01*
X88414834Y-68945543D01*
X88394353Y-69088000D01*
X88414834Y-69230456D01*
X88474622Y-69361371D01*
X88474623Y-69361373D01*
X88568872Y-69470143D01*
X88689947Y-69547953D01*
X88689950Y-69547954D01*
X88689949Y-69547954D01*
X88828036Y-69588499D01*
X88828038Y-69588500D01*
X88828039Y-69588500D01*
X88971962Y-69588500D01*
X88971962Y-69588499D01*
X89110053Y-69547953D01*
X89231128Y-69470143D01*
X89315560Y-69372702D01*
X91969353Y-69372702D01*
X91989834Y-69515158D01*
X92023329Y-69588500D01*
X92049623Y-69646075D01*
X92143872Y-69754845D01*
X92264947Y-69832655D01*
X92264950Y-69832656D01*
X92264949Y-69832656D01*
X92403036Y-69873201D01*
X92403038Y-69873202D01*
X92403039Y-69873202D01*
X92546962Y-69873202D01*
X92546962Y-69873201D01*
X92685053Y-69832655D01*
X92806128Y-69754845D01*
X92900377Y-69646075D01*
X92960165Y-69515159D01*
X92980647Y-69372702D01*
X92960165Y-69230245D01*
X92900377Y-69099329D01*
X92806128Y-68990559D01*
X92685053Y-68912749D01*
X92685051Y-68912748D01*
X92685049Y-68912747D01*
X92685050Y-68912747D01*
X92546963Y-68872202D01*
X92546961Y-68872202D01*
X92403039Y-68872202D01*
X92403036Y-68872202D01*
X92264949Y-68912747D01*
X92143873Y-68990558D01*
X92049623Y-69099328D01*
X92049622Y-69099330D01*
X91989834Y-69230245D01*
X91969353Y-69372702D01*
X89315560Y-69372702D01*
X89325377Y-69361373D01*
X89385165Y-69230457D01*
X89405647Y-69088000D01*
X89385165Y-68945543D01*
X89325377Y-68814627D01*
X89231128Y-68705857D01*
X89222956Y-68700605D01*
X89177202Y-68647802D01*
X89167258Y-68578643D01*
X89190224Y-68522659D01*
X89252793Y-68437882D01*
X89293260Y-68322234D01*
X89297646Y-68309701D01*
X89297646Y-68309699D01*
X89300500Y-68279269D01*
X89300500Y-68001026D01*
X89320185Y-67933987D01*
X89372989Y-67888232D01*
X89442147Y-67878288D01*
X89491538Y-67896709D01*
X89589947Y-67959953D01*
X89589950Y-67959954D01*
X89589949Y-67959954D01*
X89728036Y-68000499D01*
X89728038Y-68000500D01*
X89872600Y-68000500D01*
X89939639Y-68020185D01*
X89985394Y-68072989D01*
X89995338Y-68106853D01*
X90014834Y-68242456D01*
X90066669Y-68355956D01*
X90074623Y-68373373D01*
X90168872Y-68482143D01*
X90289947Y-68559953D01*
X90289950Y-68559954D01*
X90289949Y-68559954D01*
X90428036Y-68600499D01*
X90428038Y-68600500D01*
X90428039Y-68600500D01*
X90571962Y-68600500D01*
X90571962Y-68600499D01*
X90710053Y-68559953D01*
X90831128Y-68482143D01*
X90925377Y-68373373D01*
X90985165Y-68242457D01*
X91005647Y-68100000D01*
X90985165Y-67957543D01*
X90925377Y-67826627D01*
X90831128Y-67717857D01*
X90803342Y-67700000D01*
X91294353Y-67700000D01*
X91314834Y-67842456D01*
X91368494Y-67959953D01*
X91374623Y-67973373D01*
X91468872Y-68082143D01*
X91589947Y-68159953D01*
X91589950Y-68159954D01*
X91589949Y-68159954D01*
X91728036Y-68200499D01*
X91728038Y-68200500D01*
X91728039Y-68200500D01*
X91871962Y-68200500D01*
X91871962Y-68200499D01*
X92010053Y-68159953D01*
X92131128Y-68082143D01*
X92191363Y-68012628D01*
X92217481Y-67982486D01*
X92276259Y-67944711D01*
X92346129Y-67944711D01*
X92404907Y-67982485D01*
X92433932Y-68046041D01*
X92436536Y-68064158D01*
X92485102Y-68170500D01*
X92496325Y-68195075D01*
X92590574Y-68303845D01*
X92711649Y-68381655D01*
X92711652Y-68381656D01*
X92711651Y-68381656D01*
X92849738Y-68422201D01*
X92849740Y-68422202D01*
X92849741Y-68422202D01*
X92993664Y-68422202D01*
X92993664Y-68422201D01*
X93131755Y-68381655D01*
X93252830Y-68303845D01*
X93347079Y-68195075D01*
X93406867Y-68064159D01*
X93427349Y-67921702D01*
X93406867Y-67779245D01*
X93347079Y-67648329D01*
X93252830Y-67539559D01*
X93131755Y-67461749D01*
X93131753Y-67461748D01*
X93131751Y-67461747D01*
X93131752Y-67461747D01*
X92993665Y-67421202D01*
X92993663Y-67421202D01*
X92849741Y-67421202D01*
X92849738Y-67421202D01*
X92711651Y-67461747D01*
X92590574Y-67539559D01*
X92590571Y-67539561D01*
X92504219Y-67639216D01*
X92445441Y-67676990D01*
X92375571Y-67676990D01*
X92316793Y-67639215D01*
X92287769Y-67575661D01*
X92285165Y-67557543D01*
X92225377Y-67426627D01*
X92131128Y-67317857D01*
X92010053Y-67240047D01*
X92010051Y-67240046D01*
X92010049Y-67240045D01*
X92010050Y-67240045D01*
X91871963Y-67199500D01*
X91871961Y-67199500D01*
X91728039Y-67199500D01*
X91728036Y-67199500D01*
X91589949Y-67240045D01*
X91468873Y-67317856D01*
X91374623Y-67426626D01*
X91374622Y-67426628D01*
X91314834Y-67557543D01*
X91294353Y-67700000D01*
X90803342Y-67700000D01*
X90710053Y-67640047D01*
X90710051Y-67640046D01*
X90710049Y-67640045D01*
X90710050Y-67640045D01*
X90571963Y-67599500D01*
X90571961Y-67599500D01*
X90428039Y-67599500D01*
X90427400Y-67599500D01*
X90360361Y-67579815D01*
X90314606Y-67527011D01*
X90304662Y-67493147D01*
X90285165Y-67357543D01*
X90267040Y-67317856D01*
X90225377Y-67226627D01*
X90131128Y-67117857D01*
X90010053Y-67040047D01*
X90010051Y-67040046D01*
X90010049Y-67040045D01*
X90010050Y-67040045D01*
X89871963Y-66999500D01*
X89871961Y-66999500D01*
X89728039Y-66999500D01*
X89728036Y-66999500D01*
X89589949Y-67040045D01*
X89491539Y-67103289D01*
X89424499Y-67122973D01*
X89357460Y-67103288D01*
X89311705Y-67050484D01*
X89300500Y-66998973D01*
X89300500Y-66920730D01*
X89297646Y-66890300D01*
X89297646Y-66890298D01*
X89252793Y-66762119D01*
X89252792Y-66762117D01*
X89172150Y-66652850D01*
X89062882Y-66572207D01*
X89062880Y-66572206D01*
X88934700Y-66527353D01*
X88904270Y-66524500D01*
X88904266Y-66524500D01*
X87995734Y-66524500D01*
X87995730Y-66524500D01*
X87965305Y-66527353D01*
X87965299Y-66527354D01*
X87944299Y-66534702D01*
X87874520Y-66538261D01*
X87815667Y-66505340D01*
X87761336Y-66451009D01*
X87727851Y-66389686D01*
X87732835Y-66319994D01*
X87774707Y-66264061D01*
X87840171Y-66239644D01*
X87889969Y-66246286D01*
X87965301Y-66272646D01*
X87965300Y-66272646D01*
X87995730Y-66275500D01*
X87995734Y-66275500D01*
X88904270Y-66275500D01*
X88934699Y-66272646D01*
X88934701Y-66272646D01*
X89010029Y-66246287D01*
X89062882Y-66227793D01*
X89172150Y-66147150D01*
X89252793Y-66037882D01*
X89283004Y-65951544D01*
X89297646Y-65909701D01*
X89297646Y-65909699D01*
X89300500Y-65879269D01*
X89300500Y-64520730D01*
X89297646Y-64490300D01*
X89297646Y-64490298D01*
X89256731Y-64373373D01*
X89252793Y-64362118D01*
X89172150Y-64252850D01*
X89172149Y-64252849D01*
X89138815Y-64228247D01*
X89096565Y-64172599D01*
X89089712Y-64110831D01*
X89092383Y-64092252D01*
X89105647Y-64000000D01*
X89085165Y-63857543D01*
X89083903Y-63848765D01*
X89085432Y-63848545D01*
X89085426Y-63788592D01*
X89123193Y-63729810D01*
X89186746Y-63700777D01*
X89215983Y-63700055D01*
X89220729Y-63700500D01*
X89220734Y-63700500D01*
X90070861Y-63700500D01*
X90137900Y-63720185D01*
X90183655Y-63772989D01*
X90193598Y-63842145D01*
X90181452Y-63926628D01*
X90173190Y-63984094D01*
X90193671Y-64126550D01*
X90246605Y-64242457D01*
X90253460Y-64257467D01*
X90347709Y-64366237D01*
X90468784Y-64444047D01*
X90468787Y-64444048D01*
X90468786Y-64444048D01*
X90606873Y-64484593D01*
X90606875Y-64484594D01*
X90606876Y-64484594D01*
X90750799Y-64484594D01*
X90750799Y-64484593D01*
X90857958Y-64453129D01*
X90888887Y-64444048D01*
X90888887Y-64444047D01*
X90888890Y-64444047D01*
X91009965Y-64366237D01*
X91104214Y-64257467D01*
X91164002Y-64126551D01*
X91184484Y-63984094D01*
X91164002Y-63841637D01*
X91104214Y-63710721D01*
X91009965Y-63601951D01*
X91009962Y-63601949D01*
X91009963Y-63601949D01*
X90985472Y-63586210D01*
X90939718Y-63533406D01*
X90929774Y-63464248D01*
X90935471Y-63440939D01*
X90955555Y-63383544D01*
X90996277Y-63326769D01*
X91061230Y-63301022D01*
X91072596Y-63300500D01*
X91661026Y-63300500D01*
X91728064Y-63320184D01*
X91771050Y-63347809D01*
X91789945Y-63359952D01*
X91789949Y-63359954D01*
X91928036Y-63400499D01*
X91928038Y-63400500D01*
X91928039Y-63400500D01*
X92071962Y-63400500D01*
X92071962Y-63400499D01*
X92210053Y-63359953D01*
X92210660Y-63359563D01*
X92252484Y-63332685D01*
X92319523Y-63313000D01*
X92965526Y-63313000D01*
X93032565Y-63332685D01*
X93078320Y-63385489D01*
X93082567Y-63396044D01*
X93087873Y-63411208D01*
X93097207Y-63437882D01*
X93177850Y-63547150D01*
X93287118Y-63627793D01*
X93329845Y-63642744D01*
X93415299Y-63672646D01*
X93445730Y-63675500D01*
X93445734Y-63675500D01*
X94954270Y-63675500D01*
X94984699Y-63672646D01*
X94984701Y-63672646D01*
X95048790Y-63650219D01*
X95112882Y-63627793D01*
X95222150Y-63547150D01*
X95302793Y-63437882D01*
X95330061Y-63359954D01*
X95348051Y-63308544D01*
X95388773Y-63251769D01*
X95453726Y-63226022D01*
X95465092Y-63225500D01*
X95850500Y-63225500D01*
X95917539Y-63245185D01*
X95963294Y-63297989D01*
X95974500Y-63349500D01*
X95974500Y-63719752D01*
X95986130Y-63778223D01*
X95990059Y-63787706D01*
X95999500Y-63835165D01*
X95999500Y-64000500D01*
X95979815Y-64067539D01*
X95927011Y-64113294D01*
X95875500Y-64124500D01*
X95295730Y-64124500D01*
X95265300Y-64127353D01*
X95265298Y-64127353D01*
X95137119Y-64172206D01*
X95137117Y-64172207D01*
X95027850Y-64252850D01*
X94947207Y-64362117D01*
X94947206Y-64362119D01*
X94902353Y-64490298D01*
X94902353Y-64490300D01*
X94899500Y-64520730D01*
X94899500Y-65879269D01*
X94902353Y-65909699D01*
X94902353Y-65909701D01*
X94947206Y-66037880D01*
X94947207Y-66037882D01*
X95021548Y-66138612D01*
X95045519Y-66204239D01*
X95030204Y-66272410D01*
X94986875Y-66317782D01*
X94881659Y-66382680D01*
X94881655Y-66382683D01*
X94757684Y-66506654D01*
X94665643Y-66655875D01*
X94665641Y-66655880D01*
X94610494Y-66822302D01*
X94610491Y-66822316D01*
X94609156Y-66835387D01*
X94582758Y-66900077D01*
X94525575Y-66940226D01*
X94455764Y-66943086D01*
X94450866Y-66941757D01*
X94432961Y-66936500D01*
X94289039Y-66936500D01*
X94289036Y-66936500D01*
X94150949Y-66977045D01*
X94029873Y-67054856D01*
X93935623Y-67163626D01*
X93935622Y-67163628D01*
X93875834Y-67294543D01*
X93855353Y-67437000D01*
X93875834Y-67579456D01*
X93927769Y-67693176D01*
X93935623Y-67710373D01*
X94029872Y-67819143D01*
X94150947Y-67896953D01*
X94150950Y-67896954D01*
X94150949Y-67896954D01*
X94289036Y-67937499D01*
X94289038Y-67937500D01*
X94289039Y-67937500D01*
X94432960Y-67937500D01*
X94432961Y-67937500D01*
X94441063Y-67935120D01*
X94510930Y-67935119D01*
X94569710Y-67972891D01*
X94598737Y-68036445D01*
X94600000Y-68054096D01*
X94600000Y-68274970D01*
X94600001Y-68274987D01*
X94610494Y-68377697D01*
X94665641Y-68544119D01*
X94665643Y-68544124D01*
X94757684Y-68693345D01*
X94881654Y-68817315D01*
X95030875Y-68909356D01*
X95030880Y-68909358D01*
X95197302Y-68964505D01*
X95197309Y-68964506D01*
X95300019Y-68974999D01*
X95499999Y-68974999D01*
X96000000Y-68974999D01*
X96199972Y-68974999D01*
X96199986Y-68974998D01*
X96302697Y-68964505D01*
X96469119Y-68909358D01*
X96469124Y-68909356D01*
X96618345Y-68817315D01*
X96742315Y-68693345D01*
X96834356Y-68544124D01*
X96834358Y-68544119D01*
X96889505Y-68377697D01*
X96889506Y-68377690D01*
X96899999Y-68274986D01*
X96900000Y-68274973D01*
X96900000Y-67850000D01*
X96000000Y-67850000D01*
X96000000Y-68974999D01*
X95499999Y-68974999D01*
X95500000Y-68974998D01*
X95500000Y-67724000D01*
X95519685Y-67656961D01*
X95572489Y-67611206D01*
X95624000Y-67600000D01*
X95750000Y-67600000D01*
X95750000Y-67474000D01*
X95769685Y-67406961D01*
X95822489Y-67361206D01*
X95874000Y-67350000D01*
X96899999Y-67350000D01*
X96899999Y-66925028D01*
X96899998Y-66925013D01*
X96889505Y-66822302D01*
X96834358Y-66655880D01*
X96834356Y-66655875D01*
X96742315Y-66506654D01*
X96618345Y-66382684D01*
X96513124Y-66317783D01*
X96466400Y-66265835D01*
X96455178Y-66196872D01*
X96478448Y-66138615D01*
X96552793Y-66037882D01*
X96558836Y-66020609D01*
X96599557Y-65963836D01*
X96664509Y-65938088D01*
X96733071Y-65951544D01*
X96763558Y-65973885D01*
X97963181Y-67173508D01*
X97996666Y-67234831D01*
X97999500Y-67261189D01*
X97999500Y-68279269D01*
X98002353Y-68309699D01*
X98002353Y-68309701D01*
X98043909Y-68428457D01*
X98047207Y-68437882D01*
X98127850Y-68547150D01*
X98237118Y-68627793D01*
X98279845Y-68642744D01*
X98365299Y-68672646D01*
X98395730Y-68675500D01*
X98395734Y-68675500D01*
X99304270Y-68675500D01*
X99334699Y-68672646D01*
X99334701Y-68672646D01*
X99405699Y-68647802D01*
X99462882Y-68627793D01*
X99572150Y-68547150D01*
X99652793Y-68437882D01*
X99693260Y-68322234D01*
X99697646Y-68309701D01*
X99697646Y-68309699D01*
X99700500Y-68279269D01*
X99700500Y-68274986D01*
X104800001Y-68274986D01*
X104810494Y-68377697D01*
X104865641Y-68544119D01*
X104865643Y-68544124D01*
X104957684Y-68693345D01*
X105081654Y-68817315D01*
X105230875Y-68909356D01*
X105230880Y-68909358D01*
X105397302Y-68964505D01*
X105397309Y-68964506D01*
X105500019Y-68974999D01*
X105699999Y-68974999D01*
X106200000Y-68974999D01*
X106399972Y-68974999D01*
X106399986Y-68974998D01*
X106502697Y-68964505D01*
X106669119Y-68909358D01*
X106669124Y-68909356D01*
X106818345Y-68817315D01*
X106942315Y-68693345D01*
X107034356Y-68544124D01*
X107034358Y-68544119D01*
X107089505Y-68377697D01*
X107089506Y-68377690D01*
X107099999Y-68274986D01*
X107100000Y-68274973D01*
X107100000Y-67850000D01*
X106200000Y-67850000D01*
X106200000Y-68974999D01*
X105699999Y-68974999D01*
X105700000Y-68974998D01*
X105700000Y-67850000D01*
X104800001Y-67850000D01*
X104800001Y-68274986D01*
X99700500Y-68274986D01*
X99700500Y-66920730D01*
X99697646Y-66890300D01*
X99697646Y-66890298D01*
X99652793Y-66762119D01*
X99652792Y-66762117D01*
X99572150Y-66652850D01*
X99462882Y-66572207D01*
X99462880Y-66572206D01*
X99334700Y-66527353D01*
X99304270Y-66524500D01*
X99304266Y-66524500D01*
X98395734Y-66524500D01*
X98395730Y-66524500D01*
X98365305Y-66527353D01*
X98365299Y-66527354D01*
X98344299Y-66534702D01*
X98274520Y-66538261D01*
X98215667Y-66505340D01*
X98161336Y-66451009D01*
X98127851Y-66389686D01*
X98132835Y-66319994D01*
X98174707Y-66264061D01*
X98240171Y-66239644D01*
X98289969Y-66246286D01*
X98365301Y-66272646D01*
X98365300Y-66272646D01*
X98395730Y-66275500D01*
X98395734Y-66275500D01*
X99304270Y-66275500D01*
X99334699Y-66272646D01*
X99334701Y-66272646D01*
X99410029Y-66246287D01*
X99462882Y-66227793D01*
X99572150Y-66147150D01*
X99652793Y-66037882D01*
X99683004Y-65951544D01*
X99697646Y-65909701D01*
X99697646Y-65909699D01*
X99700500Y-65879269D01*
X99700500Y-65765291D01*
X99720185Y-65698252D01*
X99772989Y-65652497D01*
X99842147Y-65642553D01*
X99881450Y-65657215D01*
X99881882Y-65656270D01*
X99889949Y-65659954D01*
X100028036Y-65700499D01*
X100028038Y-65700500D01*
X100028039Y-65700500D01*
X100171962Y-65700500D01*
X100171962Y-65700499D01*
X100310053Y-65659953D01*
X100431128Y-65582143D01*
X100525377Y-65473373D01*
X100585165Y-65342457D01*
X100605647Y-65200000D01*
X100585165Y-65057543D01*
X100525377Y-64926627D01*
X100431128Y-64817857D01*
X100310053Y-64740047D01*
X100310051Y-64740046D01*
X100310049Y-64740045D01*
X100310050Y-64740045D01*
X100171963Y-64699500D01*
X100171961Y-64699500D01*
X100028039Y-64699500D01*
X100028036Y-64699500D01*
X99889949Y-64740045D01*
X99881882Y-64743730D01*
X99881128Y-64742081D01*
X99824498Y-64758708D01*
X99757459Y-64739022D01*
X99711705Y-64686218D01*
X99700500Y-64634708D01*
X99700500Y-64520730D01*
X99697646Y-64490300D01*
X99697646Y-64490298D01*
X99656731Y-64373373D01*
X99652793Y-64362118D01*
X99572150Y-64252850D01*
X99462882Y-64172207D01*
X99462880Y-64172206D01*
X99334700Y-64127353D01*
X99304270Y-64124500D01*
X99304266Y-64124500D01*
X98557753Y-64124500D01*
X98490714Y-64104815D01*
X98444959Y-64052011D01*
X98435015Y-63982853D01*
X98464040Y-63919297D01*
X98494297Y-63897478D01*
X98493077Y-63895652D01*
X98569552Y-63844552D01*
X98600000Y-63798984D01*
X98613867Y-63778231D01*
X98613867Y-63778229D01*
X98613868Y-63778229D01*
X98622552Y-63734568D01*
X98625500Y-63719748D01*
X98625500Y-62206674D01*
X98645185Y-62139635D01*
X98697989Y-62093880D01*
X98767147Y-62083936D01*
X98784435Y-62087697D01*
X98828038Y-62100500D01*
X98828039Y-62100500D01*
X98971962Y-62100500D01*
X98971962Y-62100499D01*
X99110053Y-62059953D01*
X99110054Y-62059951D01*
X99116136Y-62057175D01*
X99185295Y-62047228D01*
X99248851Y-62076251D01*
G37*
G04 #@! TD.AperFunction*
G04 #@! TA.AperFunction,Conductor*
G36*
X125154519Y-72100021D02*
G01*
X125201701Y-72113874D01*
X125233794Y-72128531D01*
X125275175Y-72155124D01*
X125301843Y-72178233D01*
X125334046Y-72215396D01*
X125353128Y-72245089D01*
X125373554Y-72289816D01*
X125383498Y-72323680D01*
X125390496Y-72372352D01*
X125390496Y-72407646D01*
X125383498Y-72456318D01*
X125373554Y-72490182D01*
X125353128Y-72534909D01*
X125334046Y-72564602D01*
X125301844Y-72601764D01*
X125275173Y-72624874D01*
X125233803Y-72651462D01*
X125201697Y-72666125D01*
X125178109Y-72673051D01*
X125154520Y-72679977D01*
X125119587Y-72685000D01*
X125070412Y-72685000D01*
X125035479Y-72679977D01*
X124988299Y-72666124D01*
X124956196Y-72651463D01*
X124914824Y-72624874D01*
X124888152Y-72601762D01*
X124855951Y-72564599D01*
X124836872Y-72534912D01*
X124828169Y-72515856D01*
X124816443Y-72490182D01*
X124806501Y-72456324D01*
X124799502Y-72407638D01*
X124799502Y-72372360D01*
X124806501Y-72323672D01*
X124816441Y-72289822D01*
X124836873Y-72245081D01*
X124855952Y-72215396D01*
X124888156Y-72178230D01*
X124914827Y-72155121D01*
X124956198Y-72128533D01*
X124988295Y-72113875D01*
X125035478Y-72100021D01*
X125070408Y-72095000D01*
X125119591Y-72095000D01*
X125154519Y-72100021D01*
G37*
G04 #@! TD.AperFunction*
G04 #@! TA.AperFunction,Conductor*
G36*
X133046538Y-63358404D02*
G01*
X133092294Y-63411208D01*
X133103500Y-63462721D01*
X133103500Y-68170500D01*
X133083815Y-68237539D01*
X133031011Y-68283294D01*
X132979500Y-68294500D01*
X130624500Y-68294500D01*
X130557461Y-68274815D01*
X130511706Y-68222011D01*
X130500500Y-68170500D01*
X130500500Y-66920730D01*
X130497646Y-66890300D01*
X130497646Y-66890298D01*
X130452793Y-66762119D01*
X130452792Y-66762117D01*
X130372150Y-66652850D01*
X130262882Y-66572207D01*
X130262880Y-66572206D01*
X130134700Y-66527353D01*
X130104270Y-66524500D01*
X130104266Y-66524500D01*
X129195734Y-66524500D01*
X129195730Y-66524500D01*
X129165305Y-66527353D01*
X129165299Y-66527354D01*
X129144299Y-66534702D01*
X129074520Y-66538261D01*
X129015667Y-66505340D01*
X128961336Y-66451009D01*
X128927851Y-66389686D01*
X128932835Y-66319994D01*
X128974707Y-66264061D01*
X129040171Y-66239644D01*
X129089969Y-66246286D01*
X129165301Y-66272646D01*
X129165300Y-66272646D01*
X129195730Y-66275500D01*
X129195734Y-66275500D01*
X130104270Y-66275500D01*
X130134699Y-66272646D01*
X130134701Y-66272646D01*
X130210029Y-66246287D01*
X130262882Y-66227793D01*
X130372150Y-66147150D01*
X130452793Y-66037882D01*
X130483004Y-65951544D01*
X130497646Y-65909701D01*
X130497646Y-65909699D01*
X130500500Y-65879269D01*
X130500500Y-65765291D01*
X130520185Y-65698252D01*
X130572989Y-65652497D01*
X130642147Y-65642553D01*
X130681450Y-65657215D01*
X130681882Y-65656270D01*
X130689949Y-65659954D01*
X130828036Y-65700499D01*
X130828038Y-65700500D01*
X130898492Y-65700500D01*
X130965531Y-65720185D01*
X131011286Y-65772989D01*
X131021230Y-65842147D01*
X130992205Y-65905703D01*
X130986873Y-65911856D01*
X130986872Y-65911857D01*
X130964143Y-65938088D01*
X130892623Y-66020626D01*
X130892622Y-66020628D01*
X130832834Y-66151543D01*
X130812353Y-66294000D01*
X130832834Y-66436456D01*
X130873209Y-66524863D01*
X130892623Y-66567373D01*
X130986872Y-66676143D01*
X131107947Y-66753953D01*
X131107950Y-66753954D01*
X131107949Y-66753954D01*
X131246036Y-66794499D01*
X131246038Y-66794500D01*
X131246039Y-66794500D01*
X131389962Y-66794500D01*
X131389962Y-66794499D01*
X131528053Y-66753953D01*
X131649128Y-66676143D01*
X131743377Y-66567373D01*
X131803165Y-66436457D01*
X131823647Y-66294000D01*
X131803165Y-66151543D01*
X131743377Y-66020627D01*
X131649128Y-65911857D01*
X131528053Y-65834047D01*
X131528051Y-65834046D01*
X131528049Y-65834045D01*
X131528050Y-65834045D01*
X131389963Y-65793500D01*
X131389961Y-65793500D01*
X131319508Y-65793500D01*
X131252469Y-65773815D01*
X131206714Y-65721011D01*
X131196770Y-65651853D01*
X131225795Y-65588297D01*
X131231126Y-65582143D01*
X131231128Y-65582143D01*
X131325377Y-65473373D01*
X131385165Y-65342457D01*
X131405647Y-65200000D01*
X131385165Y-65057543D01*
X131325377Y-64926627D01*
X131231128Y-64817857D01*
X131110053Y-64740047D01*
X131110051Y-64740046D01*
X131110049Y-64740045D01*
X131110050Y-64740045D01*
X130971963Y-64699500D01*
X130971961Y-64699500D01*
X130828039Y-64699500D01*
X130828036Y-64699500D01*
X130689949Y-64740045D01*
X130681882Y-64743730D01*
X130681128Y-64742081D01*
X130624498Y-64758708D01*
X130557459Y-64739022D01*
X130511705Y-64686218D01*
X130500500Y-64634708D01*
X130500500Y-64520730D01*
X130497646Y-64490300D01*
X130497646Y-64490298D01*
X130456731Y-64373373D01*
X130452793Y-64362118D01*
X130372150Y-64252850D01*
X130262882Y-64172207D01*
X130251426Y-64168198D01*
X130194651Y-64127477D01*
X130168905Y-64062523D01*
X130179589Y-63999646D01*
X130179719Y-63999361D01*
X130194289Y-63967458D01*
X130214771Y-63825001D01*
X130214771Y-63825000D01*
X130214771Y-63816132D01*
X130217012Y-63816132D01*
X130225198Y-63759203D01*
X130270952Y-63706399D01*
X130337992Y-63686714D01*
X130378947Y-63693673D01*
X130390301Y-63697646D01*
X130400445Y-63698597D01*
X130420730Y-63700500D01*
X130420734Y-63700500D01*
X131779270Y-63700500D01*
X131809699Y-63697646D01*
X131809701Y-63697646D01*
X131881148Y-63672645D01*
X131937882Y-63652793D01*
X132047150Y-63572150D01*
X132127793Y-63462882D01*
X132138059Y-63433543D01*
X132178779Y-63376770D01*
X132243731Y-63351022D01*
X132255099Y-63350500D01*
X132442273Y-63350500D01*
X132481004Y-63358926D01*
X132481437Y-63357455D01*
X132628036Y-63400499D01*
X132628038Y-63400500D01*
X132628039Y-63400500D01*
X132771962Y-63400500D01*
X132771962Y-63400499D01*
X132910053Y-63359953D01*
X132912459Y-63358407D01*
X132915203Y-63357601D01*
X132918118Y-63356270D01*
X132918309Y-63356689D01*
X132979498Y-63338721D01*
X133046538Y-63358404D01*
G37*
G04 #@! TD.AperFunction*
G04 #@! TA.AperFunction,Conductor*
G36*
X123232075Y-52669393D02*
G01*
X123297901Y-52783407D01*
X123390993Y-52876499D01*
X123505007Y-52942325D01*
X123568591Y-52959362D01*
X122936626Y-53591326D01*
X123020417Y-53649998D01*
X123020421Y-53650000D01*
X123234507Y-53749829D01*
X123234516Y-53749833D01*
X123356649Y-53782558D01*
X123416310Y-53818923D01*
X123446839Y-53881769D01*
X123438545Y-53951145D01*
X123394059Y-54005023D01*
X123360552Y-54020993D01*
X123294046Y-54041167D01*
X123187117Y-54098323D01*
X123111550Y-54138715D01*
X123111548Y-54138716D01*
X123111547Y-54138717D01*
X122951589Y-54269989D01*
X122820317Y-54429947D01*
X122722769Y-54612443D01*
X122662699Y-54810467D01*
X122642417Y-55016400D01*
X122662699Y-55222332D01*
X122662700Y-55222334D01*
X122722768Y-55420354D01*
X122820315Y-55602850D01*
X122820317Y-55602852D01*
X122951589Y-55762810D01*
X123048871Y-55842646D01*
X123088206Y-55900392D01*
X123090077Y-55970236D01*
X123053890Y-56030005D01*
X122991134Y-56060721D01*
X122970207Y-56062500D01*
X121885793Y-56062500D01*
X121818754Y-56042815D01*
X121772999Y-55990011D01*
X121763055Y-55920853D01*
X121792080Y-55857297D01*
X121807129Y-55842646D01*
X121904410Y-55762810D01*
X121908835Y-55757418D01*
X122035685Y-55602850D01*
X122133232Y-55420354D01*
X122193300Y-55222334D01*
X122213583Y-55016400D01*
X122193300Y-54810466D01*
X122133232Y-54612446D01*
X122035685Y-54429950D01*
X121983702Y-54366609D01*
X121904410Y-54269989D01*
X121754121Y-54146652D01*
X121744450Y-54138715D01*
X121561954Y-54041168D01*
X121363934Y-53981100D01*
X121363932Y-53981099D01*
X121363934Y-53981099D01*
X121158000Y-53960817D01*
X120952067Y-53981099D01*
X120817736Y-54021848D01*
X120754050Y-54041167D01*
X120754043Y-54041169D01*
X120666116Y-54088168D01*
X120571550Y-54138715D01*
X120571548Y-54138716D01*
X120571547Y-54138717D01*
X120411589Y-54269989D01*
X120280317Y-54429947D01*
X120182769Y-54612443D01*
X120122699Y-54810467D01*
X120102417Y-55016400D01*
X120122699Y-55222332D01*
X120122700Y-55222334D01*
X120182768Y-55420354D01*
X120280315Y-55602850D01*
X120280317Y-55602852D01*
X120411589Y-55762810D01*
X120508871Y-55842646D01*
X120548206Y-55900392D01*
X120550077Y-55970236D01*
X120513890Y-56030005D01*
X120451134Y-56060721D01*
X120430207Y-56062500D01*
X119345793Y-56062500D01*
X119278754Y-56042815D01*
X119232999Y-55990011D01*
X119223055Y-55920853D01*
X119252080Y-55857297D01*
X119267129Y-55842646D01*
X119364410Y-55762810D01*
X119368835Y-55757418D01*
X119495685Y-55602850D01*
X119593232Y-55420354D01*
X119653300Y-55222334D01*
X119673583Y-55016400D01*
X119653300Y-54810466D01*
X119593232Y-54612446D01*
X119495685Y-54429950D01*
X119443702Y-54366609D01*
X119364410Y-54269989D01*
X119214121Y-54146652D01*
X119204450Y-54138715D01*
X119021954Y-54041168D01*
X118955447Y-54020993D01*
X118897009Y-53982696D01*
X118868553Y-53918884D01*
X118879113Y-53849817D01*
X118925337Y-53797423D01*
X118959350Y-53782558D01*
X119081483Y-53749833D01*
X119081492Y-53749829D01*
X119295580Y-53649999D01*
X119379371Y-53591325D01*
X118747408Y-52959362D01*
X118810993Y-52942325D01*
X118925007Y-52876499D01*
X119018099Y-52783407D01*
X119083925Y-52669393D01*
X119100962Y-52605808D01*
X119732925Y-53237771D01*
X119791599Y-53153980D01*
X119891429Y-52939892D01*
X119891433Y-52939883D01*
X119924158Y-52817750D01*
X119960522Y-52758090D01*
X120023369Y-52727560D01*
X120092745Y-52735854D01*
X120146623Y-52780339D01*
X120162593Y-52813847D01*
X120182768Y-52880354D01*
X120280315Y-53062850D01*
X120280317Y-53062852D01*
X120411589Y-53222810D01*
X120475458Y-53275225D01*
X120571550Y-53354085D01*
X120754046Y-53451632D01*
X120952066Y-53511700D01*
X120952065Y-53511700D01*
X120970529Y-53513518D01*
X121158000Y-53531983D01*
X121363934Y-53511700D01*
X121561954Y-53451632D01*
X121744450Y-53354085D01*
X121904410Y-53222810D01*
X122035685Y-53062850D01*
X122133232Y-52880354D01*
X122153406Y-52813846D01*
X122191702Y-52755410D01*
X122255514Y-52726953D01*
X122324581Y-52737512D01*
X122376975Y-52783736D01*
X122391841Y-52817749D01*
X122424567Y-52939886D01*
X122424570Y-52939892D01*
X122524398Y-53153976D01*
X122583073Y-53237772D01*
X123215037Y-52605808D01*
X123232075Y-52669393D01*
G37*
G04 #@! TD.AperFunction*
G04 #@! TA.AperFunction,Conductor*
G36*
X133046539Y-50812185D02*
G01*
X133092294Y-50864989D01*
X133103500Y-50916500D01*
X133103500Y-59199256D01*
X133083815Y-59266295D01*
X133031011Y-59312050D01*
X132961853Y-59321994D01*
X132912461Y-59303572D01*
X132843545Y-59259283D01*
X132798053Y-59230047D01*
X132798051Y-59230046D01*
X132798049Y-59230045D01*
X132798050Y-59230045D01*
X132659963Y-59189500D01*
X132659961Y-59189500D01*
X132516039Y-59189500D01*
X132516036Y-59189500D01*
X132377950Y-59230045D01*
X132332449Y-59259286D01*
X132265409Y-59278969D01*
X132198370Y-59259283D01*
X132152616Y-59206478D01*
X132148370Y-59195924D01*
X132127793Y-59137119D01*
X132127792Y-59137117D01*
X132115287Y-59120173D01*
X132047150Y-59027850D01*
X131937882Y-58947207D01*
X131937880Y-58947206D01*
X131809700Y-58902353D01*
X131779270Y-58899500D01*
X131779266Y-58899500D01*
X130420734Y-58899500D01*
X130420730Y-58899500D01*
X130390300Y-58902353D01*
X130390298Y-58902353D01*
X130262119Y-58947206D01*
X130262117Y-58947207D01*
X130152850Y-59027850D01*
X130072207Y-59137117D01*
X130072206Y-59137119D01*
X130027353Y-59265298D01*
X130027353Y-59265300D01*
X130024500Y-59295730D01*
X130024500Y-60163810D01*
X130004815Y-60230849D01*
X129988181Y-60251491D01*
X129936681Y-60302991D01*
X129875358Y-60336476D01*
X129805666Y-60331492D01*
X129749733Y-60289620D01*
X129725316Y-60224156D01*
X129725000Y-60215310D01*
X129725000Y-59650000D01*
X129199000Y-59650000D01*
X129131961Y-59630315D01*
X129086206Y-59577511D01*
X129075000Y-59526000D01*
X129075000Y-59500000D01*
X129049000Y-59500000D01*
X128981961Y-59480315D01*
X128936206Y-59427511D01*
X128925000Y-59376000D01*
X128925000Y-59350000D01*
X129225000Y-59350000D01*
X129725000Y-59350000D01*
X129725000Y-58652172D01*
X129724999Y-58652155D01*
X129718598Y-58592627D01*
X129718596Y-58592620D01*
X129668354Y-58457913D01*
X129668350Y-58457906D01*
X129582190Y-58342812D01*
X129582187Y-58342809D01*
X129467093Y-58256649D01*
X129467086Y-58256645D01*
X129332379Y-58206403D01*
X129332372Y-58206401D01*
X129272844Y-58200000D01*
X129225000Y-58200000D01*
X129225000Y-59350000D01*
X128925000Y-59350000D01*
X128925000Y-58200000D01*
X128877155Y-58200000D01*
X128817627Y-58206401D01*
X128817620Y-58206403D01*
X128682913Y-58256645D01*
X128682906Y-58256649D01*
X128567812Y-58342809D01*
X128567809Y-58342812D01*
X128487710Y-58449811D01*
X128431777Y-58491682D01*
X128388444Y-58499500D01*
X128255247Y-58499500D01*
X128196770Y-58511131D01*
X128196766Y-58511133D01*
X128168890Y-58529760D01*
X128102213Y-58550638D01*
X128034833Y-58532153D01*
X128031110Y-58529760D01*
X128003233Y-58511133D01*
X128003229Y-58511131D01*
X127944752Y-58499500D01*
X127944748Y-58499500D01*
X127605252Y-58499500D01*
X127605247Y-58499500D01*
X127546770Y-58511131D01*
X127546766Y-58511133D01*
X127518890Y-58529760D01*
X127452213Y-58550638D01*
X127384833Y-58532153D01*
X127381110Y-58529760D01*
X127353233Y-58511133D01*
X127353229Y-58511131D01*
X127294752Y-58499500D01*
X127294748Y-58499500D01*
X126955252Y-58499500D01*
X126955247Y-58499500D01*
X126896770Y-58511131D01*
X126896769Y-58511132D01*
X126830447Y-58555447D01*
X126786132Y-58621769D01*
X126786131Y-58621770D01*
X126774500Y-58680247D01*
X126774500Y-58893325D01*
X126754815Y-58960364D01*
X126702011Y-59006119D01*
X126632853Y-59016063D01*
X126615567Y-59012303D01*
X126571961Y-58999500D01*
X126521491Y-58999500D01*
X126454452Y-58979815D01*
X126408697Y-58927011D01*
X126403785Y-58914505D01*
X126384357Y-58855878D01*
X126292315Y-58706654D01*
X126168345Y-58582684D01*
X126019124Y-58490643D01*
X126019119Y-58490641D01*
X125852697Y-58435494D01*
X125852690Y-58435493D01*
X125749986Y-58425000D01*
X125250000Y-58425000D01*
X125250000Y-60649999D01*
X125749972Y-60649999D01*
X125749986Y-60649998D01*
X125852697Y-60639505D01*
X126019119Y-60584358D01*
X126019124Y-60584356D01*
X126168345Y-60492315D01*
X126292315Y-60368345D01*
X126384356Y-60219124D01*
X126384358Y-60219119D01*
X126428637Y-60085496D01*
X126468410Y-60028051D01*
X126532926Y-60001228D01*
X126546343Y-60000500D01*
X126571961Y-60000500D01*
X126615565Y-59987697D01*
X126685435Y-59987697D01*
X126744213Y-60025471D01*
X126773238Y-60089027D01*
X126774500Y-60106674D01*
X126774500Y-60319752D01*
X126786130Y-60378223D01*
X126790059Y-60387706D01*
X126799500Y-60435165D01*
X126799500Y-60755352D01*
X126821682Y-60838140D01*
X126832885Y-60857543D01*
X126864535Y-60912362D01*
X127152173Y-61200000D01*
X127413181Y-61461007D01*
X127446666Y-61522330D01*
X127449500Y-61548688D01*
X127449500Y-61779187D01*
X127429815Y-61846226D01*
X127377011Y-61891981D01*
X127307853Y-61901925D01*
X127301312Y-61900805D01*
X127294750Y-61899500D01*
X127294748Y-61899500D01*
X126955252Y-61899500D01*
X126955247Y-61899500D01*
X126896770Y-61911131D01*
X126896769Y-61911132D01*
X126830447Y-61955447D01*
X126786132Y-62021769D01*
X126786131Y-62021770D01*
X126774500Y-62080247D01*
X126774500Y-62450500D01*
X126754815Y-62517539D01*
X126702011Y-62563294D01*
X126650500Y-62574500D01*
X126274500Y-62574500D01*
X126207461Y-62554815D01*
X126161706Y-62502011D01*
X126150500Y-62450500D01*
X126150500Y-62445730D01*
X126147646Y-62415300D01*
X126147646Y-62415298D01*
X126102793Y-62287119D01*
X126102792Y-62287117D01*
X126100411Y-62283891D01*
X126022150Y-62177850D01*
X125912882Y-62097207D01*
X125912880Y-62097206D01*
X125784700Y-62052353D01*
X125754270Y-62049500D01*
X125754266Y-62049500D01*
X124245734Y-62049500D01*
X124245730Y-62049500D01*
X124215300Y-62052353D01*
X124215298Y-62052353D01*
X124087119Y-62097206D01*
X124087117Y-62097207D01*
X123977850Y-62177850D01*
X123897207Y-62287117D01*
X123869445Y-62366456D01*
X123828723Y-62423231D01*
X123763770Y-62448978D01*
X123752404Y-62449500D01*
X123157727Y-62449500D01*
X123118995Y-62441073D01*
X123118563Y-62442545D01*
X122971963Y-62399500D01*
X122971961Y-62399500D01*
X122909309Y-62399500D01*
X122072596Y-62399500D01*
X122005557Y-62379815D01*
X121959802Y-62327011D01*
X121955555Y-62316456D01*
X121941223Y-62275500D01*
X121927793Y-62237118D01*
X121847150Y-62127850D01*
X121737882Y-62047207D01*
X121737880Y-62047206D01*
X121609700Y-62002353D01*
X121579270Y-61999500D01*
X121579266Y-61999500D01*
X120220734Y-61999500D01*
X120220730Y-61999500D01*
X120190300Y-62002353D01*
X120190298Y-62002353D01*
X120062119Y-62047206D01*
X120062117Y-62047207D01*
X119952848Y-62127851D01*
X119937655Y-62148437D01*
X119882007Y-62190686D01*
X119812351Y-62196143D01*
X119770848Y-62179117D01*
X119710050Y-62140045D01*
X119571963Y-62099500D01*
X119571961Y-62099500D01*
X119428039Y-62099500D01*
X119370392Y-62116426D01*
X119300523Y-62116425D01*
X119241745Y-62078650D01*
X119219279Y-62032748D01*
X119218542Y-62033054D01*
X119213867Y-62021769D01*
X119169552Y-61955447D01*
X119103230Y-61911132D01*
X119103229Y-61911131D01*
X119044752Y-61899500D01*
X119044748Y-61899500D01*
X118705252Y-61899500D01*
X118705247Y-61899500D01*
X118646770Y-61911131D01*
X118646766Y-61911133D01*
X118618890Y-61929760D01*
X118552213Y-61950638D01*
X118484833Y-61932153D01*
X118481110Y-61929760D01*
X118453233Y-61911133D01*
X118453229Y-61911131D01*
X118394752Y-61899500D01*
X118394748Y-61899500D01*
X118055252Y-61899500D01*
X118055250Y-61899500D01*
X118048688Y-61900805D01*
X117979096Y-61894576D01*
X117923920Y-61851711D01*
X117900678Y-61785821D01*
X117900500Y-61779187D01*
X117900500Y-61332150D01*
X117900500Y-61332147D01*
X117885226Y-61275141D01*
X117884752Y-61273372D01*
X117884752Y-61273371D01*
X117878318Y-61249361D01*
X117841427Y-61185465D01*
X117841428Y-61185464D01*
X117841422Y-61185457D01*
X117835465Y-61175138D01*
X117835464Y-61175137D01*
X117835463Y-61175135D01*
X117770543Y-61110215D01*
X117770520Y-61110194D01*
X117372508Y-60712181D01*
X117339023Y-60650858D01*
X117344007Y-60581166D01*
X117385879Y-60525233D01*
X117451343Y-60500816D01*
X117460189Y-60500500D01*
X117744748Y-60500500D01*
X117754263Y-60498607D01*
X117823854Y-60504831D01*
X117879034Y-60547691D01*
X117898235Y-60588130D01*
X117899500Y-60592851D01*
X117899500Y-60592853D01*
X117911280Y-60636819D01*
X117921682Y-60675640D01*
X117925439Y-60682147D01*
X117964535Y-60749862D01*
X118214534Y-60999861D01*
X118214535Y-60999862D01*
X118275138Y-61060465D01*
X118275140Y-61060466D01*
X118275144Y-61060469D01*
X118339621Y-61097694D01*
X118349362Y-61103318D01*
X118432147Y-61125500D01*
X118432149Y-61125500D01*
X119742851Y-61125500D01*
X119742853Y-61125500D01*
X119825639Y-61103318D01*
X119899862Y-61060465D01*
X120323508Y-60636819D01*
X120384831Y-60603334D01*
X120411189Y-60600500D01*
X121579270Y-60600500D01*
X121609699Y-60597646D01*
X121609701Y-60597646D01*
X121673790Y-60575219D01*
X121737882Y-60552793D01*
X121847150Y-60472150D01*
X121927793Y-60362882D01*
X121959871Y-60271205D01*
X122000592Y-60214432D01*
X122065545Y-60188684D01*
X122094562Y-60189425D01*
X122102037Y-60190500D01*
X122102039Y-60190500D01*
X122245962Y-60190500D01*
X122245962Y-60190499D01*
X122384053Y-60149953D01*
X122505128Y-60072143D01*
X122599377Y-59963373D01*
X122605491Y-59949986D01*
X123550001Y-59949986D01*
X123560494Y-60052697D01*
X123615641Y-60219119D01*
X123615643Y-60219124D01*
X123707684Y-60368345D01*
X123831654Y-60492315D01*
X123980875Y-60584356D01*
X123980880Y-60584358D01*
X124147302Y-60639505D01*
X124147309Y-60639506D01*
X124250019Y-60649999D01*
X124749999Y-60649999D01*
X124750000Y-60649998D01*
X124750000Y-59787500D01*
X123550001Y-59787500D01*
X123550001Y-59949986D01*
X122605491Y-59949986D01*
X122659165Y-59832457D01*
X122679647Y-59690000D01*
X122659165Y-59547543D01*
X122599377Y-59416627D01*
X122505128Y-59307857D01*
X122384053Y-59230047D01*
X122384051Y-59230046D01*
X122384049Y-59230045D01*
X122384050Y-59230045D01*
X122245963Y-59189500D01*
X122245961Y-59189500D01*
X122102039Y-59189500D01*
X122072384Y-59198207D01*
X122002514Y-59198206D01*
X121943737Y-59160430D01*
X121927822Y-59137173D01*
X121927793Y-59137118D01*
X121918859Y-59125013D01*
X123550000Y-59125013D01*
X123550000Y-59287500D01*
X124750000Y-59287500D01*
X124750000Y-58425000D01*
X124250028Y-58425000D01*
X124250012Y-58425001D01*
X124147302Y-58435494D01*
X123980880Y-58490641D01*
X123980875Y-58490643D01*
X123831654Y-58582684D01*
X123707684Y-58706654D01*
X123615643Y-58855875D01*
X123615641Y-58855880D01*
X123560494Y-59022302D01*
X123560493Y-59022309D01*
X123550000Y-59125013D01*
X121918859Y-59125013D01*
X121913578Y-59117857D01*
X121847150Y-59027850D01*
X121737882Y-58947207D01*
X121737880Y-58947206D01*
X121609700Y-58902353D01*
X121579270Y-58899500D01*
X121579266Y-58899500D01*
X120220734Y-58899500D01*
X120220730Y-58899500D01*
X120190300Y-58902353D01*
X120190298Y-58902353D01*
X120062119Y-58947206D01*
X120062117Y-58947207D01*
X119952850Y-59027850D01*
X119872207Y-59137117D01*
X119872206Y-59137119D01*
X119827353Y-59265298D01*
X119827353Y-59265300D01*
X119824500Y-59295730D01*
X119824500Y-60163810D01*
X119804815Y-60230849D01*
X119788181Y-60251491D01*
X119736681Y-60302991D01*
X119675358Y-60336476D01*
X119605666Y-60331492D01*
X119549733Y-60289620D01*
X119525316Y-60224156D01*
X119525000Y-60215310D01*
X119525000Y-59650000D01*
X118999000Y-59650000D01*
X118931961Y-59630315D01*
X118886206Y-59577511D01*
X118875000Y-59526000D01*
X118875000Y-59500000D01*
X118849000Y-59500000D01*
X118781961Y-59480315D01*
X118736206Y-59427511D01*
X118725000Y-59376000D01*
X118725000Y-59350000D01*
X119025000Y-59350000D01*
X119525000Y-59350000D01*
X119525000Y-58652172D01*
X119524999Y-58652155D01*
X119518598Y-58592627D01*
X119518596Y-58592620D01*
X119468354Y-58457913D01*
X119468350Y-58457906D01*
X119382190Y-58342812D01*
X119382187Y-58342809D01*
X119267093Y-58256649D01*
X119267086Y-58256645D01*
X119132379Y-58206403D01*
X119132372Y-58206401D01*
X119072844Y-58200000D01*
X119025000Y-58200000D01*
X119025000Y-59350000D01*
X118725000Y-59350000D01*
X118725000Y-58200000D01*
X118677155Y-58200000D01*
X118617627Y-58206401D01*
X118617620Y-58206403D01*
X118482913Y-58256645D01*
X118482906Y-58256649D01*
X118367812Y-58342809D01*
X118367809Y-58342812D01*
X118287710Y-58449811D01*
X118231777Y-58491682D01*
X118188444Y-58499500D01*
X118055247Y-58499500D01*
X117996770Y-58511131D01*
X117996766Y-58511133D01*
X117968890Y-58529760D01*
X117902213Y-58550638D01*
X117834833Y-58532153D01*
X117831110Y-58529760D01*
X117803233Y-58511133D01*
X117803229Y-58511131D01*
X117744752Y-58499500D01*
X117744748Y-58499500D01*
X117405252Y-58499500D01*
X117405247Y-58499500D01*
X117346770Y-58511131D01*
X117346766Y-58511133D01*
X117318890Y-58529760D01*
X117252213Y-58550638D01*
X117184833Y-58532153D01*
X117181110Y-58529760D01*
X117153233Y-58511133D01*
X117153229Y-58511131D01*
X117094752Y-58499500D01*
X117094748Y-58499500D01*
X116755252Y-58499500D01*
X116755247Y-58499500D01*
X116696770Y-58511131D01*
X116696769Y-58511132D01*
X116630447Y-58555447D01*
X116586132Y-58621769D01*
X116586131Y-58621770D01*
X116574500Y-58680247D01*
X116574500Y-58875500D01*
X116554815Y-58942539D01*
X116502011Y-58988294D01*
X116450500Y-58999500D01*
X116321490Y-58999500D01*
X116254451Y-58979815D01*
X116208696Y-58927011D01*
X116203784Y-58914503D01*
X116184359Y-58855882D01*
X116184356Y-58855875D01*
X116092315Y-58706654D01*
X115968345Y-58582684D01*
X115819124Y-58490643D01*
X115819119Y-58490641D01*
X115652697Y-58435494D01*
X115652690Y-58435493D01*
X115549986Y-58425000D01*
X115050000Y-58425000D01*
X115050000Y-60649999D01*
X115549972Y-60649999D01*
X115549986Y-60649998D01*
X115652697Y-60639505D01*
X115819119Y-60584358D01*
X115819124Y-60584356D01*
X115968345Y-60492315D01*
X116092315Y-60368345D01*
X116184356Y-60219124D01*
X116184358Y-60219119D01*
X116228637Y-60085496D01*
X116268410Y-60028051D01*
X116332926Y-60001228D01*
X116346343Y-60000500D01*
X116450500Y-60000500D01*
X116517539Y-60020185D01*
X116563294Y-60072989D01*
X116574500Y-60124500D01*
X116574500Y-60319752D01*
X116586130Y-60378223D01*
X116590059Y-60387706D01*
X116599500Y-60435165D01*
X116599500Y-60767852D01*
X116621682Y-60850640D01*
X116636237Y-60875849D01*
X116664535Y-60924862D01*
X116954208Y-61214535D01*
X117213181Y-61473507D01*
X117246666Y-61534830D01*
X117249500Y-61561188D01*
X117249500Y-61779187D01*
X117229815Y-61846226D01*
X117177011Y-61891981D01*
X117107853Y-61901925D01*
X117101312Y-61900805D01*
X117094750Y-61899500D01*
X117094748Y-61899500D01*
X116813344Y-61899500D01*
X116746305Y-61879815D01*
X116706138Y-61833460D01*
X116705167Y-61834085D01*
X116700825Y-61827328D01*
X116700550Y-61827011D01*
X116700375Y-61826627D01*
X116606126Y-61717857D01*
X116485051Y-61640047D01*
X116485049Y-61640046D01*
X116485047Y-61640045D01*
X116485048Y-61640045D01*
X116346961Y-61599500D01*
X116346959Y-61599500D01*
X116203037Y-61599500D01*
X116203034Y-61599500D01*
X116064947Y-61640045D01*
X115943871Y-61717856D01*
X115943870Y-61717856D01*
X115943870Y-61717857D01*
X115937129Y-61725637D01*
X115849621Y-61826626D01*
X115849620Y-61826628D01*
X115789832Y-61957544D01*
X115789831Y-61957548D01*
X115788474Y-61966987D01*
X115759448Y-62030542D01*
X115700669Y-62068315D01*
X115630799Y-62068313D01*
X115624784Y-62066379D01*
X115584699Y-62052353D01*
X115554270Y-62049500D01*
X115554266Y-62049500D01*
X114045734Y-62049500D01*
X114045730Y-62049500D01*
X114015300Y-62052353D01*
X114015298Y-62052353D01*
X113887119Y-62097206D01*
X113887117Y-62097207D01*
X113777850Y-62177850D01*
X113697207Y-62287117D01*
X113669445Y-62366456D01*
X113628723Y-62423231D01*
X113563770Y-62448978D01*
X113552404Y-62449500D01*
X112857727Y-62449500D01*
X112818995Y-62441073D01*
X112818563Y-62442545D01*
X112671963Y-62399500D01*
X112671961Y-62399500D01*
X112528039Y-62399500D01*
X112528036Y-62399500D01*
X112381437Y-62442545D01*
X112381004Y-62441073D01*
X112342273Y-62449500D01*
X111690092Y-62449500D01*
X111623053Y-62429815D01*
X111577298Y-62377011D01*
X111573051Y-62366456D01*
X111545288Y-62287117D01*
X111527793Y-62237118D01*
X111447150Y-62127850D01*
X111337882Y-62047207D01*
X111337880Y-62047206D01*
X111209700Y-62002353D01*
X111179270Y-61999500D01*
X111179266Y-61999500D01*
X109820734Y-61999500D01*
X109820730Y-61999500D01*
X109790300Y-62002353D01*
X109790298Y-62002353D01*
X109662119Y-62047206D01*
X109662117Y-62047207D01*
X109552850Y-62127850D01*
X109472207Y-62237117D01*
X109431623Y-62353097D01*
X109390901Y-62409873D01*
X109325948Y-62435619D01*
X109279648Y-62431118D01*
X109171964Y-62399500D01*
X109171961Y-62399500D01*
X109028039Y-62399500D01*
X108984433Y-62412303D01*
X108914563Y-62412301D01*
X108855786Y-62374526D01*
X108826762Y-62310970D01*
X108825500Y-62293325D01*
X108825500Y-62080249D01*
X108825499Y-62080247D01*
X108813868Y-62021770D01*
X108813867Y-62021769D01*
X108769552Y-61955447D01*
X108703230Y-61911132D01*
X108703229Y-61911131D01*
X108644752Y-61899500D01*
X108644748Y-61899500D01*
X108305252Y-61899500D01*
X108305247Y-61899500D01*
X108246770Y-61911131D01*
X108246766Y-61911133D01*
X108218890Y-61929760D01*
X108152213Y-61950638D01*
X108084833Y-61932153D01*
X108081110Y-61929760D01*
X108053233Y-61911133D01*
X108053229Y-61911131D01*
X107994752Y-61899500D01*
X107994748Y-61899500D01*
X107655252Y-61899500D01*
X107655250Y-61899500D01*
X107648688Y-61900805D01*
X107579096Y-61894576D01*
X107523920Y-61851711D01*
X107500678Y-61785821D01*
X107500500Y-61779187D01*
X107500500Y-61432148D01*
X107500500Y-61432147D01*
X107491849Y-61399862D01*
X107478318Y-61349361D01*
X107456891Y-61312250D01*
X107451734Y-61303318D01*
X107435467Y-61275141D01*
X107435466Y-61275140D01*
X107435465Y-61275138D01*
X107374862Y-61214535D01*
X107374861Y-61214534D01*
X107370531Y-61210204D01*
X107370520Y-61210194D01*
X106886819Y-60726492D01*
X106853334Y-60665169D01*
X106850500Y-60638811D01*
X106850500Y-60620812D01*
X106870185Y-60553773D01*
X106922989Y-60508018D01*
X106992147Y-60498074D01*
X106998692Y-60499195D01*
X107000225Y-60499500D01*
X107005251Y-60500500D01*
X107005252Y-60500500D01*
X107344748Y-60500500D01*
X107354263Y-60498607D01*
X107423854Y-60504831D01*
X107479034Y-60547691D01*
X107498235Y-60588130D01*
X107499500Y-60592851D01*
X107499500Y-60592853D01*
X107511280Y-60636819D01*
X107521682Y-60675640D01*
X107525439Y-60682147D01*
X107564535Y-60749862D01*
X107814534Y-60999861D01*
X107814535Y-60999862D01*
X107875138Y-61060465D01*
X107875140Y-61060466D01*
X107875144Y-61060469D01*
X107939621Y-61097694D01*
X107949362Y-61103318D01*
X108032147Y-61125500D01*
X108032149Y-61125500D01*
X109342851Y-61125500D01*
X109342853Y-61125500D01*
X109425639Y-61103318D01*
X109499862Y-61060465D01*
X109923508Y-60636819D01*
X109984831Y-60603334D01*
X110011189Y-60600500D01*
X111179270Y-60600500D01*
X111209699Y-60597646D01*
X111209701Y-60597646D01*
X111273790Y-60575219D01*
X111337882Y-60552793D01*
X111447150Y-60472150D01*
X111527793Y-60362882D01*
X111548750Y-60302991D01*
X111575139Y-60227577D01*
X111577789Y-60228504D01*
X111605024Y-60178738D01*
X111666378Y-60145310D01*
X111692624Y-60142500D01*
X111704162Y-60142500D01*
X111771201Y-60162185D01*
X111797872Y-60185295D01*
X111809872Y-60199143D01*
X111930947Y-60276953D01*
X111930950Y-60276954D01*
X111930949Y-60276954D01*
X112069036Y-60317499D01*
X112069038Y-60317500D01*
X112069039Y-60317500D01*
X112212962Y-60317500D01*
X112212962Y-60317499D01*
X112351053Y-60276953D01*
X112472128Y-60199143D01*
X112566377Y-60090373D01*
X112626165Y-59959457D01*
X112627527Y-59949986D01*
X113350001Y-59949986D01*
X113360494Y-60052697D01*
X113415641Y-60219119D01*
X113415643Y-60219124D01*
X113507684Y-60368345D01*
X113631654Y-60492315D01*
X113780875Y-60584356D01*
X113780880Y-60584358D01*
X113947302Y-60639505D01*
X113947309Y-60639506D01*
X114050019Y-60649999D01*
X114549999Y-60649999D01*
X114550000Y-60649998D01*
X114550000Y-59787500D01*
X113350001Y-59787500D01*
X113350001Y-59949986D01*
X112627527Y-59949986D01*
X112646647Y-59817000D01*
X112626165Y-59674543D01*
X112566377Y-59543627D01*
X112472128Y-59434857D01*
X112351053Y-59357047D01*
X112351051Y-59357046D01*
X112351049Y-59357045D01*
X112351050Y-59357045D01*
X112212963Y-59316500D01*
X112212961Y-59316500D01*
X112069039Y-59316500D01*
X112069036Y-59316500D01*
X111930949Y-59357045D01*
X111809873Y-59434856D01*
X111809872Y-59434856D01*
X111809872Y-59434857D01*
X111797873Y-59448703D01*
X111739097Y-59486477D01*
X111704162Y-59491500D01*
X111699500Y-59491500D01*
X111632461Y-59471815D01*
X111586706Y-59419011D01*
X111575500Y-59367500D01*
X111575500Y-59295730D01*
X111572646Y-59265300D01*
X111572646Y-59265298D01*
X111527793Y-59137119D01*
X111527792Y-59137117D01*
X111518859Y-59125013D01*
X113350000Y-59125013D01*
X113350000Y-59287500D01*
X114550000Y-59287500D01*
X114550000Y-58425000D01*
X114050028Y-58425000D01*
X114050012Y-58425001D01*
X113947302Y-58435494D01*
X113780880Y-58490641D01*
X113780875Y-58490643D01*
X113631654Y-58582684D01*
X113507684Y-58706654D01*
X113415643Y-58855875D01*
X113415641Y-58855880D01*
X113360494Y-59022302D01*
X113360493Y-59022309D01*
X113350000Y-59125013D01*
X111518859Y-59125013D01*
X111515287Y-59120173D01*
X111447150Y-59027850D01*
X111337882Y-58947207D01*
X111337880Y-58947206D01*
X111209700Y-58902353D01*
X111179270Y-58899500D01*
X111179266Y-58899500D01*
X109820734Y-58899500D01*
X109820730Y-58899500D01*
X109790300Y-58902353D01*
X109790298Y-58902353D01*
X109662119Y-58947206D01*
X109662117Y-58947207D01*
X109552850Y-59027850D01*
X109472207Y-59137117D01*
X109472206Y-59137119D01*
X109427353Y-59265298D01*
X109427353Y-59265300D01*
X109424500Y-59295730D01*
X109424500Y-60163810D01*
X109404815Y-60230849D01*
X109388181Y-60251491D01*
X109336681Y-60302991D01*
X109275358Y-60336476D01*
X109205666Y-60331492D01*
X109149733Y-60289620D01*
X109125316Y-60224156D01*
X109125000Y-60215310D01*
X109125000Y-59650000D01*
X108599000Y-59650000D01*
X108531961Y-59630315D01*
X108486206Y-59577511D01*
X108475000Y-59526000D01*
X108475000Y-59500000D01*
X108449000Y-59500000D01*
X108381961Y-59480315D01*
X108336206Y-59427511D01*
X108325000Y-59376000D01*
X108325000Y-59350000D01*
X108625000Y-59350000D01*
X109125000Y-59350000D01*
X109125000Y-58652172D01*
X109124999Y-58652155D01*
X109118598Y-58592627D01*
X109118596Y-58592620D01*
X109068354Y-58457913D01*
X109068350Y-58457906D01*
X108982190Y-58342812D01*
X108982187Y-58342809D01*
X108867093Y-58256649D01*
X108867086Y-58256645D01*
X108732379Y-58206403D01*
X108732372Y-58206401D01*
X108672844Y-58200000D01*
X108625000Y-58200000D01*
X108625000Y-59350000D01*
X108325000Y-59350000D01*
X108325000Y-58200000D01*
X108277155Y-58200000D01*
X108217627Y-58206401D01*
X108217620Y-58206403D01*
X108082913Y-58256645D01*
X108082906Y-58256649D01*
X107967812Y-58342809D01*
X107967809Y-58342812D01*
X107887710Y-58449811D01*
X107831777Y-58491682D01*
X107788444Y-58499500D01*
X107655247Y-58499500D01*
X107596770Y-58511131D01*
X107596766Y-58511133D01*
X107568890Y-58529760D01*
X107502213Y-58550638D01*
X107434833Y-58532153D01*
X107431110Y-58529760D01*
X107403233Y-58511133D01*
X107403229Y-58511131D01*
X107344752Y-58499500D01*
X107344748Y-58499500D01*
X107005252Y-58499500D01*
X107005247Y-58499500D01*
X106946770Y-58511131D01*
X106946766Y-58511133D01*
X106918890Y-58529760D01*
X106852213Y-58550638D01*
X106784833Y-58532153D01*
X106781110Y-58529760D01*
X106753233Y-58511133D01*
X106753229Y-58511131D01*
X106694752Y-58499500D01*
X106694748Y-58499500D01*
X106355252Y-58499500D01*
X106355247Y-58499500D01*
X106296770Y-58511131D01*
X106296769Y-58511132D01*
X106230447Y-58555447D01*
X106186132Y-58621769D01*
X106186131Y-58621770D01*
X106174500Y-58680247D01*
X106174500Y-60319752D01*
X106186130Y-60378223D01*
X106190059Y-60387706D01*
X106199500Y-60435165D01*
X106199500Y-60550500D01*
X106179815Y-60617539D01*
X106127011Y-60663294D01*
X106075500Y-60674500D01*
X105685523Y-60674500D01*
X105618484Y-60654815D01*
X105572729Y-60602011D01*
X105562785Y-60532853D01*
X105591810Y-60469297D01*
X105597842Y-60462819D01*
X105692315Y-60368345D01*
X105784356Y-60219124D01*
X105784358Y-60219119D01*
X105839505Y-60052697D01*
X105839506Y-60052690D01*
X105849999Y-59949986D01*
X105850000Y-59949973D01*
X105850000Y-59787500D01*
X102950001Y-59787500D01*
X102950001Y-59949986D01*
X102960494Y-60052697D01*
X103015641Y-60219119D01*
X103015643Y-60219124D01*
X103107684Y-60368345D01*
X103231654Y-60492315D01*
X103380875Y-60584356D01*
X103380880Y-60584358D01*
X103547300Y-60639504D01*
X103548546Y-60639771D01*
X103549241Y-60640147D01*
X103553730Y-60641635D01*
X103553464Y-60642435D01*
X103609981Y-60673051D01*
X103643671Y-60734261D01*
X103638920Y-60803969D01*
X103635389Y-60812535D01*
X103614834Y-60857543D01*
X103594353Y-61000000D01*
X103614834Y-61142456D01*
X103645774Y-61210204D01*
X103674623Y-61273373D01*
X103768872Y-61382143D01*
X103889947Y-61459953D01*
X103889950Y-61459954D01*
X103889949Y-61459954D01*
X104028036Y-61500499D01*
X104028038Y-61500500D01*
X104028039Y-61500500D01*
X104171962Y-61500500D01*
X104171962Y-61500499D01*
X104279121Y-61469035D01*
X104310050Y-61459954D01*
X104310050Y-61459953D01*
X104310053Y-61459953D01*
X104431128Y-61382143D01*
X104443126Y-61368296D01*
X104501903Y-61330523D01*
X104536838Y-61325500D01*
X106392850Y-61325500D01*
X106392853Y-61325500D01*
X106459609Y-61307613D01*
X106529455Y-61309276D01*
X106579380Y-61339707D01*
X106813181Y-61573507D01*
X106846666Y-61634830D01*
X106849500Y-61661188D01*
X106849500Y-61779187D01*
X106829815Y-61846226D01*
X106777011Y-61891981D01*
X106707853Y-61901925D01*
X106701312Y-61900805D01*
X106694750Y-61899500D01*
X106694748Y-61899500D01*
X106355252Y-61899500D01*
X106355247Y-61899500D01*
X106296770Y-61911131D01*
X106296769Y-61911132D01*
X106230447Y-61955447D01*
X106186132Y-62021769D01*
X106186131Y-62021770D01*
X106174500Y-62080247D01*
X106174500Y-62450500D01*
X106154815Y-62517539D01*
X106102011Y-62563294D01*
X106050500Y-62574500D01*
X105674500Y-62574500D01*
X105607461Y-62554815D01*
X105561706Y-62502011D01*
X105550500Y-62450500D01*
X105550500Y-62445730D01*
X105547646Y-62415300D01*
X105547646Y-62415298D01*
X105502793Y-62287119D01*
X105502792Y-62287117D01*
X105500411Y-62283891D01*
X105422150Y-62177850D01*
X105312882Y-62097207D01*
X105312880Y-62097206D01*
X105184700Y-62052353D01*
X105154270Y-62049500D01*
X105154266Y-62049500D01*
X103645734Y-62049500D01*
X103645730Y-62049500D01*
X103615300Y-62052353D01*
X103615298Y-62052353D01*
X103487119Y-62097206D01*
X103487117Y-62097207D01*
X103377850Y-62177850D01*
X103297207Y-62287117D01*
X103269445Y-62366456D01*
X103228723Y-62423231D01*
X103163770Y-62448978D01*
X103152404Y-62449500D01*
X102557727Y-62449500D01*
X102518995Y-62441073D01*
X102518563Y-62442545D01*
X102371963Y-62399500D01*
X102371961Y-62399500D01*
X102309309Y-62399500D01*
X101472596Y-62399500D01*
X101405557Y-62379815D01*
X101359802Y-62327011D01*
X101355555Y-62316456D01*
X101341223Y-62275500D01*
X101327793Y-62237118D01*
X101247150Y-62127850D01*
X101137882Y-62047207D01*
X101137880Y-62047206D01*
X101009700Y-62002353D01*
X100979270Y-61999500D01*
X100979266Y-61999500D01*
X99620734Y-61999500D01*
X99620730Y-61999500D01*
X99590300Y-62002353D01*
X99590298Y-62002354D01*
X99479490Y-62041128D01*
X99409711Y-62044690D01*
X99349084Y-62009962D01*
X99316856Y-61947968D01*
X99323261Y-61878393D01*
X99325741Y-61872575D01*
X99385165Y-61742457D01*
X99405647Y-61600000D01*
X99385165Y-61457543D01*
X99325377Y-61326627D01*
X99325375Y-61326625D01*
X99325374Y-61326622D01*
X99261491Y-61252897D01*
X99232466Y-61189341D01*
X99242410Y-61120183D01*
X99288165Y-61067379D01*
X99293192Y-61064315D01*
X99299862Y-61060465D01*
X99723508Y-60636819D01*
X99784831Y-60603334D01*
X99811189Y-60600500D01*
X100979270Y-60600500D01*
X101009699Y-60597646D01*
X101009701Y-60597646D01*
X101073790Y-60575219D01*
X101137882Y-60552793D01*
X101247150Y-60472150D01*
X101327793Y-60362882D01*
X101353428Y-60289620D01*
X101372646Y-60234701D01*
X101372646Y-60234699D01*
X101375500Y-60204269D01*
X101375500Y-59295730D01*
X101372646Y-59265300D01*
X101372646Y-59265298D01*
X101327793Y-59137119D01*
X101327792Y-59137117D01*
X101318859Y-59125013D01*
X102950000Y-59125013D01*
X102950000Y-59287500D01*
X104150000Y-59287500D01*
X104650000Y-59287500D01*
X105849999Y-59287500D01*
X105849999Y-59125028D01*
X105849998Y-59125013D01*
X105839505Y-59022302D01*
X105784358Y-58855880D01*
X105784356Y-58855875D01*
X105692315Y-58706654D01*
X105568345Y-58582684D01*
X105419124Y-58490643D01*
X105419119Y-58490641D01*
X105252697Y-58435494D01*
X105252690Y-58435493D01*
X105149986Y-58425000D01*
X104650000Y-58425000D01*
X104650000Y-59287500D01*
X104150000Y-59287500D01*
X104150000Y-58425000D01*
X103650028Y-58425000D01*
X103650012Y-58425001D01*
X103547302Y-58435494D01*
X103380880Y-58490641D01*
X103380875Y-58490643D01*
X103231654Y-58582684D01*
X103107684Y-58706654D01*
X103015643Y-58855875D01*
X103015641Y-58855880D01*
X102960494Y-59022302D01*
X102960493Y-59022309D01*
X102950000Y-59125013D01*
X101318859Y-59125013D01*
X101315287Y-59120173D01*
X101247150Y-59027850D01*
X101137882Y-58947207D01*
X101137880Y-58947206D01*
X101009700Y-58902353D01*
X100979270Y-58899500D01*
X100979266Y-58899500D01*
X99620734Y-58899500D01*
X99620730Y-58899500D01*
X99590300Y-58902353D01*
X99590298Y-58902353D01*
X99462119Y-58947206D01*
X99462117Y-58947207D01*
X99352850Y-59027850D01*
X99272207Y-59137117D01*
X99272206Y-59137119D01*
X99227353Y-59265298D01*
X99227353Y-59265300D01*
X99224500Y-59295730D01*
X99224500Y-60163810D01*
X99204815Y-60230849D01*
X99188181Y-60251491D01*
X99136681Y-60302991D01*
X99075358Y-60336476D01*
X99005666Y-60331492D01*
X98949733Y-60289620D01*
X98925316Y-60224156D01*
X98925000Y-60215310D01*
X98925000Y-59650000D01*
X98399000Y-59650000D01*
X98331961Y-59630315D01*
X98286206Y-59577511D01*
X98275000Y-59526000D01*
X98275000Y-59500000D01*
X98249000Y-59500000D01*
X98181961Y-59480315D01*
X98136206Y-59427511D01*
X98125000Y-59376000D01*
X98125000Y-59350000D01*
X98425000Y-59350000D01*
X98925000Y-59350000D01*
X98925000Y-58652172D01*
X98924999Y-58652155D01*
X98918598Y-58592627D01*
X98918596Y-58592620D01*
X98868354Y-58457913D01*
X98868350Y-58457906D01*
X98782190Y-58342812D01*
X98782187Y-58342809D01*
X98667093Y-58256649D01*
X98667086Y-58256645D01*
X98532379Y-58206403D01*
X98532372Y-58206401D01*
X98472844Y-58200000D01*
X98425000Y-58200000D01*
X98425000Y-59350000D01*
X98125000Y-59350000D01*
X98125000Y-58200000D01*
X98077155Y-58200000D01*
X98017627Y-58206401D01*
X98017620Y-58206403D01*
X97882913Y-58256645D01*
X97882906Y-58256649D01*
X97767812Y-58342809D01*
X97767809Y-58342812D01*
X97687710Y-58449811D01*
X97631777Y-58491682D01*
X97588444Y-58499500D01*
X97455247Y-58499500D01*
X97396770Y-58511131D01*
X97396766Y-58511133D01*
X97368890Y-58529760D01*
X97302213Y-58550638D01*
X97234833Y-58532153D01*
X97231110Y-58529760D01*
X97203233Y-58511133D01*
X97203229Y-58511131D01*
X97144752Y-58499500D01*
X97144748Y-58499500D01*
X96805252Y-58499500D01*
X96805247Y-58499500D01*
X96746770Y-58511131D01*
X96746766Y-58511133D01*
X96718890Y-58529760D01*
X96652213Y-58550638D01*
X96584833Y-58532153D01*
X96581110Y-58529760D01*
X96553233Y-58511133D01*
X96553229Y-58511131D01*
X96494752Y-58499500D01*
X96494748Y-58499500D01*
X96155252Y-58499500D01*
X96155247Y-58499500D01*
X96096770Y-58511131D01*
X96096769Y-58511132D01*
X96030447Y-58555447D01*
X95986132Y-58621769D01*
X95986131Y-58621770D01*
X95974500Y-58680247D01*
X95974500Y-58793325D01*
X95954815Y-58860364D01*
X95902011Y-58906119D01*
X95832853Y-58916063D01*
X95815567Y-58912303D01*
X95771961Y-58899500D01*
X95680471Y-58899500D01*
X95613432Y-58879815D01*
X95574932Y-58840597D01*
X95492315Y-58706654D01*
X95368345Y-58582684D01*
X95219124Y-58490643D01*
X95219119Y-58490641D01*
X95052697Y-58435494D01*
X95052690Y-58435493D01*
X94949986Y-58425000D01*
X94450000Y-58425000D01*
X94450000Y-60649999D01*
X94949972Y-60649999D01*
X94949986Y-60649998D01*
X95052697Y-60639505D01*
X95219119Y-60584358D01*
X95219124Y-60584356D01*
X95368345Y-60492315D01*
X95492315Y-60368345D01*
X95584356Y-60219124D01*
X95584358Y-60219119D01*
X95639505Y-60052697D01*
X95639506Y-60052689D01*
X95643674Y-60011898D01*
X95670070Y-59947206D01*
X95727250Y-59907055D01*
X95767032Y-59900500D01*
X95771961Y-59900500D01*
X95815565Y-59887697D01*
X95885435Y-59887697D01*
X95944213Y-59925471D01*
X95973238Y-59989027D01*
X95974500Y-60006674D01*
X95974500Y-60319752D01*
X95986130Y-60378223D01*
X95990059Y-60387706D01*
X95999500Y-60435165D01*
X95999500Y-60967852D01*
X96021682Y-61050640D01*
X96031490Y-61067627D01*
X96064535Y-61124862D01*
X96339544Y-61399871D01*
X96613181Y-61673507D01*
X96646666Y-61734830D01*
X96649500Y-61761188D01*
X96649500Y-61779187D01*
X96629815Y-61846226D01*
X96577011Y-61891981D01*
X96507853Y-61901925D01*
X96501312Y-61900805D01*
X96494750Y-61899500D01*
X96494748Y-61899500D01*
X96155252Y-61899500D01*
X96155247Y-61899500D01*
X96096770Y-61911131D01*
X96096769Y-61911132D01*
X96030447Y-61955447D01*
X95986132Y-62021769D01*
X95986131Y-62021770D01*
X95974500Y-62080247D01*
X95974500Y-62450500D01*
X95954815Y-62517539D01*
X95902011Y-62563294D01*
X95850500Y-62574500D01*
X95474500Y-62574500D01*
X95407461Y-62554815D01*
X95361706Y-62502011D01*
X95350500Y-62450500D01*
X95350500Y-62445730D01*
X95347646Y-62415300D01*
X95347646Y-62415298D01*
X95302793Y-62287119D01*
X95302792Y-62287117D01*
X95300411Y-62283891D01*
X95222150Y-62177850D01*
X95112882Y-62097207D01*
X95112880Y-62097206D01*
X94984700Y-62052353D01*
X94954270Y-62049500D01*
X94954266Y-62049500D01*
X93545560Y-62049500D01*
X93478521Y-62029815D01*
X93432766Y-61977011D01*
X93422822Y-61943147D01*
X93412026Y-61868061D01*
X93399896Y-61841500D01*
X93352238Y-61737145D01*
X93257989Y-61628375D01*
X93136914Y-61550565D01*
X93136912Y-61550564D01*
X93136910Y-61550563D01*
X93136911Y-61550563D01*
X92998824Y-61510018D01*
X92998822Y-61510018D01*
X92854900Y-61510018D01*
X92854897Y-61510018D01*
X92716810Y-61550563D01*
X92595734Y-61628374D01*
X92501484Y-61737144D01*
X92501483Y-61737146D01*
X92441695Y-61868061D01*
X92421214Y-62010518D01*
X92441695Y-62152974D01*
X92458918Y-62190686D01*
X92476020Y-62228134D01*
X92479836Y-62236488D01*
X92489780Y-62305646D01*
X92460756Y-62369202D01*
X92401978Y-62406977D01*
X92367042Y-62412000D01*
X92132361Y-62412000D01*
X92097426Y-62406977D01*
X92071962Y-62399500D01*
X92071961Y-62399500D01*
X92009309Y-62399500D01*
X91072596Y-62399500D01*
X91005557Y-62379815D01*
X90959802Y-62327011D01*
X90955555Y-62316456D01*
X90941223Y-62275500D01*
X90927793Y-62237118D01*
X90847150Y-62127850D01*
X90737882Y-62047207D01*
X90737880Y-62047206D01*
X90609700Y-62002353D01*
X90579270Y-61999500D01*
X90579266Y-61999500D01*
X89220734Y-61999500D01*
X89220730Y-61999500D01*
X89190300Y-62002353D01*
X89190298Y-62002353D01*
X89062119Y-62047206D01*
X89062117Y-62047207D01*
X88952850Y-62127850D01*
X88872207Y-62237117D01*
X88872206Y-62237119D01*
X88827353Y-62365298D01*
X88825744Y-62372670D01*
X88824322Y-62372359D01*
X88801560Y-62429491D01*
X88744712Y-62470113D01*
X88674927Y-62473553D01*
X88636924Y-62457316D01*
X88624762Y-62449500D01*
X88610053Y-62440047D01*
X88610051Y-62440046D01*
X88610049Y-62440045D01*
X88610050Y-62440045D01*
X88471963Y-62399500D01*
X88471961Y-62399500D01*
X88349500Y-62399500D01*
X88282461Y-62379815D01*
X88236706Y-62327011D01*
X88225500Y-62275500D01*
X88225500Y-62080249D01*
X88225499Y-62080247D01*
X88213868Y-62021770D01*
X88213867Y-62021769D01*
X88169552Y-61955447D01*
X88103230Y-61911132D01*
X88103229Y-61911131D01*
X88044752Y-61899500D01*
X88044748Y-61899500D01*
X87705252Y-61899500D01*
X87705247Y-61899500D01*
X87646770Y-61911131D01*
X87646766Y-61911133D01*
X87618890Y-61929760D01*
X87552213Y-61950638D01*
X87484833Y-61932153D01*
X87481110Y-61929760D01*
X87453233Y-61911133D01*
X87453229Y-61911131D01*
X87394752Y-61899500D01*
X87394748Y-61899500D01*
X87055252Y-61899500D01*
X87055251Y-61899500D01*
X87045728Y-61901394D01*
X86976136Y-61895165D01*
X86920960Y-61852301D01*
X86901764Y-61811868D01*
X86900500Y-61807150D01*
X86900500Y-61807147D01*
X86878660Y-61725638D01*
X86878318Y-61724361D01*
X86854131Y-61682468D01*
X86835465Y-61650138D01*
X86774862Y-61589535D01*
X86774861Y-61589534D01*
X86770531Y-61585204D01*
X86770520Y-61585194D01*
X86261114Y-61075787D01*
X86227629Y-61014464D01*
X86229019Y-60956018D01*
X86250500Y-60875853D01*
X86250500Y-60620812D01*
X86270185Y-60553773D01*
X86322989Y-60508018D01*
X86392147Y-60498074D01*
X86398692Y-60499195D01*
X86400225Y-60499500D01*
X86405251Y-60500500D01*
X86405252Y-60500500D01*
X86744748Y-60500500D01*
X86754263Y-60498607D01*
X86823854Y-60504831D01*
X86879034Y-60547691D01*
X86898235Y-60588130D01*
X86899500Y-60592851D01*
X86899500Y-60592853D01*
X86911280Y-60636819D01*
X86921682Y-60675640D01*
X86925439Y-60682147D01*
X86964535Y-60749862D01*
X87214534Y-60999861D01*
X87214535Y-60999862D01*
X87275138Y-61060465D01*
X87275140Y-61060466D01*
X87275144Y-61060469D01*
X87339621Y-61097694D01*
X87349362Y-61103318D01*
X87432147Y-61125500D01*
X87432149Y-61125500D01*
X88742851Y-61125500D01*
X88742853Y-61125500D01*
X88825639Y-61103318D01*
X88899862Y-61060465D01*
X89323508Y-60636819D01*
X89384831Y-60603334D01*
X89411189Y-60600500D01*
X90579270Y-60600500D01*
X90609699Y-60597646D01*
X90609701Y-60597646D01*
X90673790Y-60575219D01*
X90737882Y-60552793D01*
X90847150Y-60472150D01*
X90927793Y-60362882D01*
X90953428Y-60289620D01*
X90972646Y-60234701D01*
X90972646Y-60234699D01*
X90975500Y-60204269D01*
X90975500Y-59949986D01*
X92750001Y-59949986D01*
X92760494Y-60052697D01*
X92815641Y-60219119D01*
X92815643Y-60219124D01*
X92907684Y-60368345D01*
X93031654Y-60492315D01*
X93180875Y-60584356D01*
X93180880Y-60584358D01*
X93347302Y-60639505D01*
X93347309Y-60639506D01*
X93450019Y-60649999D01*
X93949999Y-60649999D01*
X93950000Y-60649998D01*
X93950000Y-59787500D01*
X92750001Y-59787500D01*
X92750001Y-59949986D01*
X90975500Y-59949986D01*
X90975500Y-59295730D01*
X90972646Y-59265300D01*
X90972646Y-59265298D01*
X90927793Y-59137119D01*
X90927792Y-59137117D01*
X90918859Y-59125013D01*
X92750000Y-59125013D01*
X92750000Y-59287500D01*
X93950000Y-59287500D01*
X93950000Y-58425000D01*
X93450028Y-58425000D01*
X93450012Y-58425001D01*
X93347302Y-58435494D01*
X93180880Y-58490641D01*
X93180875Y-58490643D01*
X93031654Y-58582684D01*
X92907684Y-58706654D01*
X92815643Y-58855875D01*
X92815641Y-58855880D01*
X92760494Y-59022302D01*
X92760493Y-59022309D01*
X92750000Y-59125013D01*
X90918859Y-59125013D01*
X90915287Y-59120173D01*
X90847150Y-59027850D01*
X90737882Y-58947207D01*
X90737880Y-58947206D01*
X90609700Y-58902353D01*
X90579270Y-58899500D01*
X90579266Y-58899500D01*
X89220734Y-58899500D01*
X89220730Y-58899500D01*
X89190300Y-58902353D01*
X89190298Y-58902353D01*
X89062119Y-58947206D01*
X89062117Y-58947207D01*
X88952850Y-59027850D01*
X88872207Y-59137117D01*
X88872206Y-59137119D01*
X88827353Y-59265298D01*
X88827353Y-59265300D01*
X88824500Y-59295730D01*
X88824500Y-60163810D01*
X88804815Y-60230849D01*
X88788181Y-60251491D01*
X88736681Y-60302991D01*
X88675358Y-60336476D01*
X88605666Y-60331492D01*
X88549733Y-60289620D01*
X88525316Y-60224156D01*
X88525000Y-60215310D01*
X88525000Y-59650000D01*
X87999000Y-59650000D01*
X87931961Y-59630315D01*
X87886206Y-59577511D01*
X87875000Y-59526000D01*
X87875000Y-59500000D01*
X87849000Y-59500000D01*
X87781961Y-59480315D01*
X87736206Y-59427511D01*
X87725000Y-59376000D01*
X87725000Y-59350000D01*
X88025000Y-59350000D01*
X88525000Y-59350000D01*
X88525000Y-58652172D01*
X88524999Y-58652155D01*
X88518598Y-58592627D01*
X88518596Y-58592620D01*
X88468354Y-58457913D01*
X88468350Y-58457906D01*
X88382190Y-58342812D01*
X88382187Y-58342809D01*
X88267093Y-58256649D01*
X88267086Y-58256645D01*
X88132379Y-58206403D01*
X88132372Y-58206401D01*
X88072844Y-58200000D01*
X88025000Y-58200000D01*
X88025000Y-59350000D01*
X87725000Y-59350000D01*
X87725000Y-58200000D01*
X87677155Y-58200000D01*
X87617627Y-58206401D01*
X87617620Y-58206403D01*
X87482913Y-58256645D01*
X87482906Y-58256649D01*
X87367812Y-58342809D01*
X87367809Y-58342812D01*
X87287710Y-58449811D01*
X87231777Y-58491682D01*
X87188444Y-58499500D01*
X87055247Y-58499500D01*
X87030972Y-58504328D01*
X86961381Y-58498098D01*
X86906205Y-58455233D01*
X86887010Y-58414802D01*
X86878318Y-58382361D01*
X86835465Y-58308138D01*
X86305862Y-57778535D01*
X86268750Y-57757108D01*
X86231640Y-57735682D01*
X86190246Y-57724591D01*
X86148853Y-57713500D01*
X85555147Y-57713500D01*
X85472362Y-57735682D01*
X85472355Y-57735685D01*
X85398144Y-57778530D01*
X85398136Y-57778536D01*
X85166492Y-58010181D01*
X85105169Y-58043666D01*
X85078811Y-58046500D01*
X85018036Y-58046500D01*
X84879949Y-58087045D01*
X84758873Y-58164856D01*
X84664623Y-58273626D01*
X84664622Y-58273628D01*
X84628597Y-58352512D01*
X84582842Y-58405316D01*
X84515803Y-58425000D01*
X84050000Y-58425000D01*
X84050000Y-59287500D01*
X85249999Y-59287500D01*
X85249999Y-59125027D01*
X85249998Y-59125020D01*
X85249503Y-59120173D01*
X85262266Y-59051479D01*
X85305818Y-59003247D01*
X85383463Y-58953348D01*
X85450501Y-58933665D01*
X85517541Y-58953350D01*
X85563295Y-59006155D01*
X85574500Y-59057665D01*
X85574500Y-60319752D01*
X85586130Y-60378223D01*
X85590059Y-60387706D01*
X85599500Y-60435165D01*
X85599500Y-60575740D01*
X85579815Y-60642779D01*
X85527011Y-60688534D01*
X85493147Y-60698478D01*
X85486035Y-60699500D01*
X85347949Y-60740045D01*
X85226873Y-60817856D01*
X85132623Y-60926626D01*
X85132622Y-60926628D01*
X85072834Y-61057543D01*
X85052353Y-61200000D01*
X85072834Y-61342456D01*
X85132622Y-61473371D01*
X85132623Y-61473373D01*
X85226872Y-61582143D01*
X85347947Y-61659953D01*
X85347950Y-61659954D01*
X85347949Y-61659954D01*
X85486036Y-61700499D01*
X85486038Y-61700500D01*
X85603230Y-61700500D01*
X85670269Y-61720185D01*
X85716024Y-61772989D01*
X85725968Y-61842147D01*
X85696943Y-61905703D01*
X85672122Y-61927602D01*
X85630446Y-61955448D01*
X85586132Y-62021769D01*
X85586131Y-62021770D01*
X85574500Y-62080247D01*
X85574500Y-62450500D01*
X85554815Y-62517539D01*
X85502011Y-62563294D01*
X85450500Y-62574500D01*
X85074500Y-62574500D01*
X85007461Y-62554815D01*
X84961706Y-62502011D01*
X84950500Y-62450500D01*
X84950500Y-62445730D01*
X84947646Y-62415300D01*
X84947646Y-62415298D01*
X84902793Y-62287119D01*
X84902792Y-62287117D01*
X84900411Y-62283891D01*
X84822150Y-62177850D01*
X84712882Y-62097207D01*
X84712880Y-62097206D01*
X84584700Y-62052353D01*
X84554270Y-62049500D01*
X84554266Y-62049500D01*
X83045734Y-62049500D01*
X83045730Y-62049500D01*
X83015300Y-62052353D01*
X83015298Y-62052353D01*
X82887119Y-62097206D01*
X82887117Y-62097207D01*
X82777850Y-62177850D01*
X82697207Y-62287118D01*
X82682567Y-62328956D01*
X82641845Y-62385731D01*
X82576892Y-62411478D01*
X82565526Y-62412000D01*
X82432361Y-62412000D01*
X82397426Y-62406977D01*
X82371962Y-62399500D01*
X82371961Y-62399500D01*
X82228039Y-62399500D01*
X82228036Y-62399500D01*
X82089949Y-62440045D01*
X81971539Y-62516143D01*
X81904500Y-62535827D01*
X81837460Y-62516142D01*
X81791706Y-62463338D01*
X81780500Y-62411827D01*
X81780500Y-59949986D01*
X82350001Y-59949986D01*
X82360494Y-60052697D01*
X82415641Y-60219119D01*
X82415643Y-60219124D01*
X82507684Y-60368345D01*
X82631654Y-60492315D01*
X82780875Y-60584356D01*
X82780880Y-60584358D01*
X82947302Y-60639505D01*
X82947309Y-60639506D01*
X83050019Y-60649999D01*
X83549999Y-60649999D01*
X84050000Y-60649999D01*
X84549972Y-60649999D01*
X84549986Y-60649998D01*
X84652697Y-60639505D01*
X84819119Y-60584358D01*
X84819124Y-60584356D01*
X84968345Y-60492315D01*
X85092315Y-60368345D01*
X85184356Y-60219124D01*
X85184358Y-60219119D01*
X85239505Y-60052697D01*
X85239506Y-60052690D01*
X85249999Y-59949986D01*
X85250000Y-59949973D01*
X85250000Y-59787500D01*
X84050000Y-59787500D01*
X84050000Y-60649999D01*
X83549999Y-60649999D01*
X83550000Y-60649998D01*
X83550000Y-59787500D01*
X82350001Y-59787500D01*
X82350001Y-59949986D01*
X81780500Y-59949986D01*
X81780500Y-59125013D01*
X82350000Y-59125013D01*
X82350000Y-59287500D01*
X83550000Y-59287500D01*
X83550000Y-58425000D01*
X83050028Y-58425000D01*
X83050012Y-58425001D01*
X82947302Y-58435494D01*
X82780880Y-58490641D01*
X82780875Y-58490643D01*
X82631654Y-58582684D01*
X82507684Y-58706654D01*
X82415643Y-58855875D01*
X82415641Y-58855880D01*
X82360494Y-59022302D01*
X82360493Y-59022309D01*
X82350000Y-59125013D01*
X81780500Y-59125013D01*
X81780500Y-55991910D01*
X81800185Y-55924871D01*
X81852989Y-55879116D01*
X81922147Y-55869172D01*
X81985703Y-55898197D01*
X82012021Y-55934695D01*
X82012348Y-55934477D01*
X82018463Y-55943629D01*
X82019061Y-55944458D01*
X82019132Y-55944630D01*
X82063447Y-56010952D01*
X82129769Y-56055267D01*
X82129770Y-56055268D01*
X82188247Y-56066899D01*
X82188250Y-56066900D01*
X82188252Y-56066900D01*
X83927750Y-56066900D01*
X83927751Y-56066899D01*
X83942568Y-56063952D01*
X83986229Y-56055268D01*
X83986229Y-56055267D01*
X83986231Y-56055267D01*
X84052552Y-56010952D01*
X84096867Y-55944631D01*
X84096867Y-55944629D01*
X84096868Y-55944629D01*
X84107205Y-55892660D01*
X84108500Y-55886148D01*
X84108500Y-55016400D01*
X84542417Y-55016400D01*
X84562699Y-55222332D01*
X84562700Y-55222334D01*
X84622768Y-55420354D01*
X84720315Y-55602850D01*
X84720317Y-55602852D01*
X84851589Y-55762810D01*
X84869821Y-55777772D01*
X85011550Y-55894085D01*
X85194046Y-55991632D01*
X85392066Y-56051700D01*
X85392065Y-56051700D01*
X85410529Y-56053518D01*
X85598000Y-56071983D01*
X85803934Y-56051700D01*
X86001954Y-55991632D01*
X86184450Y-55894085D01*
X86344410Y-55762810D01*
X86475685Y-55602850D01*
X86573232Y-55420354D01*
X86633300Y-55222334D01*
X86653583Y-55016400D01*
X86633300Y-54810466D01*
X86573232Y-54612446D01*
X86475685Y-54429950D01*
X86423702Y-54366609D01*
X86344410Y-54269989D01*
X86194121Y-54146652D01*
X86184450Y-54138715D01*
X86001954Y-54041168D01*
X85803934Y-53981100D01*
X85803932Y-53981099D01*
X85803934Y-53981099D01*
X85598000Y-53960817D01*
X85392067Y-53981099D01*
X85257736Y-54021848D01*
X85194050Y-54041167D01*
X85194043Y-54041169D01*
X85106116Y-54088168D01*
X85011550Y-54138715D01*
X85011548Y-54138716D01*
X85011547Y-54138717D01*
X84851589Y-54269989D01*
X84720317Y-54429947D01*
X84622769Y-54612443D01*
X84562699Y-54810467D01*
X84542417Y-55016400D01*
X84108500Y-55016400D01*
X84108500Y-54146652D01*
X84108500Y-54146649D01*
X84108499Y-54146647D01*
X84096868Y-54088170D01*
X84096867Y-54088169D01*
X84052552Y-54021847D01*
X83986230Y-53977532D01*
X83986229Y-53977531D01*
X83927752Y-53965900D01*
X83927748Y-53965900D01*
X82188252Y-53965900D01*
X82188247Y-53965900D01*
X82129770Y-53977531D01*
X82129769Y-53977532D01*
X82063447Y-54021847D01*
X82019133Y-54088168D01*
X82019060Y-54088345D01*
X82018797Y-54088670D01*
X82012348Y-54098323D01*
X82011483Y-54097745D01*
X81975217Y-54142747D01*
X81908923Y-54164810D01*
X81841224Y-54147529D01*
X81793615Y-54096391D01*
X81780500Y-54040889D01*
X81780500Y-52719848D01*
X81800185Y-52652809D01*
X81852989Y-52607054D01*
X81922147Y-52597110D01*
X81985703Y-52626135D01*
X82023160Y-52683852D01*
X82082768Y-52880354D01*
X82180315Y-53062850D01*
X82180317Y-53062852D01*
X82311589Y-53222810D01*
X82375458Y-53275225D01*
X82471550Y-53354085D01*
X82654046Y-53451632D01*
X82852066Y-53511700D01*
X82852065Y-53511700D01*
X82870529Y-53513518D01*
X83058000Y-53531983D01*
X83263934Y-53511700D01*
X83461954Y-53451632D01*
X83644450Y-53354085D01*
X83804410Y-53222810D01*
X83935685Y-53062850D01*
X84033232Y-52880354D01*
X84093300Y-52682334D01*
X84113583Y-52476400D01*
X84542417Y-52476400D01*
X84562699Y-52682332D01*
X84576235Y-52726953D01*
X84622768Y-52880354D01*
X84720315Y-53062850D01*
X84720317Y-53062852D01*
X84851589Y-53222810D01*
X84915458Y-53275225D01*
X85011550Y-53354085D01*
X85194046Y-53451632D01*
X85392066Y-53511700D01*
X85392065Y-53511700D01*
X85410529Y-53513518D01*
X85598000Y-53531983D01*
X85803934Y-53511700D01*
X86001954Y-53451632D01*
X86184450Y-53354085D01*
X86344410Y-53222810D01*
X86475685Y-53062850D01*
X86573232Y-52880354D01*
X86593406Y-52813846D01*
X86631702Y-52755410D01*
X86695514Y-52726953D01*
X86764581Y-52737512D01*
X86816975Y-52783736D01*
X86831841Y-52817749D01*
X86864567Y-52939886D01*
X86864570Y-52939892D01*
X86964398Y-53153976D01*
X87023073Y-53237772D01*
X87655037Y-52605808D01*
X87672075Y-52669393D01*
X87737901Y-52783407D01*
X87830993Y-52876499D01*
X87945007Y-52942325D01*
X88008591Y-52959362D01*
X87376626Y-53591326D01*
X87460417Y-53649998D01*
X87460421Y-53650000D01*
X87674507Y-53749829D01*
X87674516Y-53749833D01*
X87796649Y-53782558D01*
X87856310Y-53818923D01*
X87886839Y-53881769D01*
X87878545Y-53951145D01*
X87834059Y-54005023D01*
X87800552Y-54020993D01*
X87734046Y-54041167D01*
X87627117Y-54098323D01*
X87551550Y-54138715D01*
X87551548Y-54138716D01*
X87551547Y-54138717D01*
X87391589Y-54269989D01*
X87260317Y-54429947D01*
X87162769Y-54612443D01*
X87102699Y-54810467D01*
X87082417Y-55016400D01*
X87102699Y-55222332D01*
X87102700Y-55222334D01*
X87162768Y-55420354D01*
X87260315Y-55602850D01*
X87260317Y-55602852D01*
X87391589Y-55762810D01*
X87409821Y-55777772D01*
X87551550Y-55894085D01*
X87734046Y-55991632D01*
X87932066Y-56051700D01*
X87932065Y-56051700D01*
X87950529Y-56053518D01*
X88138000Y-56071983D01*
X88343934Y-56051700D01*
X88541954Y-55991632D01*
X88724450Y-55894085D01*
X88884410Y-55762810D01*
X89015685Y-55602850D01*
X89113232Y-55420354D01*
X89173300Y-55222334D01*
X89193583Y-55016400D01*
X89622417Y-55016400D01*
X89642699Y-55222332D01*
X89642700Y-55222334D01*
X89702768Y-55420354D01*
X89800315Y-55602850D01*
X89800317Y-55602852D01*
X89931589Y-55762810D01*
X89949821Y-55777772D01*
X90091550Y-55894085D01*
X90274046Y-55991632D01*
X90472066Y-56051700D01*
X90472065Y-56051700D01*
X90490529Y-56053518D01*
X90678000Y-56071983D01*
X90883934Y-56051700D01*
X91081954Y-55991632D01*
X91264450Y-55894085D01*
X91424410Y-55762810D01*
X91555685Y-55602850D01*
X91653232Y-55420354D01*
X91673406Y-55353846D01*
X91711702Y-55295410D01*
X91775514Y-55266953D01*
X91844581Y-55277512D01*
X91896975Y-55323736D01*
X91911841Y-55357749D01*
X91944567Y-55479886D01*
X91944570Y-55479892D01*
X92044398Y-55693976D01*
X92103073Y-55777772D01*
X92735037Y-55145808D01*
X92752075Y-55209393D01*
X92817901Y-55323407D01*
X92910993Y-55416499D01*
X93025007Y-55482325D01*
X93088591Y-55499362D01*
X92456626Y-56131326D01*
X92540417Y-56189998D01*
X92540421Y-56190000D01*
X92754507Y-56289829D01*
X92754516Y-56289833D01*
X92982673Y-56350967D01*
X92982684Y-56350969D01*
X93217998Y-56371557D01*
X93218002Y-56371557D01*
X93453315Y-56350969D01*
X93453326Y-56350967D01*
X93681483Y-56289833D01*
X93681492Y-56289829D01*
X93895580Y-56189999D01*
X93979371Y-56131325D01*
X93347408Y-55499362D01*
X93410993Y-55482325D01*
X93525007Y-55416499D01*
X93618099Y-55323407D01*
X93683925Y-55209393D01*
X93700962Y-55145808D01*
X94332925Y-55777771D01*
X94391599Y-55693980D01*
X94491429Y-55479892D01*
X94491433Y-55479883D01*
X94524158Y-55357750D01*
X94560522Y-55298090D01*
X94623369Y-55267560D01*
X94692745Y-55275854D01*
X94746623Y-55320339D01*
X94762593Y-55353847D01*
X94782768Y-55420354D01*
X94880315Y-55602850D01*
X94880317Y-55602852D01*
X95011589Y-55762810D01*
X95029821Y-55777772D01*
X95171550Y-55894085D01*
X95354046Y-55991632D01*
X95552066Y-56051700D01*
X95552065Y-56051700D01*
X95570529Y-56053518D01*
X95758000Y-56071983D01*
X95963934Y-56051700D01*
X96161954Y-55991632D01*
X96344450Y-55894085D01*
X96504410Y-55762810D01*
X96635685Y-55602850D01*
X96733232Y-55420354D01*
X96793300Y-55222334D01*
X96813583Y-55016400D01*
X96793300Y-54810466D01*
X96733232Y-54612446D01*
X96635685Y-54429950D01*
X96583702Y-54366609D01*
X96504410Y-54269989D01*
X96354121Y-54146652D01*
X96344450Y-54138715D01*
X96161954Y-54041168D01*
X95963934Y-53981100D01*
X95963932Y-53981099D01*
X95963934Y-53981099D01*
X95758000Y-53960817D01*
X95552067Y-53981099D01*
X95417736Y-54021848D01*
X95354050Y-54041167D01*
X95354043Y-54041169D01*
X95266116Y-54088168D01*
X95171550Y-54138715D01*
X95171548Y-54138716D01*
X95171547Y-54138717D01*
X95011589Y-54269989D01*
X94880317Y-54429947D01*
X94782767Y-54612446D01*
X94762593Y-54678952D01*
X94724296Y-54737390D01*
X94660483Y-54765847D01*
X94591416Y-54755286D01*
X94539023Y-54709061D01*
X94524158Y-54675049D01*
X94491433Y-54552916D01*
X94491429Y-54552907D01*
X94391601Y-54338824D01*
X94332925Y-54255026D01*
X93700962Y-54886990D01*
X93683925Y-54823407D01*
X93618099Y-54709393D01*
X93525007Y-54616301D01*
X93410993Y-54550475D01*
X93347409Y-54533437D01*
X93979372Y-53901473D01*
X93895576Y-53842798D01*
X93681492Y-53742970D01*
X93681486Y-53742967D01*
X93559349Y-53710241D01*
X93499689Y-53673876D01*
X93469160Y-53611029D01*
X93477455Y-53541653D01*
X93521940Y-53487775D01*
X93555444Y-53471807D01*
X93621954Y-53451632D01*
X93804450Y-53354085D01*
X93964410Y-53222810D01*
X94095685Y-53062850D01*
X94193232Y-52880354D01*
X94253300Y-52682334D01*
X94273583Y-52476400D01*
X94702417Y-52476400D01*
X94722699Y-52682332D01*
X94736235Y-52726953D01*
X94782768Y-52880354D01*
X94880315Y-53062850D01*
X94880317Y-53062852D01*
X95011589Y-53222810D01*
X95075458Y-53275225D01*
X95171550Y-53354085D01*
X95354046Y-53451632D01*
X95552066Y-53511700D01*
X95552065Y-53511700D01*
X95570529Y-53513518D01*
X95758000Y-53531983D01*
X95963934Y-53511700D01*
X96161954Y-53451632D01*
X96344450Y-53354085D01*
X96504410Y-53222810D01*
X96635685Y-53062850D01*
X96733232Y-52880354D01*
X96753406Y-52813846D01*
X96791702Y-52755410D01*
X96855514Y-52726953D01*
X96924581Y-52737512D01*
X96976975Y-52783736D01*
X96991841Y-52817749D01*
X97024567Y-52939886D01*
X97024570Y-52939892D01*
X97124398Y-53153976D01*
X97183073Y-53237772D01*
X97815037Y-52605808D01*
X97832075Y-52669393D01*
X97897901Y-52783407D01*
X97990993Y-52876499D01*
X98105007Y-52942325D01*
X98168591Y-52959362D01*
X97536626Y-53591326D01*
X97620417Y-53649998D01*
X97620421Y-53650000D01*
X97834507Y-53749829D01*
X97834516Y-53749833D01*
X97956649Y-53782558D01*
X98016310Y-53818923D01*
X98046839Y-53881769D01*
X98038545Y-53951145D01*
X97994059Y-54005023D01*
X97960552Y-54020993D01*
X97894046Y-54041167D01*
X97787117Y-54098323D01*
X97711550Y-54138715D01*
X97711548Y-54138716D01*
X97711547Y-54138717D01*
X97551589Y-54269989D01*
X97420317Y-54429947D01*
X97322769Y-54612443D01*
X97262699Y-54810467D01*
X97242417Y-55016400D01*
X97262699Y-55222332D01*
X97262700Y-55222334D01*
X97322768Y-55420354D01*
X97420315Y-55602850D01*
X97420317Y-55602852D01*
X97551589Y-55762810D01*
X97569821Y-55777772D01*
X97711550Y-55894085D01*
X97894046Y-55991632D01*
X98092066Y-56051700D01*
X98092065Y-56051700D01*
X98110529Y-56053518D01*
X98298000Y-56071983D01*
X98503934Y-56051700D01*
X98701954Y-55991632D01*
X98884450Y-55894085D01*
X99044410Y-55762810D01*
X99175685Y-55602850D01*
X99273232Y-55420354D01*
X99333300Y-55222334D01*
X99353583Y-55016400D01*
X99782417Y-55016400D01*
X99802699Y-55222332D01*
X99802700Y-55222334D01*
X99862768Y-55420354D01*
X99960315Y-55602850D01*
X99960317Y-55602852D01*
X100091589Y-55762810D01*
X100109821Y-55777772D01*
X100251550Y-55894085D01*
X100434046Y-55991632D01*
X100632066Y-56051700D01*
X100632065Y-56051700D01*
X100650529Y-56053518D01*
X100838000Y-56071983D01*
X101043934Y-56051700D01*
X101241954Y-55991632D01*
X101424450Y-55894085D01*
X101584410Y-55762810D01*
X101715685Y-55602850D01*
X101813232Y-55420354D01*
X101873300Y-55222334D01*
X101893583Y-55016400D01*
X102322417Y-55016400D01*
X102342699Y-55222332D01*
X102342700Y-55222334D01*
X102402768Y-55420354D01*
X102500315Y-55602850D01*
X102500317Y-55602852D01*
X102631589Y-55762810D01*
X102649821Y-55777772D01*
X102791550Y-55894085D01*
X102974046Y-55991632D01*
X103172066Y-56051700D01*
X103172065Y-56051700D01*
X103190529Y-56053518D01*
X103378000Y-56071983D01*
X103583934Y-56051700D01*
X103781954Y-55991632D01*
X103964450Y-55894085D01*
X104124410Y-55762810D01*
X104255685Y-55602850D01*
X104353232Y-55420354D01*
X104413300Y-55222334D01*
X104433583Y-55016400D01*
X104413300Y-54810466D01*
X104353232Y-54612446D01*
X104255685Y-54429950D01*
X104203702Y-54366609D01*
X104124410Y-54269989D01*
X103974121Y-54146652D01*
X103964450Y-54138715D01*
X103781954Y-54041168D01*
X103583934Y-53981100D01*
X103583932Y-53981099D01*
X103583934Y-53981099D01*
X103378000Y-53960817D01*
X103172067Y-53981099D01*
X103037736Y-54021848D01*
X102974050Y-54041167D01*
X102974043Y-54041169D01*
X102886116Y-54088168D01*
X102791550Y-54138715D01*
X102791548Y-54138716D01*
X102791547Y-54138717D01*
X102631589Y-54269989D01*
X102500317Y-54429947D01*
X102402769Y-54612443D01*
X102342699Y-54810467D01*
X102322417Y-55016400D01*
X101893583Y-55016400D01*
X101873300Y-54810466D01*
X101813232Y-54612446D01*
X101715685Y-54429950D01*
X101663702Y-54366609D01*
X101584410Y-54269989D01*
X101434121Y-54146652D01*
X101424450Y-54138715D01*
X101241954Y-54041168D01*
X101043934Y-53981100D01*
X101043932Y-53981099D01*
X101043934Y-53981099D01*
X100838000Y-53960817D01*
X100632067Y-53981099D01*
X100497736Y-54021848D01*
X100434050Y-54041167D01*
X100434043Y-54041169D01*
X100346116Y-54088168D01*
X100251550Y-54138715D01*
X100251548Y-54138716D01*
X100251547Y-54138717D01*
X100091589Y-54269989D01*
X99960317Y-54429947D01*
X99862769Y-54612443D01*
X99802699Y-54810467D01*
X99782417Y-55016400D01*
X99353583Y-55016400D01*
X99333300Y-54810466D01*
X99273232Y-54612446D01*
X99175685Y-54429950D01*
X99123702Y-54366609D01*
X99044410Y-54269989D01*
X98894121Y-54146652D01*
X98884450Y-54138715D01*
X98701954Y-54041168D01*
X98635447Y-54020993D01*
X98577009Y-53982696D01*
X98548553Y-53918884D01*
X98559113Y-53849817D01*
X98605337Y-53797423D01*
X98639350Y-53782558D01*
X98761483Y-53749833D01*
X98761492Y-53749829D01*
X98975580Y-53649999D01*
X99059371Y-53591325D01*
X98427408Y-52959362D01*
X98490993Y-52942325D01*
X98605007Y-52876499D01*
X98698099Y-52783407D01*
X98763925Y-52669393D01*
X98780962Y-52605808D01*
X99412925Y-53237771D01*
X99471599Y-53153980D01*
X99571429Y-52939892D01*
X99571433Y-52939883D01*
X99604158Y-52817750D01*
X99640522Y-52758090D01*
X99703369Y-52727560D01*
X99772745Y-52735854D01*
X99826623Y-52780339D01*
X99842593Y-52813847D01*
X99862768Y-52880354D01*
X99960315Y-53062850D01*
X99960317Y-53062852D01*
X100091589Y-53222810D01*
X100155458Y-53275225D01*
X100251550Y-53354085D01*
X100434046Y-53451632D01*
X100632066Y-53511700D01*
X100632065Y-53511700D01*
X100650529Y-53513518D01*
X100838000Y-53531983D01*
X101043934Y-53511700D01*
X101241954Y-53451632D01*
X101424450Y-53354085D01*
X101584410Y-53222810D01*
X101715685Y-53062850D01*
X101813232Y-52880354D01*
X101873300Y-52682334D01*
X101893583Y-52476400D01*
X102322417Y-52476400D01*
X102342699Y-52682332D01*
X102356235Y-52726953D01*
X102402768Y-52880354D01*
X102500315Y-53062850D01*
X102500317Y-53062852D01*
X102631589Y-53222810D01*
X102695458Y-53275225D01*
X102791550Y-53354085D01*
X102974046Y-53451632D01*
X103172066Y-53511700D01*
X103172065Y-53511700D01*
X103190529Y-53513518D01*
X103378000Y-53531983D01*
X103583934Y-53511700D01*
X103781954Y-53451632D01*
X103964450Y-53354085D01*
X104124410Y-53222810D01*
X104255685Y-53062850D01*
X104353232Y-52880354D01*
X104373406Y-52813846D01*
X104411702Y-52755410D01*
X104475514Y-52726953D01*
X104544581Y-52737512D01*
X104596975Y-52783736D01*
X104611841Y-52817749D01*
X104644567Y-52939886D01*
X104644570Y-52939892D01*
X104744398Y-53153976D01*
X104803073Y-53237772D01*
X105435037Y-52605808D01*
X105452075Y-52669393D01*
X105517901Y-52783407D01*
X105610993Y-52876499D01*
X105725007Y-52942325D01*
X105788591Y-52959362D01*
X105156626Y-53591326D01*
X105240417Y-53649998D01*
X105240421Y-53650000D01*
X105454507Y-53749829D01*
X105454516Y-53749833D01*
X105576649Y-53782558D01*
X105636310Y-53818923D01*
X105666839Y-53881769D01*
X105658545Y-53951145D01*
X105614059Y-54005023D01*
X105580552Y-54020993D01*
X105514046Y-54041167D01*
X105407117Y-54098323D01*
X105331550Y-54138715D01*
X105331548Y-54138716D01*
X105331547Y-54138717D01*
X105171589Y-54269989D01*
X105040317Y-54429947D01*
X104942769Y-54612443D01*
X104882699Y-54810467D01*
X104862417Y-55016400D01*
X104882699Y-55222332D01*
X104882700Y-55222334D01*
X104942768Y-55420354D01*
X105040315Y-55602850D01*
X105040317Y-55602852D01*
X105171589Y-55762810D01*
X105189821Y-55777772D01*
X105331550Y-55894085D01*
X105514046Y-55991632D01*
X105712066Y-56051700D01*
X105712065Y-56051700D01*
X105730529Y-56053518D01*
X105918000Y-56071983D01*
X106123934Y-56051700D01*
X106321954Y-55991632D01*
X106504450Y-55894085D01*
X106664410Y-55762810D01*
X106795685Y-55602850D01*
X106893232Y-55420354D01*
X106953300Y-55222334D01*
X106973583Y-55016400D01*
X107402417Y-55016400D01*
X107422699Y-55222332D01*
X107422700Y-55222334D01*
X107482768Y-55420354D01*
X107580315Y-55602850D01*
X107580317Y-55602852D01*
X107711589Y-55762810D01*
X107729821Y-55777772D01*
X107871550Y-55894085D01*
X108054046Y-55991632D01*
X108252066Y-56051700D01*
X108252065Y-56051700D01*
X108270529Y-56053518D01*
X108458000Y-56071983D01*
X108663934Y-56051700D01*
X108861954Y-55991632D01*
X109044450Y-55894085D01*
X109204410Y-55762810D01*
X109335685Y-55602850D01*
X109433232Y-55420354D01*
X109493300Y-55222334D01*
X109513583Y-55016400D01*
X109942417Y-55016400D01*
X109962699Y-55222332D01*
X109962700Y-55222334D01*
X110022768Y-55420354D01*
X110120315Y-55602850D01*
X110120317Y-55602852D01*
X110251589Y-55762810D01*
X110269821Y-55777772D01*
X110411550Y-55894085D01*
X110594046Y-55991632D01*
X110792066Y-56051700D01*
X110792065Y-56051700D01*
X110810529Y-56053518D01*
X110998000Y-56071983D01*
X111203934Y-56051700D01*
X111401954Y-55991632D01*
X111584450Y-55894085D01*
X111744410Y-55762810D01*
X111875685Y-55602850D01*
X111973232Y-55420354D01*
X111993406Y-55353846D01*
X112031702Y-55295410D01*
X112095514Y-55266953D01*
X112164581Y-55277512D01*
X112216975Y-55323736D01*
X112231841Y-55357749D01*
X112264567Y-55479886D01*
X112264570Y-55479892D01*
X112364398Y-55693976D01*
X112423073Y-55777772D01*
X113055037Y-55145808D01*
X113072075Y-55209393D01*
X113137901Y-55323407D01*
X113230993Y-55416499D01*
X113345007Y-55482325D01*
X113408591Y-55499362D01*
X112776626Y-56131326D01*
X112860417Y-56189998D01*
X112860421Y-56190000D01*
X113074507Y-56289829D01*
X113074516Y-56289833D01*
X113302673Y-56350967D01*
X113302684Y-56350969D01*
X113537998Y-56371557D01*
X113538002Y-56371557D01*
X113773315Y-56350969D01*
X113773326Y-56350967D01*
X114001483Y-56289833D01*
X114001492Y-56289829D01*
X114215580Y-56189999D01*
X114299371Y-56131325D01*
X113667408Y-55499362D01*
X113730993Y-55482325D01*
X113845007Y-55416499D01*
X113938099Y-55323407D01*
X114003925Y-55209393D01*
X114020962Y-55145808D01*
X114652925Y-55777771D01*
X114711599Y-55693980D01*
X114811429Y-55479892D01*
X114811433Y-55479883D01*
X114844158Y-55357750D01*
X114880522Y-55298090D01*
X114943369Y-55267560D01*
X115012745Y-55275854D01*
X115066623Y-55320339D01*
X115082593Y-55353847D01*
X115102768Y-55420354D01*
X115200315Y-55602850D01*
X115200317Y-55602852D01*
X115331589Y-55762810D01*
X115349821Y-55777772D01*
X115491550Y-55894085D01*
X115674046Y-55991632D01*
X115872066Y-56051700D01*
X115872065Y-56051700D01*
X115890529Y-56053518D01*
X116078000Y-56071983D01*
X116283934Y-56051700D01*
X116481954Y-55991632D01*
X116664450Y-55894085D01*
X116824410Y-55762810D01*
X116883257Y-55691103D01*
X116941002Y-55651768D01*
X117010846Y-55649897D01*
X117070615Y-55686083D01*
X117086495Y-55707762D01*
X117087535Y-55709563D01*
X117965833Y-56587861D01*
X117965834Y-56587862D01*
X118026437Y-56648465D01*
X118026439Y-56648466D01*
X118026443Y-56648469D01*
X118048794Y-56661373D01*
X118100661Y-56691318D01*
X118183446Y-56713500D01*
X127198162Y-56713500D01*
X127265201Y-56733185D01*
X127291872Y-56756295D01*
X127303872Y-56770143D01*
X127424947Y-56847953D01*
X127424950Y-56847954D01*
X127424949Y-56847954D01*
X127563036Y-56888499D01*
X127563038Y-56888500D01*
X127563039Y-56888500D01*
X127706962Y-56888500D01*
X127706962Y-56888499D01*
X127845053Y-56847953D01*
X127966128Y-56770143D01*
X128060377Y-56661373D01*
X128120165Y-56530457D01*
X128140647Y-56388000D01*
X128120165Y-56245543D01*
X128060377Y-56114627D01*
X128060375Y-56114625D01*
X128060374Y-56114622D01*
X128029020Y-56078438D01*
X127999995Y-56014883D01*
X128009939Y-55945724D01*
X128055694Y-55892920D01*
X128122733Y-55873236D01*
X128185876Y-55891776D01*
X128186178Y-55891213D01*
X128188886Y-55892660D01*
X128189773Y-55892921D01*
X128191538Y-55894078D01*
X128191547Y-55894083D01*
X128191550Y-55894085D01*
X128374046Y-55991632D01*
X128572066Y-56051700D01*
X128572065Y-56051700D01*
X128590529Y-56053518D01*
X128778000Y-56071983D01*
X128983934Y-56051700D01*
X129181954Y-55991632D01*
X129364450Y-55894085D01*
X129524410Y-55762810D01*
X129655685Y-55602850D01*
X129753232Y-55420354D01*
X129773406Y-55353846D01*
X129811702Y-55295410D01*
X129875514Y-55266953D01*
X129944581Y-55277512D01*
X129996975Y-55323736D01*
X130011841Y-55357749D01*
X130044567Y-55479886D01*
X130044570Y-55479892D01*
X130144399Y-55693978D01*
X130279894Y-55887482D01*
X130446917Y-56054505D01*
X130640421Y-56190000D01*
X130854507Y-56289829D01*
X130854516Y-56289833D01*
X131068000Y-56347034D01*
X131068000Y-55449412D01*
X131125007Y-55482325D01*
X131252174Y-55516400D01*
X131383826Y-55516400D01*
X131510993Y-55482325D01*
X131568000Y-55449412D01*
X131568000Y-56347033D01*
X131781483Y-56289833D01*
X131781492Y-56289829D01*
X131995578Y-56190000D01*
X132189082Y-56054505D01*
X132356105Y-55887482D01*
X132491600Y-55693978D01*
X132591429Y-55479892D01*
X132591432Y-55479886D01*
X132648636Y-55266400D01*
X131751012Y-55266400D01*
X131783925Y-55209393D01*
X131818000Y-55082226D01*
X131818000Y-54950574D01*
X131783925Y-54823407D01*
X131751012Y-54766400D01*
X132648636Y-54766400D01*
X132648635Y-54766399D01*
X132591432Y-54552913D01*
X132591429Y-54552907D01*
X132491600Y-54338822D01*
X132491599Y-54338820D01*
X132356113Y-54145326D01*
X132356108Y-54145320D01*
X132189082Y-53978294D01*
X131995578Y-53842799D01*
X131781492Y-53742970D01*
X131781486Y-53742967D01*
X131659349Y-53710241D01*
X131599689Y-53673876D01*
X131569160Y-53611029D01*
X131577455Y-53541653D01*
X131621940Y-53487775D01*
X131655444Y-53471807D01*
X131721954Y-53451632D01*
X131904450Y-53354085D01*
X132064410Y-53222810D01*
X132195685Y-53062850D01*
X132293232Y-52880354D01*
X132353300Y-52682334D01*
X132373583Y-52476400D01*
X132353300Y-52270466D01*
X132293232Y-52072446D01*
X132195685Y-51889950D01*
X132143702Y-51826609D01*
X132064410Y-51729989D01*
X131904452Y-51598717D01*
X131904453Y-51598717D01*
X131904450Y-51598715D01*
X131721954Y-51501168D01*
X131523934Y-51441100D01*
X131523932Y-51441099D01*
X131523934Y-51441099D01*
X131318000Y-51420817D01*
X131112067Y-51441099D01*
X130914043Y-51501169D01*
X130803898Y-51560043D01*
X130731550Y-51598715D01*
X130731548Y-51598716D01*
X130731547Y-51598717D01*
X130571589Y-51729989D01*
X130440317Y-51889947D01*
X130342769Y-52072443D01*
X130282699Y-52270467D01*
X130262417Y-52476400D01*
X130282699Y-52682332D01*
X130296235Y-52726953D01*
X130342768Y-52880354D01*
X130440315Y-53062850D01*
X130440317Y-53062852D01*
X130571589Y-53222810D01*
X130635458Y-53275225D01*
X130731550Y-53354085D01*
X130914046Y-53451632D01*
X130980551Y-53471805D01*
X131038989Y-53510102D01*
X131067446Y-53573914D01*
X131056887Y-53642981D01*
X131010663Y-53695375D01*
X130976650Y-53710241D01*
X130854514Y-53742967D01*
X130854507Y-53742970D01*
X130640422Y-53842799D01*
X130640420Y-53842800D01*
X130446926Y-53978286D01*
X130446920Y-53978291D01*
X130279891Y-54145320D01*
X130279886Y-54145326D01*
X130144400Y-54338820D01*
X130144399Y-54338822D01*
X130044570Y-54552907D01*
X130044567Y-54552914D01*
X130011841Y-54675050D01*
X129975476Y-54734710D01*
X129912629Y-54765239D01*
X129843253Y-54756944D01*
X129789375Y-54712459D01*
X129773406Y-54678952D01*
X129753232Y-54612446D01*
X129655685Y-54429950D01*
X129603702Y-54366609D01*
X129524410Y-54269989D01*
X129374121Y-54146652D01*
X129364450Y-54138715D01*
X129181954Y-54041168D01*
X128983934Y-53981100D01*
X128983932Y-53981099D01*
X128983934Y-53981099D01*
X128778000Y-53960817D01*
X128572067Y-53981099D01*
X128437736Y-54021848D01*
X128374050Y-54041167D01*
X128374043Y-54041169D01*
X128286116Y-54088168D01*
X128191550Y-54138715D01*
X128191548Y-54138716D01*
X128191547Y-54138717D01*
X128031589Y-54269989D01*
X127900317Y-54429947D01*
X127802769Y-54612443D01*
X127742699Y-54810467D01*
X127722417Y-55016400D01*
X127742699Y-55222332D01*
X127742700Y-55222334D01*
X127802768Y-55420354D01*
X127900315Y-55602850D01*
X127900317Y-55602852D01*
X128027164Y-55757418D01*
X128054476Y-55821728D01*
X128042685Y-55890595D01*
X127995532Y-55942155D01*
X127927990Y-55960038D01*
X127864270Y-55940397D01*
X127845051Y-55928045D01*
X127706963Y-55887500D01*
X127706961Y-55887500D01*
X127563039Y-55887500D01*
X127563036Y-55887500D01*
X127424949Y-55928045D01*
X127303873Y-56005856D01*
X127303872Y-56005856D01*
X127303872Y-56005857D01*
X127291873Y-56019703D01*
X127233097Y-56057477D01*
X127198162Y-56062500D01*
X126965793Y-56062500D01*
X126898754Y-56042815D01*
X126852999Y-55990011D01*
X126843055Y-55920853D01*
X126872080Y-55857297D01*
X126887129Y-55842646D01*
X126984410Y-55762810D01*
X126988835Y-55757418D01*
X127115685Y-55602850D01*
X127213232Y-55420354D01*
X127273300Y-55222334D01*
X127293583Y-55016400D01*
X127273300Y-54810466D01*
X127213232Y-54612446D01*
X127115685Y-54429950D01*
X127063702Y-54366609D01*
X126984410Y-54269989D01*
X126834121Y-54146652D01*
X126824450Y-54138715D01*
X126641954Y-54041168D01*
X126443934Y-53981100D01*
X126443932Y-53981099D01*
X126443934Y-53981099D01*
X126238000Y-53960817D01*
X126032067Y-53981099D01*
X125897736Y-54021848D01*
X125834050Y-54041167D01*
X125834043Y-54041169D01*
X125746116Y-54088168D01*
X125651550Y-54138715D01*
X125651548Y-54138716D01*
X125651547Y-54138717D01*
X125491589Y-54269989D01*
X125360317Y-54429947D01*
X125262769Y-54612443D01*
X125202699Y-54810467D01*
X125182417Y-55016400D01*
X125202699Y-55222332D01*
X125202700Y-55222334D01*
X125262768Y-55420354D01*
X125360315Y-55602850D01*
X125360317Y-55602852D01*
X125491589Y-55762810D01*
X125588871Y-55842646D01*
X125628206Y-55900392D01*
X125630077Y-55970236D01*
X125593890Y-56030005D01*
X125531134Y-56060721D01*
X125510207Y-56062500D01*
X124425793Y-56062500D01*
X124358754Y-56042815D01*
X124312999Y-55990011D01*
X124303055Y-55920853D01*
X124332080Y-55857297D01*
X124347129Y-55842646D01*
X124444410Y-55762810D01*
X124448835Y-55757418D01*
X124575685Y-55602850D01*
X124673232Y-55420354D01*
X124733300Y-55222334D01*
X124753583Y-55016400D01*
X124733300Y-54810466D01*
X124673232Y-54612446D01*
X124575685Y-54429950D01*
X124523702Y-54366609D01*
X124444410Y-54269989D01*
X124294121Y-54146652D01*
X124284450Y-54138715D01*
X124101954Y-54041168D01*
X124035447Y-54020993D01*
X123977009Y-53982696D01*
X123948553Y-53918884D01*
X123959113Y-53849817D01*
X124005337Y-53797423D01*
X124039350Y-53782558D01*
X124161483Y-53749833D01*
X124161492Y-53749829D01*
X124375580Y-53649999D01*
X124459371Y-53591325D01*
X123827408Y-52959362D01*
X123890993Y-52942325D01*
X124005007Y-52876499D01*
X124098099Y-52783407D01*
X124163925Y-52669393D01*
X124180962Y-52605808D01*
X124812925Y-53237771D01*
X124871599Y-53153980D01*
X124971429Y-52939892D01*
X124971433Y-52939883D01*
X125004158Y-52817750D01*
X125040522Y-52758090D01*
X125103369Y-52727560D01*
X125172745Y-52735854D01*
X125226623Y-52780339D01*
X125242593Y-52813847D01*
X125262768Y-52880354D01*
X125360315Y-53062850D01*
X125360317Y-53062852D01*
X125491589Y-53222810D01*
X125555458Y-53275225D01*
X125651550Y-53354085D01*
X125834046Y-53451632D01*
X126032066Y-53511700D01*
X126032065Y-53511700D01*
X126050529Y-53513518D01*
X126238000Y-53531983D01*
X126443934Y-53511700D01*
X126641954Y-53451632D01*
X126824450Y-53354085D01*
X126984410Y-53222810D01*
X127115685Y-53062850D01*
X127213232Y-52880354D01*
X127273300Y-52682334D01*
X127293583Y-52476400D01*
X127722417Y-52476400D01*
X127742699Y-52682332D01*
X127756235Y-52726953D01*
X127802768Y-52880354D01*
X127900315Y-53062850D01*
X127900317Y-53062852D01*
X128031589Y-53222810D01*
X128095458Y-53275225D01*
X128191550Y-53354085D01*
X128374046Y-53451632D01*
X128572066Y-53511700D01*
X128572065Y-53511700D01*
X128590529Y-53513518D01*
X128778000Y-53531983D01*
X128983934Y-53511700D01*
X129181954Y-53451632D01*
X129364450Y-53354085D01*
X129524410Y-53222810D01*
X129655685Y-53062850D01*
X129753232Y-52880354D01*
X129813300Y-52682334D01*
X129833583Y-52476400D01*
X129813300Y-52270466D01*
X129753232Y-52072446D01*
X129655685Y-51889950D01*
X129603702Y-51826609D01*
X129524410Y-51729989D01*
X129364452Y-51598717D01*
X129364453Y-51598717D01*
X129364450Y-51598715D01*
X129181954Y-51501168D01*
X128983934Y-51441100D01*
X128983932Y-51441099D01*
X128983934Y-51441099D01*
X128778000Y-51420817D01*
X128572067Y-51441099D01*
X128374043Y-51501169D01*
X128263898Y-51560043D01*
X128191550Y-51598715D01*
X128191548Y-51598716D01*
X128191547Y-51598717D01*
X128031589Y-51729989D01*
X127900317Y-51889947D01*
X127802769Y-52072443D01*
X127742699Y-52270467D01*
X127722417Y-52476400D01*
X127293583Y-52476400D01*
X127273300Y-52270466D01*
X127213232Y-52072446D01*
X127115685Y-51889950D01*
X127063702Y-51826609D01*
X126984410Y-51729989D01*
X126824452Y-51598717D01*
X126824453Y-51598717D01*
X126824450Y-51598715D01*
X126641954Y-51501168D01*
X126443934Y-51441100D01*
X126443932Y-51441099D01*
X126443934Y-51441099D01*
X126238000Y-51420817D01*
X126032067Y-51441099D01*
X125834043Y-51501169D01*
X125723898Y-51560043D01*
X125651550Y-51598715D01*
X125651548Y-51598716D01*
X125651547Y-51598717D01*
X125491589Y-51729989D01*
X125360317Y-51889947D01*
X125262767Y-52072446D01*
X125242593Y-52138952D01*
X125204296Y-52197390D01*
X125140483Y-52225847D01*
X125071416Y-52215286D01*
X125019023Y-52169061D01*
X125004158Y-52135049D01*
X124971433Y-52012916D01*
X124971429Y-52012907D01*
X124871601Y-51798824D01*
X124812925Y-51715026D01*
X124180962Y-52346990D01*
X124163925Y-52283407D01*
X124098099Y-52169393D01*
X124005007Y-52076301D01*
X123890993Y-52010475D01*
X123827409Y-51993437D01*
X124459372Y-51361473D01*
X124375576Y-51302798D01*
X124161492Y-51202970D01*
X124161483Y-51202966D01*
X123933326Y-51141832D01*
X123933315Y-51141830D01*
X123698002Y-51121243D01*
X123697998Y-51121243D01*
X123462684Y-51141830D01*
X123462673Y-51141832D01*
X123234516Y-51202966D01*
X123234507Y-51202970D01*
X123020423Y-51302799D01*
X123020421Y-51302800D01*
X122936627Y-51361473D01*
X122936626Y-51361473D01*
X123568591Y-51993437D01*
X123505007Y-52010475D01*
X123390993Y-52076301D01*
X123297901Y-52169393D01*
X123232075Y-52283407D01*
X123215037Y-52346990D01*
X122583073Y-51715026D01*
X122583073Y-51715027D01*
X122524400Y-51798821D01*
X122524399Y-51798823D01*
X122424570Y-52012907D01*
X122424567Y-52012914D01*
X122391841Y-52135050D01*
X122355476Y-52194710D01*
X122292629Y-52225239D01*
X122223253Y-52216944D01*
X122169375Y-52172459D01*
X122153406Y-52138952D01*
X122133232Y-52072446D01*
X122035685Y-51889950D01*
X121983702Y-51826609D01*
X121904410Y-51729989D01*
X121744452Y-51598717D01*
X121744453Y-51598717D01*
X121744450Y-51598715D01*
X121561954Y-51501168D01*
X121363934Y-51441100D01*
X121363932Y-51441099D01*
X121363934Y-51441099D01*
X121158000Y-51420817D01*
X120952067Y-51441099D01*
X120754043Y-51501169D01*
X120643898Y-51560043D01*
X120571550Y-51598715D01*
X120571548Y-51598716D01*
X120571547Y-51598717D01*
X120411589Y-51729989D01*
X120280317Y-51889947D01*
X120182767Y-52072446D01*
X120162593Y-52138952D01*
X120124296Y-52197390D01*
X120060483Y-52225847D01*
X119991416Y-52215286D01*
X119939023Y-52169061D01*
X119924158Y-52135049D01*
X119891433Y-52012916D01*
X119891429Y-52012907D01*
X119791601Y-51798824D01*
X119732925Y-51715026D01*
X119100962Y-52346990D01*
X119083925Y-52283407D01*
X119018099Y-52169393D01*
X118925007Y-52076301D01*
X118810993Y-52010475D01*
X118747409Y-51993437D01*
X119379372Y-51361473D01*
X119295576Y-51302798D01*
X119081492Y-51202970D01*
X119081483Y-51202966D01*
X118853326Y-51141832D01*
X118853315Y-51141830D01*
X118618002Y-51121243D01*
X118617998Y-51121243D01*
X118382684Y-51141830D01*
X118382673Y-51141832D01*
X118154516Y-51202966D01*
X118154507Y-51202970D01*
X117940423Y-51302799D01*
X117940421Y-51302800D01*
X117856627Y-51361473D01*
X117856626Y-51361473D01*
X118488591Y-51993437D01*
X118425007Y-52010475D01*
X118310993Y-52076301D01*
X118217901Y-52169393D01*
X118152075Y-52283407D01*
X118135037Y-52346991D01*
X117503073Y-51715026D01*
X117503073Y-51715027D01*
X117444400Y-51798821D01*
X117444399Y-51798823D01*
X117344570Y-52012907D01*
X117344567Y-52012914D01*
X117311841Y-52135050D01*
X117275476Y-52194710D01*
X117212629Y-52225239D01*
X117143253Y-52216944D01*
X117089375Y-52172459D01*
X117073406Y-52138952D01*
X117053232Y-52072446D01*
X116955685Y-51889950D01*
X116903702Y-51826609D01*
X116824410Y-51729989D01*
X116664452Y-51598717D01*
X116664453Y-51598717D01*
X116664450Y-51598715D01*
X116481954Y-51501168D01*
X116283934Y-51441100D01*
X116283932Y-51441099D01*
X116283934Y-51441099D01*
X116078000Y-51420817D01*
X115872067Y-51441099D01*
X115674043Y-51501169D01*
X115563898Y-51560043D01*
X115491550Y-51598715D01*
X115491548Y-51598716D01*
X115491547Y-51598717D01*
X115331589Y-51729989D01*
X115200317Y-51889947D01*
X115102769Y-52072443D01*
X115042699Y-52270467D01*
X115022417Y-52476400D01*
X115042699Y-52682332D01*
X115056235Y-52726953D01*
X115102768Y-52880354D01*
X115200315Y-53062850D01*
X115200317Y-53062852D01*
X115331589Y-53222810D01*
X115395458Y-53275225D01*
X115491550Y-53354085D01*
X115674046Y-53451632D01*
X115872066Y-53511700D01*
X115872065Y-53511700D01*
X115890529Y-53513518D01*
X116078000Y-53531983D01*
X116283934Y-53511700D01*
X116418006Y-53471029D01*
X116487872Y-53470406D01*
X116541682Y-53502009D01*
X116986181Y-53946508D01*
X117019666Y-54007831D01*
X117022500Y-54034189D01*
X117022500Y-54170381D01*
X117002815Y-54237420D01*
X116950011Y-54283175D01*
X116880853Y-54293119D01*
X116819836Y-54266235D01*
X116664453Y-54138717D01*
X116664451Y-54138716D01*
X116664450Y-54138715D01*
X116481954Y-54041168D01*
X116283934Y-53981100D01*
X116283932Y-53981099D01*
X116283934Y-53981099D01*
X116078000Y-53960817D01*
X115872067Y-53981099D01*
X115737736Y-54021848D01*
X115674050Y-54041167D01*
X115674043Y-54041169D01*
X115586116Y-54088168D01*
X115491550Y-54138715D01*
X115491548Y-54138716D01*
X115491547Y-54138717D01*
X115331589Y-54269989D01*
X115200317Y-54429947D01*
X115102767Y-54612446D01*
X115082593Y-54678952D01*
X115044296Y-54737390D01*
X114980483Y-54765847D01*
X114911416Y-54755286D01*
X114859023Y-54709061D01*
X114844158Y-54675049D01*
X114811433Y-54552916D01*
X114811429Y-54552907D01*
X114711601Y-54338824D01*
X114652925Y-54255026D01*
X114020962Y-54886990D01*
X114003925Y-54823407D01*
X113938099Y-54709393D01*
X113845007Y-54616301D01*
X113730993Y-54550475D01*
X113667409Y-54533437D01*
X114299372Y-53901473D01*
X114215576Y-53842798D01*
X114001492Y-53742970D01*
X114001486Y-53742967D01*
X113879349Y-53710241D01*
X113819689Y-53673876D01*
X113789160Y-53611029D01*
X113797455Y-53541653D01*
X113841940Y-53487775D01*
X113875444Y-53471807D01*
X113941954Y-53451632D01*
X114124450Y-53354085D01*
X114284410Y-53222810D01*
X114415685Y-53062850D01*
X114513232Y-52880354D01*
X114573300Y-52682334D01*
X114593583Y-52476400D01*
X114573300Y-52270466D01*
X114513232Y-52072446D01*
X114415685Y-51889950D01*
X114363702Y-51826609D01*
X114284410Y-51729989D01*
X114124452Y-51598717D01*
X114124453Y-51598717D01*
X114124450Y-51598715D01*
X113941954Y-51501168D01*
X113743934Y-51441100D01*
X113743932Y-51441099D01*
X113743934Y-51441099D01*
X113538000Y-51420817D01*
X113332067Y-51441099D01*
X113134043Y-51501169D01*
X113023898Y-51560043D01*
X112951550Y-51598715D01*
X112951548Y-51598716D01*
X112951547Y-51598717D01*
X112791589Y-51729989D01*
X112660317Y-51889947D01*
X112562769Y-52072443D01*
X112502699Y-52270467D01*
X112482417Y-52476400D01*
X112502699Y-52682332D01*
X112516235Y-52726953D01*
X112562768Y-52880354D01*
X112660315Y-53062850D01*
X112660317Y-53062852D01*
X112791589Y-53222810D01*
X112855458Y-53275225D01*
X112951550Y-53354085D01*
X113134046Y-53451632D01*
X113200551Y-53471805D01*
X113258989Y-53510102D01*
X113287446Y-53573914D01*
X113276887Y-53642981D01*
X113230663Y-53695375D01*
X113196650Y-53710241D01*
X113074514Y-53742967D01*
X113074507Y-53742970D01*
X112860423Y-53842799D01*
X112860421Y-53842800D01*
X112776627Y-53901473D01*
X112776626Y-53901473D01*
X113408591Y-54533437D01*
X113345007Y-54550475D01*
X113230993Y-54616301D01*
X113137901Y-54709393D01*
X113072075Y-54823407D01*
X113055037Y-54886990D01*
X112423073Y-54255026D01*
X112423073Y-54255027D01*
X112364400Y-54338821D01*
X112364399Y-54338823D01*
X112264570Y-54552907D01*
X112264567Y-54552914D01*
X112231841Y-54675050D01*
X112195476Y-54734710D01*
X112132629Y-54765239D01*
X112063253Y-54756944D01*
X112009375Y-54712459D01*
X111993406Y-54678952D01*
X111973232Y-54612446D01*
X111875685Y-54429950D01*
X111823702Y-54366609D01*
X111744410Y-54269989D01*
X111594121Y-54146652D01*
X111584450Y-54138715D01*
X111401954Y-54041168D01*
X111203934Y-53981100D01*
X111203932Y-53981099D01*
X111203934Y-53981099D01*
X110998000Y-53960817D01*
X110792067Y-53981099D01*
X110657736Y-54021848D01*
X110594050Y-54041167D01*
X110594043Y-54041169D01*
X110506116Y-54088168D01*
X110411550Y-54138715D01*
X110411548Y-54138716D01*
X110411547Y-54138717D01*
X110251589Y-54269989D01*
X110120317Y-54429947D01*
X110022769Y-54612443D01*
X109962699Y-54810467D01*
X109942417Y-55016400D01*
X109513583Y-55016400D01*
X109493300Y-54810466D01*
X109433232Y-54612446D01*
X109335685Y-54429950D01*
X109283702Y-54366609D01*
X109204410Y-54269989D01*
X109054121Y-54146652D01*
X109044450Y-54138715D01*
X108861954Y-54041168D01*
X108663934Y-53981100D01*
X108663932Y-53981099D01*
X108663934Y-53981099D01*
X108458000Y-53960817D01*
X108252067Y-53981099D01*
X108117736Y-54021848D01*
X108054050Y-54041167D01*
X108054043Y-54041169D01*
X107966116Y-54088168D01*
X107871550Y-54138715D01*
X107871548Y-54138716D01*
X107871547Y-54138717D01*
X107711589Y-54269989D01*
X107580317Y-54429947D01*
X107482769Y-54612443D01*
X107422699Y-54810467D01*
X107402417Y-55016400D01*
X106973583Y-55016400D01*
X106953300Y-54810466D01*
X106893232Y-54612446D01*
X106795685Y-54429950D01*
X106743702Y-54366609D01*
X106664410Y-54269989D01*
X106514121Y-54146652D01*
X106504450Y-54138715D01*
X106321954Y-54041168D01*
X106255447Y-54020993D01*
X106197009Y-53982696D01*
X106168553Y-53918884D01*
X106179113Y-53849817D01*
X106225337Y-53797423D01*
X106259350Y-53782558D01*
X106381483Y-53749833D01*
X106381492Y-53749829D01*
X106595580Y-53649999D01*
X106679371Y-53591325D01*
X106047408Y-52959362D01*
X106110993Y-52942325D01*
X106225007Y-52876499D01*
X106318099Y-52783407D01*
X106383925Y-52669393D01*
X106400962Y-52605808D01*
X107032925Y-53237771D01*
X107091599Y-53153980D01*
X107191429Y-52939892D01*
X107191433Y-52939883D01*
X107224158Y-52817750D01*
X107260522Y-52758090D01*
X107323369Y-52727560D01*
X107392745Y-52735854D01*
X107446623Y-52780339D01*
X107462593Y-52813847D01*
X107482768Y-52880354D01*
X107580315Y-53062850D01*
X107580317Y-53062852D01*
X107711589Y-53222810D01*
X107775458Y-53275225D01*
X107871550Y-53354085D01*
X108054046Y-53451632D01*
X108252066Y-53511700D01*
X108252065Y-53511700D01*
X108270529Y-53513518D01*
X108458000Y-53531983D01*
X108663934Y-53511700D01*
X108861954Y-53451632D01*
X109044450Y-53354085D01*
X109204410Y-53222810D01*
X109335685Y-53062850D01*
X109433232Y-52880354D01*
X109493300Y-52682334D01*
X109513583Y-52476400D01*
X109942417Y-52476400D01*
X109962699Y-52682332D01*
X109976235Y-52726953D01*
X110022768Y-52880354D01*
X110120315Y-53062850D01*
X110120317Y-53062852D01*
X110251589Y-53222810D01*
X110315458Y-53275225D01*
X110411550Y-53354085D01*
X110594046Y-53451632D01*
X110792066Y-53511700D01*
X110792065Y-53511700D01*
X110810529Y-53513518D01*
X110998000Y-53531983D01*
X111203934Y-53511700D01*
X111401954Y-53451632D01*
X111584450Y-53354085D01*
X111744410Y-53222810D01*
X111875685Y-53062850D01*
X111973232Y-52880354D01*
X112033300Y-52682334D01*
X112053583Y-52476400D01*
X112033300Y-52270466D01*
X111973232Y-52072446D01*
X111875685Y-51889950D01*
X111823702Y-51826609D01*
X111744410Y-51729989D01*
X111584452Y-51598717D01*
X111584453Y-51598717D01*
X111584450Y-51598715D01*
X111401954Y-51501168D01*
X111203934Y-51441100D01*
X111203932Y-51441099D01*
X111203934Y-51441099D01*
X110998000Y-51420817D01*
X110792067Y-51441099D01*
X110594043Y-51501169D01*
X110483898Y-51560043D01*
X110411550Y-51598715D01*
X110411548Y-51598716D01*
X110411547Y-51598717D01*
X110251589Y-51729989D01*
X110120317Y-51889947D01*
X110022769Y-52072443D01*
X109962699Y-52270467D01*
X109942417Y-52476400D01*
X109513583Y-52476400D01*
X109493300Y-52270466D01*
X109433232Y-52072446D01*
X109335685Y-51889950D01*
X109283702Y-51826609D01*
X109204410Y-51729989D01*
X109044452Y-51598717D01*
X109044453Y-51598717D01*
X109044450Y-51598715D01*
X108861954Y-51501168D01*
X108663934Y-51441100D01*
X108663932Y-51441099D01*
X108663934Y-51441099D01*
X108458000Y-51420817D01*
X108252067Y-51441099D01*
X108054043Y-51501169D01*
X107943898Y-51560043D01*
X107871550Y-51598715D01*
X107871548Y-51598716D01*
X107871547Y-51598717D01*
X107711589Y-51729989D01*
X107580317Y-51889947D01*
X107482767Y-52072446D01*
X107462593Y-52138952D01*
X107424296Y-52197390D01*
X107360483Y-52225847D01*
X107291416Y-52215286D01*
X107239023Y-52169061D01*
X107224158Y-52135049D01*
X107191433Y-52012916D01*
X107191429Y-52012907D01*
X107091601Y-51798824D01*
X107032925Y-51715026D01*
X106400962Y-52346990D01*
X106383925Y-52283407D01*
X106318099Y-52169393D01*
X106225007Y-52076301D01*
X106110993Y-52010475D01*
X106047409Y-51993437D01*
X106679372Y-51361473D01*
X106595576Y-51302798D01*
X106381492Y-51202970D01*
X106381483Y-51202966D01*
X106153326Y-51141832D01*
X106153315Y-51141830D01*
X105918002Y-51121243D01*
X105917998Y-51121243D01*
X105682684Y-51141830D01*
X105682673Y-51141832D01*
X105454516Y-51202966D01*
X105454507Y-51202970D01*
X105240423Y-51302799D01*
X105240421Y-51302800D01*
X105156627Y-51361473D01*
X105156626Y-51361473D01*
X105788591Y-51993437D01*
X105725007Y-52010475D01*
X105610993Y-52076301D01*
X105517901Y-52169393D01*
X105452075Y-52283407D01*
X105435037Y-52346990D01*
X104803073Y-51715026D01*
X104803073Y-51715027D01*
X104744400Y-51798821D01*
X104744399Y-51798823D01*
X104644570Y-52012907D01*
X104644567Y-52012914D01*
X104611841Y-52135050D01*
X104575476Y-52194710D01*
X104512629Y-52225239D01*
X104443253Y-52216944D01*
X104389375Y-52172459D01*
X104373406Y-52138952D01*
X104353232Y-52072446D01*
X104255685Y-51889950D01*
X104203702Y-51826609D01*
X104124410Y-51729989D01*
X103964452Y-51598717D01*
X103964453Y-51598717D01*
X103964450Y-51598715D01*
X103781954Y-51501168D01*
X103583934Y-51441100D01*
X103583932Y-51441099D01*
X103583934Y-51441099D01*
X103378000Y-51420817D01*
X103172067Y-51441099D01*
X102974043Y-51501169D01*
X102863898Y-51560043D01*
X102791550Y-51598715D01*
X102791548Y-51598716D01*
X102791547Y-51598717D01*
X102631589Y-51729989D01*
X102500317Y-51889947D01*
X102402769Y-52072443D01*
X102342699Y-52270467D01*
X102322417Y-52476400D01*
X101893583Y-52476400D01*
X101873300Y-52270466D01*
X101813232Y-52072446D01*
X101715685Y-51889950D01*
X101663702Y-51826609D01*
X101584410Y-51729989D01*
X101424452Y-51598717D01*
X101424453Y-51598717D01*
X101424450Y-51598715D01*
X101241954Y-51501168D01*
X101043934Y-51441100D01*
X101043932Y-51441099D01*
X101043934Y-51441099D01*
X100838000Y-51420817D01*
X100632067Y-51441099D01*
X100434043Y-51501169D01*
X100323898Y-51560043D01*
X100251550Y-51598715D01*
X100251548Y-51598716D01*
X100251547Y-51598717D01*
X100091589Y-51729989D01*
X99960317Y-51889947D01*
X99862767Y-52072446D01*
X99842593Y-52138952D01*
X99804296Y-52197390D01*
X99740483Y-52225847D01*
X99671416Y-52215286D01*
X99619023Y-52169061D01*
X99604158Y-52135049D01*
X99571433Y-52012916D01*
X99571429Y-52012907D01*
X99471601Y-51798824D01*
X99412925Y-51715026D01*
X98780962Y-52346990D01*
X98763925Y-52283407D01*
X98698099Y-52169393D01*
X98605007Y-52076301D01*
X98490993Y-52010475D01*
X98427409Y-51993437D01*
X99059372Y-51361473D01*
X98975576Y-51302798D01*
X98761492Y-51202970D01*
X98761483Y-51202966D01*
X98533326Y-51141832D01*
X98533315Y-51141830D01*
X98298002Y-51121243D01*
X98297998Y-51121243D01*
X98062684Y-51141830D01*
X98062673Y-51141832D01*
X97834516Y-51202966D01*
X97834507Y-51202970D01*
X97620423Y-51302799D01*
X97620421Y-51302800D01*
X97536627Y-51361473D01*
X97536626Y-51361473D01*
X98168591Y-51993437D01*
X98105007Y-52010475D01*
X97990993Y-52076301D01*
X97897901Y-52169393D01*
X97832075Y-52283407D01*
X97815037Y-52346990D01*
X97183073Y-51715026D01*
X97183073Y-51715027D01*
X97124400Y-51798821D01*
X97124399Y-51798823D01*
X97024570Y-52012907D01*
X97024567Y-52012914D01*
X96991841Y-52135050D01*
X96955476Y-52194710D01*
X96892629Y-52225239D01*
X96823253Y-52216944D01*
X96769375Y-52172459D01*
X96753406Y-52138952D01*
X96733232Y-52072446D01*
X96635685Y-51889950D01*
X96583702Y-51826609D01*
X96504410Y-51729989D01*
X96344452Y-51598717D01*
X96344453Y-51598717D01*
X96344450Y-51598715D01*
X96161954Y-51501168D01*
X95963934Y-51441100D01*
X95963932Y-51441099D01*
X95963934Y-51441099D01*
X95758000Y-51420817D01*
X95552067Y-51441099D01*
X95354043Y-51501169D01*
X95243898Y-51560043D01*
X95171550Y-51598715D01*
X95171548Y-51598716D01*
X95171547Y-51598717D01*
X95011589Y-51729989D01*
X94880317Y-51889947D01*
X94782769Y-52072443D01*
X94722699Y-52270467D01*
X94702417Y-52476400D01*
X94273583Y-52476400D01*
X94253300Y-52270466D01*
X94193232Y-52072446D01*
X94095685Y-51889950D01*
X94043702Y-51826609D01*
X93964410Y-51729989D01*
X93804452Y-51598717D01*
X93804453Y-51598717D01*
X93804450Y-51598715D01*
X93621954Y-51501168D01*
X93423934Y-51441100D01*
X93423932Y-51441099D01*
X93423934Y-51441099D01*
X93218000Y-51420817D01*
X93012067Y-51441099D01*
X92814043Y-51501169D01*
X92703898Y-51560043D01*
X92631550Y-51598715D01*
X92631548Y-51598716D01*
X92631547Y-51598717D01*
X92471589Y-51729989D01*
X92340317Y-51889947D01*
X92242769Y-52072443D01*
X92182699Y-52270467D01*
X92162417Y-52476400D01*
X92182699Y-52682332D01*
X92196235Y-52726953D01*
X92242768Y-52880354D01*
X92340315Y-53062850D01*
X92340317Y-53062852D01*
X92471589Y-53222810D01*
X92535458Y-53275225D01*
X92631550Y-53354085D01*
X92814046Y-53451632D01*
X92880551Y-53471805D01*
X92938989Y-53510102D01*
X92967446Y-53573914D01*
X92956887Y-53642981D01*
X92910663Y-53695375D01*
X92876650Y-53710241D01*
X92754514Y-53742967D01*
X92754507Y-53742970D01*
X92540423Y-53842799D01*
X92540421Y-53842800D01*
X92456627Y-53901473D01*
X92456626Y-53901473D01*
X93088591Y-54533437D01*
X93025007Y-54550475D01*
X92910993Y-54616301D01*
X92817901Y-54709393D01*
X92752075Y-54823407D01*
X92735037Y-54886990D01*
X92103073Y-54255026D01*
X92103073Y-54255027D01*
X92044400Y-54338821D01*
X92044399Y-54338823D01*
X91944570Y-54552907D01*
X91944567Y-54552914D01*
X91911841Y-54675050D01*
X91875476Y-54734710D01*
X91812629Y-54765239D01*
X91743253Y-54756944D01*
X91689375Y-54712459D01*
X91673406Y-54678952D01*
X91653232Y-54612446D01*
X91555685Y-54429950D01*
X91503702Y-54366609D01*
X91424410Y-54269989D01*
X91274121Y-54146652D01*
X91264450Y-54138715D01*
X91081954Y-54041168D01*
X90883934Y-53981100D01*
X90883932Y-53981099D01*
X90883934Y-53981099D01*
X90678000Y-53960817D01*
X90472067Y-53981099D01*
X90337736Y-54021848D01*
X90274050Y-54041167D01*
X90274043Y-54041169D01*
X90186116Y-54088168D01*
X90091550Y-54138715D01*
X90091548Y-54138716D01*
X90091547Y-54138717D01*
X89931589Y-54269989D01*
X89800317Y-54429947D01*
X89702769Y-54612443D01*
X89642699Y-54810467D01*
X89622417Y-55016400D01*
X89193583Y-55016400D01*
X89173300Y-54810466D01*
X89113232Y-54612446D01*
X89015685Y-54429950D01*
X88963702Y-54366609D01*
X88884410Y-54269989D01*
X88734121Y-54146652D01*
X88724450Y-54138715D01*
X88541954Y-54041168D01*
X88475447Y-54020993D01*
X88417009Y-53982696D01*
X88388553Y-53918884D01*
X88399113Y-53849817D01*
X88445337Y-53797423D01*
X88479350Y-53782558D01*
X88601483Y-53749833D01*
X88601492Y-53749829D01*
X88815580Y-53649999D01*
X88899371Y-53591325D01*
X88267408Y-52959362D01*
X88330993Y-52942325D01*
X88445007Y-52876499D01*
X88538099Y-52783407D01*
X88603925Y-52669393D01*
X88620962Y-52605808D01*
X89252925Y-53237771D01*
X89311599Y-53153980D01*
X89411429Y-52939892D01*
X89411433Y-52939883D01*
X89444158Y-52817750D01*
X89480522Y-52758090D01*
X89543369Y-52727560D01*
X89612745Y-52735854D01*
X89666623Y-52780339D01*
X89682593Y-52813847D01*
X89702768Y-52880354D01*
X89800315Y-53062850D01*
X89800317Y-53062852D01*
X89931589Y-53222810D01*
X89995458Y-53275225D01*
X90091550Y-53354085D01*
X90274046Y-53451632D01*
X90472066Y-53511700D01*
X90472065Y-53511700D01*
X90490529Y-53513518D01*
X90678000Y-53531983D01*
X90883934Y-53511700D01*
X91081954Y-53451632D01*
X91264450Y-53354085D01*
X91424410Y-53222810D01*
X91555685Y-53062850D01*
X91653232Y-52880354D01*
X91713300Y-52682334D01*
X91733583Y-52476400D01*
X91713300Y-52270466D01*
X91653232Y-52072446D01*
X91555685Y-51889950D01*
X91503702Y-51826609D01*
X91424410Y-51729989D01*
X91264452Y-51598717D01*
X91264453Y-51598717D01*
X91264450Y-51598715D01*
X91081954Y-51501168D01*
X90883934Y-51441100D01*
X90883932Y-51441099D01*
X90883934Y-51441099D01*
X90678000Y-51420817D01*
X90472067Y-51441099D01*
X90274043Y-51501169D01*
X90163898Y-51560043D01*
X90091550Y-51598715D01*
X90091548Y-51598716D01*
X90091547Y-51598717D01*
X89931589Y-51729989D01*
X89800317Y-51889947D01*
X89702767Y-52072446D01*
X89682593Y-52138952D01*
X89644296Y-52197390D01*
X89580483Y-52225847D01*
X89511416Y-52215286D01*
X89459023Y-52169061D01*
X89444158Y-52135049D01*
X89411433Y-52012916D01*
X89411429Y-52012907D01*
X89311601Y-51798824D01*
X89252925Y-51715026D01*
X88620962Y-52346990D01*
X88603925Y-52283407D01*
X88538099Y-52169393D01*
X88445007Y-52076301D01*
X88330993Y-52010475D01*
X88267409Y-51993437D01*
X88899372Y-51361473D01*
X88815576Y-51302798D01*
X88601492Y-51202970D01*
X88601483Y-51202966D01*
X88373326Y-51141832D01*
X88373315Y-51141830D01*
X88138002Y-51121243D01*
X88137998Y-51121243D01*
X87902684Y-51141830D01*
X87902673Y-51141832D01*
X87674516Y-51202966D01*
X87674507Y-51202970D01*
X87460423Y-51302799D01*
X87460421Y-51302800D01*
X87376627Y-51361473D01*
X87376626Y-51361473D01*
X88008591Y-51993437D01*
X87945007Y-52010475D01*
X87830993Y-52076301D01*
X87737901Y-52169393D01*
X87672075Y-52283407D01*
X87655037Y-52346990D01*
X87023073Y-51715026D01*
X87023073Y-51715027D01*
X86964400Y-51798821D01*
X86964399Y-51798823D01*
X86864570Y-52012907D01*
X86864567Y-52012914D01*
X86831841Y-52135050D01*
X86795476Y-52194710D01*
X86732629Y-52225239D01*
X86663253Y-52216944D01*
X86609375Y-52172459D01*
X86593406Y-52138952D01*
X86573232Y-52072446D01*
X86475685Y-51889950D01*
X86423702Y-51826609D01*
X86344410Y-51729989D01*
X86184452Y-51598717D01*
X86184453Y-51598717D01*
X86184450Y-51598715D01*
X86001954Y-51501168D01*
X85803934Y-51441100D01*
X85803932Y-51441099D01*
X85803934Y-51441099D01*
X85598000Y-51420817D01*
X85392067Y-51441099D01*
X85194043Y-51501169D01*
X85083898Y-51560043D01*
X85011550Y-51598715D01*
X85011548Y-51598716D01*
X85011547Y-51598717D01*
X84851589Y-51729989D01*
X84720317Y-51889947D01*
X84622769Y-52072443D01*
X84562699Y-52270467D01*
X84542417Y-52476400D01*
X84113583Y-52476400D01*
X84093300Y-52270466D01*
X84033232Y-52072446D01*
X83935685Y-51889950D01*
X83883702Y-51826609D01*
X83804410Y-51729989D01*
X83644452Y-51598717D01*
X83644453Y-51598717D01*
X83644450Y-51598715D01*
X83461954Y-51501168D01*
X83263934Y-51441100D01*
X83263932Y-51441099D01*
X83263934Y-51441099D01*
X83058000Y-51420817D01*
X82852067Y-51441099D01*
X82654043Y-51501169D01*
X82543898Y-51560043D01*
X82471550Y-51598715D01*
X82471548Y-51598716D01*
X82471547Y-51598717D01*
X82311589Y-51729989D01*
X82180317Y-51889947D01*
X82082769Y-52072443D01*
X82082769Y-52072444D01*
X82082768Y-52072446D01*
X82062594Y-52138952D01*
X82023161Y-52268946D01*
X81984863Y-52327385D01*
X81921051Y-52355841D01*
X81851984Y-52345281D01*
X81799590Y-52299057D01*
X81780500Y-52232951D01*
X81780500Y-50916500D01*
X81800185Y-50849461D01*
X81852989Y-50803706D01*
X81904500Y-50792500D01*
X132979500Y-50792500D01*
X133046539Y-50812185D01*
G37*
G04 #@! TD.AperFunction*
G04 #@! TA.AperFunction,Conductor*
G36*
X128897493Y-68519685D02*
G01*
X128920554Y-68541303D01*
X128921279Y-68540579D01*
X128927848Y-68547148D01*
X128927849Y-68547148D01*
X128927850Y-68547150D01*
X129037118Y-68627793D01*
X129079845Y-68642744D01*
X129165299Y-68672646D01*
X129195730Y-68675500D01*
X129195734Y-68675500D01*
X130104270Y-68675500D01*
X130134699Y-68672646D01*
X130134701Y-68672646D01*
X130198790Y-68650219D01*
X130262882Y-68627793D01*
X130372150Y-68547150D01*
X130372152Y-68547146D01*
X130378721Y-68540579D01*
X130380424Y-68542282D01*
X130425423Y-68508116D01*
X130469546Y-68500000D01*
X132979500Y-68500000D01*
X133046539Y-68519685D01*
X133092294Y-68572489D01*
X133103500Y-68624000D01*
X133103500Y-70559659D01*
X133083815Y-70626698D01*
X133031011Y-70672453D01*
X132961853Y-70682397D01*
X132900048Y-70654171D01*
X132899799Y-70654476D01*
X132898650Y-70653533D01*
X132898297Y-70653372D01*
X132897132Y-70652287D01*
X132895088Y-70650610D01*
X132763985Y-70563009D01*
X132763972Y-70563002D01*
X132618301Y-70502664D01*
X132618289Y-70502661D01*
X132463645Y-70471900D01*
X132463642Y-70471900D01*
X132305958Y-70471900D01*
X132305955Y-70471900D01*
X132151310Y-70502661D01*
X132151298Y-70502664D01*
X132005627Y-70563002D01*
X132005614Y-70563009D01*
X131874511Y-70650610D01*
X131874507Y-70650613D01*
X131763013Y-70762107D01*
X131763010Y-70762111D01*
X131675409Y-70893214D01*
X131675404Y-70893224D01*
X131646612Y-70962735D01*
X131602771Y-71017138D01*
X131536477Y-71039203D01*
X131468777Y-71021924D01*
X131421167Y-70970786D01*
X131411477Y-70944228D01*
X131371196Y-70776444D01*
X131274819Y-70543768D01*
X131143229Y-70329034D01*
X131142533Y-70328219D01*
X131142532Y-70328219D01*
X130368587Y-71102164D01*
X130357318Y-71060108D01*
X130284910Y-70934692D01*
X130182508Y-70832290D01*
X130057092Y-70759882D01*
X130015032Y-70748612D01*
X130788979Y-69974666D01*
X130788162Y-69973968D01*
X130573431Y-69842380D01*
X130340756Y-69746003D01*
X130095872Y-69687212D01*
X129844800Y-69667452D01*
X129593727Y-69687212D01*
X129348843Y-69746003D01*
X129116168Y-69842380D01*
X128901437Y-69973967D01*
X128900618Y-69974666D01*
X129674565Y-70748612D01*
X129632508Y-70759882D01*
X129507092Y-70832290D01*
X129404690Y-70934692D01*
X129332282Y-71060108D01*
X129321012Y-71102165D01*
X128547066Y-70328218D01*
X128546367Y-70329037D01*
X128414780Y-70543768D01*
X128318403Y-70776443D01*
X128259612Y-71021327D01*
X128239852Y-71272400D01*
X128259612Y-71523472D01*
X128318403Y-71768356D01*
X128414780Y-72001031D01*
X128546368Y-72215762D01*
X128547066Y-72216579D01*
X129321012Y-71442633D01*
X129332282Y-71484692D01*
X129404690Y-71610108D01*
X129507092Y-71712510D01*
X129632508Y-71784918D01*
X129674565Y-71796187D01*
X128995172Y-72475581D01*
X128933849Y-72509066D01*
X128907491Y-72511900D01*
X128725047Y-72511900D01*
X128666570Y-72523531D01*
X128666569Y-72523532D01*
X128600247Y-72567847D01*
X128555932Y-72634169D01*
X128555931Y-72634170D01*
X128544300Y-72692647D01*
X128544300Y-74932152D01*
X128555931Y-74990629D01*
X128555932Y-74990630D01*
X128600247Y-75056952D01*
X128666569Y-75101267D01*
X128666570Y-75101268D01*
X128725047Y-75112899D01*
X128725050Y-75112900D01*
X128725052Y-75112900D01*
X130964550Y-75112900D01*
X130964551Y-75112899D01*
X130979368Y-75109952D01*
X131023029Y-75101268D01*
X131023029Y-75101267D01*
X131023031Y-75101267D01*
X131089352Y-75056952D01*
X131133667Y-74990631D01*
X131133667Y-74990629D01*
X131133668Y-74990629D01*
X131145299Y-74932152D01*
X131145300Y-74932150D01*
X131145300Y-72692649D01*
X131145299Y-72692647D01*
X131133668Y-72634170D01*
X131133667Y-72634169D01*
X131089352Y-72567847D01*
X131023030Y-72523532D01*
X131023029Y-72523531D01*
X130964552Y-72511900D01*
X130964548Y-72511900D01*
X130782109Y-72511900D01*
X130715070Y-72492215D01*
X130694428Y-72475581D01*
X130015034Y-71796187D01*
X130057092Y-71784918D01*
X130182508Y-71712510D01*
X130284910Y-71610108D01*
X130357318Y-71484692D01*
X130368587Y-71442635D01*
X131142532Y-72216580D01*
X131143230Y-72215763D01*
X131143232Y-72215761D01*
X131274819Y-72001031D01*
X131371196Y-71768355D01*
X131411477Y-71600571D01*
X131446267Y-71539979D01*
X131508293Y-71507814D01*
X131577862Y-71514290D01*
X131632886Y-71557349D01*
X131646612Y-71582065D01*
X131675402Y-71651572D01*
X131675409Y-71651585D01*
X131763010Y-71782688D01*
X131763013Y-71782692D01*
X131874507Y-71894186D01*
X131874511Y-71894189D01*
X132005614Y-71981790D01*
X132005627Y-71981797D01*
X132089409Y-72016500D01*
X132151303Y-72042137D01*
X132305953Y-72072899D01*
X132305956Y-72072900D01*
X132305958Y-72072900D01*
X132463644Y-72072900D01*
X132463645Y-72072899D01*
X132618297Y-72042137D01*
X132763979Y-71981794D01*
X132895089Y-71894189D01*
X132895093Y-71894184D01*
X132899799Y-71890324D01*
X132901373Y-71892242D01*
X132953142Y-71863975D01*
X133022834Y-71868959D01*
X133078767Y-71910831D01*
X133103184Y-71976295D01*
X133103500Y-71985141D01*
X133103500Y-73099659D01*
X133083815Y-73166698D01*
X133031011Y-73212453D01*
X132961853Y-73222397D01*
X132900048Y-73194171D01*
X132899799Y-73194476D01*
X132898650Y-73193533D01*
X132898297Y-73193372D01*
X132897132Y-73192287D01*
X132895088Y-73190610D01*
X132763985Y-73103009D01*
X132763972Y-73103002D01*
X132618301Y-73042664D01*
X132618289Y-73042661D01*
X132463645Y-73011900D01*
X132463642Y-73011900D01*
X132305958Y-73011900D01*
X132305955Y-73011900D01*
X132151310Y-73042661D01*
X132151298Y-73042664D01*
X132005627Y-73103002D01*
X132005614Y-73103009D01*
X131874511Y-73190610D01*
X131874507Y-73190613D01*
X131763013Y-73302107D01*
X131763010Y-73302111D01*
X131675409Y-73433214D01*
X131675402Y-73433227D01*
X131615064Y-73578898D01*
X131615061Y-73578910D01*
X131584300Y-73733553D01*
X131584300Y-73891246D01*
X131615061Y-74045889D01*
X131615064Y-74045901D01*
X131675402Y-74191572D01*
X131675409Y-74191585D01*
X131763010Y-74322688D01*
X131763013Y-74322692D01*
X131874507Y-74434186D01*
X131874511Y-74434189D01*
X132005614Y-74521790D01*
X132005627Y-74521797D01*
X132151298Y-74582135D01*
X132151303Y-74582137D01*
X132305953Y-74612899D01*
X132305956Y-74612900D01*
X132305958Y-74612900D01*
X132463644Y-74612900D01*
X132463645Y-74612899D01*
X132618297Y-74582137D01*
X132763979Y-74521794D01*
X132895089Y-74434189D01*
X132895093Y-74434184D01*
X132899799Y-74430324D01*
X132901373Y-74432242D01*
X132953142Y-74403975D01*
X133022834Y-74408959D01*
X133078767Y-74450831D01*
X133103184Y-74516295D01*
X133103500Y-74525141D01*
X133103500Y-79667500D01*
X133083815Y-79734539D01*
X133031011Y-79780294D01*
X132979500Y-79791500D01*
X132638741Y-79791500D01*
X132571702Y-79771815D01*
X132525947Y-79719011D01*
X132516003Y-79649853D01*
X132545028Y-79586297D01*
X132571702Y-79563184D01*
X132665128Y-79503143D01*
X132759377Y-79394373D01*
X132819165Y-79263457D01*
X132839647Y-79121000D01*
X132819165Y-78978543D01*
X132759377Y-78847627D01*
X132665128Y-78738857D01*
X132544053Y-78661047D01*
X132544051Y-78661046D01*
X132544049Y-78661045D01*
X132544050Y-78661045D01*
X132405963Y-78620500D01*
X132405961Y-78620500D01*
X132262039Y-78620500D01*
X132262036Y-78620500D01*
X132123949Y-78661045D01*
X132002873Y-78738856D01*
X131908623Y-78847626D01*
X131908622Y-78847628D01*
X131848834Y-78978543D01*
X131828353Y-79121000D01*
X131848834Y-79263456D01*
X131881310Y-79334567D01*
X131908623Y-79394373D01*
X132002872Y-79503143D01*
X132096298Y-79563184D01*
X132142053Y-79615988D01*
X132151997Y-79685147D01*
X132122972Y-79748703D01*
X132064194Y-79786477D01*
X132029259Y-79791500D01*
X81904500Y-79791500D01*
X81837461Y-79771815D01*
X81791706Y-79719011D01*
X81780500Y-79667500D01*
X81780500Y-78000000D01*
X82044417Y-78000000D01*
X82064699Y-78205932D01*
X82064700Y-78205934D01*
X82124768Y-78403954D01*
X82222315Y-78586450D01*
X82222317Y-78586452D01*
X82353589Y-78746410D01*
X82371821Y-78761372D01*
X82513550Y-78877685D01*
X82696046Y-78975232D01*
X82894066Y-79035300D01*
X82894065Y-79035300D01*
X82912529Y-79037118D01*
X83100000Y-79055583D01*
X83305934Y-79035300D01*
X83503954Y-78975232D01*
X83686450Y-78877685D01*
X83846410Y-78746410D01*
X83977685Y-78586450D01*
X84075232Y-78403954D01*
X84095406Y-78337446D01*
X84133702Y-78279010D01*
X84197514Y-78250553D01*
X84266581Y-78261112D01*
X84318975Y-78307336D01*
X84333841Y-78341349D01*
X84366567Y-78463486D01*
X84366570Y-78463492D01*
X84466398Y-78677576D01*
X84525073Y-78761372D01*
X85157037Y-78129408D01*
X85174075Y-78192993D01*
X85239901Y-78307007D01*
X85332993Y-78400099D01*
X85447007Y-78465925D01*
X85510591Y-78482962D01*
X84878626Y-79114926D01*
X84962417Y-79173598D01*
X84962421Y-79173600D01*
X85176507Y-79273429D01*
X85176516Y-79273433D01*
X85404673Y-79334567D01*
X85404684Y-79334569D01*
X85639998Y-79355157D01*
X85640002Y-79355157D01*
X85875315Y-79334569D01*
X85875326Y-79334567D01*
X86103483Y-79273433D01*
X86103492Y-79273429D01*
X86317580Y-79173599D01*
X86401371Y-79114925D01*
X85769408Y-78482962D01*
X85832993Y-78465925D01*
X85947007Y-78400099D01*
X86040099Y-78307007D01*
X86105925Y-78192993D01*
X86122962Y-78129408D01*
X86754925Y-78761371D01*
X86813599Y-78677580D01*
X86893118Y-78507052D01*
X86939290Y-78454613D01*
X87006484Y-78435461D01*
X87073365Y-78455677D01*
X87118699Y-78508842D01*
X87129500Y-78559457D01*
X87129500Y-78869752D01*
X87141131Y-78928229D01*
X87141132Y-78928230D01*
X87185447Y-78994552D01*
X87251769Y-79038867D01*
X87251770Y-79038868D01*
X87310247Y-79050499D01*
X87310250Y-79050500D01*
X87310252Y-79050500D01*
X89049750Y-79050500D01*
X89049751Y-79050499D01*
X89064568Y-79047552D01*
X89108229Y-79038868D01*
X89108229Y-79038867D01*
X89108231Y-79038867D01*
X89174552Y-78994552D01*
X89218867Y-78928231D01*
X89218867Y-78928229D01*
X89218868Y-78928229D01*
X89230499Y-78869752D01*
X89230500Y-78869750D01*
X89230500Y-78000000D01*
X90934417Y-78000000D01*
X90954699Y-78205932D01*
X90954700Y-78205934D01*
X91014768Y-78403954D01*
X91112315Y-78586450D01*
X91112317Y-78586452D01*
X91243589Y-78746410D01*
X91261821Y-78761372D01*
X91403550Y-78877685D01*
X91586046Y-78975232D01*
X91784066Y-79035300D01*
X91784065Y-79035300D01*
X91802529Y-79037118D01*
X91990000Y-79055583D01*
X92195934Y-79035300D01*
X92393954Y-78975232D01*
X92576450Y-78877685D01*
X92736410Y-78746410D01*
X92867685Y-78586450D01*
X92965232Y-78403954D01*
X92985406Y-78337446D01*
X93023702Y-78279010D01*
X93087514Y-78250553D01*
X93156581Y-78261112D01*
X93208975Y-78307336D01*
X93223841Y-78341349D01*
X93256567Y-78463486D01*
X93256570Y-78463492D01*
X93356398Y-78677576D01*
X93415073Y-78761372D01*
X94047037Y-78129408D01*
X94064075Y-78192993D01*
X94129901Y-78307007D01*
X94222993Y-78400099D01*
X94337007Y-78465925D01*
X94400591Y-78482962D01*
X93768626Y-79114926D01*
X93852417Y-79173598D01*
X93852421Y-79173600D01*
X94066507Y-79273429D01*
X94066516Y-79273433D01*
X94294673Y-79334567D01*
X94294684Y-79334569D01*
X94529998Y-79355157D01*
X94530002Y-79355157D01*
X94765315Y-79334569D01*
X94765326Y-79334567D01*
X94993483Y-79273433D01*
X94993492Y-79273429D01*
X95207580Y-79173599D01*
X95291371Y-79114925D01*
X94659408Y-78482962D01*
X94722993Y-78465925D01*
X94837007Y-78400099D01*
X94930099Y-78307007D01*
X94995925Y-78192993D01*
X95012962Y-78129408D01*
X95644925Y-78761371D01*
X95703599Y-78677580D01*
X95783118Y-78507052D01*
X95829290Y-78454613D01*
X95896484Y-78435461D01*
X95963365Y-78455677D01*
X96008699Y-78508842D01*
X96019500Y-78559457D01*
X96019500Y-78869752D01*
X96031131Y-78928229D01*
X96031132Y-78928230D01*
X96075447Y-78994552D01*
X96141769Y-79038867D01*
X96141770Y-79038868D01*
X96200247Y-79050499D01*
X96200250Y-79050500D01*
X96200252Y-79050500D01*
X97939750Y-79050500D01*
X97939751Y-79050499D01*
X97954568Y-79047552D01*
X97998229Y-79038868D01*
X97998229Y-79038867D01*
X97998231Y-79038867D01*
X98064552Y-78994552D01*
X98108867Y-78928231D01*
X98108867Y-78928229D01*
X98108868Y-78928229D01*
X98120499Y-78869752D01*
X98120500Y-78869750D01*
X98120500Y-78000000D01*
X99824417Y-78000000D01*
X99844699Y-78205932D01*
X99844700Y-78205934D01*
X99904768Y-78403954D01*
X100002315Y-78586450D01*
X100002317Y-78586452D01*
X100133589Y-78746410D01*
X100151821Y-78761372D01*
X100293550Y-78877685D01*
X100476046Y-78975232D01*
X100674066Y-79035300D01*
X100674065Y-79035300D01*
X100692529Y-79037118D01*
X100880000Y-79055583D01*
X101085934Y-79035300D01*
X101283954Y-78975232D01*
X101466450Y-78877685D01*
X101626410Y-78746410D01*
X101757685Y-78586450D01*
X101855232Y-78403954D01*
X101875406Y-78337446D01*
X101913702Y-78279010D01*
X101977514Y-78250553D01*
X102046581Y-78261112D01*
X102098975Y-78307336D01*
X102113841Y-78341349D01*
X102146567Y-78463486D01*
X102146570Y-78463492D01*
X102246398Y-78677576D01*
X102305073Y-78761372D01*
X102937037Y-78129408D01*
X102954075Y-78192993D01*
X103019901Y-78307007D01*
X103112993Y-78400099D01*
X103227007Y-78465925D01*
X103290591Y-78482962D01*
X102658626Y-79114926D01*
X102742417Y-79173598D01*
X102742421Y-79173600D01*
X102956507Y-79273429D01*
X102956516Y-79273433D01*
X103184673Y-79334567D01*
X103184684Y-79334569D01*
X103419998Y-79355157D01*
X103420002Y-79355157D01*
X103655315Y-79334569D01*
X103655326Y-79334567D01*
X103883483Y-79273433D01*
X103883492Y-79273429D01*
X104097580Y-79173599D01*
X104181371Y-79114925D01*
X103549408Y-78482962D01*
X103612993Y-78465925D01*
X103727007Y-78400099D01*
X103820099Y-78307007D01*
X103885925Y-78192993D01*
X103902962Y-78129408D01*
X104534925Y-78761371D01*
X104593599Y-78677580D01*
X104673118Y-78507052D01*
X104719290Y-78454613D01*
X104786484Y-78435461D01*
X104853365Y-78455677D01*
X104898699Y-78508842D01*
X104909500Y-78559457D01*
X104909500Y-78869752D01*
X104921131Y-78928229D01*
X104921132Y-78928230D01*
X104965447Y-78994552D01*
X105031769Y-79038867D01*
X105031770Y-79038868D01*
X105090247Y-79050499D01*
X105090250Y-79050500D01*
X105090252Y-79050500D01*
X106829750Y-79050500D01*
X106829751Y-79050499D01*
X106844568Y-79047552D01*
X106888229Y-79038868D01*
X106888229Y-79038867D01*
X106888231Y-79038867D01*
X106954552Y-78994552D01*
X106998867Y-78928231D01*
X106998867Y-78928229D01*
X106998868Y-78928229D01*
X107010499Y-78869752D01*
X107010500Y-78869750D01*
X107010500Y-78000000D01*
X108714417Y-78000000D01*
X108734699Y-78205932D01*
X108734700Y-78205934D01*
X108794768Y-78403954D01*
X108892315Y-78586450D01*
X108892317Y-78586452D01*
X109023589Y-78746410D01*
X109041821Y-78761372D01*
X109183550Y-78877685D01*
X109366046Y-78975232D01*
X109564066Y-79035300D01*
X109564065Y-79035300D01*
X109582529Y-79037118D01*
X109770000Y-79055583D01*
X109975934Y-79035300D01*
X110173954Y-78975232D01*
X110356450Y-78877685D01*
X110516410Y-78746410D01*
X110647685Y-78586450D01*
X110745232Y-78403954D01*
X110765406Y-78337446D01*
X110803702Y-78279010D01*
X110867514Y-78250553D01*
X110936581Y-78261112D01*
X110988975Y-78307336D01*
X111003841Y-78341349D01*
X111036567Y-78463486D01*
X111036570Y-78463492D01*
X111136398Y-78677576D01*
X111195073Y-78761372D01*
X111827037Y-78129408D01*
X111844075Y-78192993D01*
X111909901Y-78307007D01*
X112002993Y-78400099D01*
X112117007Y-78465925D01*
X112180591Y-78482962D01*
X111548626Y-79114926D01*
X111632417Y-79173598D01*
X111632421Y-79173600D01*
X111846507Y-79273429D01*
X111846516Y-79273433D01*
X112074673Y-79334567D01*
X112074684Y-79334569D01*
X112309998Y-79355157D01*
X112310002Y-79355157D01*
X112545315Y-79334569D01*
X112545326Y-79334567D01*
X112773483Y-79273433D01*
X112773492Y-79273429D01*
X112987580Y-79173599D01*
X113071371Y-79114925D01*
X112439408Y-78482962D01*
X112502993Y-78465925D01*
X112617007Y-78400099D01*
X112710099Y-78307007D01*
X112775925Y-78192993D01*
X112792962Y-78129408D01*
X113424925Y-78761371D01*
X113483599Y-78677580D01*
X113563118Y-78507052D01*
X113609290Y-78454613D01*
X113676484Y-78435461D01*
X113743365Y-78455677D01*
X113788699Y-78508842D01*
X113799500Y-78559457D01*
X113799500Y-78869752D01*
X113811131Y-78928229D01*
X113811132Y-78928230D01*
X113855447Y-78994552D01*
X113921769Y-79038867D01*
X113921770Y-79038868D01*
X113980247Y-79050499D01*
X113980250Y-79050500D01*
X113980252Y-79050500D01*
X115719750Y-79050500D01*
X115719751Y-79050499D01*
X115734568Y-79047552D01*
X115778229Y-79038868D01*
X115778229Y-79038867D01*
X115778231Y-79038867D01*
X115844552Y-78994552D01*
X115888867Y-78928231D01*
X115888867Y-78928229D01*
X115888868Y-78928229D01*
X115900499Y-78869752D01*
X115900500Y-78869750D01*
X115900500Y-78000000D01*
X117604417Y-78000000D01*
X117624699Y-78205932D01*
X117624700Y-78205934D01*
X117684768Y-78403954D01*
X117782315Y-78586450D01*
X117782317Y-78586452D01*
X117913589Y-78746410D01*
X117931821Y-78761372D01*
X118073550Y-78877685D01*
X118256046Y-78975232D01*
X118454066Y-79035300D01*
X118454065Y-79035300D01*
X118472529Y-79037118D01*
X118660000Y-79055583D01*
X118865934Y-79035300D01*
X119063954Y-78975232D01*
X119246450Y-78877685D01*
X119406410Y-78746410D01*
X119537685Y-78586450D01*
X119635232Y-78403954D01*
X119655406Y-78337446D01*
X119693702Y-78279010D01*
X119757514Y-78250553D01*
X119826581Y-78261112D01*
X119878975Y-78307336D01*
X119893841Y-78341349D01*
X119926567Y-78463486D01*
X119926570Y-78463492D01*
X120026398Y-78677576D01*
X120085073Y-78761372D01*
X120717037Y-78129408D01*
X120734075Y-78192993D01*
X120799901Y-78307007D01*
X120892993Y-78400099D01*
X121007007Y-78465925D01*
X121070591Y-78482962D01*
X120438626Y-79114926D01*
X120522417Y-79173598D01*
X120522421Y-79173600D01*
X120736507Y-79273429D01*
X120736516Y-79273433D01*
X120964673Y-79334567D01*
X120964684Y-79334569D01*
X121199998Y-79355157D01*
X121200002Y-79355157D01*
X121435315Y-79334569D01*
X121435326Y-79334567D01*
X121663483Y-79273433D01*
X121663492Y-79273429D01*
X121877580Y-79173599D01*
X121961371Y-79114925D01*
X121329408Y-78482962D01*
X121392993Y-78465925D01*
X121507007Y-78400099D01*
X121600099Y-78307007D01*
X121665925Y-78192993D01*
X121682962Y-78129408D01*
X122314925Y-78761371D01*
X122373599Y-78677580D01*
X122453118Y-78507052D01*
X122499290Y-78454613D01*
X122566484Y-78435461D01*
X122633365Y-78455677D01*
X122678699Y-78508842D01*
X122689500Y-78559457D01*
X122689500Y-78869752D01*
X122701131Y-78928229D01*
X122701132Y-78928230D01*
X122745447Y-78994552D01*
X122811769Y-79038867D01*
X122811770Y-79038868D01*
X122870247Y-79050499D01*
X122870250Y-79050500D01*
X122870252Y-79050500D01*
X124609750Y-79050500D01*
X124609751Y-79050499D01*
X124624568Y-79047552D01*
X124668229Y-79038868D01*
X124668229Y-79038867D01*
X124668231Y-79038867D01*
X124734552Y-78994552D01*
X124778867Y-78928231D01*
X124778867Y-78928229D01*
X124778868Y-78928229D01*
X124790499Y-78869752D01*
X124790500Y-78869750D01*
X124790500Y-77130249D01*
X124790499Y-77130247D01*
X124778868Y-77071770D01*
X124778867Y-77071769D01*
X124734552Y-77005447D01*
X124668230Y-76961132D01*
X124668229Y-76961131D01*
X124609752Y-76949500D01*
X124609748Y-76949500D01*
X122870252Y-76949500D01*
X122870247Y-76949500D01*
X122811770Y-76961131D01*
X122811769Y-76961132D01*
X122745447Y-77005447D01*
X122701132Y-77071769D01*
X122701131Y-77071770D01*
X122689500Y-77130247D01*
X122689500Y-77440543D01*
X122669815Y-77507582D01*
X122617011Y-77553337D01*
X122547853Y-77563281D01*
X122484297Y-77534256D01*
X122453118Y-77492948D01*
X122373601Y-77322424D01*
X122314925Y-77238626D01*
X121682962Y-77870590D01*
X121665925Y-77807007D01*
X121600099Y-77692993D01*
X121507007Y-77599901D01*
X121392993Y-77534075D01*
X121329409Y-77517037D01*
X121961372Y-76885073D01*
X121877576Y-76826398D01*
X121663492Y-76726570D01*
X121663483Y-76726566D01*
X121435326Y-76665432D01*
X121435315Y-76665430D01*
X121200002Y-76644843D01*
X121199998Y-76644843D01*
X120964684Y-76665430D01*
X120964673Y-76665432D01*
X120736516Y-76726566D01*
X120736507Y-76726570D01*
X120522423Y-76826399D01*
X120522421Y-76826400D01*
X120438627Y-76885073D01*
X120438626Y-76885073D01*
X121070591Y-77517037D01*
X121007007Y-77534075D01*
X120892993Y-77599901D01*
X120799901Y-77692993D01*
X120734075Y-77807007D01*
X120717037Y-77870590D01*
X120085073Y-77238626D01*
X120085073Y-77238627D01*
X120026400Y-77322421D01*
X120026399Y-77322423D01*
X119926570Y-77536507D01*
X119926567Y-77536514D01*
X119893841Y-77658650D01*
X119857476Y-77718310D01*
X119794629Y-77748839D01*
X119725253Y-77740544D01*
X119671375Y-77696059D01*
X119655406Y-77662553D01*
X119635232Y-77596046D01*
X119537685Y-77413550D01*
X119485702Y-77350209D01*
X119406410Y-77253589D01*
X119256121Y-77130252D01*
X119246450Y-77122315D01*
X119063954Y-77024768D01*
X118865934Y-76964700D01*
X118865932Y-76964699D01*
X118865934Y-76964699D01*
X118660000Y-76944417D01*
X118454067Y-76964699D01*
X118256043Y-77024769D01*
X118168114Y-77071769D01*
X118073550Y-77122315D01*
X118073548Y-77122316D01*
X118073547Y-77122317D01*
X117913589Y-77253589D01*
X117782317Y-77413547D01*
X117684769Y-77596043D01*
X117624699Y-77794067D01*
X117604417Y-78000000D01*
X115900500Y-78000000D01*
X115900500Y-77130249D01*
X115900499Y-77130247D01*
X115888868Y-77071770D01*
X115888867Y-77071769D01*
X115844552Y-77005447D01*
X115778230Y-76961132D01*
X115778229Y-76961131D01*
X115719752Y-76949500D01*
X115719748Y-76949500D01*
X113980252Y-76949500D01*
X113980247Y-76949500D01*
X113921770Y-76961131D01*
X113921769Y-76961132D01*
X113855447Y-77005447D01*
X113811132Y-77071769D01*
X113811131Y-77071770D01*
X113799500Y-77130247D01*
X113799500Y-77440543D01*
X113779815Y-77507582D01*
X113727011Y-77553337D01*
X113657853Y-77563281D01*
X113594297Y-77534256D01*
X113563118Y-77492948D01*
X113483601Y-77322424D01*
X113424925Y-77238626D01*
X112792962Y-77870590D01*
X112775925Y-77807007D01*
X112710099Y-77692993D01*
X112617007Y-77599901D01*
X112502993Y-77534075D01*
X112439409Y-77517037D01*
X113071372Y-76885073D01*
X112987576Y-76826398D01*
X112773492Y-76726570D01*
X112773483Y-76726566D01*
X112545326Y-76665432D01*
X112545315Y-76665430D01*
X112310002Y-76644843D01*
X112309998Y-76644843D01*
X112074684Y-76665430D01*
X112074673Y-76665432D01*
X111846516Y-76726566D01*
X111846507Y-76726570D01*
X111632423Y-76826399D01*
X111632421Y-76826400D01*
X111548627Y-76885073D01*
X111548626Y-76885073D01*
X112180591Y-77517037D01*
X112117007Y-77534075D01*
X112002993Y-77599901D01*
X111909901Y-77692993D01*
X111844075Y-77807007D01*
X111827037Y-77870590D01*
X111195073Y-77238626D01*
X111195073Y-77238627D01*
X111136400Y-77322421D01*
X111136399Y-77322423D01*
X111036570Y-77536507D01*
X111036567Y-77536514D01*
X111003841Y-77658650D01*
X110967476Y-77718310D01*
X110904629Y-77748839D01*
X110835253Y-77740544D01*
X110781375Y-77696059D01*
X110765406Y-77662553D01*
X110745232Y-77596046D01*
X110647685Y-77413550D01*
X110595702Y-77350209D01*
X110516410Y-77253589D01*
X110366121Y-77130252D01*
X110356450Y-77122315D01*
X110173954Y-77024768D01*
X109975934Y-76964700D01*
X109975932Y-76964699D01*
X109975934Y-76964699D01*
X109770000Y-76944417D01*
X109564067Y-76964699D01*
X109366043Y-77024769D01*
X109278114Y-77071769D01*
X109183550Y-77122315D01*
X109183548Y-77122316D01*
X109183547Y-77122317D01*
X109023589Y-77253589D01*
X108892317Y-77413547D01*
X108794769Y-77596043D01*
X108734699Y-77794067D01*
X108714417Y-78000000D01*
X107010500Y-78000000D01*
X107010500Y-77130249D01*
X107010499Y-77130247D01*
X106998868Y-77071770D01*
X106998867Y-77071769D01*
X106954552Y-77005447D01*
X106888230Y-76961132D01*
X106888229Y-76961131D01*
X106829752Y-76949500D01*
X106829748Y-76949500D01*
X105090252Y-76949500D01*
X105090247Y-76949500D01*
X105031770Y-76961131D01*
X105031769Y-76961132D01*
X104965447Y-77005447D01*
X104921132Y-77071769D01*
X104921131Y-77071770D01*
X104909500Y-77130247D01*
X104909500Y-77440543D01*
X104889815Y-77507582D01*
X104837011Y-77553337D01*
X104767853Y-77563281D01*
X104704297Y-77534256D01*
X104673118Y-77492948D01*
X104593601Y-77322424D01*
X104534925Y-77238626D01*
X103902962Y-77870590D01*
X103885925Y-77807007D01*
X103820099Y-77692993D01*
X103727007Y-77599901D01*
X103612993Y-77534075D01*
X103549409Y-77517037D01*
X104181372Y-76885073D01*
X104097576Y-76826398D01*
X103883492Y-76726570D01*
X103883483Y-76726566D01*
X103655326Y-76665432D01*
X103655315Y-76665430D01*
X103420002Y-76644843D01*
X103419998Y-76644843D01*
X103184684Y-76665430D01*
X103184673Y-76665432D01*
X102956516Y-76726566D01*
X102956507Y-76726570D01*
X102742423Y-76826399D01*
X102742421Y-76826400D01*
X102658627Y-76885073D01*
X102658626Y-76885073D01*
X103290591Y-77517037D01*
X103227007Y-77534075D01*
X103112993Y-77599901D01*
X103019901Y-77692993D01*
X102954075Y-77807007D01*
X102937037Y-77870590D01*
X102305073Y-77238626D01*
X102305073Y-77238627D01*
X102246400Y-77322421D01*
X102246399Y-77322423D01*
X102146570Y-77536507D01*
X102146567Y-77536514D01*
X102113841Y-77658650D01*
X102077476Y-77718310D01*
X102014629Y-77748839D01*
X101945253Y-77740544D01*
X101891375Y-77696059D01*
X101875406Y-77662553D01*
X101855232Y-77596046D01*
X101757685Y-77413550D01*
X101705702Y-77350209D01*
X101626410Y-77253589D01*
X101476121Y-77130252D01*
X101466450Y-77122315D01*
X101283954Y-77024768D01*
X101085934Y-76964700D01*
X101085932Y-76964699D01*
X101085934Y-76964699D01*
X100880000Y-76944417D01*
X100674067Y-76964699D01*
X100476043Y-77024769D01*
X100388114Y-77071769D01*
X100293550Y-77122315D01*
X100293548Y-77122316D01*
X100293547Y-77122317D01*
X100133589Y-77253589D01*
X100002317Y-77413547D01*
X99904769Y-77596043D01*
X99844699Y-77794067D01*
X99824417Y-78000000D01*
X98120500Y-78000000D01*
X98120500Y-77130249D01*
X98120499Y-77130247D01*
X98108868Y-77071770D01*
X98108867Y-77071769D01*
X98064552Y-77005447D01*
X97998230Y-76961132D01*
X97998229Y-76961131D01*
X97939752Y-76949500D01*
X97939748Y-76949500D01*
X96200252Y-76949500D01*
X96200247Y-76949500D01*
X96141770Y-76961131D01*
X96141769Y-76961132D01*
X96075447Y-77005447D01*
X96031132Y-77071769D01*
X96031131Y-77071770D01*
X96019500Y-77130247D01*
X96019500Y-77440543D01*
X95999815Y-77507582D01*
X95947011Y-77553337D01*
X95877853Y-77563281D01*
X95814297Y-77534256D01*
X95783118Y-77492948D01*
X95703601Y-77322424D01*
X95644925Y-77238626D01*
X95012962Y-77870590D01*
X94995925Y-77807007D01*
X94930099Y-77692993D01*
X94837007Y-77599901D01*
X94722993Y-77534075D01*
X94659409Y-77517037D01*
X95291372Y-76885073D01*
X95207576Y-76826398D01*
X94993492Y-76726570D01*
X94993483Y-76726566D01*
X94765326Y-76665432D01*
X94765315Y-76665430D01*
X94530002Y-76644843D01*
X94529998Y-76644843D01*
X94294684Y-76665430D01*
X94294673Y-76665432D01*
X94066516Y-76726566D01*
X94066507Y-76726570D01*
X93852423Y-76826399D01*
X93852421Y-76826400D01*
X93768627Y-76885073D01*
X93768626Y-76885073D01*
X94400591Y-77517037D01*
X94337007Y-77534075D01*
X94222993Y-77599901D01*
X94129901Y-77692993D01*
X94064075Y-77807007D01*
X94047037Y-77870590D01*
X93415073Y-77238626D01*
X93415073Y-77238627D01*
X93356400Y-77322421D01*
X93356399Y-77322423D01*
X93256570Y-77536507D01*
X93256567Y-77536514D01*
X93223841Y-77658650D01*
X93187476Y-77718310D01*
X93124629Y-77748839D01*
X93055253Y-77740544D01*
X93001375Y-77696059D01*
X92985406Y-77662553D01*
X92965232Y-77596046D01*
X92867685Y-77413550D01*
X92815702Y-77350209D01*
X92736410Y-77253589D01*
X92586121Y-77130252D01*
X92576450Y-77122315D01*
X92393954Y-77024768D01*
X92195934Y-76964700D01*
X92195932Y-76964699D01*
X92195934Y-76964699D01*
X91990000Y-76944417D01*
X91784067Y-76964699D01*
X91586043Y-77024769D01*
X91498114Y-77071769D01*
X91403550Y-77122315D01*
X91403548Y-77122316D01*
X91403547Y-77122317D01*
X91243589Y-77253589D01*
X91112317Y-77413547D01*
X91014769Y-77596043D01*
X90954699Y-77794067D01*
X90934417Y-78000000D01*
X89230500Y-78000000D01*
X89230500Y-77130249D01*
X89230499Y-77130247D01*
X89218868Y-77071770D01*
X89218867Y-77071769D01*
X89174552Y-77005447D01*
X89108230Y-76961132D01*
X89108229Y-76961131D01*
X89049752Y-76949500D01*
X89049748Y-76949500D01*
X87310252Y-76949500D01*
X87310247Y-76949500D01*
X87251770Y-76961131D01*
X87251769Y-76961132D01*
X87185447Y-77005447D01*
X87141132Y-77071769D01*
X87141131Y-77071770D01*
X87129500Y-77130247D01*
X87129500Y-77440543D01*
X87109815Y-77507582D01*
X87057011Y-77553337D01*
X86987853Y-77563281D01*
X86924297Y-77534256D01*
X86893118Y-77492948D01*
X86813601Y-77322424D01*
X86754925Y-77238626D01*
X86122962Y-77870590D01*
X86105925Y-77807007D01*
X86040099Y-77692993D01*
X85947007Y-77599901D01*
X85832993Y-77534075D01*
X85769409Y-77517037D01*
X86401372Y-76885073D01*
X86317576Y-76826398D01*
X86103492Y-76726570D01*
X86103483Y-76726566D01*
X85875326Y-76665432D01*
X85875315Y-76665430D01*
X85640002Y-76644843D01*
X85639998Y-76644843D01*
X85404684Y-76665430D01*
X85404673Y-76665432D01*
X85176516Y-76726566D01*
X85176507Y-76726570D01*
X84962423Y-76826399D01*
X84962421Y-76826400D01*
X84878627Y-76885073D01*
X84878626Y-76885073D01*
X85510591Y-77517037D01*
X85447007Y-77534075D01*
X85332993Y-77599901D01*
X85239901Y-77692993D01*
X85174075Y-77807007D01*
X85157037Y-77870590D01*
X84525073Y-77238626D01*
X84525073Y-77238627D01*
X84466400Y-77322421D01*
X84466399Y-77322423D01*
X84366570Y-77536507D01*
X84366567Y-77536514D01*
X84333841Y-77658650D01*
X84297476Y-77718310D01*
X84234629Y-77748839D01*
X84165253Y-77740544D01*
X84111375Y-77696059D01*
X84095406Y-77662553D01*
X84075232Y-77596046D01*
X83977685Y-77413550D01*
X83925702Y-77350209D01*
X83846410Y-77253589D01*
X83696121Y-77130252D01*
X83686450Y-77122315D01*
X83503954Y-77024768D01*
X83305934Y-76964700D01*
X83305932Y-76964699D01*
X83305934Y-76964699D01*
X83100000Y-76944417D01*
X82894067Y-76964699D01*
X82696043Y-77024769D01*
X82608114Y-77071769D01*
X82513550Y-77122315D01*
X82513548Y-77122316D01*
X82513547Y-77122317D01*
X82353589Y-77253589D01*
X82222317Y-77413547D01*
X82124769Y-77596043D01*
X82064699Y-77794067D01*
X82044417Y-78000000D01*
X81780500Y-78000000D01*
X81780500Y-73624000D01*
X81800185Y-73556961D01*
X81852989Y-73511206D01*
X81904500Y-73500000D01*
X122600000Y-73500000D01*
X123710000Y-72390000D01*
X124589353Y-72390000D01*
X124609834Y-72532456D01*
X124667835Y-72659457D01*
X124669623Y-72663373D01*
X124763872Y-72772143D01*
X124884947Y-72849953D01*
X124884950Y-72849954D01*
X124884949Y-72849954D01*
X125023036Y-72890499D01*
X125023038Y-72890500D01*
X125023039Y-72890500D01*
X125166962Y-72890500D01*
X125166962Y-72890499D01*
X125305053Y-72849953D01*
X125426128Y-72772143D01*
X125520377Y-72663373D01*
X125580165Y-72532457D01*
X125600647Y-72390000D01*
X125580165Y-72247543D01*
X125520377Y-72116627D01*
X125426128Y-72007857D01*
X125305053Y-71930047D01*
X125305051Y-71930046D01*
X125305049Y-71930045D01*
X125305050Y-71930045D01*
X125166963Y-71889500D01*
X125166961Y-71889500D01*
X125023039Y-71889500D01*
X125023036Y-71889500D01*
X124884949Y-71930045D01*
X124763873Y-72007856D01*
X124669623Y-72116626D01*
X124669622Y-72116628D01*
X124609834Y-72247543D01*
X124589353Y-72390000D01*
X123710000Y-72390000D01*
X127563681Y-68536319D01*
X127625004Y-68502834D01*
X127651362Y-68500000D01*
X128830454Y-68500000D01*
X128897493Y-68519685D01*
G37*
G04 #@! TD.AperFunction*
M02*
