G04 #@! TF.GenerationSoftware,KiCad,Pcbnew,8.0.8-8.0.8-0~ubuntu20.04.1*
G04 #@! TF.CreationDate,2025-01-21T23:34:15+05:30*
G04 #@! TF.ProjectId,hds_rpi,6864735f-7270-4692-9e6b-696361645f70,rev?*
G04 #@! TF.SameCoordinates,Original*
G04 #@! TF.FileFunction,Legend,Bot*
G04 #@! TF.FilePolarity,Positive*
%FSLAX46Y46*%
G04 Gerber Fmt 4.6, Leading zero omitted, Abs format (unit mm)*
G04 Created by KiCad (PCBNEW 8.0.8-8.0.8-0~ubuntu20.04.1) date 2025-01-21 23:34:15*
%MOMM*%
%LPD*%
G01*
G04 APERTURE LIST*
%ADD10C,0.150000*%
%ADD11C,0.120000*%
G04 APERTURE END LIST*
D10*
X91342857Y-65654819D02*
X91676190Y-65178628D01*
X91914285Y-65654819D02*
X91914285Y-64654819D01*
X91914285Y-64654819D02*
X91533333Y-64654819D01*
X91533333Y-64654819D02*
X91438095Y-64702438D01*
X91438095Y-64702438D02*
X91390476Y-64750057D01*
X91390476Y-64750057D02*
X91342857Y-64845295D01*
X91342857Y-64845295D02*
X91342857Y-64988152D01*
X91342857Y-64988152D02*
X91390476Y-65083390D01*
X91390476Y-65083390D02*
X91438095Y-65131009D01*
X91438095Y-65131009D02*
X91533333Y-65178628D01*
X91533333Y-65178628D02*
X91914285Y-65178628D01*
X90961904Y-64750057D02*
X90914285Y-64702438D01*
X90914285Y-64702438D02*
X90819047Y-64654819D01*
X90819047Y-64654819D02*
X90580952Y-64654819D01*
X90580952Y-64654819D02*
X90485714Y-64702438D01*
X90485714Y-64702438D02*
X90438095Y-64750057D01*
X90438095Y-64750057D02*
X90390476Y-64845295D01*
X90390476Y-64845295D02*
X90390476Y-64940533D01*
X90390476Y-64940533D02*
X90438095Y-65083390D01*
X90438095Y-65083390D02*
X91009523Y-65654819D01*
X91009523Y-65654819D02*
X90390476Y-65654819D01*
X89771428Y-64654819D02*
X89676190Y-64654819D01*
X89676190Y-64654819D02*
X89580952Y-64702438D01*
X89580952Y-64702438D02*
X89533333Y-64750057D01*
X89533333Y-64750057D02*
X89485714Y-64845295D01*
X89485714Y-64845295D02*
X89438095Y-65035771D01*
X89438095Y-65035771D02*
X89438095Y-65273866D01*
X89438095Y-65273866D02*
X89485714Y-65464342D01*
X89485714Y-65464342D02*
X89533333Y-65559580D01*
X89533333Y-65559580D02*
X89580952Y-65607200D01*
X89580952Y-65607200D02*
X89676190Y-65654819D01*
X89676190Y-65654819D02*
X89771428Y-65654819D01*
X89771428Y-65654819D02*
X89866666Y-65607200D01*
X89866666Y-65607200D02*
X89914285Y-65559580D01*
X89914285Y-65559580D02*
X89961904Y-65464342D01*
X89961904Y-65464342D02*
X90009523Y-65273866D01*
X90009523Y-65273866D02*
X90009523Y-65035771D01*
X90009523Y-65035771D02*
X89961904Y-64845295D01*
X89961904Y-64845295D02*
X89914285Y-64750057D01*
X89914285Y-64750057D02*
X89866666Y-64702438D01*
X89866666Y-64702438D02*
X89771428Y-64654819D01*
X111942857Y-65654819D02*
X112276190Y-65178628D01*
X112514285Y-65654819D02*
X112514285Y-64654819D01*
X112514285Y-64654819D02*
X112133333Y-64654819D01*
X112133333Y-64654819D02*
X112038095Y-64702438D01*
X112038095Y-64702438D02*
X111990476Y-64750057D01*
X111990476Y-64750057D02*
X111942857Y-64845295D01*
X111942857Y-64845295D02*
X111942857Y-64988152D01*
X111942857Y-64988152D02*
X111990476Y-65083390D01*
X111990476Y-65083390D02*
X112038095Y-65131009D01*
X112038095Y-65131009D02*
X112133333Y-65178628D01*
X112133333Y-65178628D02*
X112514285Y-65178628D01*
X111561904Y-64750057D02*
X111514285Y-64702438D01*
X111514285Y-64702438D02*
X111419047Y-64654819D01*
X111419047Y-64654819D02*
X111180952Y-64654819D01*
X111180952Y-64654819D02*
X111085714Y-64702438D01*
X111085714Y-64702438D02*
X111038095Y-64750057D01*
X111038095Y-64750057D02*
X110990476Y-64845295D01*
X110990476Y-64845295D02*
X110990476Y-64940533D01*
X110990476Y-64940533D02*
X111038095Y-65083390D01*
X111038095Y-65083390D02*
X111609523Y-65654819D01*
X111609523Y-65654819D02*
X110990476Y-65654819D01*
X110657142Y-64654819D02*
X110038095Y-64654819D01*
X110038095Y-64654819D02*
X110371428Y-65035771D01*
X110371428Y-65035771D02*
X110228571Y-65035771D01*
X110228571Y-65035771D02*
X110133333Y-65083390D01*
X110133333Y-65083390D02*
X110085714Y-65131009D01*
X110085714Y-65131009D02*
X110038095Y-65226247D01*
X110038095Y-65226247D02*
X110038095Y-65464342D01*
X110038095Y-65464342D02*
X110085714Y-65559580D01*
X110085714Y-65559580D02*
X110133333Y-65607200D01*
X110133333Y-65607200D02*
X110228571Y-65654819D01*
X110228571Y-65654819D02*
X110514285Y-65654819D01*
X110514285Y-65654819D02*
X110609523Y-65607200D01*
X110609523Y-65607200D02*
X110657142Y-65559580D01*
X132542857Y-65654819D02*
X132876190Y-65178628D01*
X133114285Y-65654819D02*
X133114285Y-64654819D01*
X133114285Y-64654819D02*
X132733333Y-64654819D01*
X132733333Y-64654819D02*
X132638095Y-64702438D01*
X132638095Y-64702438D02*
X132590476Y-64750057D01*
X132590476Y-64750057D02*
X132542857Y-64845295D01*
X132542857Y-64845295D02*
X132542857Y-64988152D01*
X132542857Y-64988152D02*
X132590476Y-65083390D01*
X132590476Y-65083390D02*
X132638095Y-65131009D01*
X132638095Y-65131009D02*
X132733333Y-65178628D01*
X132733333Y-65178628D02*
X133114285Y-65178628D01*
X132161904Y-64750057D02*
X132114285Y-64702438D01*
X132114285Y-64702438D02*
X132019047Y-64654819D01*
X132019047Y-64654819D02*
X131780952Y-64654819D01*
X131780952Y-64654819D02*
X131685714Y-64702438D01*
X131685714Y-64702438D02*
X131638095Y-64750057D01*
X131638095Y-64750057D02*
X131590476Y-64845295D01*
X131590476Y-64845295D02*
X131590476Y-64940533D01*
X131590476Y-64940533D02*
X131638095Y-65083390D01*
X131638095Y-65083390D02*
X132209523Y-65654819D01*
X132209523Y-65654819D02*
X131590476Y-65654819D01*
X130733333Y-64654819D02*
X130923809Y-64654819D01*
X130923809Y-64654819D02*
X131019047Y-64702438D01*
X131019047Y-64702438D02*
X131066666Y-64750057D01*
X131066666Y-64750057D02*
X131161904Y-64892914D01*
X131161904Y-64892914D02*
X131209523Y-65083390D01*
X131209523Y-65083390D02*
X131209523Y-65464342D01*
X131209523Y-65464342D02*
X131161904Y-65559580D01*
X131161904Y-65559580D02*
X131114285Y-65607200D01*
X131114285Y-65607200D02*
X131019047Y-65654819D01*
X131019047Y-65654819D02*
X130828571Y-65654819D01*
X130828571Y-65654819D02*
X130733333Y-65607200D01*
X130733333Y-65607200D02*
X130685714Y-65559580D01*
X130685714Y-65559580D02*
X130638095Y-65464342D01*
X130638095Y-65464342D02*
X130638095Y-65226247D01*
X130638095Y-65226247D02*
X130685714Y-65131009D01*
X130685714Y-65131009D02*
X130733333Y-65083390D01*
X130733333Y-65083390D02*
X130828571Y-65035771D01*
X130828571Y-65035771D02*
X131019047Y-65035771D01*
X131019047Y-65035771D02*
X131114285Y-65083390D01*
X131114285Y-65083390D02*
X131161904Y-65131009D01*
X131161904Y-65131009D02*
X131209523Y-65226247D01*
X123549580Y-62698333D02*
X123597200Y-62650714D01*
X123597200Y-62650714D02*
X123644819Y-62507857D01*
X123644819Y-62507857D02*
X123644819Y-62412619D01*
X123644819Y-62412619D02*
X123597200Y-62269762D01*
X123597200Y-62269762D02*
X123501961Y-62174524D01*
X123501961Y-62174524D02*
X123406723Y-62126905D01*
X123406723Y-62126905D02*
X123216247Y-62079286D01*
X123216247Y-62079286D02*
X123073390Y-62079286D01*
X123073390Y-62079286D02*
X122882914Y-62126905D01*
X122882914Y-62126905D02*
X122787676Y-62174524D01*
X122787676Y-62174524D02*
X122692438Y-62269762D01*
X122692438Y-62269762D02*
X122644819Y-62412619D01*
X122644819Y-62412619D02*
X122644819Y-62507857D01*
X122644819Y-62507857D02*
X122692438Y-62650714D01*
X122692438Y-62650714D02*
X122740057Y-62698333D01*
X122978152Y-63555476D02*
X123644819Y-63555476D01*
X122597200Y-63317381D02*
X123311485Y-63079286D01*
X123311485Y-63079286D02*
X123311485Y-63698333D01*
X132542857Y-68054819D02*
X132876190Y-67578628D01*
X133114285Y-68054819D02*
X133114285Y-67054819D01*
X133114285Y-67054819D02*
X132733333Y-67054819D01*
X132733333Y-67054819D02*
X132638095Y-67102438D01*
X132638095Y-67102438D02*
X132590476Y-67150057D01*
X132590476Y-67150057D02*
X132542857Y-67245295D01*
X132542857Y-67245295D02*
X132542857Y-67388152D01*
X132542857Y-67388152D02*
X132590476Y-67483390D01*
X132590476Y-67483390D02*
X132638095Y-67531009D01*
X132638095Y-67531009D02*
X132733333Y-67578628D01*
X132733333Y-67578628D02*
X133114285Y-67578628D01*
X132161904Y-67150057D02*
X132114285Y-67102438D01*
X132114285Y-67102438D02*
X132019047Y-67054819D01*
X132019047Y-67054819D02*
X131780952Y-67054819D01*
X131780952Y-67054819D02*
X131685714Y-67102438D01*
X131685714Y-67102438D02*
X131638095Y-67150057D01*
X131638095Y-67150057D02*
X131590476Y-67245295D01*
X131590476Y-67245295D02*
X131590476Y-67340533D01*
X131590476Y-67340533D02*
X131638095Y-67483390D01*
X131638095Y-67483390D02*
X132209523Y-68054819D01*
X132209523Y-68054819D02*
X131590476Y-68054819D01*
X131257142Y-67054819D02*
X130590476Y-67054819D01*
X130590476Y-67054819D02*
X131019047Y-68054819D01*
X101742857Y-65654819D02*
X102076190Y-65178628D01*
X102314285Y-65654819D02*
X102314285Y-64654819D01*
X102314285Y-64654819D02*
X101933333Y-64654819D01*
X101933333Y-64654819D02*
X101838095Y-64702438D01*
X101838095Y-64702438D02*
X101790476Y-64750057D01*
X101790476Y-64750057D02*
X101742857Y-64845295D01*
X101742857Y-64845295D02*
X101742857Y-64988152D01*
X101742857Y-64988152D02*
X101790476Y-65083390D01*
X101790476Y-65083390D02*
X101838095Y-65131009D01*
X101838095Y-65131009D02*
X101933333Y-65178628D01*
X101933333Y-65178628D02*
X102314285Y-65178628D01*
X100885714Y-64988152D02*
X100885714Y-65654819D01*
X101123809Y-64607200D02*
X101361904Y-65321485D01*
X101361904Y-65321485D02*
X100742857Y-65321485D01*
X100171428Y-64654819D02*
X100076190Y-64654819D01*
X100076190Y-64654819D02*
X99980952Y-64702438D01*
X99980952Y-64702438D02*
X99933333Y-64750057D01*
X99933333Y-64750057D02*
X99885714Y-64845295D01*
X99885714Y-64845295D02*
X99838095Y-65035771D01*
X99838095Y-65035771D02*
X99838095Y-65273866D01*
X99838095Y-65273866D02*
X99885714Y-65464342D01*
X99885714Y-65464342D02*
X99933333Y-65559580D01*
X99933333Y-65559580D02*
X99980952Y-65607200D01*
X99980952Y-65607200D02*
X100076190Y-65654819D01*
X100076190Y-65654819D02*
X100171428Y-65654819D01*
X100171428Y-65654819D02*
X100266666Y-65607200D01*
X100266666Y-65607200D02*
X100314285Y-65559580D01*
X100314285Y-65559580D02*
X100361904Y-65464342D01*
X100361904Y-65464342D02*
X100409523Y-65273866D01*
X100409523Y-65273866D02*
X100409523Y-65035771D01*
X100409523Y-65035771D02*
X100361904Y-64845295D01*
X100361904Y-64845295D02*
X100314285Y-64750057D01*
X100314285Y-64750057D02*
X100266666Y-64702438D01*
X100266666Y-64702438D02*
X100171428Y-64654819D01*
X92688580Y-61841142D02*
X92736200Y-61793523D01*
X92736200Y-61793523D02*
X92783819Y-61650666D01*
X92783819Y-61650666D02*
X92783819Y-61555428D01*
X92783819Y-61555428D02*
X92736200Y-61412571D01*
X92736200Y-61412571D02*
X92640961Y-61317333D01*
X92640961Y-61317333D02*
X92545723Y-61269714D01*
X92545723Y-61269714D02*
X92355247Y-61222095D01*
X92355247Y-61222095D02*
X92212390Y-61222095D01*
X92212390Y-61222095D02*
X92021914Y-61269714D01*
X92021914Y-61269714D02*
X91926676Y-61317333D01*
X91926676Y-61317333D02*
X91831438Y-61412571D01*
X91831438Y-61412571D02*
X91783819Y-61555428D01*
X91783819Y-61555428D02*
X91783819Y-61650666D01*
X91783819Y-61650666D02*
X91831438Y-61793523D01*
X91831438Y-61793523D02*
X91879057Y-61841142D01*
X92783819Y-62793523D02*
X92783819Y-62222095D01*
X92783819Y-62507809D02*
X91783819Y-62507809D01*
X91783819Y-62507809D02*
X91926676Y-62412571D01*
X91926676Y-62412571D02*
X92021914Y-62317333D01*
X92021914Y-62317333D02*
X92069533Y-62222095D01*
X92783819Y-63745904D02*
X92783819Y-63174476D01*
X92783819Y-63460190D02*
X91783819Y-63460190D01*
X91783819Y-63460190D02*
X91926676Y-63364952D01*
X91926676Y-63364952D02*
X92021914Y-63269714D01*
X92021914Y-63269714D02*
X92069533Y-63174476D01*
X133374819Y-60657142D02*
X132898628Y-60323809D01*
X133374819Y-60085714D02*
X132374819Y-60085714D01*
X132374819Y-60085714D02*
X132374819Y-60466666D01*
X132374819Y-60466666D02*
X132422438Y-60561904D01*
X132422438Y-60561904D02*
X132470057Y-60609523D01*
X132470057Y-60609523D02*
X132565295Y-60657142D01*
X132565295Y-60657142D02*
X132708152Y-60657142D01*
X132708152Y-60657142D02*
X132803390Y-60609523D01*
X132803390Y-60609523D02*
X132851009Y-60561904D01*
X132851009Y-60561904D02*
X132898628Y-60466666D01*
X132898628Y-60466666D02*
X132898628Y-60085714D01*
X132470057Y-61038095D02*
X132422438Y-61085714D01*
X132422438Y-61085714D02*
X132374819Y-61180952D01*
X132374819Y-61180952D02*
X132374819Y-61419047D01*
X132374819Y-61419047D02*
X132422438Y-61514285D01*
X132422438Y-61514285D02*
X132470057Y-61561904D01*
X132470057Y-61561904D02*
X132565295Y-61609523D01*
X132565295Y-61609523D02*
X132660533Y-61609523D01*
X132660533Y-61609523D02*
X132803390Y-61561904D01*
X132803390Y-61561904D02*
X133374819Y-60990476D01*
X133374819Y-60990476D02*
X133374819Y-61609523D01*
X132374819Y-62514285D02*
X132374819Y-62038095D01*
X132374819Y-62038095D02*
X132851009Y-61990476D01*
X132851009Y-61990476D02*
X132803390Y-62038095D01*
X132803390Y-62038095D02*
X132755771Y-62133333D01*
X132755771Y-62133333D02*
X132755771Y-62371428D01*
X132755771Y-62371428D02*
X132803390Y-62466666D01*
X132803390Y-62466666D02*
X132851009Y-62514285D01*
X132851009Y-62514285D02*
X132946247Y-62561904D01*
X132946247Y-62561904D02*
X133184342Y-62561904D01*
X133184342Y-62561904D02*
X133279580Y-62514285D01*
X133279580Y-62514285D02*
X133327200Y-62466666D01*
X133327200Y-62466666D02*
X133374819Y-62371428D01*
X133374819Y-62371428D02*
X133374819Y-62133333D01*
X133374819Y-62133333D02*
X133327200Y-62038095D01*
X133327200Y-62038095D02*
X133279580Y-61990476D01*
X111942857Y-68054819D02*
X112276190Y-67578628D01*
X112514285Y-68054819D02*
X112514285Y-67054819D01*
X112514285Y-67054819D02*
X112133333Y-67054819D01*
X112133333Y-67054819D02*
X112038095Y-67102438D01*
X112038095Y-67102438D02*
X111990476Y-67150057D01*
X111990476Y-67150057D02*
X111942857Y-67245295D01*
X111942857Y-67245295D02*
X111942857Y-67388152D01*
X111942857Y-67388152D02*
X111990476Y-67483390D01*
X111990476Y-67483390D02*
X112038095Y-67531009D01*
X112038095Y-67531009D02*
X112133333Y-67578628D01*
X112133333Y-67578628D02*
X112514285Y-67578628D01*
X111561904Y-67150057D02*
X111514285Y-67102438D01*
X111514285Y-67102438D02*
X111419047Y-67054819D01*
X111419047Y-67054819D02*
X111180952Y-67054819D01*
X111180952Y-67054819D02*
X111085714Y-67102438D01*
X111085714Y-67102438D02*
X111038095Y-67150057D01*
X111038095Y-67150057D02*
X110990476Y-67245295D01*
X110990476Y-67245295D02*
X110990476Y-67340533D01*
X110990476Y-67340533D02*
X111038095Y-67483390D01*
X111038095Y-67483390D02*
X111609523Y-68054819D01*
X111609523Y-68054819D02*
X110990476Y-68054819D01*
X110133333Y-67388152D02*
X110133333Y-68054819D01*
X110371428Y-67007200D02*
X110609523Y-67721485D01*
X110609523Y-67721485D02*
X109990476Y-67721485D01*
X101742857Y-68054819D02*
X102076190Y-67578628D01*
X102314285Y-68054819D02*
X102314285Y-67054819D01*
X102314285Y-67054819D02*
X101933333Y-67054819D01*
X101933333Y-67054819D02*
X101838095Y-67102438D01*
X101838095Y-67102438D02*
X101790476Y-67150057D01*
X101790476Y-67150057D02*
X101742857Y-67245295D01*
X101742857Y-67245295D02*
X101742857Y-67388152D01*
X101742857Y-67388152D02*
X101790476Y-67483390D01*
X101790476Y-67483390D02*
X101838095Y-67531009D01*
X101838095Y-67531009D02*
X101933333Y-67578628D01*
X101933333Y-67578628D02*
X102314285Y-67578628D01*
X100885714Y-67388152D02*
X100885714Y-68054819D01*
X101123809Y-67007200D02*
X101361904Y-67721485D01*
X101361904Y-67721485D02*
X100742857Y-67721485D01*
X99838095Y-68054819D02*
X100409523Y-68054819D01*
X100123809Y-68054819D02*
X100123809Y-67054819D01*
X100123809Y-67054819D02*
X100219047Y-67197676D01*
X100219047Y-67197676D02*
X100314285Y-67292914D01*
X100314285Y-67292914D02*
X100409523Y-67340533D01*
X108261904Y-56954819D02*
X108261904Y-57764342D01*
X108261904Y-57764342D02*
X108214285Y-57859580D01*
X108214285Y-57859580D02*
X108166666Y-57907200D01*
X108166666Y-57907200D02*
X108071428Y-57954819D01*
X108071428Y-57954819D02*
X107880952Y-57954819D01*
X107880952Y-57954819D02*
X107785714Y-57907200D01*
X107785714Y-57907200D02*
X107738095Y-57859580D01*
X107738095Y-57859580D02*
X107690476Y-57764342D01*
X107690476Y-57764342D02*
X107690476Y-56954819D01*
X106738095Y-56954819D02*
X107214285Y-56954819D01*
X107214285Y-56954819D02*
X107261904Y-57431009D01*
X107261904Y-57431009D02*
X107214285Y-57383390D01*
X107214285Y-57383390D02*
X107119047Y-57335771D01*
X107119047Y-57335771D02*
X106880952Y-57335771D01*
X106880952Y-57335771D02*
X106785714Y-57383390D01*
X106785714Y-57383390D02*
X106738095Y-57431009D01*
X106738095Y-57431009D02*
X106690476Y-57526247D01*
X106690476Y-57526247D02*
X106690476Y-57764342D01*
X106690476Y-57764342D02*
X106738095Y-57859580D01*
X106738095Y-57859580D02*
X106785714Y-57907200D01*
X106785714Y-57907200D02*
X106880952Y-57954819D01*
X106880952Y-57954819D02*
X107119047Y-57954819D01*
X107119047Y-57954819D02*
X107214285Y-57907200D01*
X107214285Y-57907200D02*
X107261904Y-57859580D01*
X87661904Y-56954819D02*
X87661904Y-57764342D01*
X87661904Y-57764342D02*
X87614285Y-57859580D01*
X87614285Y-57859580D02*
X87566666Y-57907200D01*
X87566666Y-57907200D02*
X87471428Y-57954819D01*
X87471428Y-57954819D02*
X87280952Y-57954819D01*
X87280952Y-57954819D02*
X87185714Y-57907200D01*
X87185714Y-57907200D02*
X87138095Y-57859580D01*
X87138095Y-57859580D02*
X87090476Y-57764342D01*
X87090476Y-57764342D02*
X87090476Y-56954819D01*
X86185714Y-57288152D02*
X86185714Y-57954819D01*
X86423809Y-56907200D02*
X86661904Y-57621485D01*
X86661904Y-57621485D02*
X86042857Y-57621485D01*
X102975580Y-62698333D02*
X103023200Y-62650714D01*
X103023200Y-62650714D02*
X103070819Y-62507857D01*
X103070819Y-62507857D02*
X103070819Y-62412619D01*
X103070819Y-62412619D02*
X103023200Y-62269762D01*
X103023200Y-62269762D02*
X102927961Y-62174524D01*
X102927961Y-62174524D02*
X102832723Y-62126905D01*
X102832723Y-62126905D02*
X102642247Y-62079286D01*
X102642247Y-62079286D02*
X102499390Y-62079286D01*
X102499390Y-62079286D02*
X102308914Y-62126905D01*
X102308914Y-62126905D02*
X102213676Y-62174524D01*
X102213676Y-62174524D02*
X102118438Y-62269762D01*
X102118438Y-62269762D02*
X102070819Y-62412619D01*
X102070819Y-62412619D02*
X102070819Y-62507857D01*
X102070819Y-62507857D02*
X102118438Y-62650714D01*
X102118438Y-62650714D02*
X102166057Y-62698333D01*
X102070819Y-63031667D02*
X102070819Y-63650714D01*
X102070819Y-63650714D02*
X102451771Y-63317381D01*
X102451771Y-63317381D02*
X102451771Y-63460238D01*
X102451771Y-63460238D02*
X102499390Y-63555476D01*
X102499390Y-63555476D02*
X102547009Y-63603095D01*
X102547009Y-63603095D02*
X102642247Y-63650714D01*
X102642247Y-63650714D02*
X102880342Y-63650714D01*
X102880342Y-63650714D02*
X102975580Y-63603095D01*
X102975580Y-63603095D02*
X103023200Y-63555476D01*
X103023200Y-63555476D02*
X103070819Y-63460238D01*
X103070819Y-63460238D02*
X103070819Y-63174524D01*
X103070819Y-63174524D02*
X103023200Y-63079286D01*
X103023200Y-63079286D02*
X102975580Y-63031667D01*
X128861904Y-56954819D02*
X128861904Y-57764342D01*
X128861904Y-57764342D02*
X128814285Y-57859580D01*
X128814285Y-57859580D02*
X128766666Y-57907200D01*
X128766666Y-57907200D02*
X128671428Y-57954819D01*
X128671428Y-57954819D02*
X128480952Y-57954819D01*
X128480952Y-57954819D02*
X128385714Y-57907200D01*
X128385714Y-57907200D02*
X128338095Y-57859580D01*
X128338095Y-57859580D02*
X128290476Y-57764342D01*
X128290476Y-57764342D02*
X128290476Y-56954819D01*
X127909523Y-56954819D02*
X127242857Y-56954819D01*
X127242857Y-56954819D02*
X127671428Y-57954819D01*
X92174819Y-59174142D02*
X91698628Y-58840809D01*
X92174819Y-58602714D02*
X91174819Y-58602714D01*
X91174819Y-58602714D02*
X91174819Y-58983666D01*
X91174819Y-58983666D02*
X91222438Y-59078904D01*
X91222438Y-59078904D02*
X91270057Y-59126523D01*
X91270057Y-59126523D02*
X91365295Y-59174142D01*
X91365295Y-59174142D02*
X91508152Y-59174142D01*
X91508152Y-59174142D02*
X91603390Y-59126523D01*
X91603390Y-59126523D02*
X91651009Y-59078904D01*
X91651009Y-59078904D02*
X91698628Y-58983666D01*
X91698628Y-58983666D02*
X91698628Y-58602714D01*
X92174819Y-60126523D02*
X92174819Y-59555095D01*
X92174819Y-59840809D02*
X91174819Y-59840809D01*
X91174819Y-59840809D02*
X91317676Y-59745571D01*
X91317676Y-59745571D02*
X91412914Y-59650333D01*
X91412914Y-59650333D02*
X91460533Y-59555095D01*
X92174819Y-60602714D02*
X92174819Y-60793190D01*
X92174819Y-60793190D02*
X92127200Y-60888428D01*
X92127200Y-60888428D02*
X92079580Y-60936047D01*
X92079580Y-60936047D02*
X91936723Y-61031285D01*
X91936723Y-61031285D02*
X91746247Y-61078904D01*
X91746247Y-61078904D02*
X91365295Y-61078904D01*
X91365295Y-61078904D02*
X91270057Y-61031285D01*
X91270057Y-61031285D02*
X91222438Y-60983666D01*
X91222438Y-60983666D02*
X91174819Y-60888428D01*
X91174819Y-60888428D02*
X91174819Y-60697952D01*
X91174819Y-60697952D02*
X91222438Y-60602714D01*
X91222438Y-60602714D02*
X91270057Y-60555095D01*
X91270057Y-60555095D02*
X91365295Y-60507476D01*
X91365295Y-60507476D02*
X91603390Y-60507476D01*
X91603390Y-60507476D02*
X91698628Y-60555095D01*
X91698628Y-60555095D02*
X91746247Y-60602714D01*
X91746247Y-60602714D02*
X91793866Y-60697952D01*
X91793866Y-60697952D02*
X91793866Y-60888428D01*
X91793866Y-60888428D02*
X91746247Y-60983666D01*
X91746247Y-60983666D02*
X91698628Y-61031285D01*
X91698628Y-61031285D02*
X91603390Y-61078904D01*
X113262580Y-62698333D02*
X113310200Y-62650714D01*
X113310200Y-62650714D02*
X113357819Y-62507857D01*
X113357819Y-62507857D02*
X113357819Y-62412619D01*
X113357819Y-62412619D02*
X113310200Y-62269762D01*
X113310200Y-62269762D02*
X113214961Y-62174524D01*
X113214961Y-62174524D02*
X113119723Y-62126905D01*
X113119723Y-62126905D02*
X112929247Y-62079286D01*
X112929247Y-62079286D02*
X112786390Y-62079286D01*
X112786390Y-62079286D02*
X112595914Y-62126905D01*
X112595914Y-62126905D02*
X112500676Y-62174524D01*
X112500676Y-62174524D02*
X112405438Y-62269762D01*
X112405438Y-62269762D02*
X112357819Y-62412619D01*
X112357819Y-62412619D02*
X112357819Y-62507857D01*
X112357819Y-62507857D02*
X112405438Y-62650714D01*
X112405438Y-62650714D02*
X112453057Y-62698333D01*
X113357819Y-63650714D02*
X113357819Y-63079286D01*
X113357819Y-63365000D02*
X112357819Y-63365000D01*
X112357819Y-63365000D02*
X112500676Y-63269762D01*
X112500676Y-63269762D02*
X112595914Y-63174524D01*
X112595914Y-63174524D02*
X112643533Y-63079286D01*
X82528580Y-61033333D02*
X82576200Y-60985714D01*
X82576200Y-60985714D02*
X82623819Y-60842857D01*
X82623819Y-60842857D02*
X82623819Y-60747619D01*
X82623819Y-60747619D02*
X82576200Y-60604762D01*
X82576200Y-60604762D02*
X82480961Y-60509524D01*
X82480961Y-60509524D02*
X82385723Y-60461905D01*
X82385723Y-60461905D02*
X82195247Y-60414286D01*
X82195247Y-60414286D02*
X82052390Y-60414286D01*
X82052390Y-60414286D02*
X81861914Y-60461905D01*
X81861914Y-60461905D02*
X81766676Y-60509524D01*
X81766676Y-60509524D02*
X81671438Y-60604762D01*
X81671438Y-60604762D02*
X81623819Y-60747619D01*
X81623819Y-60747619D02*
X81623819Y-60842857D01*
X81623819Y-60842857D02*
X81671438Y-60985714D01*
X81671438Y-60985714D02*
X81719057Y-61033333D01*
X81719057Y-61414286D02*
X81671438Y-61461905D01*
X81671438Y-61461905D02*
X81623819Y-61557143D01*
X81623819Y-61557143D02*
X81623819Y-61795238D01*
X81623819Y-61795238D02*
X81671438Y-61890476D01*
X81671438Y-61890476D02*
X81719057Y-61938095D01*
X81719057Y-61938095D02*
X81814295Y-61985714D01*
X81814295Y-61985714D02*
X81909533Y-61985714D01*
X81909533Y-61985714D02*
X82052390Y-61938095D01*
X82052390Y-61938095D02*
X82623819Y-61366667D01*
X82623819Y-61366667D02*
X82623819Y-61985714D01*
X83137333Y-57112819D02*
X83137333Y-57827104D01*
X83137333Y-57827104D02*
X83184952Y-57969961D01*
X83184952Y-57969961D02*
X83280190Y-58065200D01*
X83280190Y-58065200D02*
X83423047Y-58112819D01*
X83423047Y-58112819D02*
X83518285Y-58112819D01*
X82518285Y-57541390D02*
X82613523Y-57493771D01*
X82613523Y-57493771D02*
X82661142Y-57446152D01*
X82661142Y-57446152D02*
X82708761Y-57350914D01*
X82708761Y-57350914D02*
X82708761Y-57303295D01*
X82708761Y-57303295D02*
X82661142Y-57208057D01*
X82661142Y-57208057D02*
X82613523Y-57160438D01*
X82613523Y-57160438D02*
X82518285Y-57112819D01*
X82518285Y-57112819D02*
X82327809Y-57112819D01*
X82327809Y-57112819D02*
X82232571Y-57160438D01*
X82232571Y-57160438D02*
X82184952Y-57208057D01*
X82184952Y-57208057D02*
X82137333Y-57303295D01*
X82137333Y-57303295D02*
X82137333Y-57350914D01*
X82137333Y-57350914D02*
X82184952Y-57446152D01*
X82184952Y-57446152D02*
X82232571Y-57493771D01*
X82232571Y-57493771D02*
X82327809Y-57541390D01*
X82327809Y-57541390D02*
X82518285Y-57541390D01*
X82518285Y-57541390D02*
X82613523Y-57589009D01*
X82613523Y-57589009D02*
X82661142Y-57636628D01*
X82661142Y-57636628D02*
X82708761Y-57731866D01*
X82708761Y-57731866D02*
X82708761Y-57922342D01*
X82708761Y-57922342D02*
X82661142Y-58017580D01*
X82661142Y-58017580D02*
X82613523Y-58065200D01*
X82613523Y-58065200D02*
X82518285Y-58112819D01*
X82518285Y-58112819D02*
X82327809Y-58112819D01*
X82327809Y-58112819D02*
X82232571Y-58065200D01*
X82232571Y-58065200D02*
X82184952Y-58017580D01*
X82184952Y-58017580D02*
X82137333Y-57922342D01*
X82137333Y-57922342D02*
X82137333Y-57731866D01*
X82137333Y-57731866D02*
X82184952Y-57636628D01*
X82184952Y-57636628D02*
X82232571Y-57589009D01*
X82232571Y-57589009D02*
X82327809Y-57541390D01*
X102562819Y-59555142D02*
X102086628Y-59221809D01*
X102562819Y-58983714D02*
X101562819Y-58983714D01*
X101562819Y-58983714D02*
X101562819Y-59364666D01*
X101562819Y-59364666D02*
X101610438Y-59459904D01*
X101610438Y-59459904D02*
X101658057Y-59507523D01*
X101658057Y-59507523D02*
X101753295Y-59555142D01*
X101753295Y-59555142D02*
X101896152Y-59555142D01*
X101896152Y-59555142D02*
X101991390Y-59507523D01*
X101991390Y-59507523D02*
X102039009Y-59459904D01*
X102039009Y-59459904D02*
X102086628Y-59364666D01*
X102086628Y-59364666D02*
X102086628Y-58983714D01*
X101562819Y-59888476D02*
X101562819Y-60507523D01*
X101562819Y-60507523D02*
X101943771Y-60174190D01*
X101943771Y-60174190D02*
X101943771Y-60317047D01*
X101943771Y-60317047D02*
X101991390Y-60412285D01*
X101991390Y-60412285D02*
X102039009Y-60459904D01*
X102039009Y-60459904D02*
X102134247Y-60507523D01*
X102134247Y-60507523D02*
X102372342Y-60507523D01*
X102372342Y-60507523D02*
X102467580Y-60459904D01*
X102467580Y-60459904D02*
X102515200Y-60412285D01*
X102515200Y-60412285D02*
X102562819Y-60317047D01*
X102562819Y-60317047D02*
X102562819Y-60031333D01*
X102562819Y-60031333D02*
X102515200Y-59936095D01*
X102515200Y-59936095D02*
X102467580Y-59888476D01*
X102562819Y-60983714D02*
X102562819Y-61174190D01*
X102562819Y-61174190D02*
X102515200Y-61269428D01*
X102515200Y-61269428D02*
X102467580Y-61317047D01*
X102467580Y-61317047D02*
X102324723Y-61412285D01*
X102324723Y-61412285D02*
X102134247Y-61459904D01*
X102134247Y-61459904D02*
X101753295Y-61459904D01*
X101753295Y-61459904D02*
X101658057Y-61412285D01*
X101658057Y-61412285D02*
X101610438Y-61364666D01*
X101610438Y-61364666D02*
X101562819Y-61269428D01*
X101562819Y-61269428D02*
X101562819Y-61078952D01*
X101562819Y-61078952D02*
X101610438Y-60983714D01*
X101610438Y-60983714D02*
X101658057Y-60936095D01*
X101658057Y-60936095D02*
X101753295Y-60888476D01*
X101753295Y-60888476D02*
X101991390Y-60888476D01*
X101991390Y-60888476D02*
X102086628Y-60936095D01*
X102086628Y-60936095D02*
X102134247Y-60983714D01*
X102134247Y-60983714D02*
X102181866Y-61078952D01*
X102181866Y-61078952D02*
X102181866Y-61269428D01*
X102181866Y-61269428D02*
X102134247Y-61364666D01*
X102134247Y-61364666D02*
X102086628Y-61412285D01*
X102086628Y-61412285D02*
X101991390Y-61459904D01*
X121866666Y-68054819D02*
X122199999Y-67578628D01*
X122438094Y-68054819D02*
X122438094Y-67054819D01*
X122438094Y-67054819D02*
X122057142Y-67054819D01*
X122057142Y-67054819D02*
X121961904Y-67102438D01*
X121961904Y-67102438D02*
X121914285Y-67150057D01*
X121914285Y-67150057D02*
X121866666Y-67245295D01*
X121866666Y-67245295D02*
X121866666Y-67388152D01*
X121866666Y-67388152D02*
X121914285Y-67483390D01*
X121914285Y-67483390D02*
X121961904Y-67531009D01*
X121961904Y-67531009D02*
X122057142Y-67578628D01*
X122057142Y-67578628D02*
X122438094Y-67578628D01*
X121533332Y-67054819D02*
X120914285Y-67054819D01*
X120914285Y-67054819D02*
X121247618Y-67435771D01*
X121247618Y-67435771D02*
X121104761Y-67435771D01*
X121104761Y-67435771D02*
X121009523Y-67483390D01*
X121009523Y-67483390D02*
X120961904Y-67531009D01*
X120961904Y-67531009D02*
X120914285Y-67626247D01*
X120914285Y-67626247D02*
X120914285Y-67864342D01*
X120914285Y-67864342D02*
X120961904Y-67959580D01*
X120961904Y-67959580D02*
X121009523Y-68007200D01*
X121009523Y-68007200D02*
X121104761Y-68054819D01*
X121104761Y-68054819D02*
X121390475Y-68054819D01*
X121390475Y-68054819D02*
X121485713Y-68007200D01*
X121485713Y-68007200D02*
X121533332Y-67959580D01*
X123174819Y-60539333D02*
X122698628Y-60206000D01*
X123174819Y-59967905D02*
X122174819Y-59967905D01*
X122174819Y-59967905D02*
X122174819Y-60348857D01*
X122174819Y-60348857D02*
X122222438Y-60444095D01*
X122222438Y-60444095D02*
X122270057Y-60491714D01*
X122270057Y-60491714D02*
X122365295Y-60539333D01*
X122365295Y-60539333D02*
X122508152Y-60539333D01*
X122508152Y-60539333D02*
X122603390Y-60491714D01*
X122603390Y-60491714D02*
X122651009Y-60444095D01*
X122651009Y-60444095D02*
X122698628Y-60348857D01*
X122698628Y-60348857D02*
X122698628Y-59967905D01*
X123174819Y-61491714D02*
X123174819Y-60920286D01*
X123174819Y-61206000D02*
X122174819Y-61206000D01*
X122174819Y-61206000D02*
X122317676Y-61110762D01*
X122317676Y-61110762D02*
X122412914Y-61015524D01*
X122412914Y-61015524D02*
X122460533Y-60920286D01*
X118661904Y-56954819D02*
X118661904Y-57764342D01*
X118661904Y-57764342D02*
X118614285Y-57859580D01*
X118614285Y-57859580D02*
X118566666Y-57907200D01*
X118566666Y-57907200D02*
X118471428Y-57954819D01*
X118471428Y-57954819D02*
X118280952Y-57954819D01*
X118280952Y-57954819D02*
X118185714Y-57907200D01*
X118185714Y-57907200D02*
X118138095Y-57859580D01*
X118138095Y-57859580D02*
X118090476Y-57764342D01*
X118090476Y-57764342D02*
X118090476Y-56954819D01*
X117090476Y-57954819D02*
X117661904Y-57954819D01*
X117376190Y-57954819D02*
X117376190Y-56954819D01*
X117376190Y-56954819D02*
X117471428Y-57097676D01*
X117471428Y-57097676D02*
X117566666Y-57192914D01*
X117566666Y-57192914D02*
X117661904Y-57240533D01*
X98061904Y-56954819D02*
X98061904Y-57764342D01*
X98061904Y-57764342D02*
X98014285Y-57859580D01*
X98014285Y-57859580D02*
X97966666Y-57907200D01*
X97966666Y-57907200D02*
X97871428Y-57954819D01*
X97871428Y-57954819D02*
X97680952Y-57954819D01*
X97680952Y-57954819D02*
X97585714Y-57907200D01*
X97585714Y-57907200D02*
X97538095Y-57859580D01*
X97538095Y-57859580D02*
X97490476Y-57764342D01*
X97490476Y-57764342D02*
X97490476Y-56954819D01*
X96585714Y-56954819D02*
X96776190Y-56954819D01*
X96776190Y-56954819D02*
X96871428Y-57002438D01*
X96871428Y-57002438D02*
X96919047Y-57050057D01*
X96919047Y-57050057D02*
X97014285Y-57192914D01*
X97014285Y-57192914D02*
X97061904Y-57383390D01*
X97061904Y-57383390D02*
X97061904Y-57764342D01*
X97061904Y-57764342D02*
X97014285Y-57859580D01*
X97014285Y-57859580D02*
X96966666Y-57907200D01*
X96966666Y-57907200D02*
X96871428Y-57954819D01*
X96871428Y-57954819D02*
X96680952Y-57954819D01*
X96680952Y-57954819D02*
X96585714Y-57907200D01*
X96585714Y-57907200D02*
X96538095Y-57859580D01*
X96538095Y-57859580D02*
X96490476Y-57764342D01*
X96490476Y-57764342D02*
X96490476Y-57526247D01*
X96490476Y-57526247D02*
X96538095Y-57431009D01*
X96538095Y-57431009D02*
X96585714Y-57383390D01*
X96585714Y-57383390D02*
X96680952Y-57335771D01*
X96680952Y-57335771D02*
X96871428Y-57335771D01*
X96871428Y-57335771D02*
X96966666Y-57383390D01*
X96966666Y-57383390D02*
X97014285Y-57431009D01*
X97014285Y-57431009D02*
X97061904Y-57526247D01*
X112722819Y-59428142D02*
X112246628Y-59094809D01*
X112722819Y-58856714D02*
X111722819Y-58856714D01*
X111722819Y-58856714D02*
X111722819Y-59237666D01*
X111722819Y-59237666D02*
X111770438Y-59332904D01*
X111770438Y-59332904D02*
X111818057Y-59380523D01*
X111818057Y-59380523D02*
X111913295Y-59428142D01*
X111913295Y-59428142D02*
X112056152Y-59428142D01*
X112056152Y-59428142D02*
X112151390Y-59380523D01*
X112151390Y-59380523D02*
X112199009Y-59332904D01*
X112199009Y-59332904D02*
X112246628Y-59237666D01*
X112246628Y-59237666D02*
X112246628Y-58856714D01*
X111818057Y-59809095D02*
X111770438Y-59856714D01*
X111770438Y-59856714D02*
X111722819Y-59951952D01*
X111722819Y-59951952D02*
X111722819Y-60190047D01*
X111722819Y-60190047D02*
X111770438Y-60285285D01*
X111770438Y-60285285D02*
X111818057Y-60332904D01*
X111818057Y-60332904D02*
X111913295Y-60380523D01*
X111913295Y-60380523D02*
X112008533Y-60380523D01*
X112008533Y-60380523D02*
X112151390Y-60332904D01*
X112151390Y-60332904D02*
X112722819Y-59761476D01*
X112722819Y-59761476D02*
X112722819Y-60380523D01*
X111818057Y-60761476D02*
X111770438Y-60809095D01*
X111770438Y-60809095D02*
X111722819Y-60904333D01*
X111722819Y-60904333D02*
X111722819Y-61142428D01*
X111722819Y-61142428D02*
X111770438Y-61237666D01*
X111770438Y-61237666D02*
X111818057Y-61285285D01*
X111818057Y-61285285D02*
X111913295Y-61332904D01*
X111913295Y-61332904D02*
X112008533Y-61332904D01*
X112008533Y-61332904D02*
X112151390Y-61285285D01*
X112151390Y-61285285D02*
X112722819Y-60713857D01*
X112722819Y-60713857D02*
X112722819Y-61332904D01*
X121866666Y-65654819D02*
X122199999Y-65178628D01*
X122438094Y-65654819D02*
X122438094Y-64654819D01*
X122438094Y-64654819D02*
X122057142Y-64654819D01*
X122057142Y-64654819D02*
X121961904Y-64702438D01*
X121961904Y-64702438D02*
X121914285Y-64750057D01*
X121914285Y-64750057D02*
X121866666Y-64845295D01*
X121866666Y-64845295D02*
X121866666Y-64988152D01*
X121866666Y-64988152D02*
X121914285Y-65083390D01*
X121914285Y-65083390D02*
X121961904Y-65131009D01*
X121961904Y-65131009D02*
X122057142Y-65178628D01*
X122057142Y-65178628D02*
X122438094Y-65178628D01*
X121485713Y-64750057D02*
X121438094Y-64702438D01*
X121438094Y-64702438D02*
X121342856Y-64654819D01*
X121342856Y-64654819D02*
X121104761Y-64654819D01*
X121104761Y-64654819D02*
X121009523Y-64702438D01*
X121009523Y-64702438D02*
X120961904Y-64750057D01*
X120961904Y-64750057D02*
X120914285Y-64845295D01*
X120914285Y-64845295D02*
X120914285Y-64940533D01*
X120914285Y-64940533D02*
X120961904Y-65083390D01*
X120961904Y-65083390D02*
X121533332Y-65654819D01*
X121533332Y-65654819D02*
X120914285Y-65654819D01*
X91342857Y-68054819D02*
X91676190Y-67578628D01*
X91914285Y-68054819D02*
X91914285Y-67054819D01*
X91914285Y-67054819D02*
X91533333Y-67054819D01*
X91533333Y-67054819D02*
X91438095Y-67102438D01*
X91438095Y-67102438D02*
X91390476Y-67150057D01*
X91390476Y-67150057D02*
X91342857Y-67245295D01*
X91342857Y-67245295D02*
X91342857Y-67388152D01*
X91342857Y-67388152D02*
X91390476Y-67483390D01*
X91390476Y-67483390D02*
X91438095Y-67531009D01*
X91438095Y-67531009D02*
X91533333Y-67578628D01*
X91533333Y-67578628D02*
X91914285Y-67578628D01*
X90961904Y-67150057D02*
X90914285Y-67102438D01*
X90914285Y-67102438D02*
X90819047Y-67054819D01*
X90819047Y-67054819D02*
X90580952Y-67054819D01*
X90580952Y-67054819D02*
X90485714Y-67102438D01*
X90485714Y-67102438D02*
X90438095Y-67150057D01*
X90438095Y-67150057D02*
X90390476Y-67245295D01*
X90390476Y-67245295D02*
X90390476Y-67340533D01*
X90390476Y-67340533D02*
X90438095Y-67483390D01*
X90438095Y-67483390D02*
X91009523Y-68054819D01*
X91009523Y-68054819D02*
X90390476Y-68054819D01*
X89438095Y-68054819D02*
X90009523Y-68054819D01*
X89723809Y-68054819D02*
X89723809Y-67054819D01*
X89723809Y-67054819D02*
X89819047Y-67197676D01*
X89819047Y-67197676D02*
X89914285Y-67292914D01*
X89914285Y-67292914D02*
X90009523Y-67340533D01*
D11*
X87627064Y-64290000D02*
X86172936Y-64290000D01*
X87627064Y-66110000D02*
X86172936Y-66110000D01*
X108227064Y-64290000D02*
X106772936Y-64290000D01*
X108227064Y-66110000D02*
X106772936Y-66110000D01*
X128827064Y-64290000D02*
X127372936Y-64290000D01*
X128827064Y-66110000D02*
X127372936Y-66110000D01*
X124090000Y-60364758D02*
X124090000Y-62035242D01*
X125910000Y-60364758D02*
X125910000Y-62035242D01*
X128827064Y-66690000D02*
X127372936Y-66690000D01*
X128827064Y-68510000D02*
X127372936Y-68510000D01*
X98027064Y-64290000D02*
X96572936Y-64290000D01*
X98027064Y-66110000D02*
X96572936Y-66110000D01*
X93290000Y-60364758D02*
X93290000Y-62035242D01*
X95110000Y-60364758D02*
X95110000Y-62035242D01*
X130190000Y-60572936D02*
X130190000Y-62027064D01*
X132010000Y-60572936D02*
X132010000Y-62027064D01*
X108227064Y-66690000D02*
X106772936Y-66690000D01*
X108227064Y-68510000D02*
X106772936Y-68510000D01*
X98027064Y-66690000D02*
X96572936Y-66690000D01*
X98027064Y-68510000D02*
X96572936Y-68510000D01*
X106000000Y-59700000D02*
X106000000Y-62700000D01*
X109000000Y-59700000D02*
X109000000Y-62700000D01*
X106100000Y-59350000D02*
X105770000Y-59590000D01*
X105770000Y-59110000D01*
X106100000Y-59350000D01*
G36*
X106100000Y-59350000D02*
G01*
X105770000Y-59590000D01*
X105770000Y-59110000D01*
X106100000Y-59350000D01*
G37*
X85400000Y-59700000D02*
X85400000Y-62700000D01*
X88400000Y-59700000D02*
X88400000Y-62700000D01*
X85500000Y-59350000D02*
X85170000Y-59590000D01*
X85170000Y-59110000D01*
X85500000Y-59350000D01*
G36*
X85500000Y-59350000D02*
G01*
X85170000Y-59590000D01*
X85170000Y-59110000D01*
X85500000Y-59350000D01*
G37*
X103490000Y-60364758D02*
X103490000Y-62035242D01*
X105310000Y-60364758D02*
X105310000Y-62035242D01*
X126600000Y-59700000D02*
X126600000Y-62700000D01*
X129600000Y-59700000D02*
X129600000Y-62700000D01*
X126700000Y-59350000D02*
X126370000Y-59590000D01*
X126370000Y-59110000D01*
X126700000Y-59350000D01*
G36*
X126700000Y-59350000D02*
G01*
X126370000Y-59590000D01*
X126370000Y-59110000D01*
X126700000Y-59350000D01*
G37*
X88990000Y-60572936D02*
X88990000Y-62027064D01*
X90810000Y-60572936D02*
X90810000Y-62027064D01*
X113890000Y-60364758D02*
X113890000Y-62035242D01*
X115710000Y-60364758D02*
X115710000Y-62035242D01*
X82890000Y-60364758D02*
X82890000Y-62035242D01*
X84710000Y-60364758D02*
X84710000Y-62035242D01*
X81728000Y-51146400D02*
X81728000Y-53746400D01*
X81728000Y-53746400D02*
X84328000Y-53746400D01*
X81728000Y-55016400D02*
X81728000Y-56346400D01*
X81728000Y-56346400D02*
X83058000Y-56346400D01*
X84328000Y-53746400D02*
X84328000Y-56346400D01*
X132648000Y-51146400D02*
X81728000Y-51146400D01*
X132648000Y-51146400D02*
X132648000Y-56346400D01*
X132648000Y-56346400D02*
X84328000Y-56346400D01*
X99390000Y-60572936D02*
X99390000Y-62027064D01*
X101210000Y-60572936D02*
X101210000Y-62027064D01*
X118627064Y-66690000D02*
X117172936Y-66690000D01*
X118627064Y-68510000D02*
X117172936Y-68510000D01*
X119990000Y-60572936D02*
X119990000Y-62027064D01*
X121810000Y-60572936D02*
X121810000Y-62027064D01*
X116400000Y-59700000D02*
X116400000Y-62700000D01*
X119400000Y-59700000D02*
X119400000Y-62700000D01*
X116500000Y-59350000D02*
X116170000Y-59590000D01*
X116170000Y-59110000D01*
X116500000Y-59350000D01*
G36*
X116500000Y-59350000D02*
G01*
X116170000Y-59590000D01*
X116170000Y-59110000D01*
X116500000Y-59350000D01*
G37*
X95800000Y-59700000D02*
X95800000Y-62700000D01*
X98800000Y-59700000D02*
X98800000Y-62700000D01*
X95900000Y-59350000D02*
X95570000Y-59590000D01*
X95570000Y-59110000D01*
X95900000Y-59350000D01*
G36*
X95900000Y-59350000D02*
G01*
X95570000Y-59590000D01*
X95570000Y-59110000D01*
X95900000Y-59350000D01*
G37*
X109590000Y-60572936D02*
X109590000Y-62027064D01*
X111410000Y-60572936D02*
X111410000Y-62027064D01*
X118627064Y-64290000D02*
X117172936Y-64290000D01*
X118627064Y-66110000D02*
X117172936Y-66110000D01*
X87627064Y-66690000D02*
X86172936Y-66690000D01*
X87627064Y-68510000D02*
X86172936Y-68510000D01*
M02*
