M48
; DRILL file {KiCad 8.0.8-8.0.8-0~ubuntu20.04.1} date 2025-01-21T23:34:21+0530
; FORMAT={-:-/ absolute / inch / decimal}
; #@! TF.CreationDate,2025-01-21T23:34:21+05:30
; #@! TF.GenerationSoftware,Kicad,Pcbnew,8.0.8-8.0.8-0~ubuntu20.04.1
; #@! TF.FileFunction,Plated,1,4,PTH
FMAT,2
INCH
; #@! TA.AperFunction,Plated,PTH,ViaDrill
T1C0.0118
; #@! TA.AperFunction,Plated,PTH,ComponentDrill
T2C0.0394
; #@! TA.AperFunction,Plated,PTH,ComponentDrill
T3C0.0433
%
G90
G05
T1
X3.2402Y-2.4764
X3.25Y-2.575
X3.25Y-2.765
X3.295Y-2.86
X3.35Y-2.305
X3.3684Y-2.4094
X3.385Y-2.24
X3.405Y-2.745
X3.43Y-2.655
X3.4331Y-2.7874
X3.455Y-2.86
X3.4803Y-2.4764
X3.4882Y-2.5197
X3.5Y-2.72
X3.5118Y-2.8543
X3.5354Y-2.6575
X3.563Y-2.6811
X3.563Y-2.855
X3.57Y-2.5191
X3.6142Y-2.6654
X3.622Y-2.4764
X3.6407Y-2.7312
X3.6583Y-2.6741
X3.6585Y-2.4414
X3.715Y-2.655
X3.7677Y-2.3386
X3.8124Y-2.87
X3.815Y-2.81
X3.835Y-2.275
X3.845Y-2.415
X3.845Y-2.57
X3.8937Y-2.4252
X3.92Y-2.21
X3.925Y-2.735
X3.9409Y-2.5669
X4.01Y-2.81
X4.015Y-2.285
X4.025Y-2.4
X4.0276Y-2.4764
X4.0984Y-2.4016
X4.105Y-2.74
X4.125Y-2.22
X4.1732Y-2.8583
X4.215Y-2.865
X4.22Y-2.765
X4.24Y-2.65
X4.248Y-2.5669
X4.2598Y-2.7835
X4.2953Y-2.4764
X4.32Y-2.02
X4.3425Y-2.6634
X4.3504Y-2.5236
X4.36Y-2.845
X4.415Y-2.225
X4.415Y-2.355
X4.4158Y-2.6884
X4.4331Y-2.4764
X4.465Y-2.865
X4.4685Y-2.5276
X4.52Y-2.02
X4.52Y-2.7057
X4.55Y-2.865
X4.5778Y-2.4449
X4.5827Y-2.3425
X4.645Y-2.82
X4.655Y-2.57
X4.7047Y-2.4646
X4.75Y-2.62
X4.7559Y-2.5669
X4.78Y-2.715
X4.81Y-2.35
X4.815Y-2.86
X4.8386Y-2.4764
X4.8425Y-2.6693
X4.905Y-2.75
X4.915Y-2.585
X4.925Y-2.85
X4.9803Y-2.3425
X5.025Y-2.22
X5.0276Y-2.5418
X5.05Y-2.665
X5.1024Y-2.4764
X5.1067Y-2.5128
X5.12Y-2.02
X5.1535Y-2.5669
X5.17Y-2.61
X5.21Y-3.115
X5.215Y-2.66
X5.22Y-2.105
X5.22Y-2.23
X5.22Y-2.35
X5.2244Y-2.4764
T2
X3.27Y-2.066
X3.27Y-2.166
X3.2717Y-3.0709
X3.37Y-2.066
X3.37Y-2.166
X3.3717Y-3.0709
X3.47Y-2.066
X3.47Y-2.166
X3.4717Y-3.0709
X3.57Y-2.066
X3.57Y-2.166
X3.6217Y-3.0709
X3.67Y-2.066
X3.67Y-2.166
X3.7217Y-3.0709
X3.77Y-2.066
X3.77Y-2.166
X3.8217Y-3.0709
X3.87Y-2.066
X3.87Y-2.166
X3.97Y-2.066
X3.97Y-2.166
X3.9717Y-3.0709
X4.07Y-2.066
X4.07Y-2.166
X4.0717Y-3.0709
X4.17Y-2.066
X4.17Y-2.166
X4.1717Y-3.0709
X4.27Y-2.066
X4.27Y-2.166
X4.3217Y-3.0709
X4.37Y-2.066
X4.37Y-2.166
X4.4217Y-3.0709
X4.47Y-2.066
X4.47Y-2.166
X4.5217Y-3.0709
X4.57Y-2.066
X4.57Y-2.166
X4.67Y-2.066
X4.67Y-2.166
X4.6717Y-3.0709
X4.77Y-2.066
X4.77Y-2.166
X4.7717Y-3.0709
X4.87Y-2.066
X4.87Y-2.166
X4.8717Y-3.0709
X4.97Y-2.066
X4.97Y-2.166
X5.07Y-2.066
X5.07Y-2.166
X5.17Y-2.066
X5.17Y-2.166
T3
X5.112Y-2.806
X5.112Y-2.906
M30
